<svg xmlns="http://www.w3.org/2000/svg" xmlns:xlink="http://www.w3.org/1999/xlink" width="990" zoomAndPan="magnify" viewBox="0 0 742.5 277.499997" height="370" preserveAspectRatio="xMidYMid meet" version="1.0"><defs><g/><clipPath id="689592caf6"><path d="M 8.269531 35.148438 L 215.039062 35.148438 L 215.039062 241.914062 L 8.269531 241.914062 Z M 8.269531 35.148438 " clip-rule="nonzero"/></clipPath></defs><g clip-path="url(#689592caf6)"><path fill="#ffffff" d="M 97.464844 128.5625 L 97.464844 105.46875 L 115.125 105.46875 C 133.535156 105.46875 145.925781 119.714844 145.925781 140.183594 C 145.925781 160.648438 133.535156 174.5625 115.125 174.5625 L 97.464844 174.5625 L 97.464844 150.828125 L 119.65625 150.828125 L 119.65625 128.5625 Z M 77.546875 150.828125 L 77.546875 197.324219 L 117.398438 197.324219 C 149.523438 197.324219 171.734375 172.269531 171.734375 139.851562 C 171.734375 107.433594 149.523438 82.707031 117.398438 82.707031 L 77.546875 82.707031 L 77.546875 128.5625 L 62.035156 128.5625 L 62.035156 150.828125 Z M 215.039062 138.53125 C 215.039062 195.96875 169.089844 241.914062 111.65625 241.914062 C 54.21875 241.914062 8.269531 195.96875 8.269531 138.53125 C 8.269531 81.09375 54.21875 35.148438 111.65625 35.148438 C 169.089844 35.148438 215.039062 81.09375 215.039062 138.53125 " fill-opacity="1" fill-rule="nonzero"/></g><g fill="#ffffff" fill-opacity="1"><g transform="translate(217.769943, 171.716516)"><g><path d="M 65.9375 -35.15625 C 65.9375 -23.800781 62.703125 -15.101562 56.234375 -9.0625 C 49.765625 -3.019531 40.425781 0 28.21875 0 L 8.6875 0 L 8.6875 -69 L 30.34375 -69 C 41.613281 -69 50.363281 -66.023438 56.59375 -60.078125 C 62.820312 -54.128906 65.9375 -45.820312 65.9375 -35.15625 Z M 50.734375 -34.78125 C 50.734375 -49.601562 44.191406 -57.015625 31.109375 -57.015625 L 23.3125 -57.015625 L 23.3125 -12.078125 L 29.59375 -12.078125 C 43.6875 -12.078125 50.734375 -19.644531 50.734375 -34.78125 Z M 50.734375 -34.78125 "/></g></g><g transform="translate(289.315699, 171.716516)"><g><path d="M 71.3125 -34.59375 C 71.3125 -23.175781 68.476562 -14.398438 62.8125 -8.265625 C 57.15625 -2.128906 49.039062 0.9375 38.46875 0.9375 C 27.894531 0.9375 19.773438 -2.128906 14.109375 -8.265625 C 8.441406 -14.398438 5.609375 -23.207031 5.609375 -34.6875 C 5.609375 -46.175781 8.445312 -54.945312 14.125 -61 C 19.8125 -67.050781 27.957031 -70.078125 38.5625 -70.078125 C 49.164062 -70.078125 57.273438 -67.023438 62.890625 -60.921875 C 68.503906 -54.816406 71.3125 -46.039062 71.3125 -34.59375 Z M 20.953125 -34.59375 C 20.953125 -26.882812 22.414062 -21.078125 25.34375 -17.171875 C 28.269531 -13.273438 32.644531 -11.328125 38.46875 -11.328125 C 50.132812 -11.328125 55.96875 -19.082031 55.96875 -34.59375 C 55.96875 -50.132812 50.164062 -57.90625 38.5625 -57.90625 C 32.738281 -57.90625 28.347656 -55.945312 25.390625 -52.03125 C 22.429688 -48.113281 20.953125 -42.300781 20.953125 -34.59375 Z M 20.953125 -34.59375 "/></g></g><g transform="translate(366.241545, 171.716516)"><g><path d="M 34.875 -38.75 L 62.25 -38.75 L 62.25 -2.96875 C 57.8125 -1.519531 53.632812 -0.507812 49.71875 0.0625 C 45.800781 0.644531 41.796875 0.9375 37.703125 0.9375 C 27.296875 0.9375 19.34375 -2.117188 13.84375 -8.234375 C 8.351562 -14.359375 5.609375 -23.144531 5.609375 -34.59375 C 5.609375 -45.726562 8.796875 -54.410156 15.171875 -60.640625 C 21.546875 -66.867188 30.378906 -69.984375 41.671875 -69.984375 C 48.753906 -69.984375 55.582031 -68.570312 62.15625 -65.75 L 57.296875 -54.03125 C 52.265625 -56.550781 47.023438 -57.8125 41.578125 -57.8125 C 35.253906 -57.8125 30.1875 -55.6875 26.375 -51.4375 C 22.570312 -47.195312 20.671875 -41.488281 20.671875 -34.3125 C 20.671875 -26.820312 22.203125 -21.101562 25.265625 -17.15625 C 28.335938 -13.207031 32.800781 -11.234375 38.65625 -11.234375 C 41.707031 -11.234375 44.804688 -11.546875 47.953125 -12.171875 L 47.953125 -26.578125 L 34.875 -26.578125 Z M 34.875 -38.75 "/></g></g><g transform="translate(436.229905, 171.716516)"><g><path d="M 48.421875 0 L 8.6875 0 L 8.6875 -69 L 48.421875 -69 L 48.421875 -57.015625 L 23.3125 -57.015625 L 23.3125 -41.859375 L 46.671875 -41.859375 L 46.671875 -29.875 L 23.3125 -29.875 L 23.3125 -12.078125 L 48.421875 -12.078125 Z M 48.421875 0 "/></g></g><g transform="translate(490.36116, 171.716516)"><g><path d="M 38 -57.8125 C 32.488281 -57.8125 28.222656 -55.742188 25.203125 -51.609375 C 22.179688 -47.472656 20.671875 -41.707031 20.671875 -34.3125 C 20.671875 -18.925781 26.445312 -11.234375 38 -11.234375 C 42.84375 -11.234375 48.707031 -12.441406 55.59375 -14.859375 L 55.59375 -2.59375 C 49.925781 -0.238281 43.601562 0.9375 36.625 0.9375 C 26.582031 0.9375 18.898438 -2.101562 13.578125 -8.1875 C 8.265625 -14.28125 5.609375 -23.019531 5.609375 -34.40625 C 5.609375 -41.582031 6.914062 -47.867188 9.53125 -53.265625 C 12.144531 -58.660156 15.894531 -62.796875 20.78125 -65.671875 C 25.675781 -68.546875 31.414062 -69.984375 38 -69.984375 C 44.695312 -69.984375 51.425781 -68.363281 58.1875 -65.125 L 53.46875 -53.234375 C 50.894531 -54.460938 48.300781 -55.53125 45.6875 -56.4375 C 43.070312 -57.351562 40.507812 -57.8125 38 -57.8125 Z M 38 -57.8125 "/></g></g><g transform="translate(551.94903, 171.716516)"><g><path d="M 71.3125 -34.59375 C 71.3125 -23.175781 68.476562 -14.398438 62.8125 -8.265625 C 57.15625 -2.128906 49.039062 0.9375 38.46875 0.9375 C 27.894531 0.9375 19.773438 -2.128906 14.109375 -8.265625 C 8.441406 -14.398438 5.609375 -23.207031 5.609375 -34.6875 C 5.609375 -46.175781 8.445312 -54.945312 14.125 -61 C 19.8125 -67.050781 27.957031 -70.078125 38.5625 -70.078125 C 49.164062 -70.078125 57.273438 -67.023438 62.890625 -60.921875 C 68.503906 -54.816406 71.3125 -46.039062 71.3125 -34.59375 Z M 20.953125 -34.59375 C 20.953125 -26.882812 22.414062 -21.078125 25.34375 -17.171875 C 28.269531 -13.273438 32.644531 -11.328125 38.46875 -11.328125 C 50.132812 -11.328125 55.96875 -19.082031 55.96875 -34.59375 C 55.96875 -50.132812 50.164062 -57.90625 38.5625 -57.90625 C 32.738281 -57.90625 28.347656 -55.945312 25.390625 -52.03125 C 22.429688 -48.113281 20.953125 -42.300781 20.953125 -34.59375 Z M 20.953125 -34.59375 "/></g></g><g transform="translate(628.874875, 171.716516)"><g><path d="M 8.6875 0 L 8.6875 -69 L 23.3125 -69 L 23.3125 0 Z M 8.6875 0 "/></g></g><g transform="translate(660.872252, 171.716516)"><g><path d="M 69.890625 0 L 51.296875 0 L 21.28125 -52.203125 L 20.859375 -52.203125 C 21.453125 -42.984375 21.75 -36.40625 21.75 -32.46875 L 21.75 0 L 8.6875 0 L 8.6875 -69 L 27.140625 -69 L 57.109375 -17.328125 L 57.4375 -17.328125 C 56.96875 -26.285156 56.734375 -32.625 56.734375 -36.34375 L 56.734375 -69 L 69.890625 -69 Z M 69.890625 0 "/></g></g></g></svg>