<?xml version="1.0" encoding="UTF-8"?>
<svg xmlns="http://www.w3.org/2000/svg" xmlns:xlink="http://www.w3.org/1999/xlink" width="21px" height="21px" viewBox="0 0 21 21" version="1.1">
<defs>
<clipPath id="clip1">
  <path d="M 0.777344 2.613281 L 20.082031 2.613281 L 20.082031 17.855469 L 0.777344 17.855469 Z M 0.777344 2.613281 "/>
</clipPath>
</defs>
<g id="surface1">
<g clip-path="url(#clip1)" clip-rule="nonzero">
<path style=" stroke:none;fill-rule:nonzero;fill:rgb(100%,100%,100%);fill-opacity:1;" d="M 3.328125 17.855469 C 3.113281 17.855469 2.941406 17.675781 2.941406 17.464844 C 2.941406 16.335938 3.003906 15.472656 3.226562 14.769531 L 1.164062 14.769531 C 0.953125 14.769531 0.78125 14.59375 0.78125 14.378906 C 0.78125 13.339844 0.886719 12.707031 1.382812 12.203125 C 1.804688 11.769531 2.484375 11.496094 3.621094 11.175781 C 3.234375 10.886719 2.949219 10.367188 2.8125 9.789062 C 2.714844 9.390625 2.6875 8.957031 2.738281 8.542969 C 2.796875 8.117188 2.949219 7.703125 3.199219 7.378906 C 3.539062 6.941406 4.050781 6.660156 4.765625 6.660156 C 5.484375 6.660156 5.996094 6.941406 6.335938 7.378906 C 6.585938 7.703125 6.738281 8.117188 6.792969 8.542969 C 6.847656 8.957031 6.820312 9.390625 6.722656 9.789062 C 6.585938 10.367188 6.300781 10.886719 5.917969 11.175781 C 6.230469 11.261719 6.511719 11.347656 6.753906 11.433594 C 7.039062 11.53125 7.277344 11.628906 7.488281 11.734375 C 7.839844 11.625 8.21875 11.515625 8.628906 11.402344 L 8.628906 10.992188 C 7.824219 10.539062 7.214844 9.503906 6.933594 8.320312 C 6.753906 7.578125 6.703125 6.773438 6.804688 6 C 6.90625 5.21875 7.175781 4.476562 7.632812 3.882812 C 8.234375 3.117188 9.144531 2.613281 10.433594 2.613281 C 11.714844 2.613281 12.628906 3.117188 13.230469 3.882812 C 13.6875 4.476562 13.953125 5.21875 14.058594 6 C 14.160156 6.773438 14.105469 7.578125 13.929688 8.320312 C 13.648438 9.503906 13.039062 10.539062 12.234375 10.992188 L 12.234375 11.402344 C 12.640625 11.515625 13.019531 11.625 13.371094 11.734375 C 13.582031 11.628906 13.824219 11.53125 14.105469 11.433594 C 14.351562 11.347656 14.632812 11.261719 14.941406 11.175781 C 14.558594 10.886719 14.273438 10.367188 14.140625 9.789062 C 14.042969 9.390625 14.011719 8.957031 14.066406 8.542969 C 14.125 8.117188 14.273438 7.703125 14.527344 7.378906 C 14.863281 6.941406 15.378906 6.660156 16.09375 6.660156 C 16.8125 6.660156 17.324219 6.941406 17.660156 7.378906 C 17.914062 7.703125 18.0625 8.117188 18.121094 8.542969 C 18.171875 8.957031 18.148438 9.390625 18.050781 9.789062 C 17.914062 10.367188 17.625 10.886719 17.238281 11.175781 C 18.378906 11.496094 19.058594 11.769531 19.480469 12.203125 C 19.976562 12.707031 20.082031 13.339844 20.082031 14.378906 C 20.082031 14.59375 19.90625 14.769531 19.695312 14.769531 L 17.632812 14.769531 C 17.859375 15.472656 17.921875 16.335938 17.921875 17.464844 C 17.921875 17.675781 17.75 17.855469 17.535156 17.855469 Z M 17.144531 17.066406 C 17.128906 15.988281 17.035156 15.207031 16.738281 14.613281 C 16.714844 14.578125 16.699219 14.542969 16.683594 14.507812 C 16.582031 14.324219 16.457031 14.148438 16.300781 13.992188 C 15.570312 13.246094 14.199219 12.75 11.765625 12.085938 C 11.589844 12.050781 11.460938 11.890625 11.460938 11.703125 L 11.460938 10.742188 C 11.460938 10.585938 11.554688 10.441406 11.707031 10.375 C 12.390625 10.105469 12.925781 9.207031 13.179688 8.136719 C 13.339844 7.484375 13.386719 6.777344 13.292969 6.109375 C 13.210938 5.457031 12.996094 4.84375 12.625 4.371094 C 12.164062 3.785156 11.453125 3.402344 10.433594 3.402344 C 9.40625 3.402344 8.699219 3.785156 8.238281 4.371094 C 7.867188 4.84375 7.652344 5.457031 7.570312 6.109375 C 7.476562 6.777344 7.523438 7.484375 7.683594 8.136719 C 7.933594 9.199219 8.460938 10.085938 9.136719 10.367188 C 9.289062 10.421875 9.402344 10.566406 9.402344 10.742188 L 9.402344 11.703125 C 9.402344 11.878906 9.289062 12.035156 9.113281 12.082031 C 6.667969 12.75 5.292969 13.246094 4.5625 13.992188 C 4.40625 14.148438 4.277344 14.324219 4.175781 14.507812 C 4.164062 14.542969 4.144531 14.578125 4.125 14.605469 C 3.824219 15.207031 3.734375 15.988281 3.714844 17.066406 Z M 3.582031 13.984375 C 3.703125 13.792969 3.84375 13.609375 4.015625 13.4375 C 4.53125 12.914062 5.265625 12.507812 6.339844 12.117188 C 6.0625 12.027344 5.746094 11.933594 5.382812 11.835938 C 5.214844 11.789062 5.101562 11.632812 5.101562 11.460938 L 5.101562 10.972656 C 5.101562 10.800781 5.210938 10.652344 5.363281 10.601562 C 5.644531 10.476562 5.863281 10.078125 5.972656 9.609375 C 6.046875 9.296875 6.070312 8.964844 6.03125 8.652344 C 5.992188 8.351562 5.894531 8.078125 5.730469 7.859375 C 5.535156 7.609375 5.222656 7.441406 4.765625 7.441406 C 4.316406 7.441406 4 7.609375 3.804688 7.859375 C 3.636719 8.078125 3.542969 8.351562 3.503906 8.652344 C 3.460938 8.964844 3.484375 9.296875 3.558594 9.609375 C 3.671875 10.09375 3.90625 10.496094 4.1875 10.609375 C 4.34375 10.667969 4.433594 10.8125 4.433594 10.972656 L 4.433594 11.460938 C 4.433594 11.644531 4.304688 11.808594 4.128906 11.84375 C 2.933594 12.167969 2.265625 12.410156 1.929688 12.753906 C 1.667969 13.019531 1.582031 13.390625 1.558594 13.984375 Z M 14.523438 12.117188 C 15.597656 12.507812 16.328125 12.914062 16.847656 13.4375 C 17.019531 13.609375 17.15625 13.792969 17.28125 13.984375 L 19.300781 13.984375 C 19.28125 13.390625 19.191406 13.019531 18.933594 12.753906 C 18.59375 12.410156 17.929688 12.167969 16.734375 11.84375 C 16.558594 11.808594 16.429688 11.644531 16.429688 11.460938 L 16.429688 10.972656 C 16.429688 10.8125 16.519531 10.667969 16.671875 10.609375 C 16.957031 10.496094 17.1875 10.09375 17.304688 9.609375 C 17.375 9.300781 17.398438 8.964844 17.359375 8.652344 C 17.320312 8.351562 17.222656 8.078125 17.058594 7.859375 C 16.859375 7.609375 16.546875 7.441406 16.09375 7.441406 C 15.640625 7.441406 15.328125 7.609375 15.132812 7.859375 C 14.964844 8.078125 14.871094 8.351562 14.828125 8.652344 C 14.789062 8.964844 14.8125 9.296875 14.886719 9.609375 C 14.996094 10.078125 15.21875 10.476562 15.5 10.601562 C 15.652344 10.652344 15.761719 10.800781 15.761719 10.972656 L 15.761719 11.460938 C 15.761719 11.632812 15.648438 11.789062 15.476562 11.835938 C 15.113281 11.933594 14.796875 12.027344 14.523438 12.117188 Z M 14.523438 12.117188 "/>
</g>
</g>
</svg>
