<?xml version="1.0" encoding="UTF-8"?>
<svg xmlns="http://www.w3.org/2000/svg" xmlns:xlink="http://www.w3.org/1999/xlink" width="21px" height="21px" viewBox="0 0 21 21" version="1.1">
<defs>
<clipPath id="clip1">
  <path d="M 1.355469 1.015625 L 19.644531 1.015625 L 19.644531 19.308594 L 1.355469 19.308594 Z M 1.355469 1.015625 "/>
</clipPath>
</defs>
<g id="surface1">
<g clip-path="url(#clip1)" clip-rule="nonzero">
<path style=" stroke:none;fill-rule:nonzero;fill:rgb(29.019608%,63.529412%,46.27451%);fill-opacity:1;" d="M 10.5 1.015625 C 7.972656 1.015625 5.929688 3.0625 5.929688 5.589844 C 5.929688 8.109375 7.972656 10.160156 10.5 10.160156 C 13.027344 10.160156 15.070312 8.109375 15.070312 5.589844 C 15.070312 3.0625 13.027344 1.015625 10.5 1.015625 Z M 10.5 12.445312 C 7.453125 12.445312 1.355469 13.972656 1.355469 17.019531 L 1.355469 19.308594 L 19.644531 19.308594 L 19.644531 17.019531 C 19.644531 13.972656 13.546875 12.445312 10.5 12.445312 Z M 10.5 12.445312 "/>
</g>
</g>
</svg>
