<?xml version="1.0" encoding="UTF-8"?>
<svg xmlns="http://www.w3.org/2000/svg" xmlns:xlink="http://www.w3.org/1999/xlink" width="24px" height="24px" viewBox="0 0 24 24" version="1.1">
<defs>
<clipPath id="clip1">
  <path d="M 1.574219 1 L 22.476562 1 L 22.476562 22.238281 L 1.574219 22.238281 Z M 1.574219 1 "/>
</clipPath>
</defs>
<g id="surface1">
<g clip-path="url(#clip1)" clip-rule="nonzero">
<path style=" stroke:none;fill-rule:nonzero;fill:rgb(29.019608%,63.529412%,46.27451%);fill-opacity:1;" d="M 1.574219 13.945312 L 1.574219 9.648438 C 1.574219 8.839844 1.691406 8.054688 1.929688 7.285156 C 2.164062 6.511719 2.507812 5.792969 2.960938 5.121094 C 3.414062 4.453125 3.953125 3.863281 4.582031 3.351562 C 5.210938 2.835938 5.902344 2.425781 6.65625 2.117188 C 7.40625 1.804688 8.191406 1.609375 9 1.523438 C 9.8125 1.445312 10.617188 1.476562 11.417969 1.632812 C 12.222656 1.785156 12.980469 2.050781 13.703125 2.425781 C 14.425781 2.800781 15.078125 3.269531 15.660156 3.835938 C 15.738281 3.917969 15.773438 4.019531 15.773438 4.132812 C 15.769531 4.246094 15.726562 4.34375 15.648438 4.425781 C 15.566406 4.507812 15.46875 4.550781 15.351562 4.554688 C 15.238281 4.554688 15.132812 4.523438 15.050781 4.445312 C 14.527344 3.941406 13.945312 3.519531 13.300781 3.183594 C 12.652344 2.847656 11.972656 2.613281 11.257812 2.476562 C 10.539062 2.335938 9.820312 2.304688 9.089844 2.378906 C 8.367188 2.453125 7.664062 2.628906 6.992188 2.90625 C 6.320312 3.183594 5.699219 3.554688 5.136719 4.011719 C 4.570312 4.46875 4.089844 5 3.683594 5.597656 C 3.28125 6.195312 2.972656 6.84375 2.761719 7.53125 C 2.550781 8.222656 2.445312 8.925781 2.445312 9.648438 L 2.445312 13.945312 C 2.445312 14.0625 2.402344 14.164062 2.320312 14.246094 C 2.230469 14.332031 2.128906 14.371094 2.007812 14.371094 C 1.886719 14.371094 1.789062 14.332031 1.699219 14.246094 C 1.617188 14.164062 1.574219 14.0625 1.574219 13.945312 Z M 2.582031 16.882812 C 2.472656 16.933594 2.398438 17.015625 2.359375 17.125 C 2.320312 17.238281 2.324219 17.347656 2.375 17.453125 C 2.714844 18.148438 3.144531 18.785156 3.664062 19.359375 C 4.183594 19.933594 4.773438 20.429688 5.433594 20.839844 C 6.09375 21.25 6.800781 21.566406 7.550781 21.777344 C 8.300781 21.992188 9.066406 22.101562 9.847656 22.105469 C 9.96875 22.105469 10.070312 22.066406 10.15625 21.980469 C 10.242188 21.898438 10.285156 21.792969 10.285156 21.675781 C 10.285156 21.558594 10.242188 21.457031 10.15625 21.371094 C 10.070312 21.289062 9.96875 21.246094 9.847656 21.246094 C 9.148438 21.242188 8.460938 21.148438 7.792969 20.957031 C 7.121094 20.761719 6.492188 20.480469 5.898438 20.113281 C 5.304688 19.746094 4.777344 19.304688 4.316406 18.789062 C 3.851562 18.273438 3.464844 17.707031 3.164062 17.085938 C 3.109375 16.976562 3.027344 16.902344 2.914062 16.867188 C 2.800781 16.824219 2.691406 16.832031 2.582031 16.882812 Z M 17.6875 11.546875 C 17.804688 11.546875 17.910156 11.507812 17.992188 11.421875 C 18.078125 11.335938 18.121094 11.238281 18.121094 11.117188 L 18.121094 9.648438 C 18.125 8.710938 17.964844 7.804688 17.648438 6.925781 C 17.613281 6.808594 17.539062 6.726562 17.429688 6.667969 C 17.320312 6.617188 17.207031 6.609375 17.089844 6.648438 C 16.976562 6.691406 16.890625 6.765625 16.835938 6.875 C 16.789062 6.988281 16.785156 7.101562 16.828125 7.210938 C 17.113281 8 17.253906 8.8125 17.25 9.648438 L 17.25 11.117188 C 17.25 11.238281 17.292969 11.335938 17.378906 11.421875 C 17.460938 11.507812 17.566406 11.546875 17.6875 11.546875 Z M 4.730469 7.253906 C 4.792969 7.144531 4.808594 7.027344 4.769531 6.910156 C 4.730469 6.789062 4.65625 6.703125 4.539062 6.648438 C 4.429688 6.597656 4.3125 6.59375 4.195312 6.636719 C 4.074219 6.683594 3.992188 6.765625 3.945312 6.882812 C 3.523438 7.757812 3.3125 8.679688 3.316406 9.648438 L 3.316406 13.945312 C 3.316406 14.367188 3.359375 14.785156 3.445312 15.199219 C 3.523438 15.617188 3.648438 16.019531 3.816406 16.410156 C 3.976562 16.800781 4.179688 17.167969 4.417969 17.523438 C 4.65625 17.875 4.929688 18.199219 5.230469 18.496094 C 5.535156 18.796875 5.863281 19.066406 6.222656 19.300781 C 6.578125 19.535156 6.953125 19.734375 7.351562 19.894531 C 7.746094 20.054688 8.152344 20.179688 8.574219 20.261719 C 8.992188 20.347656 9.417969 20.386719 9.847656 20.386719 C 9.96875 20.386719 10.070312 20.347656 10.15625 20.261719 C 10.242188 20.179688 10.285156 20.078125 10.285156 19.960938 C 10.285156 19.839844 10.242188 19.738281 10.15625 19.652344 C 10.070312 19.570312 9.96875 19.527344 9.847656 19.527344 C 9.476562 19.527344 9.109375 19.492188 8.742188 19.417969 C 8.378906 19.347656 8.023438 19.242188 7.679688 19.101562 C 7.339844 18.960938 7.011719 18.789062 6.703125 18.585938 C 6.398438 18.382812 6.109375 18.148438 5.847656 17.890625 C 5.585938 17.632812 5.351562 17.351562 5.144531 17.042969 C 4.9375 16.742188 4.761719 16.417969 4.617188 16.078125 C 4.476562 15.742188 4.367188 15.390625 4.296875 15.03125 C 4.226562 14.671875 4.1875 14.308594 4.1875 13.945312 L 4.1875 9.648438 C 4.183594 8.804688 4.367188 8.007812 4.730469 7.253906 Z M 15.945312 10.074219 C 16.066406 10.074219 16.167969 10.035156 16.253906 9.949219 C 16.335938 9.867188 16.382812 9.765625 16.382812 9.648438 C 16.382812 9.226562 16.335938 8.804688 16.253906 8.390625 C 16.167969 7.976562 16.046875 7.570312 15.882812 7.179688 C 15.714844 6.789062 15.515625 6.417969 15.277344 6.070312 C 15.039062 5.714844 14.769531 5.390625 14.464844 5.089844 C 14.164062 4.792969 13.832031 4.523438 13.476562 4.289062 C 13.117188 4.054688 12.742188 3.855469 12.347656 3.695312 C 11.949219 3.53125 11.542969 3.410156 11.121094 3.328125 C 10.699219 3.242188 10.277344 3.203125 9.847656 3.203125 C 8.351562 3.195312 7.019531 3.648438 5.839844 4.554688 C 5.746094 4.628906 5.691406 4.722656 5.679688 4.839844 C 5.664062 4.957031 5.691406 5.0625 5.765625 5.15625 C 5.835938 5.25 5.933594 5.304688 6.054688 5.320312 C 6.175781 5.335938 6.28125 5.304688 6.375 5.230469 C 7.398438 4.445312 8.554688 4.054688 9.847656 4.0625 C 10.21875 4.0625 10.585938 4.097656 10.953125 4.167969 C 11.316406 4.242188 11.667969 4.347656 12.011719 4.488281 C 12.355469 4.628906 12.679688 4.800781 12.992188 5.007812 C 13.300781 5.210938 13.585938 5.441406 13.851562 5.699219 C 14.113281 5.960938 14.347656 6.242188 14.554688 6.546875 C 14.757812 6.851562 14.933594 7.171875 15.074219 7.507812 C 15.21875 7.851562 15.324219 8.195312 15.398438 8.554688 C 15.472656 8.914062 15.507812 9.28125 15.507812 9.648438 C 15.507812 9.765625 15.554688 9.867188 15.636719 9.949219 C 15.722656 10.035156 15.824219 10.074219 15.945312 10.074219 Z M 6.597656 16.105469 C 6.53125 16.007812 6.4375 15.945312 6.320312 15.925781 C 6.203125 15.898438 6.09375 15.921875 5.992188 15.992188 C 5.894531 16.054688 5.832031 16.148438 5.808594 16.261719 C 5.789062 16.378906 5.808594 16.488281 5.875 16.585938 C 6.15625 16.996094 6.496094 17.355469 6.894531 17.664062 C 7.289062 17.96875 7.726562 18.210938 8.199219 18.382812 C 8.671875 18.550781 9.160156 18.648438 9.664062 18.664062 C 10.164062 18.683594 10.664062 18.628906 11.148438 18.492188 C 11.265625 18.460938 11.355469 18.398438 11.417969 18.289062 C 11.480469 18.1875 11.492188 18.074219 11.460938 17.960938 C 11.429688 17.84375 11.355469 17.757812 11.25 17.695312 C 11.140625 17.640625 11.027344 17.628906 10.910156 17.664062 C 10.511719 17.773438 10.109375 17.820312 9.695312 17.804688 C 9.285156 17.789062 8.882812 17.710938 8.5 17.570312 C 8.113281 17.429688 7.757812 17.238281 7.429688 16.988281 C 7.105469 16.734375 6.828125 16.441406 6.597656 16.105469 Z M 14.203125 12.226562 C 14.320312 12.226562 14.425781 12.179688 14.507812 12.101562 C 14.597656 12.015625 14.636719 11.914062 14.636719 11.792969 L 14.636719 9.648438 C 14.636719 8.863281 14.449219 8.121094 14.078125 7.429688 C 13.703125 6.734375 13.1875 6.164062 12.523438 5.726562 C 12.425781 5.664062 12.320312 5.640625 12.199219 5.664062 C 12.082031 5.683594 11.988281 5.746094 11.921875 5.84375 C 11.851562 5.945312 11.832031 6.050781 11.855469 6.164062 C 11.878906 6.285156 11.941406 6.375 12.039062 6.441406 C 12.578125 6.800781 13.003906 7.261719 13.308594 7.832031 C 13.617188 8.398438 13.769531 9.003906 13.769531 9.648438 L 13.769531 11.792969 C 13.769531 11.914062 13.808594 12.015625 13.894531 12.101562 C 13.980469 12.179688 14.082031 12.226562 14.203125 12.226562 Z M 10.285156 5.351562 C 10.285156 5.230469 10.242188 5.132812 10.15625 5.046875 C 10.070312 4.960938 9.96875 4.921875 9.847656 4.921875 C 9.535156 4.921875 9.222656 4.953125 8.914062 5.011719 C 8.605469 5.070312 8.304688 5.164062 8.015625 5.28125 C 7.726562 5.398438 7.449219 5.546875 7.1875 5.71875 C 6.925781 5.890625 6.683594 6.085938 6.460938 6.304688 C 6.242188 6.523438 6.039062 6.765625 5.867188 7.023438 C 5.691406 7.28125 5.542969 7.554688 5.425781 7.835938 C 5.304688 8.125 5.210938 8.421875 5.148438 8.726562 C 5.085938 9.027344 5.058594 9.335938 5.054688 9.648438 L 5.054688 13.945312 C 5.054688 14.0625 5.101562 14.164062 5.183594 14.246094 C 5.269531 14.332031 5.371094 14.371094 5.492188 14.371094 C 5.613281 14.371094 5.714844 14.332031 5.800781 14.246094 C 5.886719 14.164062 5.929688 14.0625 5.929688 13.945312 L 5.929688 9.648438 C 5.929688 9.394531 5.953125 9.140625 6.003906 8.894531 C 6.054688 8.644531 6.128906 8.402344 6.226562 8.167969 C 6.328125 7.933594 6.445312 7.710938 6.589844 7.5 C 6.734375 7.289062 6.898438 7.09375 7.078125 6.914062 C 7.257812 6.734375 7.457031 6.574219 7.671875 6.433594 C 7.882812 6.289062 8.113281 6.171875 8.351562 6.074219 C 8.585938 5.976562 8.832031 5.90625 9.085938 5.855469 C 9.335938 5.804688 9.589844 5.78125 9.847656 5.78125 C 9.96875 5.78125 10.070312 5.738281 10.15625 5.652344 C 10.242188 5.570312 10.285156 5.46875 10.285156 5.351562 Z M 9.847656 6.640625 C 9.496094 6.636719 9.152344 6.695312 8.820312 6.8125 C 8.710938 6.851562 8.632812 6.929688 8.585938 7.035156 C 8.539062 7.136719 8.535156 7.246094 8.574219 7.351562 C 8.613281 7.460938 8.683594 7.542969 8.789062 7.59375 C 8.894531 7.648438 9.003906 7.652344 9.113281 7.617188 C 9.277344 7.5625 9.445312 7.523438 9.621094 7.507812 C 9.792969 7.488281 9.96875 7.492188 10.140625 7.511719 C 10.316406 7.539062 10.480469 7.582031 10.648438 7.644531 C 10.808594 7.707031 10.960938 7.789062 11.101562 7.886719 C 11.246094 7.988281 11.375 8.101562 11.492188 8.230469 C 11.601562 8.363281 11.703125 8.503906 11.78125 8.65625 C 11.863281 8.808594 11.921875 8.96875 11.964844 9.136719 C 12.007812 9.304688 12.023438 9.476562 12.023438 9.648438 C 12.023438 9.765625 12.070312 9.867188 12.152344 9.949219 C 12.238281 10.035156 12.339844 10.074219 12.460938 10.074219 C 12.582031 10.074219 12.683594 10.035156 12.769531 9.949219 C 12.851562 9.867188 12.898438 9.765625 12.898438 9.648438 C 12.898438 9.246094 12.820312 8.867188 12.664062 8.496094 C 12.507812 8.128906 12.289062 7.804688 12.003906 7.519531 C 11.71875 7.238281 11.386719 7.023438 11.015625 6.867188 C 10.640625 6.714844 10.253906 6.640625 9.847656 6.640625 Z M 7.851562 7.929688 C 7.75 7.867188 7.640625 7.851562 7.523438 7.875 C 7.40625 7.902344 7.316406 7.96875 7.253906 8.070312 C 6.949219 8.554688 6.800781 9.078125 6.800781 9.648438 L 6.800781 13.945312 C 6.800781 14.0625 6.839844 14.164062 6.929688 14.246094 C 7.011719 14.332031 7.117188 14.371094 7.234375 14.371094 C 7.355469 14.371094 7.460938 14.332031 7.542969 14.246094 C 7.628906 14.164062 7.671875 14.0625 7.671875 13.945312 L 7.671875 9.648438 C 7.667969 9.242188 7.777344 8.867188 7.992188 8.519531 C 8.054688 8.417969 8.074219 8.308594 8.046875 8.195312 C 8.019531 8.078125 7.953125 7.992188 7.851562 7.929688 Z M 12.898438 11.792969 C 12.898438 11.675781 12.851562 11.574219 12.769531 11.492188 C 12.683594 11.40625 12.582031 11.367188 12.460938 11.367188 C 12.339844 11.367188 12.238281 11.40625 12.152344 11.492188 C 12.070312 11.574219 12.023438 11.675781 12.023438 11.792969 L 12.023438 13.945312 C 12.023438 14.128906 12 14.3125 11.953125 14.492188 C 11.90625 14.667969 11.835938 14.839844 11.742188 15.003906 C 11.648438 15.164062 11.539062 15.308594 11.402344 15.445312 C 11.273438 15.574219 11.125 15.691406 10.964844 15.785156 C 10.804688 15.882812 10.632812 15.953125 10.449219 16.007812 C 10.269531 16.054688 10.085938 16.085938 9.898438 16.085938 C 9.710938 16.09375 9.523438 16.070312 9.339844 16.03125 C 9.160156 15.988281 8.984375 15.921875 8.820312 15.835938 C 8.710938 15.777344 8.601562 15.765625 8.488281 15.800781 C 8.371094 15.835938 8.285156 15.902344 8.226562 16.007812 C 8.171875 16.113281 8.160156 16.222656 8.195312 16.335938 C 8.226562 16.449219 8.300781 16.535156 8.40625 16.589844 C 8.636719 16.710938 8.882812 16.804688 9.136719 16.867188 C 9.394531 16.929688 9.652344 16.953125 9.914062 16.945312 C 10.179688 16.945312 10.4375 16.902344 10.695312 16.832031 C 10.945312 16.757812 11.183594 16.65625 11.414062 16.523438 C 11.636719 16.390625 11.84375 16.230469 12.027344 16.042969 C 12.210938 15.859375 12.367188 15.652344 12.5 15.425781 C 12.628906 15.199219 12.726562 14.960938 12.792969 14.710938 C 12.863281 14.460938 12.898438 14.203125 12.898438 13.945312 Z M 9.414062 14.371094 C 9.414062 14.492188 9.457031 14.59375 9.539062 14.675781 C 9.625 14.757812 9.726562 14.804688 9.847656 14.804688 C 9.96875 14.804688 10.070312 14.757812 10.15625 14.675781 C 10.242188 14.59375 10.285156 14.492188 10.285156 14.371094 L 10.285156 12.53125 C 10.285156 12.414062 10.242188 12.308594 10.15625 12.226562 C 10.070312 12.144531 9.96875 12.101562 9.847656 12.101562 C 9.726562 12.101562 9.625 12.144531 9.539062 12.226562 C 9.457031 12.308594 9.414062 12.414062 9.414062 12.53125 Z M 9.847656 11.242188 C 9.96875 11.242188 10.070312 11.199219 10.15625 11.117188 C 10.242188 11.03125 10.285156 10.929688 10.285156 10.8125 L 10.285156 9.214844 C 10.285156 9.101562 10.242188 8.996094 10.15625 8.914062 C 10.070312 8.828125 9.96875 8.789062 9.847656 8.789062 C 9.726562 8.789062 9.625 8.828125 9.539062 8.914062 C 9.457031 8.996094 9.414062 9.101562 9.414062 9.214844 L 9.414062 10.8125 C 9.414062 10.929688 9.457031 11.03125 9.539062 11.117188 C 9.625 11.199219 9.726562 11.242188 9.847656 11.242188 Z M 22.476562 16.804688 L 22.476562 20.964844 C 22.476562 21.117188 22.445312 21.261719 22.386719 21.402344 C 22.332031 21.539062 22.246094 21.664062 22.136719 21.773438 C 22.03125 21.878906 21.90625 21.960938 21.761719 22.019531 C 21.621094 22.078125 21.476562 22.105469 21.320312 22.105469 L 14.054688 22.105469 C 13.898438 22.105469 13.75 22.078125 13.609375 22.019531 C 13.46875 21.960938 13.34375 21.878906 13.234375 21.773438 C 13.128906 21.664062 13.042969 21.539062 12.984375 21.402344 C 12.925781 21.261719 12.898438 21.117188 12.898438 20.964844 L 12.898438 16.804688 C 12.898438 16.648438 12.925781 16.507812 12.984375 16.367188 C 13.042969 16.226562 13.128906 16.101562 13.234375 15.996094 C 13.34375 15.886719 13.46875 15.804688 13.609375 15.75 C 13.75 15.691406 13.898438 15.664062 14.054688 15.664062 L 15.210938 15.664062 L 15.210938 14.84375 C 15.210938 14.519531 15.273438 14.210938 15.398438 13.910156 C 15.523438 13.609375 15.707031 13.347656 15.9375 13.117188 C 16.167969 12.886719 16.4375 12.710938 16.742188 12.585938 C 17.042969 12.464844 17.359375 12.402344 17.6875 12.402344 C 18.015625 12.402344 18.332031 12.464844 18.632812 12.585938 C 18.9375 12.710938 19.203125 12.886719 19.4375 13.117188 C 19.667969 13.347656 19.847656 13.609375 19.972656 13.910156 C 20.097656 14.210938 20.164062 14.519531 20.164062 14.84375 L 20.164062 15.664062 L 21.320312 15.664062 C 21.476562 15.664062 21.621094 15.691406 21.761719 15.75 C 21.90625 15.804688 22.03125 15.886719 22.136719 15.996094 C 22.246094 16.101562 22.332031 16.226562 22.386719 16.367188 C 22.445312 16.507812 22.476562 16.648438 22.476562 16.804688 Z M 16.085938 15.664062 L 19.289062 15.664062 L 19.289062 14.84375 C 19.289062 14.632812 19.25 14.429688 19.167969 14.238281 C 19.085938 14.042969 18.96875 13.875 18.820312 13.726562 C 18.667969 13.578125 18.496094 13.460938 18.300781 13.382812 C 18.101562 13.304688 17.898438 13.261719 17.6875 13.261719 C 17.476562 13.261719 17.269531 13.304688 17.074219 13.382812 C 16.878906 13.460938 16.703125 13.578125 16.554688 13.726562 C 16.402344 13.875 16.289062 14.042969 16.207031 14.238281 C 16.125 14.429688 16.085938 14.632812 16.085938 14.84375 Z M 21.605469 16.804688 C 21.605469 16.726562 21.578125 16.660156 21.523438 16.601562 C 21.464844 16.550781 21.398438 16.523438 21.320312 16.523438 L 14.054688 16.523438 C 13.976562 16.523438 13.90625 16.550781 13.851562 16.601562 C 13.796875 16.660156 13.769531 16.726562 13.769531 16.804688 L 13.769531 20.964844 C 13.769531 21.042969 13.796875 21.109375 13.851562 21.164062 C 13.90625 21.21875 13.976562 21.246094 14.054688 21.246094 L 21.320312 21.246094 C 21.398438 21.246094 21.464844 21.21875 21.523438 21.164062 C 21.578125 21.109375 21.605469 21.042969 21.605469 20.964844 Z M 17.6875 18.023438 C 17.570312 18.023438 17.460938 18.046875 17.351562 18.089844 C 17.246094 18.132812 17.152344 18.195312 17.070312 18.273438 C 16.992188 18.355469 16.925781 18.449219 16.882812 18.554688 C 16.835938 18.660156 16.816406 18.769531 16.816406 18.882812 C 16.816406 18.996094 16.835938 19.105469 16.882812 19.210938 C 16.925781 19.320312 16.992188 19.410156 17.070312 19.492188 C 17.152344 19.570312 17.246094 19.632812 17.351562 19.679688 C 17.460938 19.722656 17.570312 19.742188 17.6875 19.742188 C 17.804688 19.742188 17.914062 19.722656 18.019531 19.679688 C 18.128906 19.632812 18.222656 19.570312 18.304688 19.492188 C 18.382812 19.410156 18.445312 19.320312 18.492188 19.210938 C 18.535156 19.105469 18.554688 18.996094 18.554688 18.882812 C 18.554688 18.769531 18.535156 18.660156 18.492188 18.554688 C 18.445312 18.449219 18.382812 18.355469 18.304688 18.273438 C 18.222656 18.195312 18.128906 18.132812 18.019531 18.089844 C 17.914062 18.046875 17.804688 18.023438 17.6875 18.023438 Z M 17.6875 18.023438 "/>
</g>
</g>
</svg>
