<svg xmlns="http://www.w3.org/2000/svg" xmlns:xlink="http://www.w3.org/1999/xlink" width="40" zoomAndPan="magnify" viewBox="0 0 30 30.000001" height="40" preserveAspectRatio="xMidYMid meet" version="1.0"><defs><clipPath id="25b160ba86"><path d="M 4.628906 1.984375 L 21 1.984375 L 21 26 L 4.628906 26 Z M 4.628906 1.984375 " clip-rule="nonzero"/></clipPath><clipPath id="92e706acf6"><path d="M 15 17 L 25.679688 17 L 25.679688 27.386719 L 15 27.386719 Z M 15 17 " clip-rule="nonzero"/></clipPath></defs><g clip-path="url(#25b160ba86)"><path fill="#ffffff" d="M 19.3125 15.90625 C 19.464844 15.980469 19.558594 16.128906 19.558594 16.300781 C 19.558594 16.5 19.71875 16.660156 19.917969 16.660156 C 20.117188 16.660156 20.28125 16.5 20.28125 16.300781 C 20.28125 15.855469 20.03125 15.457031 19.632812 15.257812 L 15.300781 13.121094 L 15.109375 11.699219 C 15.683594 11.039062 16.140625 10.222656 16.441406 9.40625 C 16.871094 9.382812 17.210938 9.027344 17.210938 8.597656 L 17.210938 7.023438 C 17.210938 6.75 17.074219 6.503906 16.859375 6.355469 L 16.859375 6.078125 C 16.859375 3.824219 15.019531 1.984375 12.757812 1.984375 L 12.164062 1.984375 C 9.902344 1.984375 8.0625 3.824219 8.0625 6.078125 L 8.0625 6.355469 C 7.847656 6.503906 7.707031 6.75 7.707031 7.023438 L 7.707031 8.597656 C 7.707031 9.027344 8.046875 9.382812 8.476562 9.40625 C 8.777344 10.222656 9.238281 11.039062 9.808594 11.699219 L 9.617188 13.121094 L 5.285156 15.257812 C 4.886719 15.457031 4.640625 15.855469 4.640625 16.300781 L 4.640625 20.984375 C 4.640625 20.988281 4.640625 20.988281 4.640625 20.992188 C 4.640625 21.003906 4.640625 21.019531 4.644531 21.03125 C 4.644531 21.042969 4.648438 21.054688 4.648438 21.0625 C 4.652344 21.074219 4.65625 21.085938 4.660156 21.097656 C 4.664062 21.109375 4.667969 21.121094 4.671875 21.128906 C 4.675781 21.140625 4.683594 21.148438 4.6875 21.160156 C 4.691406 21.167969 4.699219 21.179688 4.707031 21.191406 C 4.710938 21.199219 4.71875 21.207031 4.726562 21.214844 C 4.734375 21.226562 4.742188 21.234375 4.75 21.242188 C 4.757812 21.25 4.765625 21.257812 4.777344 21.265625 C 4.785156 21.273438 4.796875 21.28125 4.804688 21.285156 C 4.8125 21.292969 4.824219 21.296875 4.832031 21.300781 C 4.84375 21.308594 4.855469 21.3125 4.871094 21.320312 C 4.871094 21.320312 4.875 21.320312 4.878906 21.320312 L 8.789062 22.738281 C 8.828125 22.753906 8.871094 22.757812 8.910156 22.757812 C 9.058594 22.757812 9.195312 22.667969 9.25 22.523438 C 9.316406 22.335938 9.222656 22.128906 9.035156 22.058594 L 5.359375 20.730469 L 5.359375 16.300781 C 5.359375 16.128906 5.457031 15.980469 5.605469 15.90625 L 9.765625 13.851562 L 11.363281 15.253906 L 10.058594 22.851562 L 10.054688 22.863281 C 10.03125 23.042969 10.097656 23.21875 10.226562 23.339844 L 12.101562 25.066406 C 12.203125 25.160156 12.332031 25.207031 12.460938 25.207031 C 12.589844 25.207031 12.71875 25.160156 12.816406 25.066406 L 14.691406 23.339844 C 14.820312 23.21875 14.886719 23.042969 14.863281 22.863281 L 13.554688 15.253906 L 15.152344 13.851562 Z M 9.140625 9.121094 C 9.046875 8.859375 8.796875 8.6875 8.519531 8.6875 C 8.46875 8.6875 8.429688 8.644531 8.429688 8.597656 L 8.429688 7.023438 C 8.429688 6.976562 8.46875 6.941406 8.507812 6.933594 C 8.703125 6.90625 8.839844 6.722656 8.808594 6.523438 C 8.804688 6.492188 8.792969 6.457031 8.78125 6.429688 C 8.78125 6.417969 8.78125 6.410156 8.78125 6.398438 L 8.78125 6.078125 C 8.78125 4.21875 10.300781 2.707031 12.164062 2.707031 L 12.757812 2.707031 C 14.621094 2.707031 16.136719 4.21875 16.136719 6.078125 L 16.136719 6.398438 C 16.136719 6.410156 16.136719 6.417969 16.140625 6.429688 C 16.125 6.457031 16.113281 6.492188 16.109375 6.523438 C 16.078125 6.722656 16.214844 6.90625 16.414062 6.933594 C 16.453125 6.941406 16.492188 6.976562 16.492188 7.023438 L 16.492188 8.597656 C 16.492188 8.644531 16.449219 8.6875 16.398438 8.6875 C 16.125 8.6875 15.875 8.859375 15.777344 9.121094 C 15.207031 10.699219 13.921875 12.398438 12.460938 12.398438 C 10.996094 12.398438 9.714844 10.699219 9.140625 9.121094 Z M 14.132812 22.875 L 12.460938 24.414062 L 10.785156 22.875 L 12 15.8125 L 12.214844 16.003906 C 12.285156 16.066406 12.371094 16.097656 12.460938 16.097656 C 12.546875 16.097656 12.636719 16.066406 12.703125 16.003906 L 12.921875 15.8125 Z M 12.460938 15.257812 L 10.316406 13.375 C 10.316406 13.359375 10.316406 13.34375 10.316406 13.328125 L 10.453125 12.328125 C 11.046875 12.8125 11.726562 13.117188 12.460938 13.117188 C 13.191406 13.117188 13.871094 12.8125 14.464844 12.328125 L 14.601562 13.328125 C 14.601562 13.34375 14.601562 13.359375 14.601562 13.375 Z M 12.460938 15.257812 " fill-opacity="1" fill-rule="nonzero"/></g><g clip-path="url(#92e706acf6)"><path fill="#ffffff" d="M 25.535156 21.917969 C 25.4375 21.789062 25.300781 21.703125 25.140625 21.679688 L 24.832031 21.632812 C 24.816406 21.632812 24.78125 21.625 24.773438 21.574219 C 24.765625 21.527344 24.796875 21.507812 24.808594 21.503906 L 25.085938 21.359375 C 25.230469 21.285156 25.335938 21.160156 25.382812 21.007812 C 25.429688 20.855469 25.417969 20.691406 25.34375 20.550781 L 24.71875 19.347656 C 24.5625 19.054688 24.199219 18.941406 23.90625 19.09375 L 23.628906 19.234375 C 23.617188 19.242188 23.585938 19.257812 23.546875 19.222656 C 23.511719 19.1875 23.527344 19.15625 23.535156 19.140625 L 23.671875 18.863281 C 23.820312 18.566406 23.699219 18.207031 23.402344 18.058594 L 22.191406 17.453125 C 21.894531 17.304688 21.535156 17.425781 21.386719 17.722656 L 21.246094 18 C 21.238281 18.015625 21.222656 18.046875 21.171875 18.039062 C 21.121094 18.03125 21.113281 17.996094 21.113281 17.980469 L 21.0625 17.671875 C 21.007812 17.347656 20.695312 17.125 20.371094 17.179688 L 19.03125 17.402344 C 18.875 17.429688 18.734375 17.515625 18.640625 17.644531 C 18.546875 17.777344 18.511719 17.933594 18.539062 18.09375 L 18.589844 18.398438 C 18.589844 18.414062 18.597656 18.449219 18.550781 18.472656 C 18.507812 18.496094 18.480469 18.46875 18.46875 18.460938 L 18.246094 18.242188 C 18.011719 18.011719 17.628906 18.011719 17.398438 18.25 L 16.445312 19.214844 C 16.332031 19.328125 16.273438 19.480469 16.273438 19.640625 C 16.273438 19.800781 16.339844 19.949219 16.453125 20.0625 L 16.675781 20.28125 C 16.683594 20.289062 16.710938 20.316406 16.6875 20.363281 C 16.664062 20.410156 16.628906 20.402344 16.613281 20.402344 L 16.308594 20.355469 C 15.980469 20.304688 15.671875 20.53125 15.621094 20.859375 L 15.421875 22.199219 C 15.371094 22.523438 15.597656 22.832031 15.925781 22.878906 L 16.234375 22.925781 C 16.25 22.929688 16.285156 22.933594 16.292969 22.984375 C 16.300781 23.035156 16.269531 23.054688 16.257812 23.058594 L 15.980469 23.203125 C 15.835938 23.277344 15.734375 23.402344 15.683594 23.554688 C 15.636719 23.707031 15.648438 23.871094 15.722656 24.011719 L 16.347656 25.210938 C 16.421875 25.355469 16.546875 25.460938 16.699219 25.507812 C 16.855469 25.554688 17.015625 25.542969 17.160156 25.46875 L 17.4375 25.324219 C 17.449219 25.316406 17.484375 25.300781 17.519531 25.335938 C 17.554688 25.371094 17.539062 25.40625 17.535156 25.417969 L 17.394531 25.699219 C 17.246094 25.992188 17.367188 26.355469 17.664062 26.503906 L 18.875 27.109375 C 19.171875 27.253906 19.53125 27.136719 19.679688 26.839844 L 19.820312 26.5625 C 19.828125 26.546875 19.84375 26.515625 19.894531 26.523438 C 19.945312 26.53125 19.953125 26.566406 19.953125 26.582031 L 20.003906 26.886719 C 20.054688 27.179688 20.308594 27.390625 20.597656 27.390625 C 20.628906 27.390625 20.664062 27.386719 20.695312 27.382812 L 22.035156 27.160156 C 22.191406 27.132812 22.332031 27.046875 22.425781 26.917969 C 22.519531 26.785156 22.554688 26.625 22.527344 26.46875 L 22.476562 26.164062 C 22.476562 26.148438 22.46875 26.113281 22.515625 26.089844 C 22.558594 26.066406 22.585938 26.089844 22.597656 26.101562 L 22.820312 26.320312 C 23.054688 26.550781 23.4375 26.546875 23.667969 26.3125 L 24.621094 25.347656 C 24.851562 25.109375 24.851562 24.730469 24.613281 24.5 L 24.390625 24.28125 C 24.382812 24.269531 24.355469 24.246094 24.378906 24.199219 C 24.402344 24.152344 24.4375 24.160156 24.453125 24.160156 L 24.761719 24.207031 C 24.917969 24.230469 25.078125 24.191406 25.207031 24.097656 C 25.335938 24 25.417969 23.859375 25.445312 23.703125 L 25.644531 22.363281 C 25.667969 22.203125 25.628906 22.046875 25.535156 21.917969 Z M 24.746094 23.476562 L 24.558594 23.449219 C 24.214844 23.394531 23.890625 23.566406 23.734375 23.875 C 23.578125 24.1875 23.636719 24.550781 23.886719 24.792969 L 24.023438 24.925781 L 23.238281 25.722656 L 23.101562 25.585938 C 22.855469 25.34375 22.492188 25.289062 22.183594 25.449219 C 21.871094 25.609375 21.707031 25.9375 21.765625 26.28125 L 21.796875 26.46875 L 20.695312 26.652344 L 20.664062 26.460938 C 20.609375 26.117188 20.347656 25.863281 20 25.808594 C 19.960938 25.804688 19.917969 25.800781 19.878906 25.800781 C 19.582031 25.800781 19.3125 25.964844 19.175781 26.238281 L 19.089844 26.410156 L 18.09375 25.914062 L 18.179688 25.742188 C 18.335938 25.429688 18.273438 25.066406 18.027344 24.824219 C 17.777344 24.578125 17.414062 24.523438 17.105469 24.683594 L 16.933594 24.773438 L 16.417969 23.785156 L 16.589844 23.699219 C 16.898438 23.539062 17.0625 23.210938 17.003906 22.867188 C 16.949219 22.523438 16.6875 22.265625 16.339844 22.214844 L 16.152344 22.1875 L 16.320312 21.085938 L 16.507812 21.113281 C 16.851562 21.164062 17.175781 20.996094 17.332031 20.683594 C 17.488281 20.371094 17.429688 20.011719 17.179688 19.765625 L 17.042969 19.632812 L 17.828125 18.839844 L 17.964844 18.972656 C 18.214844 19.21875 18.574219 19.273438 18.882812 19.113281 C 19.195312 18.949219 19.359375 18.625 19.300781 18.28125 L 19.269531 18.09375 L 20.367188 17.910156 L 20.402344 18.101562 C 20.457031 18.445312 20.71875 18.699219 21.0625 18.753906 C 21.410156 18.804688 21.734375 18.636719 21.890625 18.324219 L 21.976562 18.152344 L 22.972656 18.648438 L 22.886719 18.820312 C 22.730469 19.132812 22.792969 19.492188 23.042969 19.738281 C 23.289062 19.980469 23.652344 20.035156 23.960938 19.875 L 24.132812 19.785156 L 24.648438 20.773438 L 24.476562 20.863281 C 24.167969 21.023438 24.003906 21.351562 24.0625 21.695312 C 24.117188 22.039062 24.378906 22.292969 24.726562 22.347656 L 24.914062 22.375 Z M 24.746094 23.476562 " fill-opacity="1" fill-rule="nonzero"/></g><path fill="#ffffff" d="M 21.832031 19.683594 C 20.398438 18.964844 18.648438 19.550781 17.929688 20.980469 C 17.214844 22.414062 17.796875 24.164062 19.234375 24.878906 C 19.648438 25.085938 20.09375 25.183594 20.527344 25.183594 C 21.597656 25.183594 22.628906 24.597656 23.136719 23.578125 C 23.484375 22.886719 23.539062 22.097656 23.292969 21.359375 C 23.046875 20.625 22.527344 20.027344 21.832031 19.683594 Z M 22.492188 23.257812 C 21.953125 24.335938 20.632812 24.773438 19.554688 24.234375 C 18.476562 23.695312 18.035156 22.382812 18.574219 21.304688 C 18.835938 20.78125 19.285156 20.394531 19.839844 20.207031 C 20.066406 20.132812 20.300781 20.09375 20.535156 20.09375 C 20.871094 20.09375 21.203125 20.171875 21.511719 20.328125 C 22.035156 20.585938 22.425781 21.035156 22.609375 21.589844 C 22.792969 22.144531 22.753906 22.734375 22.492188 23.257812 Z M 22.492188 23.257812 " fill-opacity="1" fill-rule="nonzero"/></svg>