<?xml version="1.0" encoding="UTF-8"?>
<svg xmlns="http://www.w3.org/2000/svg" xmlns:xlink="http://www.w3.org/1999/xlink" width="21px" height="21px" viewBox="0 0 21 21" version="1.1">
<defs>
<clipPath id="clip1">
  <path d="M 1.355469 3.914062 L 19.644531 3.914062 L 19.644531 18.898438 L 1.355469 18.898438 Z M 1.355469 3.914062 "/>
</clipPath>
</defs>
<g id="surface1">
<g clip-path="url(#clip1)" clip-rule="nonzero">
<path style=" stroke:none;fill-rule:nonzero;fill:rgb(100%,100%,100%);fill-opacity:1;" d="M 1.984375 5.773438 C 1.984375 5.136719 2.503906 4.617188 3.136719 4.617188 L 16.171875 4.617188 C 16.808594 4.617188 17.324219 5.136719 17.324219 5.773438 L 17.324219 12.40625 L 15.992188 11.695312 C 16.234375 11.363281 16.371094 10.964844 16.371094 10.550781 C 16.371094 9.746094 15.882812 9.058594 15.191406 8.761719 C 15.417969 8.753906 15.636719 8.664062 15.804688 8.492188 C 15.980469 8.316406 16.074219 8.082031 16.074219 7.832031 C 16.074219 7.582031 15.980469 7.347656 15.804688 7.171875 C 15.449219 6.8125 14.953125 6.601562 14.445312 6.601562 C 13.386719 6.601562 12.519531 7.472656 12.519531 8.542969 C 12.519531 9.34375 13.007812 10.03125 13.699219 10.328125 C 13.476562 10.339844 13.257812 10.429688 13.085938 10.597656 C 13.082031 10.601562 13.078125 10.605469 13.074219 10.609375 C 12.722656 10.972656 12.730469 11.5625 13.085938 11.917969 C 13.359375 12.195312 13.714844 12.382812 14.09375 12.453125 L 14.023438 14.476562 L 3.136719 14.476562 C 2.503906 14.476562 1.984375 13.957031 1.984375 13.320312 Z M 19.015625 14.167969 C 19.015625 14.203125 19.003906 14.304688 18.898438 14.367188 L 17.777344 15.019531 C 17.628906 15.105469 17.578125 15.300781 17.664062 15.453125 L 18.660156 17.195312 C 18.851562 17.523438 18.742188 17.945312 18.410156 18.140625 C 18.078125 18.332031 17.660156 18.214844 17.46875 17.886719 L 16.472656 16.144531 C 16.429688 16.074219 16.363281 16.019531 16.28125 15.996094 C 16.253906 15.992188 16.226562 15.988281 16.199219 15.988281 C 16.144531 15.988281 16.089844 16 16.042969 16.027344 L 14.921875 16.679688 C 14.816406 16.742188 14.726562 16.699219 14.691406 16.679688 C 14.65625 16.65625 14.578125 16.597656 14.582031 16.472656 C 14.632812 15.085938 14.699219 13.09375 14.730469 12.226562 C 14.734375 12.074219 14.832031 12.003906 14.878906 11.976562 C 14.921875 11.953125 15.035156 11.902344 15.164062 11.972656 L 15.339844 12.066406 C 15.339844 12.066406 15.34375 12.066406 15.34375 12.066406 L 18.894531 13.96875 C 19 14.023438 19.011719 14.125 19.015625 14.167969 Z M 14.65625 8.625 C 14.589844 8.617188 14.515625 8.609375 14.445312 8.609375 C 14.398438 8.609375 14.375 8.589844 14.375 8.542969 C 14.375 8.496094 14.398438 8.472656 14.445312 8.472656 C 14.46875 8.472656 14.480469 8.476562 14.496094 8.492188 C 14.542969 8.542969 14.601562 8.585938 14.65625 8.625 Z M 14.230469 10.46875 C 14.300781 10.476562 14.371094 10.476562 14.445312 10.476562 C 14.492188 10.476562 14.515625 10.503906 14.515625 10.550781 C 14.515625 10.648438 14.433594 10.636719 14.394531 10.601562 C 14.34375 10.550781 14.289062 10.503906 14.230469 10.46875 Z M 14.445312 11.253906 C 14.839844 11.253906 15.144531 10.945312 15.144531 10.550781 C 15.144531 10.152344 14.839844 9.84375 14.445312 9.84375 C 13.730469 9.84375 13.152344 9.261719 13.152344 8.542969 C 13.152344 7.835938 13.746094 7.242188 14.445312 7.242188 C 14.785156 7.242188 15.117188 7.378906 15.359375 7.621094 C 15.414062 7.679688 15.445312 7.75 15.445312 7.832031 C 15.445312 7.910156 15.414062 7.988281 15.359375 8.042969 C 15.246094 8.160156 15.054688 8.160156 14.941406 8.042969 C 14.808594 7.910156 14.632812 7.835938 14.445312 7.835938 C 14.050781 7.835938 13.746094 8.144531 13.746094 8.542969 C 13.746094 8.9375 14.050781 9.246094 14.445312 9.246094 C 15.144531 9.246094 15.738281 9.84375 15.738281 10.550781 C 15.738281 10.859375 15.617188 11.160156 15.417969 11.394531 C 15.144531 11.265625 14.828125 11.273438 14.5625 11.425781 C 14.398438 11.519531 14.277344 11.660156 14.199219 11.824219 C 13.949219 11.777344 13.714844 11.652344 13.53125 11.46875 C 13.414062 11.355469 13.414062 11.164062 13.53125 11.050781 C 13.53125 11.046875 13.535156 11.042969 13.539062 11.042969 C 13.652344 10.933594 13.835938 10.933594 13.949219 11.050781 C 14.085938 11.183594 14.257812 11.253906 14.445312 11.253906 Z M 3.136719 15.113281 L 13.996094 15.113281 L 13.949219 16.453125 C 13.941406 16.773438 14.097656 17.058594 14.367188 17.222656 C 14.636719 17.386719 14.960938 17.390625 15.238281 17.230469 L 16.085938 16.738281 L 16.925781 18.207031 C 17.289062 18.839844 18.09375 19.058594 18.726562 18.6875 C 19.359375 18.324219 19.574219 17.511719 19.207031 16.875 L 18.371094 15.410156 L 19.21875 14.917969 C 19.492188 14.757812 19.648438 14.472656 19.644531 14.152344 C 19.636719 13.835938 19.472656 13.558594 19.191406 13.40625 L 17.953125 12.746094 L 17.953125 5.773438 C 17.953125 4.785156 17.15625 3.980469 16.171875 3.980469 L 3.136719 3.980469 C 2.15625 3.980469 1.355469 4.785156 1.355469 5.773438 L 1.355469 13.320312 C 1.355469 14.304688 2.15625 15.113281 3.136719 15.113281 "/>
</g>
<path style=" stroke:none;fill-rule:nonzero;fill:rgb(100%,100%,100%);fill-opacity:1;" d="M 5.273438 8.367188 C 5.519531 8.367188 5.699219 8.523438 5.746094 8.746094 L 4.804688 8.746094 C 4.847656 8.523438 5.035156 8.367188 5.273438 8.367188 Z M 4.480469 9.382812 L 6.070312 9.382812 C 6.246094 9.382812 6.386719 9.238281 6.386719 9.0625 L 6.386719 8.851562 C 6.386719 8.226562 5.898438 7.734375 5.273438 7.734375 C 4.652344 7.734375 4.164062 8.226562 4.164062 8.851562 L 4.164062 9.0625 C 4.164062 9.238281 4.304688 9.382812 4.480469 9.382812 "/>
<path style=" stroke:none;fill-rule:nonzero;fill:rgb(100%,100%,100%);fill-opacity:1;" d="M 3.570312 8.851562 C 3.570312 7.90625 4.335938 7.136719 5.273438 7.136719 C 6.214844 7.136719 6.976562 7.90625 6.976562 8.851562 L 6.976562 11.65625 C 6.976562 11.824219 6.847656 11.953125 6.683594 11.953125 C 6.519531 11.953125 6.386719 11.824219 6.386719 11.65625 L 6.386719 10.296875 C 6.386719 10.121094 6.246094 9.976562 6.070312 9.976562 L 4.480469 9.976562 C 4.304688 9.976562 4.164062 10.121094 4.164062 10.296875 L 4.164062 11.65625 C 4.164062 11.824219 4.03125 11.953125 3.871094 11.953125 C 3.707031 11.953125 3.570312 11.824219 3.570312 11.65625 Z M 3.871094 12.589844 C 4.378906 12.589844 4.792969 12.171875 4.792969 11.65625 L 4.792969 10.613281 L 5.753906 10.613281 L 5.753906 11.65625 C 5.753906 12.171875 6.171875 12.589844 6.683594 12.589844 C 7.195312 12.589844 7.609375 12.171875 7.609375 11.65625 L 7.609375 8.851562 C 7.609375 7.554688 6.5625 6.5 5.273438 6.5 C 3.988281 6.5 2.941406 7.554688 2.941406 8.851562 L 2.941406 11.65625 C 2.941406 12.171875 3.359375 12.589844 3.871094 12.589844 "/>
<path style=" stroke:none;fill-rule:nonzero;fill:rgb(100%,100%,100%);fill-opacity:1;" d="M 9.742188 8.367188 L 10.285156 8.367188 C 10.351562 8.367188 10.386719 8.40625 10.386719 8.472656 L 10.386719 10.617188 C 10.386719 10.667969 10.371094 10.722656 10.285156 10.722656 L 9.742188 10.722656 Z M 9.429688 11.359375 L 10.285156 11.359375 C 10.703125 11.359375 11.019531 11.039062 11.019531 10.617188 L 11.019531 8.472656 C 11.019531 8.050781 10.703125 7.734375 10.285156 7.734375 L 9.429688 7.734375 C 9.253906 7.734375 9.113281 7.875 9.113281 8.050781 L 9.113281 11.042969 C 9.113281 11.214844 9.253906 11.359375 9.429688 11.359375 "/>
<path style=" stroke:none;fill-rule:nonzero;fill:rgb(100%,100%,100%);fill-opacity:1;" d="M 8.519531 7.433594 C 8.519531 7.269531 8.652344 7.136719 8.816406 7.136719 L 10.285156 7.136719 C 11.003906 7.136719 11.613281 7.75 11.613281 8.472656 L 11.613281 10.617188 C 11.613281 11.34375 11.003906 11.953125 10.285156 11.953125 L 8.816406 11.953125 C 8.652344 11.953125 8.519531 11.824219 8.519531 11.65625 Z M 8.816406 12.589844 L 10.285156 12.589844 C 11.363281 12.589844 12.242188 11.707031 12.242188 10.617188 L 12.242188 8.472656 C 12.242188 7.386719 11.363281 6.5 10.285156 6.5 L 8.816406 6.5 C 8.308594 6.5 7.886719 6.921875 7.886719 7.433594 L 7.886719 11.65625 C 7.886719 12.171875 8.308594 12.589844 8.816406 12.589844 "/>
</g>
</svg>
