<?xml version="1.0" encoding="UTF-8"?>
<svg xmlns="http://www.w3.org/2000/svg" xmlns:xlink="http://www.w3.org/1999/xlink" width="21px" height="21px" viewBox="0 0 21 21" version="1.1">
<defs>
<clipPath id="clip1">
  <path d="M 1.027344 0.699219 L 19.824219 0.699219 L 19.824219 19.484375 L 1.027344 19.484375 Z M 1.027344 0.699219 "/>
</clipPath>
</defs>
<g id="surface1">
<path style=" stroke:none;fill-rule:evenodd;fill:rgb(100%,100%,100%);fill-opacity:1;" d="M 10.246094 18.839844 C 10.363281 18.871094 10.488281 18.871094 10.601562 18.839844 C 15.835938 17.519531 18.847656 10.648438 19.117188 4.589844 C 19.125 4.371094 19.035156 4.160156 18.875 4.011719 C 18.714844 3.863281 18.496094 3.796875 18.277344 3.824219 C 15.628906 4.078125 12.703125 3.105469 10.917969 1.625 C 10.636719 1.371094 10.210938 1.371094 9.929688 1.625 C 8.144531 3.105469 5.21875 4.078125 2.566406 3.828125 C 2.351562 3.800781 2.136719 3.871094 1.976562 4.015625 C 1.816406 4.160156 1.726562 4.371094 1.738281 4.589844 C 2 10.648438 5.011719 17.519531 10.246094 18.839844 Z M 10.246094 18.839844 "/>
<path style=" stroke:none;fill-rule:evenodd;fill:rgb(100%,100%,100%);fill-opacity:1;" d="M 10.421875 1.433594 C 10.246094 1.433594 10.070312 1.5 9.929688 1.625 C 8.144531 3.105469 5.21875 4.078125 2.566406 3.828125 C 2.351562 3.800781 2.136719 3.871094 1.976562 4.015625 C 1.816406 4.160156 1.726562 4.371094 1.738281 4.589844 C 1.816406 6.425781 2.148438 8.335938 2.722656 10.148438 L 10.421875 10.148438 Z M 10.421875 1.433594 "/>
<path style=" stroke:none;fill-rule:evenodd;fill:rgb(100%,100%,100%);fill-opacity:1;" d="M 10.421875 10.148438 L 10.421875 18.863281 C 10.484375 18.863281 10.542969 18.851562 10.601562 18.839844 C 14.25 17.921875 16.816406 14.304688 18.132812 10.148438 Z M 10.421875 10.148438 "/>
<g clip-path="url(#clip1)" clip-rule="nonzero">
<path style=" stroke:none;fill-rule:evenodd;fill:rgb(29.019608%,63.529412%,46.27451%);fill-opacity:1;" d="M 10.09375 19.445312 C 10.3125 19.496094 10.535156 19.496094 10.75 19.445312 C 10.75 19.445312 10.753906 19.445312 10.753906 19.445312 C 12.988281 18.878906 14.851562 17.382812 16.289062 15.359375 C 18.378906 12.421875 19.574219 8.367188 19.738281 4.617188 C 19.738281 4.613281 19.738281 4.609375 19.738281 4.609375 C 19.753906 4.207031 19.589844 3.824219 19.296875 3.550781 C 19 3.28125 18.601562 3.15625 18.207031 3.203125 C 15.738281 3.441406 13.003906 2.535156 11.332031 1.15625 C 10.804688 0.699219 10.027344 0.699219 9.511719 1.160156 C 7.851562 2.53125 5.117188 3.4375 2.640625 3.210938 C 2.238281 3.164062 1.847656 3.289062 1.554688 3.558594 C 1.261719 3.824219 1.097656 4.210938 1.113281 4.609375 C 1.113281 4.609375 1.113281 4.613281 1.113281 4.613281 C 1.277344 8.367188 2.46875 12.417969 4.558594 15.359375 C 5.996094 17.382812 7.863281 18.878906 10.09375 19.445312 Z M 17.261719 10.769531 C 16.75 12.175781 16.085938 13.496094 15.273438 14.636719 C 14.148438 16.226562 12.734375 17.460938 11.046875 18.054688 L 11.046875 10.769531 Z M 9.800781 18.054688 C 8.113281 17.460938 6.703125 16.226562 5.574219 14.636719 C 4.761719 13.496094 4.097656 12.175781 3.585938 10.769531 L 9.800781 10.769531 Z M 9.800781 2.503906 L 9.800781 9.523438 L 3.179688 9.523438 C 2.707031 7.898438 2.429688 6.203125 2.359375 4.5625 C 2.355469 4.53125 2.371094 4.496094 2.394531 4.476562 C 2.421875 4.453125 2.457031 4.441406 2.488281 4.445312 C 2.496094 4.445312 2.503906 4.445312 2.507812 4.449219 C 5.078125 4.691406 7.886719 3.84375 9.800781 2.503906 Z M 11.046875 2.503906 C 12.957031 3.84375 15.769531 4.691406 18.339844 4.441406 C 18.34375 4.441406 18.351562 4.441406 18.359375 4.441406 C 18.394531 4.433594 18.429688 4.445312 18.457031 4.472656 C 18.480469 4.496094 18.496094 4.527344 18.496094 4.5625 C 18.425781 6.199219 18.144531 7.898438 17.667969 9.523438 L 11.046875 9.523438 Z M 11.046875 2.503906 "/>
</g>
</g>
</svg>
