<svg xmlns="http://www.w3.org/2000/svg" xmlns:xlink="http://www.w3.org/1999/xlink" width="150" zoomAndPan="magnify" viewBox="0 0 112.5 112.499997" height="150" preserveAspectRatio="xMidYMid meet" version="1.0"><defs><clipPath id="32ce6ebac7"><path d="M 35 30.152344 L 78 30.152344 L 78 45 L 35 45 Z M 35 30.152344 " clip-rule="nonzero"/></clipPath><clipPath id="ab610c5ee8"><path d="M 32.21875 72 L 80.21875 72 L 80.21875 75.902344 L 32.21875 75.902344 Z M 32.21875 72 " clip-rule="nonzero"/></clipPath></defs><g clip-path="url(#32ce6ebac7)"><path fill="#4aa276" d="M 77.382812 39.539062 L 66.800781 34.847656 L 56.21875 30.152344 L 45.632812 34.847656 L 35.050781 39.539062 L 35.050781 45 L 77.382812 45 Z M 77.382812 39.539062 " fill-opacity="1" fill-rule="nonzero"/></g><path fill="#4aa276" d="M 39.21875 64.980469 C 38.589844 64.980469 38.082031 65.496094 38.082031 66.128906 C 38.082031 66.761719 38.589844 67.273438 39.21875 67.273438 L 45.929688 67.273438 C 46.558594 67.273438 47.066406 66.761719 47.066406 66.128906 C 47.066406 65.496094 46.558594 64.980469 45.929688 64.980469 L 45.550781 64.980469 L 45.550781 48.601562 L 45.929688 48.601562 C 46.558594 48.601562 47.066406 48.089844 47.066406 47.457031 C 47.066406 46.824219 46.558594 46.308594 45.929688 46.308594 L 39.21875 46.308594 C 38.589844 46.308594 38.082031 46.824219 38.082031 47.457031 C 38.082031 48.089844 38.589844 48.601562 39.21875 48.601562 L 39.597656 48.601562 L 39.597656 64.980469 Z M 39.21875 64.980469 " fill-opacity="1" fill-rule="nonzero"/><path fill="#4aa276" d="M 52.859375 64.980469 C 52.234375 64.980469 51.722656 65.496094 51.722656 66.128906 C 51.722656 66.761719 52.234375 67.273438 52.859375 67.273438 L 59.574219 67.273438 C 60.203125 67.273438 60.710938 66.761719 60.710938 66.128906 C 60.710938 65.496094 60.203125 64.980469 59.574219 64.980469 L 59.195312 64.980469 L 59.195312 48.601562 L 59.574219 48.601562 C 60.203125 48.601562 60.710938 48.089844 60.710938 47.457031 C 60.710938 46.824219 60.203125 46.308594 59.574219 46.308594 L 52.859375 46.308594 C 52.234375 46.308594 51.722656 46.824219 51.722656 47.457031 C 51.722656 48.089844 52.234375 48.601562 52.859375 48.601562 L 53.238281 48.601562 L 53.238281 64.980469 Z M 52.859375 64.980469 " fill-opacity="1" fill-rule="nonzero"/><path fill="#4aa276" d="M 66.71875 64.980469 C 66.089844 64.980469 65.582031 65.496094 65.582031 66.128906 C 65.582031 66.761719 66.089844 67.273438 66.71875 67.273438 L 73.433594 67.273438 C 74.058594 67.273438 74.570312 66.761719 74.570312 66.128906 C 74.570312 65.496094 74.058594 64.980469 73.433594 64.980469 L 73.054688 64.980469 L 73.054688 48.601562 L 73.433594 48.601562 C 74.058594 48.601562 74.570312 48.089844 74.570312 47.457031 C 74.570312 46.824219 74.058594 46.308594 73.433594 46.308594 L 66.71875 46.308594 C 66.089844 46.308594 65.582031 46.824219 65.582031 47.457031 C 65.582031 48.089844 66.089844 48.601562 66.71875 48.601562 L 67.097656 48.601562 L 67.097656 64.980469 Z M 66.71875 64.980469 " fill-opacity="1" fill-rule="nonzero"/><path fill="#4aa276" d="M 35.050781 69.675781 L 35.050781 70.332031 C 35.050781 70.933594 35.535156 71.425781 36.132812 71.425781 L 76.300781 71.425781 C 76.898438 71.425781 77.382812 70.933594 77.382812 70.332031 L 77.382812 69.675781 C 77.382812 69.074219 76.898438 68.585938 76.300781 68.585938 L 36.132812 68.585938 C 35.535156 68.585938 35.050781 69.074219 35.050781 69.675781 Z M 35.050781 69.675781 " fill-opacity="1" fill-rule="nonzero"/><g clip-path="url(#ab610c5ee8)"><path fill="#4aa276" d="M 79.117188 72.734375 L 33.316406 72.734375 C 32.71875 72.734375 32.234375 73.222656 32.234375 73.824219 L 32.234375 74.808594 C 32.234375 75.410156 32.71875 75.902344 33.316406 75.902344 L 79.117188 75.902344 C 79.714844 75.902344 80.199219 75.410156 80.199219 74.808594 L 80.199219 73.824219 C 80.199219 73.222656 79.714844 72.734375 79.117188 72.734375 Z M 79.117188 72.734375 " fill-opacity="1" fill-rule="nonzero"/></g></svg>