<svg xmlns="http://www.w3.org/2000/svg" xmlns:xlink="http://www.w3.org/1999/xlink" width="40" zoomAndPan="magnify" viewBox="0 0 30 30.000001" height="40" preserveAspectRatio="xMidYMid meet" version="1.0"><defs><clipPath id="4c0982852e"><path d="M 4.113281 3.628906 L 25.886719 3.628906 L 25.886719 25.402344 L 4.113281 25.402344 Z M 4.113281 3.628906 " clip-rule="nonzero"/></clipPath></defs><g clip-path="url(#4c0982852e)"><path fill="#ffffff" d="M 23.375 8.652344 C 23.375 8.652344 8.835938 8.652344 6.332031 8.652344 C 5.59375 8.652344 4.941406 8.507812 4.941406 7.816406 L 23.375 6.980469 L 23.375 5.304688 C 23.375 3.917969 22.25 3.628906 20.863281 3.628906 L 5.804688 6.140625 C 4.464844 6.441406 4.113281 7.007812 4.113281 7.816406 L 4.113281 22.890625 C 4.113281 24.277344 5.238281 25.402344 6.625 25.402344 L 23.375 25.402344 C 24.761719 25.402344 25.886719 24.277344 25.886719 22.890625 L 25.886719 11.167969 C 25.886719 9.78125 24.761719 8.652344 23.375 8.652344 Z M 22.539062 18.703125 C 21.613281 18.703125 20.863281 17.953125 20.863281 17.027344 C 20.863281 16.105469 21.613281 15.355469 22.539062 15.355469 C 23.460938 15.355469 24.210938 16.105469 24.210938 17.027344 C 24.210938 17.953125 23.460938 18.703125 22.539062 18.703125 Z M 22.539062 18.703125 " fill-opacity="1" fill-rule="nonzero"/></g></svg>