<?xml version="1.0" encoding="UTF-8"?>
<svg xmlns="http://www.w3.org/2000/svg" xmlns:xlink="http://www.w3.org/1999/xlink" width="20px" height="20px" viewBox="0 0 20 20" version="1.1">
<defs>
<clipPath id="clip1">
  <path d="M 3.019531 0.378906 L 17.050781 0.378906 L 17.050781 18.769531 L 3.019531 18.769531 Z M 3.019531 0.378906 "/>
</clipPath>
</defs>
<g id="surface1">
<g clip-path="url(#clip1)" clip-rule="nonzero">
<path style=" stroke:none;fill-rule:evenodd;fill:rgb(100%,100%,100%);fill-opacity:1;" d="M 15.71875 5.660156 L 16.390625 5.660156 C 16.183594 7.28125 15.292969 14.285156 14.929688 17.148438 C 14.859375 17.699219 14.382812 18.113281 13.820312 18.113281 C 11.90625 18.113281 8.292969 18.113281 6.378906 18.113281 C 5.816406 18.113281 5.339844 17.699219 5.269531 17.148438 C 5.269531 17.148438 3.808594 5.660156 3.808594 5.660156 C 3.808594 5.660156 14.253906 5.660156 14.253906 5.660156 C 14.421875 5.660156 14.558594 5.523438 14.558594 5.355469 C 14.558594 5.191406 14.421875 5.054688 14.253906 5.054688 L 3.464844 5.054688 C 3.375 5.054688 3.292969 5.089844 3.230469 5.15625 C 3.175781 5.222656 3.148438 5.308594 3.160156 5.394531 C 3.160156 5.394531 4.246094 13.972656 4.660156 17.222656 C 4.769531 18.078125 5.507812 18.71875 6.378906 18.71875 C 8.292969 18.71875 11.90625 18.71875 13.820312 18.71875 C 14.691406 18.71875 15.429688 18.078125 15.539062 17.222656 C 15.953125 13.972656 17.042969 5.394531 17.042969 5.394531 C 17.050781 5.308594 17.027344 5.222656 16.96875 5.15625 C 16.910156 5.089844 16.824219 5.054688 16.738281 5.054688 L 15.71875 5.054688 C 15.546875 5.054688 15.410156 5.191406 15.410156 5.355469 C 15.410156 5.523438 15.546875 5.660156 15.71875 5.660156 Z M 9.792969 8.621094 L 9.792969 15.152344 C 9.792969 15.316406 9.929688 15.453125 10.097656 15.453125 C 10.269531 15.453125 10.40625 15.316406 10.40625 15.152344 L 10.40625 8.621094 C 10.40625 8.457031 10.269531 8.320312 10.097656 8.320312 C 9.929688 8.320312 9.792969 8.457031 9.792969 8.621094 Z M 6.25 8.65625 L 6.792969 15.164062 C 6.808594 15.332031 6.957031 15.453125 7.125 15.441406 C 7.292969 15.425781 7.417969 15.28125 7.40625 15.113281 L 6.863281 8.605469 C 6.847656 8.441406 6.699219 8.316406 6.527344 8.332031 C 6.363281 8.347656 6.234375 8.492188 6.25 8.65625 Z M 13.25 8.605469 L 12.703125 15.113281 C 12.691406 15.28125 12.816406 15.425781 12.984375 15.441406 C 13.152344 15.453125 13.300781 15.332031 13.316406 15.164062 L 13.863281 8.65625 C 13.875 8.492188 13.75 8.347656 13.582031 8.332031 C 13.410156 8.316406 13.261719 8.441406 13.25 8.605469 Z M 7.789062 2.996094 L 3.277344 4.183594 C 3.113281 4.226562 3.015625 4.394531 3.058594 4.554688 C 3.105469 4.714844 3.273438 4.808594 3.4375 4.769531 L 16.257812 1.386719 C 16.421875 1.34375 16.519531 1.179688 16.476562 1.019531 C 16.433594 0.855469 16.261719 0.761719 16.101562 0.804688 L 11.589844 1.992188 L 11.238281 0.707031 C 11.195312 0.546875 11.027344 0.449219 10.863281 0.496094 L 7.65625 1.339844 C 7.492188 1.382812 7.394531 1.550781 7.441406 1.710938 Z M 10.996094 2.148438 L 10.722656 1.15625 C 10.722656 1.15625 8.113281 1.847656 8.113281 1.847656 L 8.382812 2.839844 Z M 10.996094 2.148438 "/>
</g>
</g>
</svg>
