<?xml version="1.0" encoding="UTF-8"?>
<svg xmlns="http://www.w3.org/2000/svg" xmlns:xlink="http://www.w3.org/1999/xlink" width="20px" height="20px" viewBox="0 0 20 20" version="1.1">
<defs>
<clipPath id="clip1">
  <path d="M 1 4.667969 L 15.332031 4.667969 L 15.332031 5.332031 L 1 5.332031 Z M 1 4.667969 "/>
</clipPath>
<clipPath id="clip2">
  <path d="M 15.332031 3.332031 L 18.894531 3.332031 L 18.894531 6.667969 L 15.332031 6.667969 Z M 15.332031 3.332031 "/>
</clipPath>
<clipPath id="clip3">
  <path d="M 0.996094 2.699219 L 15.332031 2.699219 L 15.332031 16.730469 L 0.996094 16.730469 Z M 0.996094 2.699219 "/>
</clipPath>
</defs>
<g id="surface1">
<g clip-path="url(#clip1)" clip-rule="nonzero">
<path style=" stroke:none;fill-rule:nonzero;fill:rgb(100%,100%,100%);fill-opacity:1;" d="M 14.902344 5.273438 L 1.296875 5.273438 C 1.246094 5.273438 1.207031 5.257812 1.171875 5.222656 C 1.136719 5.1875 1.121094 5.144531 1.121094 5.097656 C 1.121094 5.046875 1.136719 5.003906 1.171875 4.96875 C 1.207031 4.933594 1.246094 4.917969 1.296875 4.917969 L 14.902344 4.917969 C 14.949219 4.917969 14.988281 4.933594 15.027344 4.96875 C 15.058594 5.003906 15.078125 5.046875 15.078125 5.097656 C 15.078125 5.144531 15.058594 5.1875 15.027344 5.222656 C 14.988281 5.257812 14.949219 5.273438 14.902344 5.273438 Z M 14.902344 5.273438 "/>
</g>
<path style=" stroke:none;fill-rule:nonzero;fill:rgb(100%,100%,100%);fill-opacity:1;" d="M 2.152344 4.410156 C 2.074219 4.410156 2.019531 4.375 1.988281 4.300781 C 1.957031 4.226562 1.972656 4.160156 2.027344 4.105469 L 2.472656 3.65625 C 2.503906 3.621094 2.546875 3.605469 2.597656 3.605469 C 2.644531 3.605469 2.683594 3.621094 2.71875 3.660156 C 2.753906 3.691406 2.769531 3.734375 2.769531 3.785156 C 2.769531 3.832031 2.753906 3.875 2.722656 3.910156 L 2.277344 4.359375 C 2.242188 4.394531 2.199219 4.410156 2.152344 4.410156 Z M 2.152344 4.410156 "/>
<path style=" stroke:none;fill-rule:nonzero;fill:rgb(100%,100%,100%);fill-opacity:1;" d="M 2.597656 4.410156 C 2.546875 4.410156 2.503906 4.394531 2.472656 4.359375 L 2.027344 3.910156 C 1.992188 3.875 1.972656 3.832031 1.972656 3.785156 C 1.972656 3.734375 1.992188 3.691406 2.027344 3.65625 C 2.0625 3.621094 2.105469 3.605469 2.152344 3.605469 C 2.199219 3.605469 2.242188 3.621094 2.277344 3.65625 L 2.722656 4.105469 C 2.777344 4.160156 2.789062 4.226562 2.761719 4.300781 C 2.730469 4.375 2.675781 4.410156 2.597656 4.410156 Z M 2.597656 4.410156 "/>
<path style=" stroke:none;fill-rule:nonzero;fill:rgb(100%,100%,100%);fill-opacity:1;" d="M 14.449219 13.84375 C 14.425781 13.84375 14.394531 13.839844 14.371094 13.824219 L 12.335938 12.804688 C 12.292969 12.785156 12.261719 12.75 12.246094 12.703125 C 12.230469 12.65625 12.234375 12.609375 12.257812 12.566406 L 15.898438 5.144531 C 15.917969 5.097656 15.953125 5.066406 16 5.050781 C 16.046875 5.035156 16.089844 5.039062 16.136719 5.0625 L 18.167969 6.082031 C 18.214844 6.105469 18.246094 6.140625 18.261719 6.1875 C 18.273438 6.234375 18.269531 6.277344 18.25 6.324219 L 14.609375 13.746094 C 14.578125 13.8125 14.523438 13.84375 14.449219 13.84375 Z M 12.652344 12.566406 L 14.371094 13.425781 L 17.855469 6.324219 L 16.136719 5.460938 Z M 12.652344 12.566406 "/>
<path style=" stroke:none;fill-rule:nonzero;fill:rgb(100%,100%,100%);fill-opacity:1;" d="M 12.554688 15.308594 C 12.441406 15.308594 12.382812 15.25 12.378906 15.136719 L 12.238281 12.652344 C 12.238281 12.621094 12.242188 12.59375 12.257812 12.566406 C 12.269531 12.535156 12.292969 12.511719 12.316406 12.496094 C 12.34375 12.480469 12.371094 12.46875 12.402344 12.464844 C 12.433594 12.464844 12.464844 12.472656 12.496094 12.484375 L 14.527344 13.503906 C 14.589844 13.535156 14.621094 13.582031 14.628906 13.648438 C 14.632812 13.714844 14.609375 13.769531 14.558594 13.808594 L 12.660156 15.269531 C 12.628906 15.292969 12.59375 15.308594 12.554688 15.308594 Z M 12.609375 12.941406 L 12.710938 14.78125 L 14.117188 13.699219 Z M 12.609375 12.941406 "/>
<g clip-path="url(#clip2)" clip-rule="nonzero">
<path style=" stroke:none;fill-rule:nonzero;fill:rgb(100%,100%,100%);fill-opacity:1;" d="M 18.089844 6.421875 C 18.0625 6.421875 18.035156 6.417969 18.011719 6.402344 L 15.976562 5.382812 C 15.933594 5.363281 15.902344 5.324219 15.886719 5.277344 C 15.871094 5.230469 15.875 5.1875 15.898438 5.144531 L 16.457031 4.003906 C 16.496094 3.925781 16.546875 3.855469 16.613281 3.800781 C 16.675781 3.742188 16.75 3.699219 16.832031 3.675781 C 16.910156 3.644531 16.996094 3.636719 17.082031 3.640625 C 17.167969 3.644531 17.246094 3.667969 17.324219 3.707031 L 18.519531 4.304688 C 18.59375 4.34375 18.660156 4.394531 18.714844 4.460938 C 18.773438 4.527344 18.816406 4.601562 18.84375 4.683594 C 18.871094 4.765625 18.878906 4.847656 18.875 4.9375 C 18.871094 5.023438 18.847656 5.105469 18.808594 5.183594 L 18.25 6.324219 C 18.214844 6.390625 18.164062 6.421875 18.089844 6.421875 Z M 16.292969 5.140625 L 18.011719 6.003906 L 18.492188 5.023438 C 18.527344 4.949219 18.535156 4.875 18.507812 4.796875 C 18.480469 4.71875 18.433594 4.660156 18.359375 4.625 L 17.167969 4.027344 C 17.09375 3.992188 17.019531 3.988281 16.941406 4.011719 C 16.867188 4.039062 16.808594 4.089844 16.773438 4.160156 Z M 16.292969 5.140625 "/>
</g>
<g clip-path="url(#clip3)" clip-rule="nonzero">
<path style=" stroke:none;fill-rule:nonzero;fill:rgb(100%,100%,100%);fill-opacity:1;" d="M 14.257812 16.722656 L 1.9375 16.722656 C 1.8125 16.722656 1.691406 16.699219 1.578125 16.652344 C 1.460938 16.601562 1.359375 16.535156 1.269531 16.441406 C 1.183594 16.355469 1.113281 16.25 1.066406 16.132812 C 1.019531 16.015625 0.996094 15.894531 0.996094 15.769531 L 0.996094 3.660156 C 0.996094 3.53125 1.019531 3.410156 1.066406 3.292969 C 1.113281 3.175781 1.183594 3.074219 1.269531 2.984375 C 1.359375 2.894531 1.460938 2.824219 1.578125 2.777344 C 1.691406 2.730469 1.8125 2.703125 1.9375 2.703125 L 14.257812 2.703125 C 14.382812 2.703125 14.503906 2.730469 14.621094 2.777344 C 14.734375 2.824219 14.839844 2.894531 14.925781 2.984375 C 15.015625 3.074219 15.082031 3.175781 15.128906 3.292969 C 15.179688 3.410156 15.203125 3.53125 15.203125 3.660156 L 15.203125 7.324219 C 15.203125 7.347656 15.199219 7.378906 15.183594 7.402344 L 12.59375 12.683594 L 12.710938 14.78125 L 14.308594 13.550781 L 14.867188 12.414062 C 14.910156 12.328125 14.976562 12.296875 15.066406 12.320312 C 15.15625 12.339844 15.203125 12.398438 15.203125 12.492188 L 15.203125 15.769531 C 15.203125 15.894531 15.179688 16.015625 15.128906 16.132812 C 15.082031 16.25 15.015625 16.355469 14.925781 16.441406 C 14.839844 16.535156 14.734375 16.601562 14.621094 16.652344 C 14.503906 16.699219 14.382812 16.722656 14.257812 16.722656 Z M 1.9375 3.0625 C 1.777344 3.0625 1.636719 3.121094 1.519531 3.238281 C 1.40625 3.355469 1.347656 3.496094 1.347656 3.660156 L 1.347656 15.769531 C 1.347656 15.933594 1.40625 16.074219 1.519531 16.191406 C 1.636719 16.308594 1.777344 16.363281 1.9375 16.363281 L 14.257812 16.363281 C 14.421875 16.363281 14.558594 16.308594 14.675781 16.191406 C 14.792969 16.074219 14.847656 15.933594 14.847656 15.769531 L 14.847656 13.253906 L 14.609375 13.746094 C 14.597656 13.769531 14.582031 13.792969 14.558594 13.808594 L 12.660156 15.269531 C 12.605469 15.3125 12.542969 15.320312 12.480469 15.292969 C 12.414062 15.261719 12.378906 15.210938 12.378906 15.136719 L 12.238281 12.652344 C 12.238281 12.621094 12.242188 12.59375 12.257812 12.566406 L 14.847656 7.28125 L 14.847656 3.660156 C 14.847656 3.496094 14.792969 3.355469 14.675781 3.238281 C 14.558594 3.121094 14.421875 3.0625 14.257812 3.0625 Z M 14.449219 13.667969 Z M 14.449219 13.667969 "/>
</g>
<path style=" stroke:none;fill-rule:nonzero;fill:rgb(100%,100%,100%);fill-opacity:1;" d="M 11.542969 11.621094 L 2.878906 11.621094 C 2.832031 11.621094 2.789062 11.605469 2.753906 11.570312 C 2.71875 11.535156 2.703125 11.492188 2.703125 11.441406 C 2.703125 11.394531 2.71875 11.351562 2.753906 11.316406 C 2.789062 11.28125 2.832031 11.261719 2.878906 11.261719 L 11.542969 11.261719 C 11.59375 11.261719 11.636719 11.28125 11.667969 11.316406 C 11.707031 11.351562 11.722656 11.394531 11.722656 11.441406 C 11.722656 11.492188 11.707031 11.535156 11.667969 11.570312 C 11.636719 11.605469 11.59375 11.621094 11.542969 11.621094 Z M 11.542969 11.621094 "/>
<path style=" stroke:none;fill-rule:nonzero;fill:rgb(100%,100%,100%);fill-opacity:1;" d="M 11.542969 13.707031 L 2.878906 13.707031 C 2.832031 13.707031 2.789062 13.6875 2.753906 13.652344 C 2.71875 13.617188 2.703125 13.574219 2.703125 13.527344 C 2.703125 13.476562 2.71875 13.433594 2.753906 13.398438 C 2.789062 13.363281 2.832031 13.347656 2.878906 13.347656 L 11.542969 13.347656 C 11.59375 13.347656 11.636719 13.363281 11.667969 13.398438 C 11.707031 13.433594 11.722656 13.476562 11.722656 13.527344 C 11.722656 13.574219 11.707031 13.617188 11.667969 13.652344 C 11.636719 13.6875 11.59375 13.707031 11.542969 13.707031 Z M 11.542969 13.707031 "/>
<path style=" stroke:none;fill-rule:nonzero;fill:rgb(100%,100%,100%);fill-opacity:1;" d="M 3.023438 7.261719 C 3.160156 7.230469 3.382812 7.207031 3.605469 7.207031 C 3.925781 7.207031 4.132812 7.261719 4.285156 7.390625 C 4.417969 7.488281 4.496094 7.636719 4.496094 7.832031 C 4.496094 8.074219 4.335938 8.285156 4.074219 8.382812 L 4.074219 8.390625 C 4.308594 8.449219 4.585938 8.644531 4.585938 9.019531 C 4.589844 9.21875 4.519531 9.386719 4.375 9.519531 C 4.203125 9.683594 3.925781 9.753906 3.519531 9.753906 C 3.351562 9.757812 3.1875 9.746094 3.023438 9.726562 Z M 3.339844 8.285156 L 3.632812 8.285156 C 3.972656 8.285156 4.167969 8.105469 4.167969 7.867188 C 4.167969 7.574219 3.949219 7.457031 3.625 7.457031 C 3.480469 7.457031 3.394531 7.46875 3.339844 7.480469 Z M 3.339844 9.488281 C 3.433594 9.5 3.519531 9.503906 3.613281 9.503906 C 3.941406 9.503906 4.246094 9.378906 4.246094 9.015625 C 4.246094 8.671875 3.957031 8.53125 3.605469 8.53125 L 3.339844 8.53125 Z M 3.339844 9.488281 "/>
<path style=" stroke:none;fill-rule:nonzero;fill:rgb(100%,100%,100%);fill-opacity:1;" d="M 5.125 7.226562 L 5.445312 7.226562 L 5.445312 9.460938 L 6.503906 9.460938 L 6.503906 9.734375 L 5.125 9.734375 Z M 5.125 7.226562 "/>
<path style=" stroke:none;fill-rule:nonzero;fill:rgb(100%,100%,100%);fill-opacity:1;" d="M 8.949219 8.453125 C 8.949219 9.316406 8.429688 9.773438 7.796875 9.773438 C 7.140625 9.773438 6.683594 9.261719 6.683594 8.503906 C 6.683594 7.707031 7.171875 7.183594 7.832031 7.183594 C 8.511719 7.183594 8.949219 7.710938 8.949219 8.453125 Z M 7.023438 8.496094 C 7.023438 9.03125 7.308594 9.511719 7.816406 9.511719 C 8.324219 9.511719 8.609375 9.035156 8.609375 8.46875 C 8.609375 7.972656 8.351562 7.449219 7.816406 7.449219 C 7.289062 7.449219 7.023438 7.945312 7.023438 8.496094 Z M 7.023438 8.496094 "/>
<path style=" stroke:none;fill-rule:nonzero;fill:rgb(100%,100%,100%);fill-opacity:1;" d="M 11.359375 9.621094 C 11.113281 9.710938 10.859375 9.757812 10.597656 9.761719 C 10.222656 9.761719 9.914062 9.660156 9.671875 9.425781 C 9.457031 9.21875 9.324219 8.886719 9.324219 8.496094 C 9.332031 7.746094 9.839844 7.199219 10.667969 7.199219 C 10.957031 7.199219 11.179688 7.261719 11.285156 7.316406 L 11.207031 7.582031 C 11.074219 7.519531 10.910156 7.472656 10.660156 7.472656 C 10.058594 7.472656 9.664062 7.851562 9.664062 8.480469 C 9.664062 9.113281 10.042969 9.492188 10.621094 9.492188 C 10.832031 9.492188 10.972656 9.460938 11.046875 9.425781 L 11.046875 8.675781 L 10.542969 8.675781 L 10.542969 8.417969 L 11.359375 8.417969 Z M 11.359375 9.621094 "/>
</g>
</svg>
