<?xml version="1.0" encoding="UTF-8"?>
<svg xmlns="http://www.w3.org/2000/svg" xmlns:xlink="http://www.w3.org/1999/xlink" width="20px" height="20px" viewBox="0 0 20 20" version="1.1">
<defs>
<clipPath id="clip1">
  <path d="M 2.667969 1.933594 L 13.332031 1.933594 L 13.332031 14.667969 L 2.667969 14.667969 Z M 2.667969 1.933594 "/>
</clipPath>
<clipPath id="clip2">
  <path d="M 13.332031 1.933594 L 17.742188 1.933594 L 17.742188 9 L 13.332031 9 Z M 13.332031 1.933594 "/>
</clipPath>
<clipPath id="clip3">
  <path d="M 2.257812 14.667969 L 5.332031 14.667969 L 5.332031 17.417969 L 2.257812 17.417969 Z M 2.257812 14.667969 "/>
</clipPath>
<clipPath id="clip4">
  <path d="M 4 4 L 17.742188 4 L 17.742188 16.667969 L 4 16.667969 Z M 4 4 "/>
</clipPath>
</defs>
<g id="surface1">
<path style=" stroke:none;fill-rule:nonzero;fill:rgb(100%,100%,100%);fill-opacity:1;" d="M 8.558594 10.183594 L 8.558594 8.980469 C 8.558594 8.847656 8.449219 8.738281 8.316406 8.738281 L 6.628906 8.738281 C 6.496094 8.738281 6.386719 8.847656 6.386719 8.980469 L 6.386719 10.183594 C 6.386719 10.316406 6.496094 10.425781 6.628906 10.425781 L 8.316406 10.425781 C 8.449219 10.425781 8.558594 10.316406 8.558594 10.183594 Z M 8.074219 9.941406 L 6.871094 9.941406 L 8.074219 9.21875 Z M 8.074219 9.941406 "/>
<path style=" stroke:none;fill-rule:nonzero;fill:rgb(100%,100%,100%);fill-opacity:1;" d="M 9.160156 7.050781 L 11.089844 7.050781 C 11.222656 7.050781 11.320312 6.953125 11.332031 6.820312 C 11.285156 6.734375 11.222656 6.652344 11.152344 6.578125 C 11.140625 6.566406 11.113281 6.566406 11.089844 6.566406 L 9.160156 6.566406 C 9.027344 6.566406 8.921875 6.675781 8.921875 6.808594 C 8.921875 6.941406 9.027344 7.050781 9.160156 7.050781 Z M 9.160156 7.050781 "/>
<g clip-path="url(#clip1)" clip-rule="nonzero">
<path style=" stroke:none;fill-rule:nonzero;fill:rgb(100%,100%,100%);fill-opacity:1;" d="M 10.308594 2.550781 L 11.707031 3.816406 C 12.371094 3.984375 12.875 4.261719 13.25 4.566406 L 10.632812 2.1875 C 10.34375 1.933594 9.886719 1.933594 9.582031 2.1875 L 2.84375 8.265625 C 2.746094 8.351562 2.734375 8.507812 2.832031 8.605469 C 2.914062 8.699219 3.074219 8.714844 3.167969 8.617188 L 3.734375 8.109375 L 3.734375 14.210938 L 4.21875 13.875 L 4.21875 7.769531 C 4.21875 7.746094 4.21875 7.722656 4.207031 7.699219 L 9.898438 2.550781 C 10.003906 2.453125 10.199219 2.453125 10.308594 2.550781 Z M 10.308594 2.550781 "/>
</g>
<path style=" stroke:none;fill-rule:nonzero;fill:rgb(100%,100%,100%);fill-opacity:1;" d="M 5.542969 11.148438 L 5.542969 12.957031 L 6.027344 12.621094 L 6.027344 11.390625 L 7.785156 11.390625 L 8.472656 10.90625 L 5.785156 10.90625 C 5.652344 10.90625 5.542969 11.015625 5.542969 11.148438 Z M 5.542969 11.148438 "/>
<path style=" stroke:none;fill-rule:nonzero;fill:rgb(100%,100%,100%);fill-opacity:1;" d="M 16.035156 14.527344 L 9.402344 14.527344 L 9.402344 14.105469 L 8.921875 14.441406 L 8.921875 15.972656 L 6.703125 15.972656 L 6.003906 16.457031 L 16.277344 16.457031 C 16.410156 16.457031 16.519531 16.347656 16.519531 16.214844 L 16.519531 13.34375 L 16.035156 13.683594 Z M 16.035156 15.972656 L 9.402344 15.972656 L 9.402344 15.007812 L 16.035156 15.007812 Z M 16.035156 15.972656 "/>
<g clip-path="url(#clip2)" clip-rule="nonzero">
<path style=" stroke:none;fill-rule:nonzero;fill:rgb(100%,100%,100%);fill-opacity:1;" d="M 16.15625 4.152344 C 16.023438 4.152344 15.914062 4.261719 15.914062 4.394531 L 15.914062 6.925781 L 15.191406 6.277344 L 15.191406 3.550781 C 15.191406 3.417969 15.082031 3.308594 14.949219 3.308594 C 14.816406 3.308594 14.707031 3.417969 14.707031 3.550781 L 14.707031 5.84375 L 13.984375 5.191406 L 13.984375 2.222656 C 13.984375 2.089844 13.878906 1.984375 13.746094 1.984375 C 13.613281 1.984375 13.503906 2.089844 13.503906 2.222656 L 13.503906 4.746094 C 13.613281 4.839844 13.707031 4.9375 13.78125 5.023438 C 13.792969 5.035156 13.804688 5.046875 13.816406 5.058594 C 13.839844 5.09375 13.878906 5.121094 13.902344 5.15625 C 13.914062 5.167969 13.914062 5.167969 13.925781 5.179688 C 13.949219 5.214844 13.972656 5.238281 13.984375 5.261719 C 14.035156 5.324219 14.070312 5.371094 14.082031 5.410156 L 15.011719 6.761719 L 16.058594 7.699219 C 16.046875 7.722656 16.046875 7.746094 16.046875 7.769531 L 16.046875 8.265625 L 16.53125 8.964844 L 16.53125 8.109375 L 17.097656 8.617188 C 17.144531 8.652344 17.207031 8.675781 17.253906 8.675781 C 17.316406 8.675781 17.386719 8.652344 17.433594 8.589844 C 17.519531 8.496094 17.519531 8.339844 17.410156 8.253906 L 16.398438 7.347656 L 16.398438 4.394531 C 16.398438 4.261719 16.289062 4.152344 16.15625 4.152344 Z M 16.15625 4.152344 "/>
</g>
<g clip-path="url(#clip3)" clip-rule="nonzero">
<path style=" stroke:none;fill-rule:nonzero;fill:rgb(100%,100%,100%);fill-opacity:1;" d="M 2.710938 15.527344 C 2.394531 15.742188 2.3125 16.175781 2.527344 16.488281 L 2.949219 17.117188 C 3.082031 17.308594 3.289062 17.417969 3.519531 17.417969 C 3.664062 17.417969 3.796875 17.371094 3.917969 17.300781 L 5.050781 16.515625 L 3.820312 14.742188 Z M 4.097656 16.09375 C 4.097656 16.226562 3.988281 16.332031 3.855469 16.332031 C 3.722656 16.332031 3.613281 16.226562 3.613281 16.09375 C 3.613281 15.960938 3.722656 15.851562 3.855469 15.851562 C 3.988281 15.851562 4.097656 15.960938 4.097656 16.09375 Z M 4.097656 16.09375 "/>
</g>
<g clip-path="url(#clip4)" clip-rule="nonzero">
<path style=" stroke:none;fill-rule:nonzero;fill:rgb(100%,100%,100%);fill-opacity:1;" d="M 16.902344 10.386719 C 16.84375 10.292969 16.722656 10.253906 16.628906 10.292969 L 15.734375 10.605469 L 15.589844 10.386719 L 16.144531 9.519531 C 16.191406 9.4375 16.191406 9.328125 16.144531 9.253906 L 13.671875 5.675781 C 13.589844 5.542969 12.695312 4.152344 10.574219 4.152344 C 10.1875 4.152344 9.777344 4.203125 9.355469 4.300781 C 9.246094 4.324219 9.160156 4.410156 9.160156 4.515625 C 9.152344 4.625 9.222656 4.722656 9.316406 4.757812 C 9.34375 4.769531 11.527344 5.550781 12.03125 7.183594 L 11.175781 8.425781 C 11.113281 8.507812 11.113281 8.617188 11.175781 8.699219 L 11.597656 9.316406 L 4.21875 14.464844 L 5.460938 16.238281 L 12.828125 11.160156 C 12.828125 11.160156 12.828125 11.160156 12.828125 11.171875 L 13.007812 11.4375 C 13.070312 11.523438 13.167969 11.558594 13.273438 11.535156 L 14.070312 11.316406 L 14.285156 11.628906 L 13.753906 12.390625 C 13.695312 12.472656 13.695312 12.582031 13.753906 12.667969 L 14.285156 13.453125 C 14.417969 13.644531 14.625 13.753906 14.855469 13.753906 C 14.996094 13.753906 15.128906 13.707031 15.253906 13.632812 L 17.289062 12.210938 C 17.605469 11.992188 17.6875 11.558594 17.472656 11.246094 Z M 14.238281 8.820312 C 14.203125 8.847656 14.152344 8.855469 14.105469 8.855469 C 14.035156 8.855469 13.949219 8.820312 13.902344 8.75 L 13.175781 7.664062 C 13.105469 7.554688 13.128906 7.398438 13.238281 7.324219 C 13.347656 7.253906 13.503906 7.277344 13.574219 7.398438 L 14.300781 8.484375 C 14.382812 8.589844 14.347656 8.738281 14.238281 8.820312 Z M 14.238281 8.820312 "/>
</g>
</g>
</svg>
