<?xml version="1.0" encoding="UTF-8"?>
<svg xmlns="http://www.w3.org/2000/svg" xmlns:xlink="http://www.w3.org/1999/xlink" width="24px" height="24px" viewBox="0 0 24 24" version="1.1">
<defs>
<clipPath id="clip1">
  <path d="M 1.691406 1.398438 L 22.59375 1.398438 L 22.59375 21.71875 L 1.691406 21.71875 Z M 1.691406 1.398438 "/>
</clipPath>
</defs>
<g id="surface1">
<g clip-path="url(#clip1)" clip-rule="nonzero">
<path style=" stroke:none;fill-rule:nonzero;fill:rgb(29.019608%,63.529412%,46.27451%);fill-opacity:1;" d="M 22.582031 21.351562 L 21.875 10.855469 C 21.875 10.671875 21.726562 10.523438 21.539062 10.523438 L 19.898438 10.523438 L 19.898438 10.140625 C 19.898438 9.585938 19.648438 9.085938 19.25 8.726562 C 19.132812 8.621094 19.007812 8.527344 18.867188 8.449219 L 18.664062 5.429688 C 18.664062 5.25 18.515625 5.101562 18.332031 5.101562 L 15.410156 5.101562 L 15.410156 4.34375 C 15.410156 3.535156 15.042969 2.796875 14.453125 2.265625 C 13.871094 1.742188 13.070312 1.414062 12.191406 1.414062 C 11.722656 1.414062 11.277344 1.507812 10.878906 1.671875 C 10.476562 1.507812 10.03125 1.414062 9.566406 1.414062 C 8.683594 1.414062 7.882812 1.742188 7.304688 2.265625 C 6.710938 2.796875 6.347656 3.535156 6.347656 4.34375 L 6.347656 5.101562 L 5.710938 5.101562 C 5.699219 5.101562 5.691406 5.101562 5.683594 5.101562 L 3.628906 5.101562 C 3.457031 5.101562 3.308594 5.230469 3.292969 5.398438 L 1.691406 21.335938 L 1.691406 21.371094 C 1.691406 21.554688 1.84375 21.699219 2.027344 21.699219 L 6.574219 21.648438 C 6.628906 21.679688 6.691406 21.699219 6.757812 21.699219 L 22.269531 21.699219 C 22.453125 21.6875 22.59375 21.53125 22.582031 21.351562 Z M 19.226562 10.140625 L 19.226562 10.523438 L 19.007812 10.523438 L 18.929688 9.351562 C 19.117188 9.570312 19.226562 9.84375 19.226562 10.140625 Z M 15.542969 10.523438 L 14.0625 10.523438 L 14.0625 10.140625 C 14.0625 9.777344 14.226562 9.449219 14.492188 9.210938 C 14.769531 8.960938 15.148438 8.808594 15.570312 8.808594 C 15.734375 8.808594 15.890625 8.835938 16.039062 8.878906 C 15.726562 9.222656 15.542969 9.660156 15.542969 10.136719 Z M 16.214844 10.140625 C 16.214844 9.78125 16.382812 9.453125 16.644531 9.210938 C 16.910156 9.453125 17.070312 9.78125 17.070312 10.140625 L 17.070312 10.523438 L 16.214844 10.523438 Z M 17.25 8.878906 C 17.398438 8.835938 17.554688 8.808594 17.722656 8.808594 C 17.898438 8.808594 18.070312 8.835938 18.226562 8.886719 L 18.335938 10.523438 L 17.746094 10.523438 L 17.746094 10.140625 C 17.746094 9.664062 17.558594 9.222656 17.25 8.878906 Z M 12.191406 2.074219 C 12.894531 2.074219 13.535156 2.335938 13.996094 2.75 C 14.453125 3.160156 14.734375 3.726562 14.734375 4.34375 L 14.734375 5.101562 L 12.789062 5.101562 L 12.789062 4.34375 C 12.789062 3.535156 12.417969 2.796875 11.832031 2.265625 C 11.773438 2.214844 11.71875 2.167969 11.664062 2.125 C 11.832031 2.09375 12.007812 2.074219 12.191406 2.074219 Z M 9.644531 5.101562 L 9.644531 4.34375 C 9.644531 3.726562 9.925781 3.164062 10.382812 2.75 C 10.527344 2.617188 10.695312 2.5 10.878906 2.402344 C 11.058594 2.5 11.226562 2.617188 11.375 2.75 C 11.832031 3.164062 12.113281 3.726562 12.113281 4.34375 L 12.113281 5.101562 Z M 7.019531 4.34375 C 7.019531 3.726562 7.304688 3.164062 7.757812 2.75 C 8.21875 2.335938 8.859375 2.074219 9.566406 2.074219 C 9.746094 2.074219 9.921875 2.09375 10.09375 2.125 C 10.035156 2.167969 9.976562 2.214844 9.925781 2.265625 C 9.335938 2.796875 8.96875 3.535156 8.96875 4.34375 L 8.96875 5.101562 L 7.019531 5.101562 Z M 8.96875 5.761719 L 8.96875 7.519531 C 8.96875 7.699219 9.117188 7.847656 9.304688 7.847656 C 9.492188 7.847656 9.644531 7.699219 9.644531 7.519531 L 9.644531 5.761719 L 14.734375 5.761719 L 14.734375 7.519531 C 14.734375 7.699219 14.886719 7.847656 15.070312 7.847656 C 15.257812 7.847656 15.410156 7.699219 15.410156 7.519531 L 15.410156 5.761719 L 18.015625 5.761719 L 18.179688 8.195312 C 18.03125 8.164062 17.878906 8.148438 17.722656 8.148438 C 17.332031 8.148438 16.960938 8.242188 16.644531 8.414062 C 16.328125 8.242188 15.960938 8.148438 15.570312 8.148438 C 14.976562 8.148438 14.433594 8.367188 14.039062 8.726562 C 13.640625 9.085938 13.390625 9.585938 13.390625 10.140625 L 13.390625 10.523438 L 13.203125 10.523438 C 13.199219 10.523438 13.199219 10.523438 13.195312 10.523438 L 11.769531 10.523438 C 11.601562 10.523438 11.453125 10.652344 11.433594 10.820312 L 10.332031 21.039062 C 9.472656 21.039062 7.070312 21.039062 7.070312 21.039062 L 6.042969 5.761719 Z M 3.929688 5.761719 L 5.367188 5.761719 L 6.394531 20.992188 C 5.351562 21.003906 2.398438 21.039062 2.398438 21.039062 Z M 12.070312 11.1875 L 12.882812 11.1875 L 13.542969 21.039062 C 12.769531 21.039062 11.007812 21.039062 11.007812 21.039062 Z M 14.21875 21.039062 L 13.554688 11.1875 L 15.542969 11.1875 L 15.542969 12.167969 C 15.542969 12.351562 15.695312 12.496094 15.878906 12.496094 C 16.066406 12.496094 16.214844 12.351562 16.214844 12.167969 L 16.214844 11.1875 L 19.226562 11.1875 L 19.226562 12.167969 C 19.226562 12.351562 19.378906 12.496094 19.5625 12.496094 C 19.75 12.496094 19.898438 12.351562 19.898438 12.167969 L 19.898438 11.1875 L 21.226562 11.1875 L 21.886719 21.039062 Z M 14.21875 21.039062 "/>
</g>
</g>
</svg>
