<svg xmlns="http://www.w3.org/2000/svg" xmlns:xlink="http://www.w3.org/1999/xlink" width="100" zoomAndPan="magnify" viewBox="0 0 75 74.999997" height="100" preserveAspectRatio="xMidYMid meet" version="1.0"><defs><clipPath id="5f928ceed2"><path d="M 5.488281 5.488281 L 69.238281 5.488281 L 69.238281 69.238281 L 5.488281 69.238281 Z M 5.488281 5.488281 " clip-rule="nonzero"/></clipPath></defs><g clip-path="url(#5f928ceed2)"><path fill="#ffffff" d="M 68.640625 61.21875 L 61.144531 68.714844 C 60.847656 69.011719 60.464844 69.164062 60.078125 69.164062 C 59.691406 69.164062 59.304688 69.011719 59.007812 68.714844 L 48.296875 58.003906 L 41.867188 64.429688 C 41.503906 64.792969 40.976562 64.953125 40.476562 64.839844 C 39.96875 64.734375 39.558594 64.371094 39.378906 63.894531 L 25.992188 28.019531 C 25.785156 27.46875 25.921875 26.839844 26.339844 26.421875 C 26.757812 26.007812 27.382812 25.871094 27.9375 26.074219 L 63.808594 39.460938 C 64.292969 39.640625 64.648438 40.050781 64.757812 40.558594 C 64.863281 41.066406 64.710938 41.589844 64.347656 41.953125 L 57.917969 48.378906 L 68.625 59.085938 C 69.230469 59.667969 69.230469 60.621094 68.640625 61.21875 Z M 28.203125 19.191406 C 29.035156 19.191406 29.714844 18.511719 29.714844 17.679688 L 29.714844 7.078125 C 29.714844 6.246094 29.035156 5.5625 28.203125 5.5625 C 27.371094 5.5625 26.6875 6.246094 26.6875 7.078125 L 26.6875 17.679688 C 26.6875 18.511719 27.371094 19.191406 28.203125 19.191406 Z M 19.117188 28.277344 C 19.117188 27.445312 18.433594 26.765625 17.601562 26.765625 L 7.003906 26.765625 C 6.167969 26.765625 5.488281 27.445312 5.488281 28.277344 C 5.488281 29.109375 6.167969 29.792969 7.003906 29.792969 L 17.601562 29.792969 C 18.433594 29.792969 19.117188 29.109375 19.117188 28.277344 Z M 35.699219 22.296875 C 36.082031 22.296875 36.46875 22.144531 36.765625 21.851562 L 44.261719 14.355469 C 44.851562 13.765625 44.851562 12.800781 44.261719 12.210938 C 43.671875 11.621094 42.707031 11.621094 42.117188 12.210938 L 34.621094 19.707031 C 34.03125 20.296875 34.03125 21.257812 34.621094 21.851562 C 34.925781 22.152344 35.3125 22.296875 35.699219 22.296875 Z M 19.640625 34.707031 L 12.144531 42.203125 C 11.554688 42.792969 11.554688 43.753906 12.144531 44.34375 C 12.4375 44.640625 12.824219 44.789062 13.210938 44.789062 C 13.597656 44.789062 13.984375 44.640625 14.277344 44.34375 L 21.773438 36.847656 C 22.363281 36.257812 22.363281 35.296875 21.773438 34.707031 C 21.183594 34.109375 20.230469 34.109375 19.640625 34.707031 Z M 14.285156 12.21875 C 13.695312 11.628906 12.734375 11.628906 12.144531 12.21875 C 11.554688 12.808594 11.554688 13.769531 12.144531 14.363281 L 19.640625 21.859375 C 19.933594 22.152344 20.320312 22.304688 20.707031 22.304688 C 21.09375 22.304688 21.480469 22.152344 21.773438 21.859375 C 22.363281 21.265625 22.363281 20.304688 21.773438 19.714844 Z M 14.285156 12.21875 " fill-opacity="1" fill-rule="nonzero"/></g></svg>