<svg xmlns="http://www.w3.org/2000/svg" xmlns:xlink="http://www.w3.org/1999/xlink" width="100" zoomAndPan="magnify" viewBox="0 0 75 74.999997" height="100" preserveAspectRatio="xMidYMid meet" version="1.0"><defs><clipPath id="0809ef542e"><path d="M 35 1.730469 L 72.980469 1.730469 L 72.980469 72.980469 L 35 72.980469 Z M 35 1.730469 " clip-rule="nonzero"/></clipPath><clipPath id="729b56c408"><path d="M 1.730469 1.730469 L 39 1.730469 L 39 72.980469 L 1.730469 72.980469 Z M 1.730469 1.730469 " clip-rule="nonzero"/></clipPath></defs><g clip-path="url(#0809ef542e)"><path fill="#ffffff" d="M 70.597656 72.796875 C 70.082031 72.796875 69.640625 72.613281 69.277344 72.25 L 35.773438 38.675781 C 35.597656 38.503906 35.464844 38.300781 35.371094 38.070312 C 35.273438 37.84375 35.226562 37.605469 35.226562 37.355469 C 35.226562 37.109375 35.273438 36.871094 35.371094 36.640625 C 35.464844 36.414062 35.597656 36.210938 35.773438 36.035156 L 69.277344 2.460938 C 69.453125 2.289062 69.65625 2.152344 69.882812 2.058594 C 70.113281 1.964844 70.351562 1.917969 70.597656 1.917969 C 70.84375 1.917969 71.082031 1.964844 71.3125 2.058594 C 71.539062 2.15625 71.742188 2.289062 71.917969 2.464844 C 72.089844 2.640625 72.226562 2.839844 72.320312 3.070312 C 72.414062 3.296875 72.464844 3.535156 72.464844 3.785156 C 72.464844 4.03125 72.417969 4.269531 72.320312 4.496094 C 72.226562 4.726562 72.09375 4.929688 71.917969 5.105469 L 39.734375 37.355469 L 71.917969 69.609375 C 72.1875 69.875 72.355469 70.195312 72.429688 70.566406 C 72.503906 70.933594 72.46875 71.296875 72.324219 71.644531 C 72.179688 71.992188 71.949219 72.273438 71.636719 72.480469 C 71.320312 72.691406 70.976562 72.796875 70.597656 72.796875 Z M 70.597656 72.796875 " fill-opacity="1" fill-rule="nonzero"/></g><g clip-path="url(#729b56c408)"><path fill="#ffffff" d="M 3.597656 72.796875 C 3.21875 72.796875 2.871094 72.691406 2.558594 72.480469 C 2.246094 72.273438 2.015625 71.992188 1.871094 71.644531 C 1.726562 71.296875 1.691406 70.933594 1.765625 70.566406 C 1.839844 70.195312 2.007812 69.875 2.277344 69.609375 L 34.460938 37.355469 L 2.277344 5.105469 C 2.101562 4.929688 1.964844 4.726562 1.871094 4.496094 C 1.777344 4.269531 1.730469 4.03125 1.730469 3.785156 C 1.730469 3.535156 1.777344 3.296875 1.871094 3.070312 C 1.964844 2.839844 2.101562 2.636719 2.277344 2.464844 C 2.453125 2.289062 2.652344 2.152344 2.882812 2.058594 C 3.109375 1.964844 3.347656 1.917969 3.597656 1.917969 C 3.84375 1.917969 4.082031 1.964844 4.3125 2.058594 C 4.539062 2.152344 4.742188 2.289062 4.917969 2.460938 L 38.414062 36.035156 C 38.589844 36.210938 38.726562 36.414062 38.820312 36.640625 C 38.917969 36.871094 38.964844 37.109375 38.964844 37.355469 C 38.964844 37.605469 38.917969 37.84375 38.820312 38.070312 C 38.726562 38.300781 38.589844 38.503906 38.414062 38.675781 L 4.917969 72.25 C 4.550781 72.613281 4.113281 72.796875 3.597656 72.796875 Z M 3.597656 72.796875 " fill-opacity="1" fill-rule="nonzero"/></g></svg>