<?xml version="1.0" encoding="UTF-8"?>
<svg xmlns="http://www.w3.org/2000/svg" xmlns:xlink="http://www.w3.org/1999/xlink" width="24px" height="24px" viewBox="0 0 24 24" version="1.1">
<defs>
<clipPath id="clip1">
  <path d="M 10 2.320312 L 21.871094 2.320312 L 21.871094 7.199219 L 10 7.199219 Z M 10 2.320312 "/>
</clipPath>
<clipPath id="clip2">
  <path d="M 10 5.601562 L 21.871094 5.601562 L 21.871094 10 L 10 10 Z M 10 5.601562 "/>
</clipPath>
<clipPath id="clip3">
  <path d="M 15 14 L 21.871094 14 L 21.871094 19 L 15 19 Z M 15 14 "/>
</clipPath>
<clipPath id="clip4">
  <path d="M 15 11.199219 L 21.871094 11.199219 L 21.871094 16 L 15 16 Z M 15 11.199219 "/>
</clipPath>
<clipPath id="clip5">
  <path d="M 10 8 L 21.871094 8 L 21.871094 12.800781 L 10 12.800781 Z M 10 8 "/>
</clipPath>
<clipPath id="clip6">
  <path d="M 2.710938 10.398438 L 14.398438 10.398438 L 14.398438 21.484375 L 2.710938 21.484375 Z M 2.710938 10.398438 "/>
</clipPath>
</defs>
<g id="surface1">
<g clip-path="url(#clip1)" clip-rule="nonzero">
<path style=" stroke:none;fill-rule:nonzero;fill:rgb(96.078431%,75.686275%,8.627451%);fill-opacity:1;" d="M 21.871094 4.71875 C 21.871094 4.875 21.835938 5.03125 21.757812 5.183594 C 21.6875 5.339844 21.578125 5.488281 21.433594 5.632812 C 21.289062 5.777344 21.113281 5.917969 20.902344 6.046875 C 20.695312 6.179688 20.453125 6.300781 20.1875 6.414062 C 19.921875 6.523438 19.632812 6.621094 19.316406 6.710938 C 19.003906 6.796875 18.671875 6.871094 18.320312 6.929688 C 17.976562 6.992188 17.617188 7.039062 17.242188 7.066406 C 16.875 7.097656 16.5 7.113281 16.121094 7.113281 C 15.742188 7.113281 15.371094 7.097656 15 7.066406 C 14.632812 7.039062 14.273438 6.992188 13.921875 6.929688 C 13.574219 6.871094 13.242188 6.796875 12.929688 6.710938 C 12.617188 6.621094 12.324219 6.523438 12.058594 6.414062 C 11.789062 6.300781 11.554688 6.179688 11.34375 6.046875 C 11.132812 5.917969 10.957031 5.777344 10.8125 5.632812 C 10.667969 5.488281 10.558594 5.339844 10.484375 5.183594 C 10.414062 5.03125 10.375 4.875 10.375 4.71875 C 10.375 4.558594 10.414062 4.40625 10.484375 4.25 C 10.558594 4.097656 10.667969 3.945312 10.8125 3.800781 C 10.957031 3.65625 11.132812 3.519531 11.34375 3.386719 C 11.554688 3.257812 11.789062 3.132812 12.058594 3.023438 C 12.324219 2.914062 12.617188 2.8125 12.929688 2.726562 C 13.242188 2.636719 13.574219 2.566406 13.921875 2.507812 C 14.273438 2.445312 14.632812 2.398438 15 2.367188 C 15.371094 2.335938 15.742188 2.320312 16.121094 2.320312 C 16.5 2.320312 16.875 2.335938 17.242188 2.367188 C 17.617188 2.398438 17.976562 2.445312 18.320312 2.507812 C 18.671875 2.566406 19.003906 2.636719 19.316406 2.726562 C 19.632812 2.8125 19.921875 2.914062 20.1875 3.023438 C 20.453125 3.132812 20.695312 3.257812 20.902344 3.386719 C 21.113281 3.519531 21.289062 3.65625 21.433594 3.800781 C 21.578125 3.945312 21.6875 4.097656 21.757812 4.25 C 21.835938 4.40625 21.871094 4.558594 21.871094 4.71875 Z M 21.871094 4.71875 "/>
</g>
<g clip-path="url(#clip2)" clip-rule="nonzero">
<path style=" stroke:none;fill-rule:nonzero;fill:rgb(96.078431%,75.686275%,8.627451%);fill-opacity:1;" d="M 16.121094 8.070312 C 12.960938 8.070312 10.375 7.015625 10.375 5.675781 C 10.375 6.25 10.375 7.015625 10.375 7.589844 C 10.375 8.933594 12.960938 9.988281 16.121094 9.988281 C 19.285156 9.988281 21.871094 8.933594 21.871094 7.589844 C 21.871094 7.015625 21.871094 6.25 21.871094 5.675781 C 21.871094 7.015625 19.285156 8.070312 16.121094 8.070312 Z M 16.121094 8.070312 "/>
</g>
<g clip-path="url(#clip3)" clip-rule="nonzero">
<path style=" stroke:none;fill-rule:nonzero;fill:rgb(96.078431%,75.686275%,8.627451%);fill-opacity:1;" d="M 16.121094 16.695312 C 15.835938 16.695312 15.453125 16.695312 15.164062 16.695312 C 15.164062 17.460938 15.164062 18.132812 15.164062 18.609375 C 15.453125 18.609375 15.835938 18.609375 16.121094 18.609375 C 19.285156 18.609375 21.871094 17.554688 21.871094 16.214844 C 21.871094 15.640625 21.871094 14.871094 21.871094 14.296875 C 21.871094 15.640625 19.285156 16.695312 16.121094 16.695312 Z M 16.121094 16.695312 "/>
</g>
<g clip-path="url(#clip4)" clip-rule="nonzero">
<path style=" stroke:none;fill-rule:nonzero;fill:rgb(96.078431%,75.686275%,8.627451%);fill-opacity:1;" d="M 16.121094 13.820312 C 15.835938 13.820312 15.453125 13.820312 15.164062 13.820312 C 15.164062 14.296875 15.164062 14.96875 15.164062 15.734375 C 15.453125 15.734375 15.835938 15.734375 16.121094 15.734375 C 19.285156 15.734375 21.871094 14.679688 21.871094 13.339844 C 21.871094 12.765625 21.871094 12 21.871094 11.425781 C 21.871094 12.765625 19.285156 13.820312 16.121094 13.820312 Z M 16.121094 13.820312 "/>
</g>
<g clip-path="url(#clip5)" clip-rule="nonzero">
<path style=" stroke:none;fill-rule:nonzero;fill:rgb(96.078431%,75.686275%,8.627451%);fill-opacity:1;" d="M 16.121094 10.945312 C 12.960938 10.945312 10.375 9.890625 10.375 8.550781 C 10.375 9.027344 10.375 9.601562 10.375 10.085938 C 12.675781 10.371094 14.683594 11.328125 15.070312 12.765625 C 15.453125 12.765625 15.742188 12.765625 16.121094 12.765625 C 19.285156 12.765625 21.871094 11.710938 21.871094 10.371094 C 21.871094 9.796875 21.871094 9.027344 21.871094 8.453125 C 21.871094 9.890625 19.285156 10.945312 16.121094 10.945312 Z M 16.121094 10.945312 "/>
</g>
<g clip-path="url(#clip6)" clip-rule="nonzero">
<path style=" stroke:none;fill-rule:nonzero;fill:rgb(96.078431%,75.686275%,8.627451%);fill-opacity:1;" d="M 2.710938 13.339844 C 2.710938 12 5.296875 10.945312 8.460938 10.945312 C 11.617188 10.945312 14.207031 12 14.207031 13.339844 C 14.207031 14.679688 11.617188 15.734375 8.460938 15.734375 C 5.296875 15.734375 2.710938 14.679688 2.710938 13.339844 Z M 8.460938 16.695312 C 5.296875 16.695312 2.710938 15.640625 2.710938 14.296875 C 2.710938 14.871094 2.710938 15.640625 2.710938 16.214844 C 2.710938 17.554688 5.296875 18.609375 8.460938 18.609375 C 11.617188 18.609375 14.207031 17.554688 14.207031 16.214844 C 14.207031 15.640625 14.207031 14.871094 14.207031 14.296875 C 14.207031 15.640625 11.617188 16.695312 8.460938 16.695312 Z M 8.460938 19.570312 C 5.296875 19.570312 2.710938 18.511719 2.710938 17.171875 C 2.710938 17.746094 2.710938 18.511719 2.710938 19.085938 C 2.710938 20.429688 5.296875 21.484375 8.460938 21.484375 C 11.617188 21.484375 14.207031 20.429688 14.207031 19.085938 C 14.207031 18.511719 14.207031 17.746094 14.207031 17.171875 C 14.207031 18.511719 11.617188 19.570312 8.460938 19.570312 Z M 8.460938 19.570312 "/>
</g>
</g>
</svg>
