<?xml version="1.0" encoding="UTF-8"?>
<svg xmlns="http://www.w3.org/2000/svg" xmlns:xlink="http://www.w3.org/1999/xlink" width="21px" height="21px" viewBox="0 0 21 21" version="1.1">
<defs>
<clipPath id="clip1">
  <path d="M 3.203125 0.285156 L 17.9375 0.285156 L 17.9375 20.101562 L 3.203125 20.101562 Z M 3.203125 0.285156 "/>
</clipPath>
</defs>
<g id="surface1">
<g clip-path="url(#clip1)" clip-rule="nonzero">
<path style=" stroke:none;fill-rule:nonzero;fill:rgb(100%,100%,100%);fill-opacity:1;" d="M 17.8125 5.367188 L 12.828125 0.414062 C 12.746094 0.335938 12.636719 0.289062 12.519531 0.289062 L 4.71875 0.289062 C 3.882812 0.289062 3.203125 0.960938 3.203125 1.789062 L 3.203125 18.332031 C 3.203125 19.300781 4.003906 20.09375 4.988281 20.09375 L 16.15625 20.09375 C 17.140625 20.09375 17.9375 19.300781 17.9375 18.332031 L 17.9375 5.671875 C 17.9375 5.558594 17.894531 5.449219 17.8125 5.367188 Z M 11.003906 15.789062 L 7.105469 15.789062 L 7.105469 14.929688 L 11.003906 14.929688 Z M 14.039062 14.066406 L 7.105469 14.066406 L 7.105469 13.207031 L 14.039062 13.207031 Z M 14.039062 12.34375 L 7.105469 12.34375 L 7.105469 11.484375 L 14.039062 11.484375 Z M 14.039062 10.621094 L 7.105469 10.621094 L 7.105469 9.761719 L 14.039062 9.761719 Z M 13.460938 5.457031 C 13.0625 5.457031 12.738281 5.136719 12.738281 4.738281 L 12.738281 1.542969 L 16.675781 5.457031 Z M 13.460938 5.457031 "/>
</g>
</g>
</svg>
