<svg xmlns="http://www.w3.org/2000/svg" xmlns:xlink="http://www.w3.org/1999/xlink" width="220" zoomAndPan="magnify" viewBox="0 0 165 36.000001" height="48" preserveAspectRatio="xMidYMid meet" version="1.0"><defs><clipPath id="664dbce205"><path d="M 2.230469 0 L 38 0 L 38 35.027344 L 2.230469 35.027344 Z M 2.230469 0 " clip-rule="nonzero"/></clipPath><clipPath id="eedc76964b"><path d="M 6.273438 21.371094 C 5.1875 21.886719 4.203125 22.355469 3.121094 22.867188 C 2.144531 20.234375 2.066406 17.625 2.425781 15.019531 C 3.066406 10.410156 5.292969 6.644531 8.933594 3.769531 C 16.136719 -1.910156 26.53125 -1.078125 32.734375 5.632812 C 38.945312 12.347656 38.976562 22.574219 32.765625 29.359375 C 26.777344 35.902344 17.652344 36.136719 12.488281 33.300781 C 13.273438 32.398438 14.03125 31.515625 14.890625 30.65625 C 19.964844 32.3125 24.660156 31.617188 28.8125 28.210938 C 31.839844 25.726562 33.519531 22.457031 33.808594 18.542969 C 34.40625 10.460938 28.023438 3.621094 19.992188 3.539062 C 15.375 3.492188 11.558594 5.347656 8.714844 9 C 5.867188 12.660156 5.167969 16.816406 6.273438 21.371094 Z M 6.273438 21.371094 " clip-rule="nonzero"/></clipPath><linearGradient x1="3.223508" gradientTransform="matrix(0.72973, 0, 0, 0.72973, 2.229727, 0.00000194595)" y1="72.992952" x2="58.845218" gradientUnits="userSpaceOnUse" y2="65.819048" id="5fffef51d3"><stop stop-opacity="1" stop-color="rgb(0%, 74.499512%, 61.599731%)" offset="0"/><stop stop-opacity="1" stop-color="rgb(0%, 74.609375%, 61.561584%)" offset="0.015625"/><stop stop-opacity="1" stop-color="rgb(0%, 74.876404%, 61.470032%)" offset="0.03125"/><stop stop-opacity="1" stop-color="rgb(0%, 75.190735%, 61.36322%)" offset="0.046875"/><stop stop-opacity="1" stop-color="rgb(0%, 75.505066%, 61.256409%)" offset="0.0625"/><stop stop-opacity="1" stop-color="rgb(0%, 75.817871%, 61.149597%)" offset="0.078125"/><stop stop-opacity="1" stop-color="rgb(0%, 76.132202%, 61.04126%)" offset="0.09375"/><stop stop-opacity="1" stop-color="rgb(0%, 76.446533%, 60.934448%)" offset="0.109375"/><stop stop-opacity="1" stop-color="rgb(0%, 76.759338%, 60.827637%)" offset="0.109482"/><stop stop-opacity="1" stop-color="rgb(0%, 76.916504%, 60.774231%)" offset="0.125"/><stop stop-opacity="1" stop-color="rgb(0%, 77.073669%, 60.720825%)" offset="0.140625"/><stop stop-opacity="1" stop-color="rgb(0%, 77.388%, 60.614014%)" offset="0.15625"/><stop stop-opacity="1" stop-color="rgb(0%, 77.700806%, 60.507202%)" offset="0.171875"/><stop stop-opacity="1" stop-color="rgb(0%, 78.015137%, 60.398865%)" offset="0.1875"/><stop stop-opacity="1" stop-color="rgb(0%, 78.329468%, 60.292053%)" offset="0.203125"/><stop stop-opacity="1" stop-color="rgb(0%, 78.642273%, 60.185242%)" offset="0.21875"/><stop stop-opacity="1" stop-color="rgb(0%, 78.956604%, 60.07843%)" offset="0.234375"/><stop stop-opacity="1" stop-color="rgb(0%, 79.270935%, 59.971619%)" offset="0.25"/><stop stop-opacity="1" stop-color="rgb(0%, 79.58374%, 59.864807%)" offset="0.265625"/><stop stop-opacity="1" stop-color="rgb(0%, 79.898071%, 59.75647%)" offset="0.28125"/><stop stop-opacity="1" stop-color="rgb(0%, 80.212402%, 59.649658%)" offset="0.296875"/><stop stop-opacity="1" stop-color="rgb(0%, 80.525208%, 59.542847%)" offset="0.3125"/><stop stop-opacity="1" stop-color="rgb(0%, 80.839539%, 59.436035%)" offset="0.328125"/><stop stop-opacity="1" stop-color="rgb(0%, 81.15387%, 59.329224%)" offset="0.34375"/><stop stop-opacity="1" stop-color="rgb(0%, 81.466675%, 59.222412%)" offset="0.359375"/><stop stop-opacity="1" stop-color="rgb(0%, 81.781006%, 59.114075%)" offset="0.375"/><stop stop-opacity="1" stop-color="rgb(0%, 82.095337%, 59.007263%)" offset="0.390625"/><stop stop-opacity="1" stop-color="rgb(0%, 82.408142%, 58.900452%)" offset="0.40625"/><stop stop-opacity="1" stop-color="rgb(0%, 82.722473%, 58.79364%)" offset="0.421875"/><stop stop-opacity="1" stop-color="rgb(0%, 83.036804%, 58.686829%)" offset="0.4375"/><stop stop-opacity="1" stop-color="rgb(0%, 83.349609%, 58.580017%)" offset="0.453125"/><stop stop-opacity="1" stop-color="rgb(0%, 83.66394%, 58.47168%)" offset="0.46875"/><stop stop-opacity="1" stop-color="rgb(0%, 83.978271%, 58.364868%)" offset="0.484375"/><stop stop-opacity="1" stop-color="rgb(0%, 84.291077%, 58.258057%)" offset="0.5"/><stop stop-opacity="1" stop-color="rgb(0%, 84.605408%, 58.151245%)" offset="0.515625"/><stop stop-opacity="1" stop-color="rgb(0%, 84.919739%, 58.044434%)" offset="0.53125"/><stop stop-opacity="1" stop-color="rgb(0%, 85.232544%, 57.937622%)" offset="0.546875"/><stop stop-opacity="1" stop-color="rgb(0%, 85.546875%, 57.829285%)" offset="0.5625"/><stop stop-opacity="1" stop-color="rgb(0%, 85.85968%, 57.722473%)" offset="0.578125"/><stop stop-opacity="1" stop-color="rgb(0%, 86.174011%, 57.615662%)" offset="0.59375"/><stop stop-opacity="1" stop-color="rgb(0%, 86.488342%, 57.50885%)" offset="0.609375"/><stop stop-opacity="1" stop-color="rgb(0%, 86.801147%, 57.402039%)" offset="0.625"/><stop stop-opacity="1" stop-color="rgb(0%, 87.115479%, 57.295227%)" offset="0.640625"/><stop stop-opacity="1" stop-color="rgb(0%, 87.42981%, 57.18689%)" offset="0.65625"/><stop stop-opacity="1" stop-color="rgb(0%, 87.742615%, 57.080078%)" offset="0.671875"/><stop stop-opacity="1" stop-color="rgb(0%, 88.056946%, 56.973267%)" offset="0.6875"/><stop stop-opacity="1" stop-color="rgb(0%, 88.371277%, 56.866455%)" offset="0.703125"/><stop stop-opacity="1" stop-color="rgb(0%, 88.684082%, 56.759644%)" offset="0.71875"/><stop stop-opacity="1" stop-color="rgb(0%, 88.998413%, 56.652832%)" offset="0.734375"/><stop stop-opacity="1" stop-color="rgb(0%, 89.312744%, 56.544495%)" offset="0.75"/><stop stop-opacity="1" stop-color="rgb(0%, 89.625549%, 56.437683%)" offset="0.765625"/><stop stop-opacity="1" stop-color="rgb(0%, 89.93988%, 56.330872%)" offset="0.78125"/><stop stop-opacity="1" stop-color="rgb(0%, 90.254211%, 56.22406%)" offset="0.796875"/><stop stop-opacity="1" stop-color="rgb(0%, 90.567017%, 56.117249%)" offset="0.8125"/><stop stop-opacity="1" stop-color="rgb(0%, 90.881348%, 56.010437%)" offset="0.828125"/><stop stop-opacity="1" stop-color="rgb(0%, 91.195679%, 55.9021%)" offset="0.84375"/><stop stop-opacity="1" stop-color="rgb(0%, 91.508484%, 55.795288%)" offset="0.859375"/><stop stop-opacity="1" stop-color="rgb(0%, 91.822815%, 55.688477%)" offset="0.875"/><stop stop-opacity="1" stop-color="rgb(0%, 92.137146%, 55.581665%)" offset="0.890518"/><stop stop-opacity="1" stop-color="rgb(0%, 92.294312%, 55.528259%)" offset="0.890625"/><stop stop-opacity="1" stop-color="rgb(0%, 92.449951%, 55.474854%)" offset="0.90625"/><stop stop-opacity="1" stop-color="rgb(0%, 92.764282%, 55.368042%)" offset="0.921875"/><stop stop-opacity="1" stop-color="rgb(0%, 93.078613%, 55.259705%)" offset="0.9375"/><stop stop-opacity="1" stop-color="rgb(0%, 93.391418%, 55.152893%)" offset="0.953125"/><stop stop-opacity="1" stop-color="rgb(0%, 93.70575%, 55.046082%)" offset="0.96875"/><stop stop-opacity="1" stop-color="rgb(0%, 94.020081%, 54.93927%)" offset="0.984375"/><stop stop-opacity="1" stop-color="rgb(0%, 94.332886%, 54.832458%)" offset="1"/></linearGradient><clipPath id="a30fbf8aa4"><path d="M 4 10 L 32 10 L 32 32 L 4 32 Z M 4 10 " clip-rule="nonzero"/></clipPath><clipPath id="578dd1cb7b"><path d="M 31.332031 10.601562 C 30.867188 11.097656 30.425781 11.617188 29.933594 12.082031 C 25.691406 16.121094 21.441406 20.144531 17.195312 24.175781 C 14.96875 26.292969 12.746094 28.417969 10.523438 30.535156 C 10.160156 30.875 9.785156 31.199219 9.363281 31.574219 C 7.355469 30.121094 5.785156 28.335938 4.5 26.125 C 5.464844 25.464844 6.464844 24.972656 7.503906 24.390625 C 7.976562 25.027344 8.417969 25.625 8.90625 26.289062 C 9.253906 26.0625 9.539062 25.890625 9.8125 25.695312 C 16.546875 20.9375 23.277344 16.175781 30.011719 11.421875 C 30.4375 11.121094 30.90625 10.886719 31.355469 10.625 C 31.355469 10.621094 31.332031 10.601562 31.332031 10.601562 Z M 31.332031 10.601562 " clip-rule="nonzero"/></clipPath><linearGradient x1="5.575893" gradientTransform="matrix(0.72973, 0, 0, 0.72973, 2.229727, 0.00000194595)" y1="58.246753" x2="46.006014" gradientUnits="userSpaceOnUse" y2="51.59878" id="76aa09d250"><stop stop-opacity="1" stop-color="rgb(0%, 74.499512%, 61.599731%)" offset="0"/><stop stop-opacity="1" stop-color="rgb(0%, 74.603271%, 61.56311%)" offset="0.015625"/><stop stop-opacity="1" stop-color="rgb(0%, 74.859619%, 61.476135%)" offset="0.03125"/><stop stop-opacity="1" stop-color="rgb(0%, 75.161743%, 61.372375%)" offset="0.046875"/><stop stop-opacity="1" stop-color="rgb(0%, 75.462341%, 61.270142%)" offset="0.0625"/><stop stop-opacity="1" stop-color="rgb(0%, 75.764465%, 61.166382%)" offset="0.078125"/><stop stop-opacity="1" stop-color="rgb(0%, 76.066589%, 61.064148%)" offset="0.09375"/><stop stop-opacity="1" stop-color="rgb(0%, 76.368713%, 60.960388%)" offset="0.109375"/><stop stop-opacity="1" stop-color="rgb(0%, 76.670837%, 60.858154%)" offset="0.113809"/><stop stop-opacity="1" stop-color="rgb(0%, 76.821899%, 60.806274%)" offset="0.125"/><stop stop-opacity="1" stop-color="rgb(0%, 76.972961%, 60.754395%)" offset="0.140625"/><stop stop-opacity="1" stop-color="rgb(0%, 77.275085%, 60.652161%)" offset="0.15625"/><stop stop-opacity="1" stop-color="rgb(0%, 77.575684%, 60.548401%)" offset="0.171875"/><stop stop-opacity="1" stop-color="rgb(0%, 77.877808%, 60.446167%)" offset="0.1875"/><stop stop-opacity="1" stop-color="rgb(0%, 78.179932%, 60.342407%)" offset="0.203125"/><stop stop-opacity="1" stop-color="rgb(0%, 78.482056%, 60.240173%)" offset="0.21875"/><stop stop-opacity="1" stop-color="rgb(0%, 78.78418%, 60.136414%)" offset="0.234375"/><stop stop-opacity="1" stop-color="rgb(0%, 79.086304%, 60.03418%)" offset="0.25"/><stop stop-opacity="1" stop-color="rgb(0%, 79.386902%, 59.93042%)" offset="0.265625"/><stop stop-opacity="1" stop-color="rgb(0%, 79.689026%, 59.828186%)" offset="0.28125"/><stop stop-opacity="1" stop-color="rgb(0%, 79.99115%, 59.724426%)" offset="0.296875"/><stop stop-opacity="1" stop-color="rgb(0%, 80.293274%, 59.622192%)" offset="0.3125"/><stop stop-opacity="1" stop-color="rgb(0%, 80.595398%, 59.518433%)" offset="0.328125"/><stop stop-opacity="1" stop-color="rgb(0%, 80.897522%, 59.416199%)" offset="0.34375"/><stop stop-opacity="1" stop-color="rgb(0%, 81.19812%, 59.312439%)" offset="0.359375"/><stop stop-opacity="1" stop-color="rgb(0%, 81.500244%, 59.210205%)" offset="0.375"/><stop stop-opacity="1" stop-color="rgb(0%, 81.802368%, 59.106445%)" offset="0.390625"/><stop stop-opacity="1" stop-color="rgb(0%, 82.104492%, 59.004211%)" offset="0.40625"/><stop stop-opacity="1" stop-color="rgb(0%, 82.406616%, 58.900452%)" offset="0.421875"/><stop stop-opacity="1" stop-color="rgb(0%, 82.70874%, 58.798218%)" offset="0.4375"/><stop stop-opacity="1" stop-color="rgb(0%, 83.009338%, 58.694458%)" offset="0.453125"/><stop stop-opacity="1" stop-color="rgb(0%, 83.311462%, 58.592224%)" offset="0.46875"/><stop stop-opacity="1" stop-color="rgb(0%, 83.613586%, 58.488464%)" offset="0.484375"/><stop stop-opacity="1" stop-color="rgb(0%, 83.91571%, 58.38623%)" offset="0.5"/><stop stop-opacity="1" stop-color="rgb(0%, 84.217834%, 58.282471%)" offset="0.515625"/><stop stop-opacity="1" stop-color="rgb(0%, 84.519958%, 58.180237%)" offset="0.53125"/><stop stop-opacity="1" stop-color="rgb(0%, 84.820557%, 58.076477%)" offset="0.546875"/><stop stop-opacity="1" stop-color="rgb(0%, 85.122681%, 57.974243%)" offset="0.5625"/><stop stop-opacity="1" stop-color="rgb(0%, 85.424805%, 57.870483%)" offset="0.578125"/><stop stop-opacity="1" stop-color="rgb(0%, 85.726929%, 57.76825%)" offset="0.59375"/><stop stop-opacity="1" stop-color="rgb(0%, 86.029053%, 57.66449%)" offset="0.609375"/><stop stop-opacity="1" stop-color="rgb(0%, 86.331177%, 57.562256%)" offset="0.625"/><stop stop-opacity="1" stop-color="rgb(0%, 86.633301%, 57.458496%)" offset="0.640625"/><stop stop-opacity="1" stop-color="rgb(0%, 86.933899%, 57.356262%)" offset="0.65625"/><stop stop-opacity="1" stop-color="rgb(0%, 87.236023%, 57.252502%)" offset="0.671875"/><stop stop-opacity="1" stop-color="rgb(0%, 87.538147%, 57.150269%)" offset="0.6875"/><stop stop-opacity="1" stop-color="rgb(0%, 87.840271%, 57.046509%)" offset="0.703125"/><stop stop-opacity="1" stop-color="rgb(0%, 88.142395%, 56.944275%)" offset="0.71875"/><stop stop-opacity="1" stop-color="rgb(0%, 88.444519%, 56.840515%)" offset="0.734375"/><stop stop-opacity="1" stop-color="rgb(0%, 88.745117%, 56.738281%)" offset="0.75"/><stop stop-opacity="1" stop-color="rgb(0%, 89.047241%, 56.634521%)" offset="0.765625"/><stop stop-opacity="1" stop-color="rgb(0%, 89.349365%, 56.532288%)" offset="0.78125"/><stop stop-opacity="1" stop-color="rgb(0%, 89.651489%, 56.428528%)" offset="0.796875"/><stop stop-opacity="1" stop-color="rgb(0%, 89.953613%, 56.326294%)" offset="0.8125"/><stop stop-opacity="1" stop-color="rgb(0%, 90.255737%, 56.222534%)" offset="0.828125"/><stop stop-opacity="1" stop-color="rgb(0%, 90.556335%, 56.1203%)" offset="0.84375"/><stop stop-opacity="1" stop-color="rgb(0%, 90.858459%, 56.016541%)" offset="0.859375"/><stop stop-opacity="1" stop-color="rgb(0%, 91.160583%, 55.914307%)" offset="0.875"/><stop stop-opacity="1" stop-color="rgb(0%, 91.462708%, 55.810547%)" offset="0.886191"/><stop stop-opacity="1" stop-color="rgb(0%, 91.61377%, 55.760193%)" offset="0.890625"/><stop stop-opacity="1" stop-color="rgb(0%, 91.764832%, 55.708313%)" offset="0.90625"/><stop stop-opacity="1" stop-color="rgb(0%, 92.066956%, 55.606079%)" offset="0.921875"/><stop stop-opacity="1" stop-color="rgb(0%, 92.367554%, 55.502319%)" offset="0.9375"/><stop stop-opacity="1" stop-color="rgb(0%, 92.669678%, 55.400085%)" offset="0.953125"/><stop stop-opacity="1" stop-color="rgb(0%, 92.971802%, 55.296326%)" offset="0.96875"/><stop stop-opacity="1" stop-color="rgb(0%, 93.273926%, 55.194092%)" offset="0.984375"/><stop stop-opacity="1" stop-color="rgb(0%, 93.57605%, 55.090332%)" offset="1"/></linearGradient><clipPath id="aedf38b952"><path d="M 153 10 L 162.769531 10 L 162.769531 22 L 153 22 Z M 153 10 " clip-rule="nonzero"/></clipPath></defs><g clip-path="url(#664dbce205)"><g clip-path="url(#eedc76964b)"><path fill="url(#5fffef51d3)" d="M 2.230469 0 L 2.230469 35.027344 L 38.976562 35.027344 L 38.976562 0 Z M 2.230469 0 " fill-rule="nonzero"/></g></g><g clip-path="url(#a30fbf8aa4)"><g clip-path="url(#578dd1cb7b)"><path fill="url(#76aa09d250)" d="M 4.5 10.601562 L 4.5 31.574219 L 31.355469 31.574219 L 31.355469 10.601562 Z M 4.5 10.601562 " fill-rule="nonzero"/></g></g><path fill="#00be9d" d="M 58.335938 14.21875 C 57.382812 14.21875 56.523438 14.242188 55.664062 14.199219 C 55.484375 14.191406 55.277344 13.960938 55.152344 13.78125 C 54.410156 12.722656 53.363281 12.425781 52.171875 12.660156 C 51.074219 12.878906 50.519531 13.703125 50.242188 14.730469 C 50.003906 15.621094 50.054688 16.507812 50.390625 17.363281 C 51.160156 19.320312 53.726562 19.707031 54.988281 18.011719 C 55.394531 17.46875 55.804688 17.277344 56.433594 17.324219 C 57.050781 17.371094 57.667969 17.363281 58.464844 17.382812 C 58.25 17.988281 58.144531 18.46875 57.921875 18.894531 C 56.8125 21.046875 54.449219 22.117188 51.84375 21.679688 C 49.25 21.242188 47.496094 19.386719 47.222656 16.722656 C 47.0625 15.203125 47.234375 13.730469 48.066406 12.398438 C 48.996094 10.917969 50.347656 10.109375 52.074219 9.949219 C 53.402344 9.828125 54.699219 9.929688 55.894531 10.609375 C 57.121094 11.304688 57.902344 12.347656 58.304688 13.6875 C 58.339844 13.804688 58.320312 13.941406 58.335938 14.21875 Z M 58.335938 14.21875 " fill-opacity="1" fill-rule="nonzero"/><path fill="#00be9d" d="M 80.292969 21.628906 C 79.328125 21.628906 78.363281 21.65625 77.402344 21.609375 C 77.195312 21.597656 76.960938 21.34375 76.816406 21.144531 C 76.296875 20.421875 75.808594 19.671875 75.304688 18.933594 C 75.15625 18.71875 75 18.511719 74.773438 18.199219 C 74.574219 18.476562 74.40625 18.691406 74.265625 18.921875 C 73.835938 19.644531 73.402344 20.363281 73.003906 21.105469 C 72.789062 21.503906 72.496094 21.667969 72.054688 21.65625 C 71.421875 21.640625 70.792969 21.660156 70.164062 21.648438 C 69.964844 21.640625 69.769531 21.582031 69.46875 21.527344 C 69.632812 21.222656 69.746094 20.996094 69.878906 20.78125 C 70.804688 19.289062 71.722656 17.785156 72.675781 16.304688 C 72.980469 15.835938 72.964844 15.472656 72.644531 15.023438 C 71.765625 13.78125 70.914062 12.515625 70.058594 11.253906 C 69.828125 10.914062 69.613281 10.554688 69.34375 10.128906 C 69.601562 10.066406 69.761719 9.996094 69.925781 9.992188 C 70.609375 9.980469 71.292969 10.011719 71.972656 9.976562 C 72.484375 9.953125 72.796875 10.160156 73.070312 10.578125 C 73.65625 11.476562 74.28125 12.347656 74.949219 13.316406 C 75.128906 13.101562 75.277344 12.96875 75.375 12.804688 C 75.839844 12.042969 76.296875 11.273438 76.742188 10.496094 C 76.941406 10.140625 77.203125 9.96875 77.625 9.980469 C 78.457031 10.003906 79.285156 9.988281 80.289062 9.988281 C 80.074219 10.394531 79.957031 10.644531 79.8125 10.878906 C 78.90625 12.328125 78.015625 13.785156 77.074219 15.207031 C 76.742188 15.710938 76.78125 16.074219 77.117188 16.546875 C 78.09375 17.917969 79.023438 19.316406 79.96875 20.707031 C 80.125 20.9375 80.257812 21.1875 80.398438 21.425781 C 80.363281 21.492188 80.328125 21.5625 80.292969 21.628906 Z M 80.292969 21.628906 " fill-opacity="1" fill-rule="nonzero"/><path fill="#00be9d" d="M 60.136719 10.027344 C 60.394531 10.011719 60.675781 9.988281 60.960938 9.984375 C 62.089844 9.980469 63.21875 9.972656 64.347656 9.988281 C 64.816406 9.996094 65.292969 10.039062 65.753906 10.121094 C 67.714844 10.46875 68.882812 11.917969 68.828125 13.902344 C 68.773438 15.847656 67.476562 17.289062 65.535156 17.511719 C 64.964844 17.578125 64.378906 17.550781 63.804688 17.570312 C 63.523438 17.582031 63.242188 17.601562 62.84375 17.628906 C 62.84375 18.960938 62.84375 20.234375 62.84375 21.578125 C 61.851562 21.578125 60.976562 21.578125 60.125 21.578125 C 59.875 20.851562 59.882812 10.734375 60.136719 10.027344 Z M 62.894531 15.246094 C 63.664062 15.292969 64.386719 15.394531 65.085938 15.097656 C 65.621094 14.871094 65.890625 14.386719 65.867188 13.761719 C 65.84375 13.101562 65.515625 12.605469 64.925781 12.464844 C 64.261719 12.308594 63.589844 12.320312 62.890625 12.464844 C 62.894531 13.40625 62.894531 14.285156 62.894531 15.246094 Z M 62.894531 15.246094 " fill-opacity="1" fill-rule="nonzero"/><path fill="#ffffff" d="M 89.949219 16.960938 C 90.960938 18.503906 91.902344 19.949219 92.847656 21.394531 C 91.925781 21.882812 91.273438 21.734375 90.78125 20.972656 C 90.085938 19.890625 89.394531 18.804688 88.699219 17.722656 C 88.121094 16.820312 87.914062 16.746094 86.699219 17.074219 C 86.699219 18.519531 86.699219 20.003906 86.699219 21.566406 C 86.132812 21.566406 85.683594 21.566406 85.167969 21.566406 C 85.167969 17.746094 85.167969 13.984375 85.167969 10.199219 C 85.34375 10.148438 85.464844 10.078125 85.585938 10.078125 C 86.980469 10.078125 88.375 10.011719 89.761719 10.109375 C 92.550781 10.300781 93.359375 12.824219 92.707031 14.785156 C 92.40625 15.691406 91.769531 16.285156 90.882812 16.621094 C 90.617188 16.722656 90.347656 16.816406 89.949219 16.960938 Z M 86.75 11.46875 C 86.75 12.9375 86.75 14.285156 86.75 15.703125 C 87.863281 15.78125 88.925781 15.910156 89.96875 15.582031 C 90.890625 15.289062 91.296875 14.609375 91.269531 13.503906 C 91.242188 12.476562 90.773438 11.777344 89.871094 11.5625 C 88.871094 11.324219 87.855469 11.40625 86.75 11.46875 Z M 86.75 11.46875 " fill-opacity="1" fill-rule="nonzero"/><path fill="#ffffff" d="M 132.957031 21.53125 C 132.726562 21.585938 132.601562 21.632812 132.476562 21.640625 C 131.589844 21.707031 131.460938 21.59375 131.460938 20.710938 C 131.453125 18.054688 131.457031 15.398438 131.457031 12.746094 C 131.457031 12.113281 131.449219 11.484375 131.464844 10.851562 C 131.46875 10.625 131.527344 10.398438 131.558594 10.179688 C 131.75 10.132812 131.875 10.074219 132 10.074219 C 133.339844 10.074219 134.679688 10.035156 136.019531 10.09375 C 137.105469 10.140625 138.074219 10.53125 138.707031 11.496094 C 139.992188 13.449219 139.167969 15.914062 136.972656 16.707031 C 136.78125 16.777344 136.597656 16.875 136.339844 16.992188 C 137.320312 18.496094 138.269531 19.953125 139.234375 21.429688 C 138.136719 21.871094 137.636719 21.730469 137.09375 20.882812 C 136.429688 19.84375 135.765625 18.804688 135.097656 17.765625 C 134.492188 16.816406 134.308594 16.75 133.027344 17.066406 C 133.003906 18.53125 132.980469 20.035156 132.957031 21.53125 Z M 133.058594 15.722656 C 134.203125 15.773438 135.25 15.902344 136.273438 15.605469 C 137.179688 15.347656 137.605469 14.71875 137.632812 13.726562 C 137.664062 12.613281 137.273438 11.882812 136.375 11.613281 C 135.308594 11.292969 134.210938 11.382812 133.058594 11.507812 C 133.058594 12.921875 133.058594 14.269531 133.058594 15.722656 Z M 133.058594 15.722656 " fill-opacity="1" fill-rule="nonzero"/><path fill="#ffffff" d="M 151.523438 17.945312 C 151.265625 19.191406 150.550781 20.078125 149.601562 20.773438 C 147.804688 22.101562 144.128906 22.324219 142.089844 20.03125 C 141.117188 18.9375 140.695312 17.632812 140.625 16.207031 C 140.566406 14.925781 140.78125 13.6875 141.4375 12.5625 C 142.402344 10.914062 143.851562 10.023438 145.753906 9.96875 C 146.53125 9.945312 147.339844 10.003906 148.089844 10.195312 C 149.605469 10.578125 150.65625 11.578125 151.308594 12.992188 C 151.40625 13.199219 151.445312 13.425781 151.511719 13.636719 C 150.589844 14.082031 150.109375 13.960938 149.625 13.210938 C 148.667969 11.71875 146.996094 11.085938 145.148438 11.519531 C 143.71875 11.851562 142.523438 13.25 142.335938 14.878906 C 142.234375 15.765625 142.207031 16.660156 142.503906 17.53125 C 143.019531 19.023438 143.976562 20.011719 145.582031 20.222656 C 147.253906 20.4375 148.648438 19.945312 149.609375 18.488281 C 150.148438 17.671875 150.40625 17.585938 151.523438 17.945312 Z M 151.523438 17.945312 " fill-opacity="1" fill-rule="nonzero"/><g clip-path="url(#aedf38b952)"><path fill="#ffffff" d="M 160.859375 16.382812 C 158.941406 16.382812 157.097656 16.382812 155.175781 16.382812 C 154.964844 18.113281 155.21875 19.816406 155.027344 21.523438 C 154.832031 21.570312 154.683594 21.628906 154.535156 21.640625 C 153.683594 21.691406 153.5625 21.585938 153.5625 20.75 C 153.554688 17.488281 153.558594 14.230469 153.5625 10.972656 C 153.5625 10.71875 153.609375 10.460938 153.640625 10.140625 C 154.101562 10.140625 154.503906 10.140625 154.992188 10.140625 C 155.027344 10.429688 155.085938 10.703125 155.089844 10.980469 C 155.101562 12.003906 155.089844 13.027344 155.097656 14.054688 C 155.101562 14.335938 155.140625 14.613281 155.171875 14.949219 C 157.085938 14.949219 158.929688 14.949219 160.84375 14.949219 C 160.875 14.621094 160.921875 14.339844 160.921875 14.058594 C 160.933594 13.0625 160.921875 12.0625 160.929688 11.0625 C 160.9375 10.101562 161.074219 9.984375 162.050781 10.082031 C 162.152344 10.089844 162.25 10.132812 162.429688 10.183594 C 162.460938 10.417969 162.519531 10.667969 162.519531 10.921875 C 162.527344 14.207031 162.527344 17.492188 162.519531 20.777344 C 162.519531 21.5625 161.902344 21.953125 161.222656 21.570312 C 161.054688 21.476562 160.949219 21.140625 160.945312 20.914062 C 160.914062 19.730469 160.933594 18.546875 160.925781 17.363281 C 160.921875 17.054688 160.882812 16.75 160.859375 16.382812 Z M 160.859375 16.382812 " fill-opacity="1" fill-rule="nonzero"/></g><path fill="#ffffff" d="M 129.980469 21.628906 C 129.453125 21.628906 129.035156 21.6875 128.644531 21.605469 C 128.445312 21.5625 128.238281 21.300781 128.140625 21.089844 C 127.917969 20.613281 127.738281 20.117188 127.589844 19.613281 C 127.453125 19.164062 127.199219 18.976562 126.734375 18.980469 C 125.472656 18.996094 124.210938 18.996094 122.953125 18.984375 C 122.527344 18.980469 122.265625 19.136719 122.140625 19.558594 C 122.003906 20.011719 121.820312 20.449219 121.652344 20.890625 C 121.371094 21.625 121.300781 21.671875 120.5 21.648438 C 120.34375 21.644531 120.1875 21.632812 120.03125 21.605469 C 119.964844 21.589844 119.902344 21.53125 119.789062 21.460938 C 119.867188 21.191406 119.933594 20.917969 120.035156 20.65625 C 121.222656 17.511719 122.410156 14.371094 123.601562 11.230469 C 123.945312 10.324219 124.589844 9.996094 125.496094 10.328125 C 125.714844 10.410156 125.90625 10.714844 126 10.960938 C 126.578125 12.425781 127.121094 13.902344 127.679688 15.378906 C 128.363281 17.195312 129.054688 19.011719 129.738281 20.828125 C 129.8125 21.019531 129.859375 21.222656 129.980469 21.628906 Z M 126.789062 17.683594 C 126.433594 16.039062 125.15625 12.804688 124.730469 12.480469 C 124.109375 14.199219 123.425781 15.878906 122.882812 17.683594 C 124.242188 17.683594 125.484375 17.683594 126.789062 17.683594 Z M 126.789062 17.683594 " fill-opacity="1" fill-rule="nonzero"/><path fill="#ffffff" d="M 110.078125 12.832031 C 109.507812 12.832031 109.003906 12.832031 108.480469 12.832031 C 108.410156 12.707031 108.347656 12.597656 108.285156 12.484375 C 107.667969 11.363281 106.644531 10.9375 105.429688 11.292969 C 104.261719 11.636719 103.832031 13.148438 104.703125 14.027344 C 105.058594 14.386719 105.558594 14.625 106.035156 14.828125 C 106.828125 15.164062 107.675781 15.382812 108.464844 15.734375 C 110.113281 16.472656 110.726562 17.925781 110.183594 19.632812 C 109.957031 20.34375 109.507812 20.875 108.875 21.246094 C 107.339844 22.148438 104.953125 21.878906 103.644531 20.667969 C 103 20.070312 102.707031 19.414062 102.71875 18.523438 C 103.199219 18.523438 103.679688 18.523438 104.179688 18.523438 C 104.234375 18.613281 104.296875 18.699219 104.335938 18.792969 C 104.867188 20.109375 105.808594 20.648438 107.191406 20.421875 C 108.539062 20.199219 109.175781 18.597656 108.269531 17.578125 C 107.902344 17.167969 107.359375 16.882812 106.84375 16.652344 C 106.054688 16.300781 105.203125 16.089844 104.410156 15.742188 C 102.773438 15.027344 102.164062 13.527344 102.761719 11.839844 C 103.046875 11.039062 103.617188 10.515625 104.382812 10.222656 C 105.605469 9.757812 106.867188 9.753906 108.078125 10.234375 C 109.191406 10.671875 109.902344 11.5 110.078125 12.832031 Z M 110.078125 12.832031 " fill-opacity="1" fill-rule="nonzero"/><path fill="#ffffff" d="M 101.058594 10.136719 C 101.058594 10.527344 101.058594 10.851562 101.058594 11.300781 C 99.457031 11.300781 97.898438 11.300781 96.277344 11.300781 C 96.277344 12.621094 96.277344 13.808594 96.277344 15.125 C 97.722656 15.152344 99.117188 15.179688 100.535156 15.207031 C 100.535156 15.660156 100.535156 15.984375 100.535156 16.410156 C 99.097656 16.410156 97.71875 16.410156 96.28125 16.410156 C 96.195312 17.757812 96.152344 19 96.3125 20.351562 C 97.90625 20.351562 99.445312 20.351562 101.054688 20.351562 C 101.082031 20.78125 101.101562 21.109375 101.132812 21.566406 C 98.960938 21.730469 96.867188 21.640625 94.703125 21.625 C 94.667969 21.238281 94.621094 20.960938 94.621094 20.679688 C 94.613281 17.472656 94.613281 14.265625 94.617188 11.0625 C 94.621094 10.113281 94.667969 10.066406 95.585938 10.0625 C 97.105469 10.054688 98.628906 10.058594 100.152344 10.0625 C 100.433594 10.066406 100.714844 10.109375 101.058594 10.136719 Z M 101.058594 10.136719 " fill-opacity="1" fill-rule="nonzero"/><path fill="#ffffff" d="M 113.929688 15.128906 C 115.371094 15.15625 116.746094 15.179688 118.175781 15.203125 C 118.175781 15.636719 118.175781 15.960938 118.175781 16.390625 C 116.765625 16.390625 115.386719 16.390625 113.933594 16.390625 C 113.800781 17.734375 113.828125 18.972656 113.921875 20.335938 C 115.507812 20.335938 117.042969 20.335938 118.671875 20.335938 C 118.695312 20.796875 118.714844 21.136719 118.734375 21.589844 C 116.558594 21.695312 114.480469 21.675781 112.339844 21.605469 C 112.304688 21.234375 112.257812 20.953125 112.257812 20.675781 C 112.253906 17.46875 112.25 14.261719 112.257812 11.058594 C 112.257812 10.109375 112.300781 10.066406 113.222656 10.0625 C 114.769531 10.054688 116.320312 10.054688 117.867188 10.0625 C 118.738281 10.070312 118.824219 10.199219 118.640625 11.210938 C 117.117188 11.429688 115.546875 11.195312 113.925781 11.355469 C 113.929688 12.59375 113.929688 13.785156 113.929688 15.128906 Z M 113.929688 15.128906 " fill-opacity="1" fill-rule="nonzero"/><path fill="#ffffff" d="M 31.355469 10.625 L 31.363281 10.589844 L 31.332031 10.601562 Z M 31.355469 10.625 " fill-opacity="1" fill-rule="nonzero"/></svg>