<?xml version="1.0" encoding="UTF-8"?>
<svg xmlns="http://www.w3.org/2000/svg" xmlns:xlink="http://www.w3.org/1999/xlink" width="21px" height="21px" viewBox="0 0 21 21" version="1.1">
<defs>
<clipPath id="clip1">
  <path d="M 1.503906 0.863281 L 19.792969 0.863281 L 19.792969 19.152344 L 1.503906 19.152344 Z M 1.503906 0.863281 "/>
</clipPath>
</defs>
<g id="surface1">
<g clip-path="url(#clip1)" clip-rule="nonzero">
<path style=" stroke:none;fill-rule:nonzero;fill:rgb(100%,100%,100%);fill-opacity:1;" d="M 19.492188 18.542969 L 19.1875 18.542969 L 19.1875 13.363281 C 19.1875 13.277344 19.15625 13.207031 19.097656 13.148438 C 19.039062 13.085938 18.964844 13.054688 18.882812 13.054688 L 17.054688 13.054688 C 16.96875 13.054688 16.898438 13.085938 16.839844 13.148438 C 16.777344 13.207031 16.746094 13.277344 16.746094 13.363281 L 16.746094 18.542969 L 15.527344 18.542969 L 15.527344 1.167969 C 15.527344 1.085938 15.5 1.011719 15.441406 0.953125 C 15.378906 0.894531 15.308594 0.863281 15.226562 0.863281 L 13.394531 0.863281 C 13.3125 0.863281 13.238281 0.894531 13.179688 0.953125 C 13.121094 1.011719 13.089844 1.085938 13.089844 1.167969 L 13.089844 18.542969 L 11.871094 18.542969 L 11.871094 4.523438 C 11.871094 4.4375 11.84375 4.367188 11.78125 4.308594 C 11.722656 4.246094 11.652344 4.214844 11.566406 4.214844 L 9.738281 4.214844 C 9.652344 4.214844 9.582031 4.246094 9.519531 4.308594 C 9.460938 4.367188 9.433594 4.4375 9.433594 4.523438 L 9.433594 18.542969 L 8.214844 18.542969 L 8.214844 10.3125 C 8.214844 10.230469 8.183594 10.15625 8.125 10.097656 C 8.0625 10.039062 7.992188 10.007812 7.90625 10.007812 L 6.078125 10.007812 C 5.992188 10.007812 5.921875 10.039062 5.863281 10.097656 C 5.804688 10.15625 5.773438 10.230469 5.773438 10.3125 L 5.773438 18.542969 L 4.554688 18.542969 L 4.554688 7.265625 C 4.554688 7.179688 4.527344 7.109375 4.464844 7.050781 C 4.40625 6.988281 4.335938 6.960938 4.25 6.960938 L 2.421875 6.960938 C 2.339844 6.960938 2.265625 6.988281 2.207031 7.050781 C 2.148438 7.109375 2.117188 7.179688 2.117188 7.265625 L 2.117188 18.542969 L 1.808594 18.542969 C 1.726562 18.542969 1.65625 18.574219 1.597656 18.632812 C 1.535156 18.691406 1.507812 18.765625 1.507812 18.847656 C 1.507812 18.933594 1.535156 19.003906 1.597656 19.0625 C 1.65625 19.125 1.726562 19.152344 1.808594 19.152344 L 19.492188 19.152344 C 19.574219 19.152344 19.648438 19.125 19.707031 19.0625 C 19.765625 19.003906 19.796875 18.933594 19.796875 18.847656 C 19.796875 18.765625 19.765625 18.691406 19.707031 18.632812 C 19.648438 18.574219 19.574219 18.542969 19.492188 18.542969 Z M 19.492188 18.542969 "/>
</g>
</g>
</svg>
