<?xml version="1.0" encoding="UTF-8"?>
<svg xmlns="http://www.w3.org/2000/svg" xmlns:xlink="http://www.w3.org/1999/xlink" width="24px" height="24px" viewBox="0 0 24 24" version="1.1">
<defs>
<clipPath id="clip1">
  <path d="M 6.398438 0.65625 L 17.601562 0.65625 L 17.601562 6 L 6.398438 6 Z M 6.398438 0.65625 "/>
</clipPath>
<clipPath id="clip2">
  <path d="M 2.117188 6.398438 L 21.859375 6.398438 L 21.859375 22.71875 L 2.117188 22.71875 Z M 2.117188 6.398438 "/>
</clipPath>
</defs>
<g id="surface1">
<g clip-path="url(#clip1)" clip-rule="nonzero">
<path style=" stroke:none;fill-rule:nonzero;fill:rgb(29.019608%,63.529412%,46.27451%);fill-opacity:1;" d="M 9.863281 4.507812 C 9.769531 4.539062 9.710938 4.570312 9.617188 4.570312 C 9.429688 4.570312 9.246094 4.476562 9.152344 4.289062 L 8.105469 2.335938 L 7.671875 2.519531 C 6.992188 2.800781 6.65625 3.578125 6.933594 4.289062 L 6.960938 4.382812 L 8.660156 5.96875 C 10.851562 5.503906 13.132812 5.503906 15.289062 5.96875 L 16.984375 4.382812 L 17.015625 4.289062 C 17.292969 3.609375 16.953125 2.800781 16.273438 2.519531 L 15.75 2.304688 L 14.734375 4.195312 C 14.640625 4.382812 14.457031 4.476562 14.273438 4.476562 C 14.179688 4.476562 14.117188 4.445312 14.023438 4.414062 C 13.777344 4.289062 13.683594 3.949219 13.808594 3.699219 L 15.039062 1.398438 C 14.792969 0.964844 14.332031 0.65625 13.777344 0.65625 L 10.171875 0.65625 C 9.585938 0.65625 9.089844 0.996094 8.84375 1.523438 L 10.078125 3.824219 C 10.199219 4.042969 10.109375 4.382812 9.863281 4.507812 Z M 9.863281 4.507812 "/>
</g>
<g clip-path="url(#clip2)" clip-rule="nonzero">
<path style=" stroke:none;fill-rule:nonzero;fill:rgb(29.019608%,63.529412%,46.27451%);fill-opacity:1;" d="M 15.414062 6.839844 C 13.191406 6.28125 10.820312 6.28125 8.566406 6.808594 C 6.59375 8.425781 2.925781 12.308594 2.367188 16.910156 C 2.152344 18.554688 2.492188 19.921875 3.386719 20.917969 C 4.191406 21.820312 5.269531 22.285156 6.164062 22.503906 C 11.25 22.472656 13.5625 21.164062 15.628906 19.738281 C 15.875 19.582031 16.179688 19.707031 16.335938 19.953125 C 16.460938 20.203125 16.335938 20.449219 16.121094 20.667969 C 15.007812 21.757812 14.054688 22.347656 13.191406 22.71875 L 16.304688 22.71875 C 16.460938 22.71875 19.050781 22.6875 20.589844 20.949219 C 21.484375 19.953125 21.824219 18.585938 21.609375 16.941406 C 21.023438 12.339844 17.382812 8.457031 15.414062 6.839844 Z M 10.851562 13.460938 L 11.960938 13.679688 L 13.347656 13.957031 L 13.4375 13.988281 L 13.5 14.019531 C 14.488281 14.515625 14.703125 15.105469 14.703125 15.507812 L 14.703125 15.570312 C 14.703125 16.566406 13.777344 17.375 12.605469 17.375 L 12.605469 18.273438 L 11.554688 18.273438 L 11.554688 17.375 L 11.339844 17.375 C 10.199219 17.375 9.246094 16.566406 9.246094 15.570312 L 9.246094 15.167969 L 10.292969 15.167969 L 10.292969 15.570312 C 10.292969 15.976562 10.789062 16.320312 11.339844 16.320312 L 12.605469 16.320312 C 13.164062 16.320312 13.652344 15.976562 13.652344 15.570312 L 13.652344 15.507812 C 13.652344 15.414062 13.5 15.230469 13.101562 14.980469 L 10.664062 14.484375 L 10.507812 14.453125 L 10.445312 14.421875 C 9.679688 14.019531 9.273438 13.523438 9.273438 12.960938 L 9.273438 12.898438 C 9.273438 11.90625 10.199219 11.097656 11.371094 11.097656 L 11.585938 11.097656 L 11.585938 10.257812 L 12.605469 10.257812 L 12.605469 11.097656 C 13.746094 11.097656 14.703125 11.90625 14.703125 12.898438 L 13.652344 12.898438 C 13.652344 12.496094 13.164062 12.152344 12.605469 12.152344 L 11.339844 12.152344 C 10.789062 12.152344 10.292969 12.496094 10.292969 12.898438 L 10.292969 12.960938 C 10.292969 13.054688 10.414062 13.242188 10.851562 13.460938 Z M 10.851562 13.460938 "/>
</g>
</g>
</svg>
