<svg xmlns="http://www.w3.org/2000/svg" xmlns:xlink="http://www.w3.org/1999/xlink" width="40" zoomAndPan="magnify" viewBox="0 0 30 30.000001" height="40" preserveAspectRatio="xMidYMid meet" version="1.0"><defs><clipPath id="a70f0d486a"><path d="M 2.152344 2 L 27.554688 2 L 27.554688 27.074219 L 2.152344 27.074219 Z M 2.152344 2 " clip-rule="nonzero"/></clipPath></defs><g clip-path="url(#a70f0d486a)"><path fill="#ffffff" d="M 27.464844 18.390625 C 27.421875 18.039062 27.375 17.683594 27.332031 17.328125 C 27.320312 17.074219 27.269531 16.824219 27.183594 16.585938 C 26.996094 16.175781 26.441406 16.164062 26.050781 16.140625 C 25.964844 16.136719 25.886719 16.109375 25.8125 16.066406 C 25.605469 15.910156 25.484375 15.699219 25.457031 15.4375 C 25.277344 14.582031 25.183594 13.644531 23.683594 12.800781 C 23.476562 12.675781 23.40625 12.492188 23.464844 12.261719 C 23.675781 11.339844 24.171875 9.441406 22.984375 8.949219 C 21.890625 8.496094 20.855469 9.492188 20.128906 10.175781 C 20.082031 10.222656 20.023438 10.257812 19.960938 10.28125 C 19.699219 10.730469 19.382812 11.136719 19.015625 11.503906 C 18.917969 11.601562 18.816406 11.695312 18.714844 11.785156 C 18.65625 12.003906 18.511719 12.117188 18.285156 12.125 C 18.238281 12.132812 18.191406 12.128906 18.144531 12.117188 C 17.738281 12.019531 17.328125 11.949219 16.910156 11.902344 C 15.171875 11.699219 13.476562 11.878906 11.820312 12.445312 C 11.804688 12.449219 11.796875 12.453125 11.785156 12.453125 C 11.660156 12.492188 11.542969 12.472656 11.433594 12.402344 C 11.324219 12.328125 11.265625 12.230469 11.25 12.097656 C 11.035156 11.945312 10.835938 11.777344 10.644531 11.597656 C 10.613281 11.570312 10.585938 11.542969 10.550781 11.503906 C 10.285156 11.238281 10.046875 10.949219 9.835938 10.640625 C 9.195312 10.914062 8.605469 11.273438 8.070312 11.714844 C 7.53125 12.15625 7.066406 12.664062 6.675781 13.238281 C 6.28125 13.8125 5.976562 14.429688 5.757812 15.09375 C 5.542969 15.753906 5.421875 16.429688 5.394531 17.125 L 4.832031 17.136719 L 4.746094 17.148438 C 4.863281 16.753906 4.855469 16.363281 4.722656 15.972656 C 4.59375 15.570312 4.320312 15.316406 3.910156 15.214844 C 3.503906 15.136719 3.148438 15.234375 2.839844 15.503906 C 2.226562 16.035156 2.359375 17.03125 2.90625 17.558594 C 2.996094 17.644531 3.09375 17.71875 3.199219 17.78125 C 3.1875 17.792969 3.183594 17.800781 3.179688 17.800781 C 3.125 17.835938 3.070312 17.871094 3.015625 17.902344 C 2.988281 17.914062 2.96875 17.925781 2.945312 17.9375 C 2.929688 17.945312 2.914062 17.953125 2.898438 17.957031 C 2.78125 18.003906 2.660156 18.035156 2.539062 18.0625 C 2.410156 18.097656 2.316406 18.171875 2.25 18.285156 C 2.1875 18.402344 2.171875 18.523438 2.203125 18.648438 C 2.242188 18.773438 2.320312 18.871094 2.433594 18.933594 C 2.546875 19 2.667969 19.015625 2.796875 18.984375 C 3.386719 18.863281 3.871094 18.566406 4.246094 18.09375 C 4.394531 18.105469 4.953125 18.09375 5.4375 18.082031 C 5.46875 18.382812 5.523438 18.679688 5.597656 18.972656 C 5.871094 20.03125 6.355469 20.984375 7.046875 21.832031 C 7.742188 22.675781 8.578125 23.339844 9.566406 23.816406 C 9.683594 23.832031 9.785156 23.886719 9.867188 23.976562 C 9.945312 24.066406 9.988281 24.171875 9.992188 24.292969 C 10.015625 24.636719 10.039062 24.984375 10.0625 25.328125 C 10.089844 25.648438 10.09375 25.972656 10.136719 26.285156 C 10.140625 26.289062 10.164062 26.414062 10.167969 26.429688 C 10.183594 26.496094 10.203125 26.558594 10.226562 26.617188 C 10.230469 26.617188 10.273438 26.695312 10.289062 26.726562 L 10.292969 26.730469 C 10.316406 26.75 10.339844 26.773438 10.363281 26.796875 C 10.371094 26.796875 10.445312 26.859375 10.460938 26.867188 C 10.484375 26.878906 10.507812 26.890625 10.53125 26.902344 C 10.539062 26.90625 10.542969 26.910156 10.550781 26.910156 C 10.609375 26.925781 10.664062 26.945312 10.722656 26.960938 C 10.765625 26.964844 10.804688 26.972656 10.847656 26.984375 C 11.089844 27.011719 11.335938 27.015625 11.578125 27 C 11.644531 26.996094 11.707031 26.992188 11.769531 26.984375 C 11.78125 26.984375 11.789062 26.984375 11.796875 26.980469 C 11.824219 26.976562 11.851562 26.972656 11.878906 26.96875 C 11.898438 26.964844 11.996094 26.929688 12.007812 26.929688 C 12.03125 26.917969 12.058594 26.902344 12.082031 26.890625 C 12.097656 26.875 12.101562 26.863281 12.109375 26.863281 C 12.121094 26.84375 12.128906 26.824219 12.140625 26.808594 C 12.140625 26.796875 12.171875 26.6875 12.175781 26.667969 C 12.179688 26.65625 12.179688 26.644531 12.183594 26.632812 L 12.183594 26.644531 C 12.183594 26.636719 12.183594 26.628906 12.183594 26.621094 C 12.1875 26.59375 12.1875 26.570312 12.191406 26.542969 C 12.203125 26.464844 12.207031 26.382812 12.214844 26.300781 C 12.242188 25.960938 12.273438 25.617188 12.304688 25.277344 C 12.308594 25.25 12.3125 25.222656 12.320312 25.195312 C 12.328125 25.070312 12.378906 24.964844 12.46875 24.882812 C 12.5625 24.796875 12.667969 24.753906 12.792969 24.757812 C 14.636719 25 16.480469 25.050781 18.332031 24.902344 C 18.34375 24.902344 18.359375 24.90625 18.371094 24.90625 C 18.496094 24.921875 18.605469 24.972656 18.699219 25.054688 C 19.019531 25.355469 18.757812 25.976562 19 26.570312 C 19.113281 26.84375 19.246094 26.894531 19.273438 26.902344 C 19.316406 26.917969 19.445312 26.945312 19.503906 26.957031 C 19.539062 26.960938 19.574219 26.96875 19.609375 26.972656 L 19.644531 26.976562 C 19.789062 26.992188 19.933594 26.996094 20.082031 26.992188 C 20.160156 26.988281 20.238281 26.980469 20.316406 26.972656 L 20.324219 26.972656 C 20.355469 26.972656 20.390625 26.964844 20.421875 26.957031 C 20.648438 26.890625 20.761719 26.859375 20.828125 26.78125 C 20.867188 26.683594 20.902344 26.578125 20.921875 26.476562 C 20.949219 26.371094 20.976562 26.265625 21 26.164062 C 21.007812 26.117188 21.015625 26.074219 21.023438 26.027344 C 21.027344 26.015625 21.039062 25.9375 21.042969 25.914062 C 21.042969 25.898438 21.054688 25.804688 21.058594 25.792969 C 21.0625 25.746094 21.066406 25.699219 21.070312 25.652344 C 21.078125 25.507812 21.082031 25.355469 21.082031 25.332031 C 21.082031 25.027344 21.054688 24.574219 21.054688 24.554688 C 21.035156 24.289062 21.097656 24.046875 21.234375 23.820312 C 21.324219 23.6875 21.433594 23.578125 21.566406 23.492188 C 21.574219 23.488281 21.578125 23.484375 21.585938 23.484375 C 22.308594 23.222656 22.953125 22.824219 23.515625 22.296875 C 23.796875 22.039062 24.046875 21.75 24.265625 21.4375 C 24.484375 21.125 24.671875 20.796875 24.824219 20.445312 C 24.898438 20.222656 25.054688 20.105469 25.289062 20.097656 C 25.886719 19.917969 26.503906 19.769531 27.085938 19.546875 C 27.273438 19.5 27.410156 19.390625 27.496094 19.214844 C 27.542969 18.9375 27.53125 18.664062 27.464844 18.390625 Z M 3.855469 16.726562 C 3.847656 16.757812 3.839844 16.796875 3.832031 16.835938 C 3.820312 16.894531 3.796875 16.953125 3.773438 17.015625 C 3.769531 17.007812 3.765625 17.007812 3.761719 17.007812 C 3.738281 16.992188 3.710938 16.976562 3.6875 16.960938 C 3.671875 16.949219 3.652344 16.933594 3.632812 16.921875 C 3.621094 16.914062 3.613281 16.902344 3.601562 16.894531 C 3.582031 16.875 3.5625 16.855469 3.539062 16.835938 C 3.527344 16.820312 3.515625 16.804688 3.503906 16.785156 C 3.496094 16.777344 3.484375 16.761719 3.476562 16.75 C 3.460938 16.726562 3.449219 16.695312 3.4375 16.671875 C 3.429688 16.667969 3.429688 16.660156 3.425781 16.65625 C 3.425781 16.648438 3.421875 16.640625 3.421875 16.632812 C 3.414062 16.59375 3.402344 16.558594 3.390625 16.523438 C 3.390625 16.484375 3.390625 16.4375 3.390625 16.398438 C 3.394531 16.375 3.402344 16.347656 3.410156 16.320312 C 3.410156 16.316406 3.410156 16.3125 3.414062 16.308594 L 3.417969 16.304688 C 3.425781 16.289062 3.4375 16.265625 3.449219 16.246094 C 3.449219 16.242188 3.453125 16.242188 3.453125 16.242188 C 3.453125 16.238281 3.472656 16.226562 3.484375 16.210938 C 3.496094 16.203125 3.503906 16.199219 3.507812 16.195312 C 3.527344 16.183594 3.546875 16.175781 3.566406 16.164062 C 3.59375 16.15625 3.617188 16.148438 3.636719 16.144531 C 3.644531 16.144531 3.640625 16.144531 3.644531 16.140625 C 3.65625 16.140625 3.671875 16.140625 3.683594 16.144531 C 3.691406 16.144531 3.710938 16.144531 3.722656 16.148438 L 3.730469 16.15625 C 3.734375 16.160156 3.738281 16.160156 3.738281 16.164062 L 3.757812 16.179688 C 3.769531 16.191406 3.777344 16.207031 3.789062 16.21875 C 3.796875 16.238281 3.8125 16.261719 3.824219 16.289062 C 3.820312 16.296875 3.824219 16.296875 3.824219 16.300781 C 3.832031 16.335938 3.84375 16.367188 3.851562 16.398438 C 3.855469 16.410156 3.855469 16.425781 3.855469 16.4375 C 3.859375 16.449219 3.859375 16.460938 3.859375 16.472656 C 3.863281 16.507812 3.863281 16.542969 3.863281 16.574219 C 3.863281 16.621094 3.855469 16.671875 3.855469 16.726562 Z M 23.550781 15.371094 C 23.46875 15.695312 23.296875 15.960938 23.039062 16.171875 C 22.78125 16.382812 22.484375 16.492188 22.152344 16.507812 C 21.816406 16.519531 21.511719 16.433594 21.238281 16.246094 C 20.960938 16.054688 20.773438 15.804688 20.664062 15.488281 C 20.621094 15.363281 20.625 15.238281 20.683594 15.121094 C 20.742188 15 20.832031 14.917969 20.957031 14.875 C 21.085938 14.828125 21.207031 14.835938 21.328125 14.894531 C 21.449219 14.949219 21.53125 15.042969 21.574219 15.167969 C 21.582031 15.191406 21.589844 15.210938 21.597656 15.234375 C 21.625 15.273438 21.648438 15.308594 21.675781 15.347656 C 21.683594 15.355469 21.695312 15.367188 21.703125 15.375 C 21.738281 15.402344 21.769531 15.425781 21.800781 15.457031 C 21.816406 15.464844 21.832031 15.472656 21.851562 15.484375 C 21.875 15.496094 21.898438 15.503906 21.917969 15.515625 C 21.957031 15.527344 21.992188 15.535156 22.03125 15.542969 L 22.035156 15.542969 C 22.042969 15.542969 22.046875 15.542969 22.050781 15.542969 C 22.070312 15.542969 22.085938 15.546875 22.101562 15.550781 C 22.089844 15.546875 22.085938 15.546875 22.078125 15.542969 C 22.117188 15.542969 22.15625 15.535156 22.195312 15.535156 C 22.21875 15.527344 22.238281 15.519531 22.257812 15.511719 C 22.28125 15.503906 22.296875 15.5 22.3125 15.492188 C 22.34375 15.464844 22.386719 15.445312 22.421875 15.421875 L 22.4375 15.410156 C 22.445312 15.402344 22.457031 15.390625 22.464844 15.382812 C 22.496094 15.351562 22.523438 15.316406 22.546875 15.285156 C 22.558594 15.261719 22.570312 15.242188 22.582031 15.21875 C 22.589844 15.203125 22.597656 15.183594 22.605469 15.167969 C 22.609375 15.160156 22.613281 15.152344 22.617188 15.144531 C 22.648438 15.019531 22.722656 14.921875 22.832031 14.851562 C 22.945312 14.785156 23.066406 14.765625 23.191406 14.796875 C 23.320312 14.828125 23.417969 14.898438 23.488281 15.011719 C 23.554688 15.121094 23.574219 15.242188 23.546875 15.371094 Z M 9.78125 8.152344 C 9.730469 7.871094 9.707031 7.589844 9.707031 7.304688 C 9.707031 7.273438 9.710938 7.242188 9.710938 7.210938 C 9.710938 7.101562 9.71875 6.984375 9.730469 6.875 C 9.777344 6.203125 9.953125 5.566406 10.257812 4.96875 C 10.40625 4.683594 10.578125 4.417969 10.773438 4.164062 C 10.882812 4.023438 11 3.890625 11.125 3.761719 C 11.148438 3.734375 11.171875 3.710938 11.195312 3.683594 C 11.410156 3.472656 11.636719 3.285156 11.878906 3.113281 C 12.367188 2.773438 12.898438 2.527344 13.472656 2.375 C 14.046875 2.222656 14.628906 2.171875 15.222656 2.222656 C 15.8125 2.273438 16.378906 2.425781 16.917969 2.675781 C 17.457031 2.929688 17.9375 3.261719 18.359375 3.683594 C 18.835938 4.15625 19.203125 4.703125 19.460938 5.324219 C 19.722656 5.945312 19.847656 6.589844 19.847656 7.261719 C 19.847656 7.363281 19.84375 7.460938 19.835938 7.558594 C 19.832031 7.710938 19.8125 7.867188 19.792969 8.015625 C 19.78125 8.097656 19.769531 8.179688 19.753906 8.257812 C 19.5625 9.28125 19.097656 10.15625 18.355469 10.886719 C 18.273438 10.96875 18.1875 11.046875 18.097656 11.121094 C 17.128906 10.921875 16.148438 10.835938 15.15625 10.867188 C 15.214844 10.785156 15.246094 10.695312 15.246094 10.597656 L 15.246094 10.078125 C 15.386719 10.066406 15.523438 10.039062 15.660156 9.992188 C 15.894531 9.910156 16.097656 9.777344 16.273438 9.601562 C 16.46875 9.40625 16.605469 9.179688 16.6875 8.921875 C 16.714844 8.832031 16.734375 8.746094 16.746094 8.65625 C 16.75 8.628906 16.75 8.605469 16.753906 8.582031 C 16.753906 8.535156 16.757812 8.488281 16.757812 8.441406 C 16.757812 8.414062 16.753906 8.386719 16.753906 8.355469 L 16.742188 8.285156 C 16.722656 8.082031 16.667969 7.890625 16.578125 7.707031 C 16.484375 7.527344 16.363281 7.367188 16.214844 7.230469 C 16.066406 7.09375 15.894531 6.988281 15.707031 6.914062 C 15.515625 6.839844 15.320312 6.804688 15.117188 6.804688 L 14.441406 6.804688 C 14.25 6.804688 14.085938 6.734375 13.949219 6.597656 C 13.945312 6.597656 13.945312 6.59375 13.941406 6.589844 C 13.820312 6.472656 13.753906 6.332031 13.734375 6.164062 C 13.734375 6.140625 13.730469 6.113281 13.730469 6.089844 C 13.730469 6.078125 13.734375 6.0625 13.734375 6.050781 C 13.738281 5.945312 13.765625 5.847656 13.820312 5.757812 C 13.851562 5.695312 13.890625 5.640625 13.941406 5.589844 C 14.078125 5.453125 14.246094 5.382812 14.441406 5.386719 L 15.117188 5.386719 C 15.3125 5.382812 15.480469 5.453125 15.617188 5.589844 C 15.753906 5.726562 15.824219 5.894531 15.824219 6.089844 C 15.824219 6.21875 15.871094 6.328125 15.960938 6.421875 C 16.050781 6.511719 16.164062 6.558594 16.292969 6.558594 C 16.414062 6.558594 16.519531 6.515625 16.609375 6.433594 C 16.679688 6.367188 16.726562 6.285156 16.75 6.191406 C 16.753906 6.167969 16.757812 6.144531 16.757812 6.121094 C 16.761719 6.113281 16.761719 6.101562 16.761719 6.089844 C 16.757812 5.886719 16.71875 5.6875 16.644531 5.496094 C 16.566406 5.304688 16.460938 5.132812 16.320312 4.980469 C 16.179688 4.828125 16.015625 4.707031 15.832031 4.617188 C 15.648438 4.527344 15.453125 4.472656 15.246094 4.457031 L 15.246094 3.929688 C 15.246094 3.804688 15.199219 3.695312 15.109375 3.605469 C 15.019531 3.515625 14.910156 3.46875 14.78125 3.46875 C 14.667969 3.46875 14.570312 3.503906 14.484375 3.578125 C 14.398438 3.648438 14.347656 3.742188 14.328125 3.851562 C 14.328125 3.855469 14.324219 3.859375 14.324219 3.863281 C 14.324219 3.867188 14.320312 3.871094 14.320312 3.875 C 14.316406 3.894531 14.3125 3.914062 14.3125 3.929688 L 14.3125 4.453125 C 13.910156 4.488281 13.566406 4.644531 13.285156 4.933594 C 13.214844 5.003906 13.148438 5.082031 13.089844 5.164062 C 12.933594 5.386719 12.84375 5.632812 12.816406 5.90625 C 12.8125 5.917969 12.8125 5.929688 12.8125 5.941406 C 12.808594 5.976562 12.804688 6.007812 12.804688 6.042969 C 12.800781 6.054688 12.800781 6.066406 12.800781 6.078125 L 12.800781 6.089844 C 12.800781 6.542969 12.960938 6.929688 13.285156 7.25 C 13.550781 7.519531 13.871094 7.675781 14.246094 7.722656 C 14.308594 7.730469 14.375 7.734375 14.441406 7.734375 L 15.117188 7.734375 C 15.15625 7.734375 15.195312 7.734375 15.234375 7.742188 C 15.382812 7.769531 15.511719 7.835938 15.617188 7.941406 C 15.621094 7.945312 15.625 7.949219 15.625 7.953125 C 15.757812 8.085938 15.824219 8.25 15.824219 8.441406 C 15.824219 8.453125 15.824219 8.464844 15.820312 8.480469 C 15.820312 8.511719 15.816406 8.546875 15.808594 8.578125 C 15.78125 8.71875 15.71875 8.835938 15.617188 8.9375 C 15.609375 8.945312 15.601562 8.953125 15.59375 8.960938 C 15.460938 9.085938 15.300781 9.148438 15.117188 9.148438 L 14.441406 9.148438 C 14.246094 9.152344 14.078125 9.082031 13.941406 8.9375 C 13.820312 8.820312 13.753906 8.675781 13.734375 8.507812 C 13.734375 8.488281 13.730469 8.464844 13.730469 8.441406 C 13.730469 8.230469 13.632812 8.089844 13.441406 8.007812 C 13.246094 7.929688 13.078125 7.964844 12.933594 8.117188 C 12.855469 8.191406 12.816406 8.285156 12.808594 8.394531 C 12.800781 8.410156 12.800781 8.425781 12.800781 8.441406 C 12.800781 8.894531 12.960938 9.28125 13.285156 9.601562 C 13.566406 9.886719 13.910156 10.046875 14.3125 10.078125 L 14.3125 10.597656 C 14.3125 10.71875 14.355469 10.824219 14.4375 10.910156 C 13.550781 10.988281 12.683594 11.160156 11.835938 11.433594 C 11.636719 11.292969 11.449219 11.136719 11.273438 10.964844 C 11.246094 10.941406 11.222656 10.917969 11.191406 10.886719 C 10.683594 10.382812 10.300781 9.796875 10.046875 9.128906 C 9.921875 8.8125 9.835938 8.488281 9.78125 8.152344 Z M 9.78125 8.152344 " fill-opacity="1" fill-rule="nonzero"/></g></svg>