<svg xmlns="http://www.w3.org/2000/svg" xmlns:xlink="http://www.w3.org/1999/xlink" width="40" zoomAndPan="magnify" viewBox="0 0 30 30.000001" height="40" preserveAspectRatio="xMidYMid meet" version="1.0"><defs><clipPath id="04a4088045"><path d="M 2.453125 3.707031 L 27.855469 3.707031 L 27.855469 22 L 2.453125 22 Z M 2.453125 3.707031 " clip-rule="nonzero"/></clipPath><clipPath id="b246c7f75e"><path d="M 3 16 L 27.855469 16 L 27.855469 21 L 3 21 Z M 3 16 " clip-rule="nonzero"/></clipPath><clipPath id="332ab1cb5d"><path d="M 11 19 L 20 19 L 20 25.484375 L 11 25.484375 Z M 11 19 " clip-rule="nonzero"/></clipPath></defs><g clip-path="url(#04a4088045)"><path fill="#4aa276" d="M 25.753906 21.242188 L 4.535156 21.242188 C 4.257812 21.242188 3.992188 21.1875 3.734375 21.082031 C 3.476562 20.976562 3.25 20.824219 3.050781 20.628906 C 2.855469 20.433594 2.703125 20.207031 2.597656 19.949219 C 2.492188 19.695312 2.4375 19.429688 2.4375 19.152344 L 2.4375 5.992188 C 2.4375 5.71875 2.492188 5.449219 2.597656 5.195312 C 2.703125 4.9375 2.855469 4.710938 3.050781 4.515625 C 3.25 4.320312 3.476562 4.167969 3.734375 4.0625 C 3.992188 3.957031 4.257812 3.90625 4.535156 3.90625 L 25.753906 3.90625 C 26.035156 3.90625 26.300781 3.957031 26.558594 4.0625 C 26.816406 4.167969 27.042969 4.320312 27.238281 4.515625 C 27.4375 4.710938 27.589844 4.9375 27.695312 5.195312 C 27.800781 5.449219 27.855469 5.71875 27.855469 5.992188 L 27.855469 19.152344 C 27.855469 19.429688 27.800781 19.695312 27.695312 19.949219 C 27.589844 20.207031 27.4375 20.433594 27.238281 20.628906 C 27.042969 20.824219 26.816406 20.976562 26.558594 21.082031 C 26.300781 21.1875 26.035156 21.242188 25.753906 21.242188 Z M 4.535156 5.296875 C 4.34375 5.296875 4.179688 5.367188 4.042969 5.5 C 3.90625 5.636719 3.835938 5.800781 3.835938 5.992188 L 3.835938 19.152344 C 3.835938 19.34375 3.90625 19.507812 4.042969 19.644531 C 4.179688 19.78125 4.34375 19.847656 4.535156 19.847656 L 25.753906 19.847656 C 25.949219 19.847656 26.113281 19.78125 26.25 19.644531 C 26.386719 19.507812 26.457031 19.34375 26.457031 19.152344 L 26.457031 5.992188 C 26.457031 5.800781 26.386719 5.636719 26.25 5.5 C 26.113281 5.367188 25.949219 5.296875 25.753906 5.296875 Z M 4.535156 5.296875 " fill-opacity="1" fill-rule="nonzero"/></g><g clip-path="url(#b246c7f75e)"><path fill="#4aa276" d="M 3.136719 16.867188 L 27.160156 16.867188 L 27.160156 20.542969 L 3.136719 20.542969 Z M 3.136719 16.867188 " fill-opacity="1" fill-rule="nonzero"/></g><g clip-path="url(#332ab1cb5d)"><path fill="#4aa276" d="M 18.582031 25.191406 L 11.757812 25.191406 C 11.65625 25.191406 11.5625 25.167969 11.472656 25.125 C 11.378906 25.078125 11.304688 25.015625 11.242188 24.9375 C 11.179688 24.855469 11.140625 24.769531 11.121094 24.667969 C 11.101562 24.570312 11.101562 24.472656 11.128906 24.375 L 12.3125 19.902344 L 18.058594 19.902344 L 19.238281 24.375 C 19.265625 24.476562 19.269531 24.574219 19.25 24.675781 C 19.226562 24.777344 19.183594 24.867188 19.117188 24.949219 C 19.054688 25.027344 18.972656 25.089844 18.878906 25.132812 C 18.785156 25.175781 18.6875 25.195312 18.582031 25.191406 Z M 18.582031 25.191406 " fill-opacity="1" fill-rule="nonzero"/></g></svg>