<svg xmlns="http://www.w3.org/2000/svg" xmlns:xlink="http://www.w3.org/1999/xlink" width="150" zoomAndPan="magnify" viewBox="0 0 112.5 30.000001" height="40" preserveAspectRatio="xMidYMid meet" version="1.0"><path fill="#ffffff" d="M 17.207031 3.492188 L 7.03125 3.492188 L 7.03125 27.238281 L 17.207031 27.238281 C 24.667969 27.238281 29.757812 22.351562 29.757812 15.363281 C 29.757812 8.308594 24.667969 3.492188 17.207031 3.492188 Z M 16.664062 20.113281 L 14.96875 20.113281 L 14.96875 10.617188 L 16.664062 10.617188 C 19.75 10.617188 21.683594 12.449219 21.683594 15.363281 C 21.683594 18.28125 19.75 20.113281 16.664062 20.113281 Z M 16.664062 20.113281 " fill-opacity="1" fill-rule="nonzero"/><path fill="#ffffff" d="M 51.769531 3.492188 L 31.011719 3.492188 L 31.011719 10.378906 L 37.421875 10.378906 L 37.421875 27.238281 L 45.359375 27.238281 L 45.359375 10.378906 L 51.769531 10.378906 Z M 51.769531 3.492188 " fill-opacity="1" fill-rule="nonzero"/><path fill="#ffffff" d="M 70.925781 2.664062 L 70.925781 13.464844 L 62.746094 2.664062 L 56.03125 2.664062 L 56.03125 26.519531 L 63.597656 26.519531 L 63.597656 15.273438 L 72.015625 26.519531 L 78.488281 26.519531 L 78.488281 2.664062 Z M 70.925781 2.664062 " fill-opacity="1" fill-rule="nonzero"/><path fill="#ffffff" d="M 105 2.664062 L 95.867188 2.664062 L 92.664062 10.058594 L 89.460938 2.664062 L 80.328125 2.664062 L 88.644531 17.65625 L 88.644531 26.519531 L 96.652344 26.519531 L 96.652344 17.625 Z M 105 2.664062 " fill-opacity="1" fill-rule="nonzero"/></svg>