<?xml version="1.0" encoding="UTF-8"?>
<svg xmlns="http://www.w3.org/2000/svg" xmlns:xlink="http://www.w3.org/1999/xlink" width="20px" height="20px" viewBox="0 0 20 20" version="1.1">
<defs>
<clipPath id="clip1">
  <path d="M 1.527344 3.40625 L 18.460938 3.40625 L 18.460938 15.988281 L 1.527344 15.988281 Z M 1.527344 3.40625 "/>
</clipPath>
</defs>
<g id="surface1">
<g clip-path="url(#clip1)" clip-rule="nonzero">
<path style=" stroke:none;fill-rule:nonzero;fill:rgb(100%,100%,100%);fill-opacity:1;" d="M 6.699219 3.664062 C 5.753906 3.867188 4.695312 4.296875 4.117188 4.730469 C 3.761719 4.988281 3.605469 5.207031 3.277344 5.894531 C 2.40625 7.707031 1.746094 10.335938 1.609375 12.542969 C 1.546875 13.496094 1.546875 13.503906 1.808594 13.882812 C 2.359375 14.691406 3.742188 15.472656 5.1875 15.800781 C 5.65625 15.914062 6.128906 15.988281 6.25 15.96875 C 6.394531 15.949219 6.636719 15.730469 6.957031 15.296875 C 7.238281 14.910156 7.496094 14.652344 7.597656 14.664062 C 7.675781 14.671875 8.070312 14.71875 8.464844 14.785156 C 9.378906 14.910156 10.605469 14.910156 11.519531 14.785156 C 11.917969 14.71875 12.308594 14.671875 12.390625 14.664062 C 12.492188 14.652344 12.746094 14.910156 13.03125 15.296875 C 13.351562 15.730469 13.589844 15.949219 13.738281 15.96875 C 13.855469 15.988281 14.332031 15.914062 14.800781 15.800781 C 16.246094 15.472656 17.628906 14.691406 18.175781 13.882812 C 18.441406 13.503906 18.441406 13.496094 18.378906 12.558594 C 18.238281 10.335938 17.582031 7.726562 16.710938 5.894531 C 16.382812 5.207031 16.226562 4.988281 15.871094 4.730469 C 15.253906 4.277344 14.214844 3.867188 13.121094 3.636719 C 12.070312 3.425781 11.941406 3.453125 11.777344 3.949219 L 11.667969 4.261719 L 8.308594 4.261719 L 8.246094 4.011719 C 8.089844 3.433594 7.941406 3.40625 6.699219 3.664062 Z M 14.160156 4.683594 C 15.144531 5.015625 15.621094 5.382812 15.980469 6.050781 C 16.777344 7.578125 17.496094 10.410156 17.644531 12.542969 L 17.707031 13.367188 L 17.230469 13.808594 C 16.675781 14.332031 15.722656 14.808594 14.707031 15.066406 L 13.972656 15.261719 L 13.683594 14.910156 C 13.519531 14.71875 13.378906 14.515625 13.378906 14.460938 C 13.378906 14.417969 13.699219 14.230469 14.09375 14.074219 C 14.917969 13.726562 15.667969 13.203125 15.667969 12.972656 C 15.667969 12.777344 15.503906 12.585938 15.328125 12.585938 C 15.265625 12.585938 14.988281 12.734375 14.726562 12.910156 C 14.121094 13.3125 13.308594 13.644531 12.300781 13.890625 C 11.15625 14.175781 8.832031 14.175781 7.6875 13.890625 C 6.679688 13.644531 5.863281 13.3125 5.261719 12.910156 C 4.996094 12.734375 4.722656 12.585938 4.660156 12.585938 C 4.484375 12.585938 4.316406 12.777344 4.316406 12.972656 C 4.316406 13.203125 5.070312 13.726562 5.902344 14.074219 C 6.285156 14.230469 6.605469 14.417969 6.605469 14.460938 C 6.605469 14.515625 6.46875 14.71875 6.304688 14.910156 L 6.011719 15.261719 L 5.28125 15.066406 C 4.261719 14.808594 3.3125 14.332031 2.753906 13.808594 L 2.285156 13.367188 L 2.339844 12.542969 C 2.496094 10.363281 3.246094 7.476562 4.054688 5.972656 C 4.261719 5.574219 4.4375 5.382812 4.804688 5.160156 C 5.390625 4.800781 6.480469 4.425781 7.128906 4.34375 C 7.832031 4.261719 7.742188 4.445312 6.957031 4.683594 C 6.589844 4.792969 5.976562 5.042969 5.582031 5.246094 C 4.988281 5.546875 4.867188 5.640625 4.867188 5.832031 C 4.867188 6.253906 5.160156 6.285156 5.847656 5.941406 C 7.183594 5.269531 8.347656 5.015625 9.992188 5.015625 C 11.660156 5.015625 12.566406 5.207031 14.039062 5.894531 C 14.707031 6.207031 14.863281 6.253906 14.980469 6.152344 C 15.054688 6.089844 15.121094 5.941406 15.121094 5.824219 C 15.121094 5.640625 14.988281 5.539062 14.402344 5.246094 C 14.011719 5.042969 13.398438 4.792969 13.03125 4.683594 C 12.410156 4.488281 12.300781 4.417969 12.425781 4.296875 C 12.492188 4.234375 13.425781 4.445312 14.160156 4.683594 Z M 14.160156 4.683594 "/>
</g>
<path style=" stroke:none;fill-rule:nonzero;fill:rgb(100%,100%,100%);fill-opacity:1;" d="M 7.019531 8.761719 C 5.828125 9.296875 5.621094 11.015625 6.636719 11.917969 C 7.441406 12.621094 8.613281 12.300781 9.089844 11.253906 C 9.738281 9.820312 8.363281 8.167969 7.019531 8.761719 Z M 8.050781 9.519531 C 8.546875 9.855469 8.667969 10.613281 8.316406 11.125 C 7.925781 11.714844 7.300781 11.714844 6.910156 11.125 C 6.441406 10.425781 6.871094 9.371094 7.613281 9.371094 C 7.742188 9.371094 7.941406 9.433594 8.050781 9.519531 Z M 8.050781 9.519531 "/>
<path style=" stroke:none;fill-rule:nonzero;fill:rgb(100%,100%,100%);fill-opacity:1;" d="M 11.777344 8.761719 C 10.589844 9.296875 10.378906 11.015625 11.394531 11.917969 C 12.199219 12.621094 13.371094 12.300781 13.847656 11.253906 C 14.496094 9.820312 13.121094 8.167969 11.777344 8.761719 Z M 12.8125 9.519531 C 13.308594 9.855469 13.425781 10.613281 13.078125 11.125 C 12.683594 11.714844 12.0625 11.714844 11.667969 11.125 C 11.199219 10.425781 11.632812 9.371094 12.371094 9.371094 C 12.5 9.371094 12.703125 9.433594 12.8125 9.519531 Z M 12.8125 9.519531 "/>
</g>
</svg>
