<?xml version="1.0" encoding="UTF-8"?>
<svg xmlns="http://www.w3.org/2000/svg" xmlns:xlink="http://www.w3.org/1999/xlink" width="24px" height="24px" viewBox="0 0 24 24" version="1.1">
<defs>
<clipPath id="clip1">
  <path d="M 5.601562 0.835938 L 18.308594 0.835938 L 18.308594 22.320312 L 5.601562 22.320312 Z M 5.601562 0.835938 "/>
</clipPath>
</defs>
<g id="surface1">
<g clip-path="url(#clip1)" clip-rule="nonzero">
<path style=" stroke:none;fill-rule:nonzero;fill:rgb(100%,100%,100%);fill-opacity:1;" d="M 10.960938 22.207031 L 12.832031 22.207031 C 13.253906 22.207031 13.601562 21.855469 13.601562 21.429688 L 13.601562 19.617188 L 14 19.519531 C 17.164062 18.714844 18.308594 16.503906 18.308594 14.871094 C 18.308594 11.832031 15.71875 10.574219 13.179688 9.742188 C 10.789062 8.941406 10.039062 8.460938 10.039062 7.757812 C 10.039062 7.132812 10.761719 6.476562 12.40625 6.476562 C 14.199219 6.476562 15.347656 7.007812 15.820312 7.230469 C 15.917969 7.28125 16.042969 7.304688 16.140625 7.304688 C 16.441406 7.304688 16.714844 7.132812 16.839844 6.855469 L 17.585938 5.273438 C 17.6875 5.097656 17.6875 4.867188 17.613281 4.667969 C 17.539062 4.46875 17.386719 4.316406 17.210938 4.214844 C 16.316406 3.789062 15.347656 3.511719 14.25 3.386719 L 13.800781 3.335938 L 13.800781 1.726562 C 13.800781 1.304688 13.453125 0.949219 13.027344 0.949219 L 11.1875 0.949219 C 10.761719 0.949219 10.414062 1.304688 10.414062 1.726562 L 10.414062 3.488281 L 10.015625 3.585938 C 7.429688 4.242188 5.910156 5.898438 5.910156 8.007812 C 5.910156 10.800781 8.648438 12.054688 11.335938 12.910156 C 13.824219 13.714844 14.148438 14.445312 14.148438 15.023438 C 14.148438 15.925781 12.980469 16.578125 11.386719 16.578125 C 10.015625 16.578125 8.570312 16.226562 7.476562 15.648438 C 7.351562 15.601562 7.226562 15.550781 7.101562 15.550781 C 7.027344 15.550781 6.929688 15.574219 6.851562 15.601562 C 6.65625 15.675781 6.480469 15.824219 6.40625 16.023438 L 5.683594 17.632812 C 5.535156 18.011719 5.660156 18.4375 6.007812 18.640625 C 6.902344 19.167969 8.273438 19.570312 9.695312 19.71875 L 10.164062 19.769531 L 10.164062 21.429688 C 10.164062 21.855469 10.515625 22.207031 10.960938 22.207031 Z M 10.960938 22.207031 "/>
</g>
</g>
</svg>
