<?xml version="1.0" encoding="UTF-8"?>
<svg xmlns="http://www.w3.org/2000/svg" xmlns:xlink="http://www.w3.org/1999/xlink" width="21px" height="21px" viewBox="0 0 21 21" version="1.1">
<defs>
<clipPath id="clip1">
  <path d="M 6.4375 10.5 L 10 10.5 L 10 14.261719 L 6.4375 14.261719 Z M 6.4375 10.5 "/>
</clipPath>
<clipPath id="clip2">
  <path d="M 8.398438 6.132812 L 14.5625 6.132812 L 14.5625 12.601562 L 8.398438 12.601562 Z M 8.398438 6.132812 "/>
</clipPath>
<clipPath id="clip3">
  <path d="M 0.683594 3.058594 L 20.496094 3.058594 L 20.496094 17.285156 L 0.683594 17.285156 Z M 0.683594 3.058594 "/>
</clipPath>
</defs>
<g id="surface1">
<g clip-path="url(#clip1)" clip-rule="nonzero">
<path style=" stroke:none;fill-rule:nonzero;fill:rgb(0.392157%,0.392157%,0.392157%);fill-opacity:1;" d="M 9.761719 12.738281 L 9.578125 12.671875 C 9.589844 12.539062 9.582031 12.398438 9.566406 12.265625 L 9.742188 12.1875 C 9.855469 12.136719 9.902344 12 9.847656 11.894531 L 9.742188 11.671875 C 9.691406 11.554688 9.558594 11.507812 9.453125 11.5625 L 9.273438 11.644531 C 9.191406 11.535156 9.089844 11.441406 8.976562 11.363281 L 9.046875 11.179688 C 9.082031 11.0625 9.023438 10.933594 8.910156 10.890625 L 8.683594 10.804688 C 8.570312 10.765625 8.4375 10.824219 8.398438 10.9375 L 8.332031 11.125 C 8.199219 11.109375 8.0625 11.117188 7.929688 11.136719 L 7.84375 10.949219 C 7.792969 10.839844 7.660156 10.792969 7.554688 10.84375 L 7.332031 10.949219 C 7.21875 11.003906 7.171875 11.136719 7.222656 11.242188 L 7.304688 11.425781 C 7.199219 11.507812 7.105469 11.609375 7.027344 11.722656 L 6.84375 11.65625 C 6.730469 11.617188 6.601562 11.675781 6.558594 11.789062 L 6.476562 12.019531 C 6.457031 12.074219 6.457031 12.136719 6.480469 12.195312 C 6.507812 12.246094 6.546875 12.289062 6.605469 12.308594 L 6.789062 12.371094 C 6.777344 12.507812 6.785156 12.644531 6.804688 12.78125 L 6.625 12.859375 C 6.511719 12.910156 6.464844 13.046875 6.519531 13.152344 L 6.625 13.375 C 6.679688 13.492188 6.8125 13.539062 6.914062 13.484375 L 7.09375 13.402344 C 7.179688 13.511719 7.277344 13.601562 7.390625 13.683594 L 7.324219 13.867188 C 7.304688 13.921875 7.304688 13.980469 7.332031 14.039062 C 7.359375 14.09375 7.394531 14.132812 7.457031 14.15625 L 7.6875 14.242188 C 7.738281 14.261719 7.796875 14.261719 7.859375 14.234375 C 7.910156 14.207031 7.953125 14.167969 7.972656 14.109375 L 8.035156 13.921875 C 8.167969 13.933594 8.308594 13.929688 8.4375 13.910156 L 8.519531 14.085938 C 8.570312 14.203125 8.699219 14.25 8.808594 14.195312 L 9.03125 14.085938 C 9.144531 14.035156 9.191406 13.902344 9.136719 13.792969 L 9.054688 13.617188 C 9.164062 13.53125 9.253906 13.429688 9.335938 13.316406 L 9.519531 13.382812 C 9.570312 13.402344 9.636719 13.402344 9.691406 13.375 C 9.742188 13.351562 9.78125 13.3125 9.800781 13.25 L 9.886719 13.019531 C 9.933594 12.910156 9.875 12.785156 9.761719 12.738281 Z M 8.550781 13.324219 C 8.429688 13.375 8.3125 13.402344 8.1875 13.402344 C 7.84375 13.402344 7.535156 13.203125 7.394531 12.890625 C 7.191406 12.453125 7.390625 11.925781 7.824219 11.722656 C 7.941406 11.671875 8.0625 11.644531 8.1875 11.644531 C 8.53125 11.644531 8.839844 11.84375 8.976562 12.152344 C 9.175781 12.601562 8.984375 13.117188 8.550781 13.324219 Z M 8.550781 13.324219 "/>
</g>
<g clip-path="url(#clip2)" clip-rule="nonzero">
<path style=" stroke:none;fill-rule:nonzero;fill:rgb(0.392157%,0.392157%,0.392157%);fill-opacity:1;" d="M 14.253906 9.464844 L 13.945312 9.347656 C 13.972656 9.125 13.957031 8.890625 13.921875 8.664062 L 14.214844 8.527344 C 14.398438 8.4375 14.488281 8.21875 14.398438 8.023438 L 14.230469 7.648438 C 14.140625 7.460938 13.925781 7.375 13.734375 7.460938 L 13.441406 7.601562 C 13.292969 7.421875 13.121094 7.261719 12.9375 7.136719 L 13.046875 6.820312 C 13.121094 6.628906 13.023438 6.410156 12.832031 6.34375 L 12.445312 6.199219 C 12.257812 6.132812 12.035156 6.230469 11.96875 6.417969 L 11.855469 6.730469 C 11.632812 6.703125 11.402344 6.71875 11.179688 6.757812 L 11.042969 6.457031 C 10.953125 6.273438 10.738281 6.183594 10.546875 6.273438 L 10.171875 6.445312 C 9.984375 6.53125 9.902344 6.75 9.984375 6.941406 L 10.125 7.242188 C 9.949219 7.386719 9.789062 7.558594 9.664062 7.746094 L 9.355469 7.632812 C 9.167969 7.570312 8.945312 7.667969 8.878906 7.851562 L 8.734375 8.246094 C 8.699219 8.339844 8.699219 8.4375 8.746094 8.53125 C 8.789062 8.625 8.863281 8.691406 8.957031 8.726562 L 9.265625 8.835938 C 9.242188 9.0625 9.246094 9.296875 9.292969 9.519531 L 9 9.660156 C 8.8125 9.746094 8.726562 9.964844 8.8125 10.160156 L 8.984375 10.539062 C 9.070312 10.722656 9.289062 10.8125 9.480469 10.722656 L 9.777344 10.585938 C 9.921875 10.765625 10.09375 10.921875 10.277344 11.050781 L 10.164062 11.363281 C 10.128906 11.457031 10.128906 11.554688 10.175781 11.648438 C 10.214844 11.742188 10.292969 11.808594 10.386719 11.84375 L 10.777344 11.988281 C 10.871094 12.019531 10.96875 12.019531 11.058594 11.972656 C 11.152344 11.933594 11.21875 11.855469 11.253906 11.761719 L 11.363281 11.449219 C 11.589844 11.476562 11.816406 11.46875 12.042969 11.425781 L 12.179688 11.722656 C 12.265625 11.90625 12.480469 11.996094 12.675781 11.90625 L 13.046875 11.734375 C 13.234375 11.648438 13.320312 11.429688 13.234375 11.238281 L 13.09375 10.9375 C 13.273438 10.792969 13.429688 10.617188 13.558594 10.429688 L 13.867188 10.546875 C 13.957031 10.578125 14.058594 10.578125 14.152344 10.53125 C 14.242188 10.492188 14.308594 10.414062 14.339844 10.320312 L 14.488281 9.929688 C 14.542969 9.746094 14.445312 9.535156 14.253906 9.464844 Z M 12.21875 10.441406 C 12.027344 10.53125 11.816406 10.570312 11.605469 10.570312 C 11.035156 10.570312 10.511719 10.234375 10.277344 9.714844 C 9.933594 8.976562 10.257812 8.09375 10.988281 7.753906 C 11.179688 7.660156 11.386719 7.621094 11.597656 7.621094 C 12.171875 7.621094 12.691406 7.960938 12.929688 8.480469 C 13.273438 9.21875 12.949219 10.101562 12.21875 10.441406 Z M 12.21875 10.441406 "/>
</g>
<g clip-path="url(#clip3)" clip-rule="nonzero">
<path style=" stroke:none;fill-rule:nonzero;fill:rgb(100%,100%,100%);fill-opacity:1;" d="M 18.78125 3.058594 L 2.398438 3.058594 C 1.457031 3.058594 0.691406 3.816406 0.691406 4.75 L 0.691406 15.589844 C 0.691406 16.523438 1.457031 17.285156 2.398438 17.285156 L 18.78125 17.285156 C 19.722656 17.285156 20.488281 16.523438 20.488281 15.589844 L 20.488281 4.75 C 20.488281 3.816406 19.722656 3.058594 18.78125 3.058594 Z M 18.78125 3.058594 "/>
<path style=" stroke:none;fill-rule:nonzero;fill:rgb(29.019608%,63.529412%,46.27451%);fill-opacity:1;" d="M 20.488281 4.75 C 20.488281 3.816406 19.722656 3.058594 18.78125 3.058594 L 2.398438 3.058594 C 1.457031 3.058594 0.691406 3.816406 0.691406 4.75 L 0.691406 15.589844 C 0.691406 16.050781 0.878906 16.464844 1.179688 16.773438 C 1.492188 17.085938 1.921875 17.285156 2.398438 17.285156 L 18.78125 17.285156 C 19.257812 17.285156 19.691406 17.085938 20 16.773438 C 20.300781 16.464844 20.488281 16.050781 20.488281 15.589844 Z M 14.097656 9.5 L 19.691406 4.289062 C 19.761719 4.429688 19.804688 4.585938 19.804688 4.75 L 19.804688 15.589844 C 19.804688 15.71875 19.777344 15.839844 19.734375 15.953125 Z M 18.78125 3.734375 C 18.925781 3.734375 19.066406 3.765625 19.191406 3.824219 L 13.398438 9.21875 C 13.398438 9.21875 13.398438 9.21875 13.394531 9.21875 C 13.394531 9.21875 13.394531 9.222656 13.394531 9.222656 L 10.589844 11.835938 L 7.785156 9.222656 C 7.785156 9.222656 7.785156 9.21875 7.78125 9.21875 C 7.78125 9.21875 7.78125 9.21875 7.777344 9.21875 L 1.992188 3.824219 C 2.113281 3.765625 2.253906 3.734375 2.398438 3.734375 Z M 1.445312 15.953125 C 1.402344 15.839844 1.375 15.71875 1.375 15.589844 L 1.375 4.75 C 1.375 4.585938 1.417969 4.429688 1.492188 4.289062 L 7.085938 9.5 Z M 2.398438 16.605469 C 2.214844 16.605469 2.046875 16.554688 1.898438 16.46875 L 7.582031 9.964844 L 10.355469 12.546875 C 10.421875 12.609375 10.503906 12.636719 10.585938 12.636719 C 10.667969 12.636719 10.753906 12.609375 10.820312 12.546875 L 13.589844 9.964844 L 19.28125 16.46875 C 19.132812 16.554688 18.964844 16.605469 18.78125 16.605469 Z M 2.398438 16.605469 "/>
<path style=" stroke:none;fill-rule:nonzero;fill:rgb(29.019608%,63.529412%,46.27451%);fill-opacity:1;" d="M 18.78125 3.058594 L 2.398438 3.058594 C 1.457031 3.058594 0.691406 3.816406 0.691406 4.75 L 0.691406 15.589844 C 0.691406 16.523438 1.457031 17.285156 2.398438 17.285156 L 18.78125 17.285156 C 19.722656 17.285156 20.488281 16.523438 20.488281 15.589844 L 20.488281 4.75 C 20.488281 3.816406 19.722656 3.058594 18.78125 3.058594 Z M 14.097656 9.5 L 19.691406 4.289062 C 19.761719 4.429688 19.804688 4.585938 19.804688 4.75 L 19.804688 15.589844 C 19.804688 15.71875 19.777344 15.839844 19.734375 15.953125 Z M 18.78125 3.734375 C 18.925781 3.734375 19.066406 3.765625 19.191406 3.824219 L 10.589844 11.835938 L 1.992188 3.824219 C 2.113281 3.765625 2.253906 3.734375 2.398438 3.734375 Z M 1.445312 15.953125 C 1.402344 15.839844 1.375 15.71875 1.375 15.589844 L 1.375 4.75 C 1.375 4.585938 1.417969 4.429688 1.492188 4.289062 L 7.085938 9.5 Z M 2.398438 16.605469 C 2.214844 16.605469 2.046875 16.554688 1.898438 16.46875 L 7.582031 9.964844 L 10.355469 12.546875 C 10.421875 12.609375 10.503906 12.636719 10.585938 12.636719 C 10.667969 12.636719 10.753906 12.609375 10.820312 12.546875 L 13.589844 9.964844 L 19.28125 16.46875 C 19.132812 16.554688 18.964844 16.605469 18.78125 16.605469 Z M 2.398438 16.605469 "/>
</g>
</g>
</svg>
