<?xml version="1.0" encoding="UTF-8"?>
<svg xmlns="http://www.w3.org/2000/svg" xmlns:xlink="http://www.w3.org/1999/xlink" width="20px" height="20px" viewBox="0 0 20 20" version="1.1">
<defs>
<clipPath id="clip1">
  <path d="M 6.667969 6.667969 L 17.296875 6.667969 L 17.296875 16.519531 L 6.667969 16.519531 Z M 6.667969 6.667969 "/>
</clipPath>
<clipPath id="clip2">
  <path d="M 2.78125 2.972656 L 15.332031 2.972656 L 15.332031 14.667969 L 2.78125 14.667969 Z M 2.78125 2.972656 "/>
</clipPath>
</defs>
<g id="surface1">
<g clip-path="url(#clip1)" clip-rule="nonzero">
<path style=" stroke:none;fill-rule:nonzero;fill:rgb(100%,100%,100%);fill-opacity:1;" d="M 16.261719 6.714844 L 16.261719 10.789062 C 16.261719 10.957031 16.242188 11.128906 16.210938 11.296875 C 16.175781 11.464844 16.128906 11.628906 16.0625 11.785156 C 15.996094 11.941406 15.917969 12.09375 15.824219 12.234375 C 15.730469 12.378906 15.621094 12.511719 15.5 12.628906 C 15.378906 12.75 15.25 12.859375 15.105469 12.953125 C 14.964844 13.050781 14.816406 13.128906 14.660156 13.195312 C 14.503906 13.261719 14.339844 13.308594 14.171875 13.34375 C 14.003906 13.378906 13.839844 13.394531 13.667969 13.394531 L 6.925781 13.394531 L 6.925781 13.914062 C 6.929688 14.121094 6.96875 14.320312 7.046875 14.511719 C 7.128906 14.703125 7.238281 14.871094 7.386719 15.019531 C 7.53125 15.164062 7.699219 15.277344 7.886719 15.355469 C 8.078125 15.4375 8.277344 15.476562 8.484375 15.476562 L 14.460938 15.476562 C 14.542969 15.480469 14.621094 15.496094 14.691406 15.535156 L 16.542969 16.460938 C 16.617188 16.5 16.695312 16.519531 16.777344 16.519531 C 16.878906 16.519531 16.96875 16.492188 17.050781 16.441406 C 17.214844 16.339844 17.296875 16.191406 17.296875 15.996094 L 17.296875 8.183594 C 17.292969 7.855469 17.199219 7.550781 17.011719 7.285156 C 16.820312 7.011719 16.570312 6.824219 16.261719 6.714844 Z M 16.261719 6.714844 "/>
</g>
<g clip-path="url(#clip2)" clip-rule="nonzero">
<path style=" stroke:none;fill-rule:nonzero;fill:rgb(100%,100%,100%);fill-opacity:1;" d="M 15.222656 10.789062 L 15.222656 4.535156 C 15.222656 4.328125 15.183594 4.128906 15.105469 3.9375 C 15.027344 3.746094 14.914062 3.578125 14.769531 3.433594 C 14.621094 3.285156 14.453125 3.171875 14.261719 3.09375 C 14.074219 3.011719 13.875 2.972656 13.667969 2.972656 L 4.335938 2.972656 C 4.128906 2.972656 3.933594 3.011719 3.738281 3.09375 C 3.550781 3.171875 3.382812 3.285156 3.238281 3.433594 C 3.089844 3.578125 2.976562 3.746094 2.898438 3.9375 C 2.820312 4.128906 2.78125 4.328125 2.78125 4.535156 L 2.78125 13.914062 C 2.78125 14.132812 2.878906 14.289062 3.074219 14.382812 C 3.269531 14.480469 3.453125 14.457031 3.621094 14.320312 L 5.929688 12.464844 C 6.027344 12.390625 6.132812 12.351562 6.253906 12.351562 L 13.667969 12.351562 C 13.875 12.351562 14.074219 12.3125 14.261719 12.230469 C 14.453125 12.152344 14.621094 12.039062 14.769531 11.894531 C 14.914062 11.746094 15.027344 11.578125 15.105469 11.386719 C 15.183594 11.195312 15.222656 10.996094 15.222656 10.789062 Z M 9.480469 9.945312 C 9.429688 10.082031 9.335938 10.175781 9.199219 10.226562 C 9.066406 10.285156 8.933594 10.285156 8.804688 10.226562 C 8.667969 10.175781 8.574219 10.082031 8.523438 9.945312 C 8.496094 9.878906 8.484375 9.816406 8.484375 9.746094 C 8.484375 9.605469 8.535156 9.480469 8.632812 9.378906 C 8.683594 9.332031 8.742188 9.292969 8.804688 9.269531 C 8.933594 9.207031 9.066406 9.207031 9.199219 9.269531 C 9.261719 9.292969 9.316406 9.332031 9.371094 9.378906 C 9.46875 9.480469 9.519531 9.605469 9.519531 9.746094 C 9.519531 9.816406 9.503906 9.878906 9.480469 9.945312 Z M 9.578125 8.121094 C 9.515625 8.160156 9.488281 8.214844 9.488281 8.285156 C 9.488281 8.429688 9.441406 8.550781 9.339844 8.65625 C 9.238281 8.757812 9.113281 8.808594 8.972656 8.808594 C 8.828125 8.808594 8.707031 8.757812 8.605469 8.65625 C 8.503906 8.550781 8.453125 8.429688 8.453125 8.285156 C 8.449219 8.042969 8.511719 7.816406 8.644531 7.613281 C 8.777344 7.40625 8.957031 7.253906 9.179688 7.160156 C 9.292969 7.113281 9.378906 7.035156 9.441406 6.933594 C 9.503906 6.828125 9.527344 6.714844 9.515625 6.59375 C 9.503906 6.472656 9.457031 6.367188 9.375 6.277344 C 9.292969 6.1875 9.191406 6.128906 9.074219 6.105469 C 8.941406 6.082031 8.8125 6.105469 8.695312 6.171875 C 8.578125 6.238281 8.496094 6.339844 8.449219 6.464844 C 8.402344 6.601562 8.3125 6.699219 8.183594 6.757812 C 8.054688 6.820312 7.925781 6.824219 7.789062 6.777344 C 7.65625 6.730469 7.558594 6.640625 7.496094 6.511719 C 7.433594 6.382812 7.425781 6.253906 7.472656 6.117188 C 7.519531 5.992188 7.574219 5.871094 7.652344 5.761719 C 7.722656 5.652344 7.808594 5.550781 7.90625 5.464844 C 8.003906 5.375 8.113281 5.300781 8.230469 5.238281 C 8.347656 5.175781 8.46875 5.128906 8.597656 5.097656 C 8.726562 5.066406 8.855469 5.050781 8.988281 5.054688 C 9.121094 5.058594 9.253906 5.074219 9.378906 5.109375 C 9.507812 5.144531 9.628906 5.191406 9.746094 5.257812 C 9.859375 5.324219 9.964844 5.402344 10.058594 5.492188 C 10.15625 5.582031 10.238281 5.683594 10.308594 5.796875 C 10.378906 5.910156 10.4375 6.027344 10.476562 6.15625 C 10.519531 6.28125 10.542969 6.410156 10.550781 6.542969 C 10.558594 6.675781 10.550781 6.808594 10.527344 6.941406 C 10.503906 7.070312 10.464844 7.195312 10.410156 7.316406 C 10.355469 7.4375 10.285156 7.550781 10.199219 7.652344 C 10.117188 7.753906 10.023438 7.847656 9.917969 7.925781 C 9.808594 8.003906 9.699219 8.070312 9.574219 8.121094 Z M 9.578125 8.121094 "/>
</g>
</g>
</svg>
