<?xml version="1.0" encoding="UTF-8"?>
<svg xmlns="http://www.w3.org/2000/svg" xmlns:xlink="http://www.w3.org/1999/xlink" width="30px" height="30px" viewBox="0 0 30 30" version="1.1">
<defs>
<clipPath id="clip1">
  <path d="M 1.507812 1.175781 L 28.363281 1.175781 L 28.363281 28 L 1.507812 28 Z M 1.507812 1.175781 "/>
</clipPath>
</defs>
<g id="surface1">
<g clip-path="url(#clip1)" clip-rule="nonzero">
<path style=" stroke:none;fill-rule:nonzero;fill:rgb(29.019608%,63.529412%,46.27451%);fill-opacity:1;" d="M 14.21875 1.539062 C 14.632812 1.179688 15.246094 1.179688 15.660156 1.539062 L 17.78125 3.398438 C 18.023438 3.609375 18.34375 3.707031 18.660156 3.660156 L 21.441406 3.257812 C 21.980469 3.179688 22.5 3.515625 22.652344 4.046875 L 23.445312 6.769531 C 23.535156 7.078125 23.753906 7.335938 24.042969 7.46875 L 26.597656 8.652344 C 27.09375 8.878906 27.351562 9.445312 27.195312 9.976562 L 26.40625 12.703125 C 26.316406 13.011719 26.363281 13.347656 26.539062 13.617188 L 28.054688 16.007812 C 28.351562 16.472656 28.261719 17.089844 27.847656 17.453125 L 25.726562 19.3125 C 25.488281 19.523438 25.347656 19.832031 25.347656 20.15625 L 25.347656 22.996094 C 25.347656 23.546875 24.945312 24.019531 24.402344 24.097656 L 21.621094 24.503906 C 21.308594 24.546875 21.027344 24.730469 20.855469 25.003906 L 19.335938 27.390625 C 19.039062 27.855469 18.449219 28.03125 17.949219 27.800781 L 15.394531 26.625 C 15.105469 26.488281 14.773438 26.488281 14.480469 26.625 L 11.925781 27.800781 C 11.429688 28.03125 10.839844 27.855469 10.542969 27.390625 L 9.023438 25.003906 C 8.851562 24.730469 8.570312 24.546875 8.253906 24.503906 L 5.476562 24.097656 C 4.933594 24.019531 4.53125 23.546875 4.53125 22.996094 L 4.53125 20.15625 C 4.53125 19.832031 4.390625 19.523438 4.148438 19.3125 L 2.027344 17.453125 C 1.613281 17.089844 1.527344 16.472656 1.824219 16.007812 L 3.339844 13.617188 C 3.511719 13.347656 3.558594 13.011719 3.46875 12.703125 L 2.679688 9.976562 C 2.527344 9.445312 2.78125 8.878906 3.28125 8.652344 L 5.832031 7.46875 C 6.125 7.335938 6.34375 7.078125 6.433594 6.769531 L 7.222656 4.046875 C 7.378906 3.515625 7.894531 3.179688 8.4375 3.257812 L 11.21875 3.660156 C 11.535156 3.707031 11.851562 3.609375 12.09375 3.398438 Z M 14.21875 1.539062 "/>
</g>
<path style=" stroke:none;fill-rule:evenodd;fill:rgb(100%,100%,100%);fill-opacity:1;" d="M 10.351562 14.648438 C 10.679688 14.324219 11.203125 14.332031 11.519531 14.664062 L 14.101562 17.347656 C 14.234375 17.480469 14.457031 17.449219 14.542969 17.28125 L 18.191406 10.28125 C 18.402344 9.871094 18.902344 9.714844 19.304688 9.929688 C 19.710938 10.144531 19.863281 10.652344 19.652344 11.058594 L 16.007812 18.0625 C 15.394531 19.234375 13.832031 19.460938 12.917969 18.511719 L 10.335938 15.828125 C 10.019531 15.5 10.027344 14.96875 10.351562 14.648438 Z M 10.351562 14.648438 "/>
</g>
</svg>
