<?xml version="1.0" encoding="UTF-8"?>
<svg xmlns="http://www.w3.org/2000/svg" xmlns:xlink="http://www.w3.org/1999/xlink" width="18px" height="18px" viewBox="0 0 18 18" version="1.1">
<defs>
<clipPath id="clip1">
  <path d="M 2.277344 0.871094 L 14 0.871094 L 14 16.550781 L 2.277344 16.550781 Z M 2.277344 0.871094 "/>
</clipPath>
</defs>
<g id="surface1">
<g clip-path="url(#clip1)" clip-rule="nonzero">
<path style=" stroke:none;fill-rule:nonzero;fill:rgb(94.509804%,27.843137%,22.745098%);fill-opacity:1;" d="M 8.183594 16.328125 C 6.582031 16.328125 2.628906 16.078125 2.277344 11.546875 C 2.277344 11.546875 3.300781 13.351562 3.300781 13.140625 C 3.308594 12.449219 2.277344 9.929688 4.855469 8.210938 C 8.007812 6.109375 7.054688 3.53125 6.304688 3.476562 C 6.304688 3.476562 8.324219 3.277344 8.503906 5.9375 C 8.605469 7.386719 9.832031 3.203125 9.105469 0.886719 C 9.105469 0.886719 12.789062 2.832031 12.332031 7.613281 C 12.332031 7.613281 12.902344 6.53125 13.859375 7.109375 C 13.859375 7.109375 13.257812 7.3125 13.457031 8.90625 C 13.660156 10.5 14.535156 16.328125 8.183594 16.328125 "/>
</g>
<path style=" stroke:none;fill-rule:nonzero;fill:rgb(96.862745%,57.647059%,14.901961%);fill-opacity:1;" d="M 7.707031 16.164062 C 6.671875 16.117188 4.703125 15.886719 4.703125 13.324219 C 4.703125 10.757812 7.28125 10.410156 7.28125 8.042969 C 7.28125 8.042969 8.503906 8.46875 8.382812 9.636719 C 8.382812 9.636719 10.78125 8.144531 10.582031 6.375 C 10.582031 6.375 15.777344 16.527344 7.707031 16.164062 "/>
<path style=" stroke:none;fill-rule:nonzero;fill:rgb(96.862745%,57.647059%,14.901961%);fill-opacity:1;" d="M 7.707031 16.164062 C 6.671875 16.117188 4.703125 15.886719 4.703125 13.324219 C 4.703125 10.757812 7.28125 10.410156 7.28125 8.042969 C 7.28125 8.042969 8.503906 8.46875 8.382812 9.636719 C 8.382812 9.636719 10.78125 8.144531 10.582031 6.375 C 10.582031 6.375 15.777344 16.527344 7.707031 16.164062 "/>
<path style=" stroke:none;fill-rule:nonzero;fill:rgb(100%,96.078431%,20%);fill-opacity:1;" d="M 8.207031 11.746094 C 8.207031 11.746094 8.832031 13.570312 7.804688 13.570312 C 7.09375 13.570312 7.179688 12.796875 7.179688 12.796875 C 7.179688 12.796875 5.191406 16.011719 8.207031 16.011719 C 8.816406 16.011719 9.882812 15.886719 9.882812 14.242188 C 9.882812 12.597656 8.957031 11.9375 8.207031 11.746094 "/>
</g>
</svg>
