<svg xmlns="http://www.w3.org/2000/svg" xmlns:xlink="http://www.w3.org/1999/xlink" width="200" zoomAndPan="magnify" viewBox="0 0 150 149.999998" height="200" preserveAspectRatio="xMidYMid meet" version="1.0"><defs><clipPath id="3d18dbc716"><path d="M 29 39 L 112.832031 39 L 112.832031 120 L 29 120 Z M 29 39 " clip-rule="nonzero"/></clipPath><clipPath id="9cd4ea4e9e"><path d="M 85 66.808594 L 142.878906 66.808594 L 142.878906 92 L 85 92 Z M 85 66.808594 " clip-rule="nonzero"/></clipPath></defs><g clip-path="url(#3d18dbc716)"><path fill="#4aa276" d="M 112.113281 103.980469 C 111.304688 96.992188 110.171875 90.039062 109.15625 83.078125 C 109.042969 82.285156 108.898438 81.5 108.714844 80.71875 C 108.535156 79.941406 108.316406 79.171875 108.066406 78.414062 C 107.816406 77.652344 107.53125 76.90625 107.214844 76.171875 C 106.894531 75.4375 106.546875 74.71875 106.164062 74.019531 C 105.78125 73.316406 105.367188 72.632812 104.925781 71.964844 C 104.480469 71.300781 104.007812 70.65625 103.507812 70.035156 C 103.003906 69.410156 102.476562 68.8125 101.921875 68.234375 C 101.367188 67.660156 100.785156 67.109375 100.179688 66.585938 C 99.578125 66.0625 98.949219 65.570312 98.300781 65.101562 C 97.652344 64.632812 96.984375 64.195312 96.292969 63.789062 C 95.605469 63.382812 94.902344 63.007812 94.179688 62.664062 C 93.457031 62.320312 92.722656 62.007812 91.972656 61.730469 C 91.222656 61.453125 90.460938 61.210938 89.6875 61 C 88.917969 60.792969 88.136719 60.617188 87.351562 60.480469 C 86.5625 60.339844 85.769531 60.234375 84.972656 60.167969 C 84.175781 60.097656 83.378906 60.066406 82.578125 60.070312 C 79.089844 60.070312 75.601562 60.070312 72.113281 60.070312 C 72.121094 59.882812 72.140625 59.699219 72.175781 59.515625 C 72.421875 58.410156 72.964844 57.476562 73.804688 56.710938 C 74.210938 56.355469 74.660156 56.066406 75.15625 55.851562 C 75.339844 55.761719 75.347656 55.757812 75.171875 55.851562 C 75.363281 55.78125 75.5625 55.71875 75.757812 55.660156 C 76.058594 55.578125 76.355469 55.511719 76.667969 55.453125 C 76.765625 55.445312 76.867188 55.429688 76.964844 55.402344 C 77.070312 55.390625 77.175781 55.375 77.28125 55.367188 C 77.652344 55.332031 78.027344 55.304688 78.390625 55.28125 C 79.082031 55.238281 79.769531 55.214844 80.457031 55.167969 C 83.613281 54.96875 86.832031 54.304688 88.925781 51.71875 C 89.433594 51.007812 89.855469 50.25 90.191406 49.445312 C 90.53125 48.640625 90.777344 47.808594 90.929688 46.949219 C 91.082031 46.089844 91.136719 45.222656 91.097656 44.351562 C 91.058594 43.480469 90.921875 42.621094 90.691406 41.78125 C 90.582031 41.402344 90.40625 41.054688 90.160156 40.746094 C 89.917969 40.433594 89.625 40.179688 89.28125 39.984375 C 88.9375 39.789062 88.570312 39.667969 88.179688 39.617188 C 87.789062 39.566406 87.402344 39.589844 87.019531 39.691406 C 86.640625 39.804688 86.296875 39.980469 85.988281 40.226562 C 85.679688 40.46875 85.429688 40.765625 85.234375 41.105469 C 85.039062 41.449219 84.917969 41.816406 84.863281 42.203125 C 84.8125 42.59375 84.832031 42.980469 84.929688 43.363281 C 85.136719 44.535156 85.117188 45.703125 84.878906 46.867188 C 84.777344 47.273438 84.585938 47.632812 84.3125 47.949219 C 84.039062 48.265625 83.707031 48.5 83.320312 48.660156 C 83.292969 48.648438 82.636719 48.886719 82.542969 48.910156 C 82.296875 48.972656 82.050781 49.019531 81.796875 49.058594 C 81.8125 49.050781 81.171875 49.140625 81.078125 49.144531 C 80.710938 49.175781 80.34375 49.199219 79.976562 49.21875 C 78.386719 49.273438 76.808594 49.417969 75.234375 49.660156 C 73.589844 49.953125 72.089844 50.585938 70.730469 51.554688 C 69.371094 52.527344 68.285156 53.742188 67.476562 55.203125 C 66.664062 56.71875 66.234375 58.335938 66.191406 60.054688 C 63.769531 60.054688 61.34375 60.046875 58.921875 60.085938 C 57.199219 60.105469 55.492188 60.257812 53.792969 60.554688 C 52.464844 60.804688 51.164062 61.152344 49.890625 61.597656 C 48.617188 62.046875 47.382812 62.589844 46.191406 63.222656 C 45 63.859375 43.863281 64.582031 42.78125 65.390625 C 41.699219 66.199219 40.683594 67.082031 39.738281 68.046875 C 38.789062 69.007812 37.921875 70.039062 37.128906 71.132812 C 36.339844 72.230469 35.636719 73.378906 35.019531 74.582031 C 34.402344 75.78125 33.882812 77.023438 33.457031 78.308594 C 33.03125 79.589844 32.703125 80.894531 32.472656 82.226562 C 31.355469 89.304688 30.390625 96.40625 29.429688 103.507812 C 29.273438 104.511719 29.234375 105.515625 29.308594 106.527344 C 29.382812 107.539062 29.570312 108.53125 29.871094 109.5 C 30.171875 110.46875 30.578125 111.390625 31.089844 112.265625 C 31.597656 113.144531 32.203125 113.949219 32.898438 114.6875 C 33.28125 115.117188 33.691406 115.519531 34.125 115.898438 C 34.558594 116.273438 35.015625 116.625 35.492188 116.945312 C 35.96875 117.265625 36.464844 117.554688 36.980469 117.816406 C 37.492188 118.074219 38.019531 118.300781 38.5625 118.496094 C 39.101562 118.691406 39.65625 118.851562 40.214844 118.976562 C 40.777344 119.101562 41.34375 119.191406 41.917969 119.25 C 42.488281 119.304688 43.0625 119.324219 43.640625 119.308594 C 44.214844 119.292969 44.785156 119.242188 45.355469 119.15625 C 45.921875 119.070312 46.484375 118.949219 47.039062 118.792969 C 47.59375 118.636719 48.136719 118.449219 48.664062 118.226562 C 49.195312 118.003906 49.710938 117.746094 50.210938 117.460938 C 50.707031 117.175781 51.1875 116.859375 51.648438 116.511719 C 52.105469 116.164062 52.542969 115.792969 52.957031 115.390625 C 53.371094 114.992188 53.757812 114.566406 54.117188 114.121094 C 54.480469 113.671875 54.8125 113.203125 55.113281 112.714844 C 55.417969 112.222656 55.6875 111.71875 55.929688 111.195312 C 57.410156 108.148438 58.949219 105.128906 60.453125 102.089844 C 60.519531 101.910156 60.636719 101.765625 60.800781 101.664062 C 60.96875 101.558594 61.148438 101.519531 61.339844 101.535156 C 67.605469 101.554688 73.875 101.554688 80.140625 101.535156 C 80.332031 101.511719 80.511719 101.550781 80.679688 101.652344 C 80.847656 101.753906 80.964844 101.894531 81.035156 102.078125 C 82.527344 105.09375 84.0625 108.085938 85.527344 111.113281 C 85.878906 111.890625 86.296875 112.628906 86.785156 113.332031 C 87.269531 114.03125 87.816406 114.683594 88.425781 115.28125 C 89.03125 115.882812 89.6875 116.421875 90.394531 116.902344 C 91.097656 117.382812 91.839844 117.792969 92.621094 118.136719 C 93.402344 118.480469 94.210938 118.75 95.039062 118.941406 C 95.871094 119.136719 96.710938 119.253906 97.566406 119.296875 C 98.417969 119.335938 99.265625 119.296875 100.109375 119.183594 C 100.957031 119.066406 101.785156 118.875 102.59375 118.605469 C 103.347656 118.367188 104.074219 118.066406 104.773438 117.703125 C 105.476562 117.339844 106.140625 116.917969 106.769531 116.441406 C 107.398438 115.964844 107.980469 115.4375 108.519531 114.855469 C 109.054688 114.277344 109.539062 113.660156 109.96875 112.996094 C 110.402344 112.335938 110.773438 111.640625 111.082031 110.914062 C 111.394531 110.1875 111.640625 109.441406 111.824219 108.671875 C 112.007812 107.90625 112.121094 107.128906 112.167969 106.339844 C 112.21875 105.550781 112.199219 104.765625 112.113281 103.980469 Z M 61.839844 83.753906 L 55.9375 83.753906 L 55.9375 89.636719 L 50.078125 89.636719 L 50.078125 83.785156 L 44.109375 83.785156 C 44.109375 81.847656 44.097656 80.03125 44.136719 78.214844 C 44.136719 78.089844 44.523438 77.867188 44.734375 77.863281 C 46.199219 77.832031 47.664062 77.847656 49.125 77.847656 L 50.023438 77.847656 L 50.023438 72.003906 L 55.90625 72.003906 L 55.90625 77.847656 C 57.707031 77.847656 59.375 77.875 61.039062 77.835938 C 61.683594 77.820312 61.878906 78.007812 61.859375 78.660156 C 61.804688 80.324219 61.839844 81.988281 61.839844 83.753906 Z M 88.546875 68.988281 C 88.804688 68.992188 89.058594 69.019531 89.3125 69.070312 C 89.566406 69.121094 89.8125 69.199219 90.046875 69.300781 C 90.285156 69.402344 90.511719 69.523438 90.726562 69.667969 C 90.941406 69.8125 91.136719 69.980469 91.316406 70.164062 C 91.5 70.347656 91.660156 70.546875 91.800781 70.765625 C 91.945312 70.980469 92.0625 71.207031 92.160156 71.445312 C 92.257812 71.6875 92.328125 71.933594 92.375 72.1875 C 92.425781 72.441406 92.449219 72.699219 92.445312 72.957031 C 92.441406 73.214844 92.414062 73.46875 92.363281 73.722656 C 92.308594 73.976562 92.230469 74.222656 92.128906 74.457031 C 92.027344 74.695312 91.90625 74.921875 91.757812 75.136719 C 91.613281 75.347656 91.449219 75.546875 91.261719 75.726562 C 91.078125 75.90625 90.878906 76.066406 90.660156 76.207031 C 90.445312 76.347656 90.21875 76.46875 89.976562 76.5625 C 89.738281 76.660156 89.492188 76.730469 89.238281 76.777344 C 88.984375 76.828125 88.726562 76.847656 88.46875 76.84375 C 88.210938 76.839844 87.953125 76.8125 87.703125 76.757812 C 87.449219 76.707031 87.203125 76.628906 86.96875 76.527344 C 86.730469 76.421875 86.503906 76.300781 86.292969 76.152344 C 86.078125 76.007812 85.882812 75.839844 85.703125 75.65625 C 85.523438 75.46875 85.363281 75.269531 85.222656 75.050781 C 85.082031 74.835938 84.964844 74.605469 84.867188 74.367188 C 84.773438 74.125 84.703125 73.878906 84.65625 73.625 C 84.609375 73.371094 84.585938 73.113281 84.589844 72.855469 C 84.597656 72.339844 84.703125 71.84375 84.90625 71.367188 C 85.109375 70.890625 85.398438 70.472656 85.765625 70.109375 C 86.136719 69.746094 86.5625 69.46875 87.042969 69.277344 C 87.523438 69.085938 88.019531 68.988281 88.539062 68.996094 Z M 80.636719 84.742188 C 80.117188 84.742188 79.613281 84.644531 79.132812 84.449219 C 78.648438 84.25 78.222656 83.96875 77.851562 83.601562 C 77.484375 83.234375 77.195312 82.808594 76.996094 82.328125 C 76.792969 81.847656 76.691406 81.347656 76.691406 80.824219 C 76.6875 80.300781 76.785156 79.800781 76.984375 79.316406 C 77.179688 78.835938 77.464844 78.410156 77.832031 78.039062 C 78.199219 77.667969 78.625 77.382812 79.105469 77.179688 C 79.585938 76.980469 80.085938 76.878906 80.609375 76.875 C 81.128906 76.875 81.632812 76.972656 82.113281 77.171875 C 82.597656 77.371094 83.023438 77.652344 83.390625 78.019531 C 83.761719 78.386719 84.046875 78.8125 84.25 79.292969 C 84.449219 79.773438 84.550781 80.277344 84.554688 80.796875 C 84.550781 81.316406 84.449219 81.816406 84.25 82.296875 C 84.050781 82.777344 83.769531 83.203125 83.402344 83.570312 C 83.035156 83.9375 82.613281 84.226562 82.136719 84.425781 C 81.65625 84.628906 81.15625 84.734375 80.636719 84.742188 Z M 88.546875 92.628906 C 88.023438 92.632812 87.523438 92.539062 87.039062 92.339844 C 86.554688 92.144531 86.128906 91.863281 85.757812 91.496094 C 85.386719 91.132812 85.101562 90.707031 84.898438 90.226562 C 84.695312 89.746094 84.589844 89.246094 84.589844 88.722656 C 84.585938 88.203125 84.679688 87.699219 84.878906 87.21875 C 85.074219 86.734375 85.355469 86.308594 85.722656 85.9375 C 86.085938 85.566406 86.511719 85.277344 86.992188 85.074219 C 87.472656 84.871094 87.972656 84.769531 88.492188 84.765625 C 89.015625 84.761719 89.515625 84.859375 90 85.054688 C 90.484375 85.25 90.910156 85.53125 91.28125 85.898438 C 91.652344 86.265625 91.9375 86.6875 92.140625 87.167969 C 92.34375 87.648438 92.449219 88.152344 92.449219 88.671875 C 92.453125 89.195312 92.359375 89.695312 92.160156 90.179688 C 91.964844 90.664062 91.683594 91.089844 91.316406 91.460938 C 90.953125 91.832031 90.527344 92.117188 90.046875 92.320312 C 89.566406 92.523438 89.066406 92.628906 88.546875 92.628906 Z M 96.371094 84.742188 C 95.851562 84.738281 95.351562 84.632812 94.871094 84.433594 C 94.394531 84.230469 93.972656 83.941406 93.605469 83.574219 C 93.242188 83.203125 92.960938 82.777344 92.761719 82.296875 C 92.566406 81.816406 92.46875 81.316406 92.472656 80.796875 C 92.472656 80.277344 92.574219 79.777344 92.773438 79.296875 C 92.972656 78.816406 93.257812 78.394531 93.625 78.027344 C 93.992188 77.660156 94.417969 77.375 94.898438 77.175781 C 95.378906 76.976562 95.878906 76.878906 96.398438 76.875 C 96.917969 76.875 97.417969 76.976562 97.898438 77.171875 C 98.378906 77.371094 98.804688 77.652344 99.171875 78.019531 C 99.539062 78.382812 99.824219 78.808594 100.027344 79.285156 C 100.226562 79.765625 100.332031 80.265625 100.332031 80.785156 C 100.335938 81.046875 100.3125 81.304688 100.261719 81.558594 C 100.214844 81.816406 100.140625 82.0625 100.039062 82.304688 C 99.941406 82.546875 99.820312 82.773438 99.675781 82.992188 C 99.53125 83.210938 99.367188 83.410156 99.183594 83.59375 C 98.996094 83.777344 98.796875 83.941406 98.578125 84.085938 C 98.363281 84.230469 98.132812 84.351562 97.890625 84.449219 C 97.652344 84.546875 97.402344 84.621094 97.148438 84.671875 C 96.890625 84.722656 96.632812 84.742188 96.371094 84.742188 Z M 96.371094 84.742188 " fill-opacity="1" fill-rule="nonzero"/></g><path fill="#ffffff" d="M 93.410156 82.328125 L 100.464844 69.699219 L 102.914062 68.839844 L 104.886719 75.441406 L 104.550781 75.546875 L 98.546875 83.460938 C 94.867188 88.855469 91.144531 85.867188 93.410156 82.328125 " fill-opacity="1" fill-rule="nonzero"/><g clip-path="url(#9cd4ea4e9e)"><path fill="#ffffff" d="M 86.664062 79.039062 L 98.863281 67.648438 L 120.492188 66.804688 L 142.8125 71.164062 L 142.8125 84.238281 C 137.546875 83.863281 133.847656 82.832031 127.5625 83.769531 L 109.726562 91.082031 C 102.976562 93.800781 101.960938 89.207031 105.289062 87.238281 L 112.40625 82.738281 C 120.445312 77.210938 112.359375 75.335938 112.359375 75.335938 L 101.5 75.382812 L 92.070312 81.988281 C 86.109375 86.628906 82.921875 82.128906 86.664062 79.039062 " fill-opacity="1" fill-rule="nonzero"/></g><path fill="#4aa276" d="M 106.554688 87.460938 C 106.789062 87.347656 107.023438 87.253906 107.253906 87.183594 L 108.691406 90.195312 C 108.496094 90.335938 108.28125 90.464844 108.050781 90.578125 C 106.628906 91.28125 105.140625 91.148438 104.730469 90.285156 C 104.316406 89.425781 105.136719 88.160156 106.554688 87.460938 " fill-opacity="1" fill-rule="nonzero"/><path fill="#4aa276" d="M 85.902344 80.320312 C 87.078125 82.351562 89.484375 79.09375 89.648438 78.933594 L 88.492188 77.691406 C 87.59375 78.609375 86.695312 79.445312 85.816406 80.171875 C 85.84375 80.222656 85.871094 80.273438 85.902344 80.320312 " fill-opacity="1" fill-rule="nonzero"/></svg>