<svg xmlns="http://www.w3.org/2000/svg" xmlns:xlink="http://www.w3.org/1999/xlink" width="300" zoomAndPan="magnify" viewBox="0 0 224.87999 225" height="300" preserveAspectRatio="xMidYMid meet" version="1.0"><defs><clipPath id="be21bf5997"><path d="M 5 39 L 221.21875 39 L 221.21875 177.179688 L 5 177.179688 Z M 5 39 " clip-rule="nonzero"/></clipPath></defs><g clip-path="url(#be21bf5997)"><path fill="#ffffff" d="M 289.609375 171.183594 L 268.71875 171.183594 L 268.71875 39.253906 L 289.582031 39.253906 L 289.582031 95.792969 L 313.320312 95.792969 L 313.320312 39.253906 L 334.574219 39.253906 L 334.574219 171.183594 L 313.320312 171.183594 L 313.320312 114.644531 L 289.609375 114.644531 Z M 352.53125 57.242188 L 370.492188 57.242188 L 370.492188 171.183594 L 352.574219 171.183594 Z M 388.453125 57.242188 L 416.191406 57.242188 C 433.726562 57.242188 442.335938 67.175781 442.335938 85.40625 L 442.335938 143.023438 C 442.335938 161.253906 433.726562 171.183594 416.191406 171.183594 L 388.453125 171.183594 Z M 406.015625 73.523438 L 406.015625 154.902344 L 415.910156 154.902344 C 421.476562 154.902344 424.832031 152.011719 424.832031 143.84375 L 424.832031 84.648438 C 424.832031 76.511719 421.476562 73.578125 415.910156 73.578125 L 406.015625 73.519531 Z M 471.882812 105.253906 L 495.949219 105.253906 L 495.949219 121.542969 L 471.882812 121.542969 L 471.882812 154.902344 L 502.207031 154.902344 L 502.207031 171.183594 L 454.308594 171.183594 L 454.308594 57.242188 L 502.207031 57.242188 L 502.207031 73.523438 L 471.882812 73.523438 Z M 520.164062 85.273438 C 520.164062 67.4375 529.683594 57.242188 547.105469 57.242188 C 564.527344 57.242188 574.046875 67.4375 574.046875 85.273438 L 574.046875 143.164062 C 574.046875 160.988281 564.527344 171.183594 547.105469 171.183594 C 529.683594 171.183594 520.164062 160.988281 520.164062 143.164062 Z M 537.90625 144.3125 C 537.90625 152.273438 541.457031 155.296875 547.105469 155.296875 C 552.757812 155.296875 556.308594 152.273438 556.308594 144.3125 L 556.308594 84.15625 C 556.308594 76.195312 552.757812 73.171875 547.105469 73.171875 C 541.457031 73.171875 537.90625 76.195312 537.90625 84.15625 Z M 610.078125 57.242188 L 610.078125 144.03125 C 610.078125 152.054688 613.6875 154.945312 619.445312 154.945312 C 625.199219 154.945312 628.796875 152.09375 628.796875 144.03125 L 628.796875 57.242188 L 645.890625 57.242188 L 645.890625 142.902344 C 645.890625 160.90625 636.695312 171.183594 618.949219 171.183594 C 601.203125 171.183594 592.007812 160.945312 592.007812 142.902344 L 592.007812 57.242188 Z M 657.960938 57.242188 L 711.746094 57.242188 L 711.746094 73.523438 L 693.503906 73.523438 L 693.503906 171.183594 L 676.105469 171.183594 L 676.105469 73.523438 L 657.863281 73.523438 Z M 711.746094 39.253906 L 777.601562 39.253906 L 777.601562 58.101562 L 755.371094 58.101562 L 755.371094 171.183594 L 734.046875 171.183594 L 734.046875 58.101562 L 711.746094 58.101562 Z M 826.257812 146.859375 L 826.628906 146.859375 L 842.324219 39.253906 L 861.417969 39.253906 L 841.003906 171.183594 L 809.992188 171.183594 L 789.574219 39.253906 L 810.566406 39.253906 Z M 226.472656 174.738281 C 219.480469 172.976562 212.390625 171.789062 205.203125 171.183594 C 204.351562 171.183594 203.136719 170.746094 202.796875 169.9375 L 170.949219 95.617188 C 170.804688 95.265625 170.601562 94.949219 170.339844 94.667969 C 170.082031 94.386719 169.785156 94.15625 169.445312 93.980469 C 169.109375 93.804688 168.75 93.691406 168.371094 93.640625 C 167.992188 93.589844 167.617188 93.605469 167.246094 93.6875 C 160.886719 95.160156 144.792969 98.707031 139.257812 100.292969 C 133.328125 101.972656 109.089844 109.242188 101.980469 111.390625 L 101.980469 83.316406 C 120.242188 78.773438 138.144531 90.675781 156.402344 85.304688 C 156.753906 85.191406 157.082031 85.03125 157.382812 84.820312 C 157.683594 84.609375 157.945312 84.359375 158.171875 84.066406 C 158.394531 83.773438 158.566406 83.453125 158.691406 83.105469 C 158.816406 82.761719 158.886719 82.402344 158.898438 82.035156 C 159.390625 70.039062 161.5625 58.046875 162.246094 46.054688 C 162.277344 45.535156 162.191406 45.039062 161.984375 44.566406 C 161.777344 44.089844 161.476562 43.6875 161.078125 43.355469 C 160.683594 43.027344 160.238281 42.8125 159.738281 42.707031 C 159.238281 42.601562 158.746094 42.617188 158.253906 42.753906 C 139.339844 47.257812 120.773438 34.277344 101.753906 41.488281 L 101.007812 41.488281 C 100.621094 41.492188 100.25 41.570312 99.894531 41.722656 C 99.539062 41.871094 99.226562 42.085938 98.957031 42.359375 C 98.683594 42.636719 98.476562 42.953125 98.332031 43.3125 C 98.1875 43.667969 98.117188 44.042969 98.121094 44.429688 L 98.121094 113.554688 C 93.988281 117.074219 84.039062 125.828125 78.089844 133.523438 C 74.585938 137.824219 70.726562 141.796875 66.558594 145.421875 C 63.300781 148.359375 59.9375 151.167969 56.46875 153.851562 C 54.8125 154.929688 53.125 156.003906 51.441406 157.046875 C 42.214844 162.726562 32.613281 167.722656 24.878906 170.164062 C 24.878906 170.164062 13.53125 173.484375 7.101562 175.691406 C 6.457031 175.914062 5.289062 176.269531 5.289062 176.722656 C 5.289062 177.179688 12.925781 177.28125 23.429688 177.082031 C 33.941406 176.875 44.417969 176.519531 54.914062 176.183594 L 86.375 175.175781 C 99.46875 174.738281 112.566406 174.351562 125.667969 174.019531 C 128.289062 173.972656 130.898438 173.871094 133.519531 173.839844 C 138.746094 173.730469 143.980469 173.660156 149.210938 173.601562 C 159.679688 173.601562 170.144531 173.601562 180.609375 173.886719 C 191.066406 174.164062 201.53125 174.679688 212.007812 175.148438 L 226.234375 175.8125 C 226.367188 175.8125 226.488281 175.773438 226.589844 175.691406 C 226.695312 175.605469 226.761719 175.5 226.789062 175.367188 C 226.820312 175.238281 226.800781 175.113281 226.742188 174.992188 C 226.679688 174.875 226.589844 174.785156 226.46875 174.734375 Z M 118.8125 46.046875 C 118.847656 45.652344 119.042969 45.367188 119.402344 45.195312 C 119.761719 45.03125 120.101562 45.0625 120.421875 45.296875 L 143.484375 61.910156 C 143.558594 61.960938 143.625 62.023438 143.683594 62.09375 C 143.742188 62.164062 143.789062 62.242188 143.828125 62.324219 C 143.867188 62.410156 143.894531 62.496094 143.910156 62.585938 C 143.925781 62.675781 143.929688 62.769531 143.921875 62.859375 C 143.914062 62.949219 143.894531 63.039062 143.863281 63.125 C 143.832031 63.210938 143.789062 63.292969 143.738281 63.367188 C 143.6875 63.445312 143.625 63.511719 143.554688 63.570312 C 143.488281 63.632812 143.410156 63.679688 143.328125 63.71875 L 117.703125 75.773438 C 117.347656 75.941406 117.007812 75.910156 116.6875 75.679688 C 116.367188 75.441406 116.222656 75.125 116.261719 74.730469 Z M 150.660156 110.214844 C 146.914062 114.589844 143.5 119.210938 140.410156 124.078125 C 125.109375 147.992188 112.539062 162.492188 107.464844 167.71875 C 107.046875 168.144531 106.539062 168.386719 105.941406 168.4375 C 105.191406 168.527344 104.441406 168.660156 103.707031 168.820312 C 100.859375 169.449219 98.050781 169.296875 95.289062 168.363281 L 94.839844 168.21875 C 94.648438 168.136719 94.46875 168.03125 94.304688 167.902344 C 94.136719 167.773438 93.992188 167.628906 93.863281 167.460938 C 93.734375 167.296875 93.628906 167.117188 93.546875 166.925781 C 93.464844 166.730469 93.40625 166.53125 93.375 166.324219 C 93.339844 166.117188 93.335938 165.910156 93.355469 165.699219 C 93.375 165.492188 93.421875 165.289062 93.492188 165.09375 C 93.566406 164.894531 93.660156 164.710938 93.777344 164.535156 C 93.898438 164.363281 94.035156 164.207031 94.191406 164.070312 C 101.773438 157.503906 118.03125 143.164062 127.761719 127.023438 C 127.878906 126.863281 127.898438 126.695312 127.820312 126.511719 C 127.875 126.441406 127.90625 126.359375 127.917969 126.269531 C 127.929688 126.183594 127.914062 126.097656 127.878906 126.015625 C 127.84375 125.933594 127.792969 125.863281 127.71875 125.808594 C 127.648438 125.753906 127.570312 125.722656 127.480469 125.710938 C 127.390625 125.703125 127.304688 125.714844 127.222656 125.746094 C 127.140625 125.78125 127.074219 125.835938 127.019531 125.90625 C 126.964844 125.976562 126.929688 126.058594 126.917969 126.148438 C 126.90625 126.234375 126.917969 126.320312 126.953125 126.40625 C 118.96875 135.808594 98.996094 158.03125 81.035156 167.128906 C 78.902344 168.234375 66.074219 171.015625 62.296875 171.351562 L 61.851562 171.351562 C 58.289062 170.996094 55.117188 169.558594 51.519531 168.660156 C 50.78125 168.464844 50.035156 168.304688 49.28125 168.179688 C 48.941406 168.113281 48.621094 167.996094 48.320312 167.828125 C 48.019531 167.664062 47.75 167.457031 47.511719 167.207031 C 47.273438 166.960938 47.078125 166.679688 46.925781 166.371094 C 46.773438 166.0625 46.671875 165.738281 46.617188 165.398438 C 46.566406 165.058594 46.566406 164.71875 46.617188 164.375 C 46.667969 164.035156 46.769531 163.710938 46.921875 163.402344 C 47.074219 163.09375 47.269531 162.8125 47.507812 162.566406 C 47.746094 162.316406 48.015625 162.109375 48.316406 161.941406 C 49.753906 161.109375 51.308594 160.257812 52.746094 159.375 L 53.96875 158.609375 C 54.644531 158.183594 55.308594 157.738281 55.96875 157.300781 C 63.839844 152.246094 71.628906 147.105469 79.347656 141.886719 C 83.847656 139.011719 88.171875 135.886719 92.320312 132.515625 C 94.175781 130.910156 92.71875 130.523438 91.511719 131.304688 C 88.296875 133.410156 82.101562 136.972656 78.757812 138.882812 C 78.558594 138.984375 78.390625 138.945312 78.257812 138.765625 C 78.121094 138.582031 78.128906 138.40625 78.28125 138.238281 C 83.574219 132.597656 98.660156 116.738281 103.707031 114.585938 C 109.800781 111.964844 123.347656 107.929688 135.011719 104.636719 C 135.207031 104.582031 135.402344 104.5625 135.605469 104.578125 C 135.808594 104.597656 136 104.652344 136.179688 104.742188 C 136.359375 104.832031 136.519531 104.949219 136.65625 105.101562 C 136.792969 105.25 136.898438 105.417969 136.96875 105.609375 C 137.046875 105.796875 137.085938 105.996094 137.089844 106.199219 C 137.09375 106.402344 137.0625 106.601562 136.996094 106.792969 C 136.929688 106.984375 136.828125 107.160156 136.695312 107.316406 C 136.566406 107.472656 136.410156 107.601562 136.234375 107.699219 C 127.242188 113.691406 121.953125 117.761719 120.082031 120.28125 C 119.988281 120.40625 119.941406 120.542969 119.949219 120.699219 C 119.957031 120.855469 120.011719 120.988281 120.117188 121.105469 C 120.21875 121.214844 120.347656 121.28125 120.496094 121.296875 C 120.648438 121.316406 120.789062 121.28125 120.914062 121.195312 C 132.3125 113.925781 138.078125 109.65625 147.519531 105.183594 C 150.734375 103.621094 152.996094 107.492188 150.660156 110.21875 Z M 197.632812 169.175781 C 193.3125 168.761719 170.003906 166.523438 164.269531 166.492188 C 164.148438 166.488281 164.050781 166.441406 163.96875 166.347656 C 163.886719 166.257812 163.851562 166.148438 163.863281 166.027344 L 169.964844 103.855469 C 169.902344 103.730469 169.902344 103.601562 169.96875 103.476562 C 170.035156 103.351562 170.136719 103.277344 170.277344 103.257812 C 170.417969 103.234375 170.535156 103.273438 170.636719 103.375 C 170.738281 103.476562 170.777344 103.597656 170.753906 103.738281 L 198.023438 168.597656 C 198.09375 168.738281 198.085938 168.875 197.992188 169.007812 C 197.90625 169.132812 197.789062 169.1875 197.632812 169.175781 Z M 197.632812 169.175781 " fill-opacity="1" fill-rule="nonzero"/></g></svg>