<svg xmlns="http://www.w3.org/2000/svg" xmlns:xlink="http://www.w3.org/1999/xlink" width="143" zoomAndPan="magnify" viewBox="0 0 107.25 30.000001" height="40" preserveAspectRatio="xMidYMid meet" version="1.0"><defs><clipPath id="d9fba7840c"><path d="M 1.886719 6 L 104.949219 6 L 104.949219 23.3125 L 1.886719 23.3125 Z M 1.886719 6 " clip-rule="nonzero"/></clipPath></defs><g clip-path="url(#d9fba7840c)"><path fill="#212935" d="M 36.121094 22.585938 L 33.605469 22.585938 L 33.605469 6.621094 L 36.117188 6.621094 L 36.117188 13.460938 L 38.972656 13.460938 L 38.972656 6.621094 L 41.53125 6.621094 L 41.53125 22.585938 L 38.972656 22.585938 L 38.972656 15.742188 L 36.121094 15.742188 Z M 43.691406 8.796875 L 45.851562 8.796875 L 45.851562 22.585938 L 43.695312 22.585938 Z M 48.015625 8.796875 L 51.351562 8.796875 C 53.460938 8.796875 54.5 10 54.5 12.203125 L 54.5 19.179688 C 54.5 21.386719 53.460938 22.585938 51.351562 22.585938 L 48.015625 22.585938 Z M 50.128906 10.765625 L 50.128906 20.617188 L 51.316406 20.617188 C 51.988281 20.617188 52.390625 20.265625 52.390625 19.277344 L 52.390625 12.113281 C 52.390625 11.128906 51.988281 10.773438 51.316406 10.773438 Z M 58.054688 14.609375 L 60.949219 14.609375 L 60.949219 16.578125 L 58.054688 16.578125 L 58.054688 20.617188 L 61.703125 20.617188 L 61.703125 22.585938 L 55.9375 22.585938 L 55.9375 8.796875 L 61.703125 8.796875 L 61.703125 10.765625 L 58.054688 10.765625 Z M 63.863281 12.1875 C 63.863281 10.03125 65.011719 8.796875 67.105469 8.796875 C 69.203125 8.796875 70.347656 10.03125 70.347656 12.1875 L 70.347656 19.195312 C 70.347656 21.351562 69.203125 22.585938 67.105469 22.585938 C 65.011719 22.585938 63.863281 21.351562 63.863281 19.195312 Z M 66 19.335938 C 66 20.296875 66.425781 20.664062 67.105469 20.664062 C 67.785156 20.664062 68.214844 20.296875 68.214844 19.335938 L 68.214844 12.054688 C 68.214844 11.089844 67.785156 10.722656 67.105469 10.722656 C 66.425781 10.722656 66 11.089844 66 12.054688 Z M 74.683594 8.796875 L 74.683594 19.300781 C 74.683594 20.273438 75.117188 20.621094 75.8125 20.621094 C 76.503906 20.621094 76.9375 20.277344 76.9375 19.300781 L 76.9375 8.796875 L 78.992188 8.796875 L 78.992188 19.164062 C 78.992188 21.34375 77.886719 22.585938 75.753906 22.585938 C 73.617188 22.585938 72.511719 21.347656 72.511719 19.164062 L 72.511719 8.796875 Z M 80.445312 8.796875 L 86.917969 8.796875 L 86.917969 10.765625 L 84.722656 10.765625 L 84.722656 22.585938 L 82.628906 22.585938 L 82.628906 10.765625 L 80.433594 10.765625 Z M 86.917969 6.621094 L 94.84375 6.621094 L 94.84375 8.902344 L 92.167969 8.902344 L 92.167969 22.585938 L 89.601562 22.585938 L 89.601562 8.902344 L 86.917969 8.902344 Z M 100.699219 19.644531 L 100.746094 19.644531 L 102.632812 6.621094 L 104.929688 6.621094 L 102.472656 22.585938 L 98.742188 22.585938 L 96.285156 6.621094 L 98.8125 6.621094 Z M 28.519531 23.015625 C 27.679688 22.804688 26.824219 22.660156 25.960938 22.585938 C 25.859375 22.585938 25.710938 22.535156 25.671875 22.4375 L 21.839844 13.441406 C 21.753906 13.238281 21.605469 13.160156 21.394531 13.207031 C 20.628906 13.386719 18.691406 13.816406 18.023438 14.007812 C 17.3125 14.210938 14.394531 15.089844 13.539062 15.351562 L 13.539062 11.953125 C 15.738281 11.402344 17.890625 12.84375 20.089844 12.191406 C 20.28125 12.132812 20.382812 12 20.390625 11.796875 C 20.449219 10.34375 20.710938 8.894531 20.792969 7.441406 C 20.800781 7.308594 20.753906 7.199219 20.652344 7.117188 C 20.550781 7.03125 20.4375 7.007812 20.3125 7.042969 C 18.035156 7.589844 15.800781 6.015625 13.511719 6.890625 L 13.421875 6.890625 C 13.324219 6.890625 13.242188 6.925781 13.175781 6.996094 C 13.109375 7.066406 13.074219 7.148438 13.074219 7.246094 L 13.074219 15.613281 C 12.578125 16.039062 11.378906 17.097656 10.664062 18.027344 C 10.242188 18.550781 9.777344 19.03125 9.277344 19.46875 C 8.886719 19.824219 8.480469 20.164062 8.0625 20.488281 C 7.863281 20.621094 7.660156 20.75 7.457031 20.875 C 6.347656 21.5625 5.191406 22.167969 4.261719 22.464844 C 4.261719 22.464844 2.894531 22.867188 2.121094 23.132812 C 2.042969 23.160156 1.902344 23.203125 1.902344 23.257812 C 1.902344 23.3125 2.824219 23.324219 4.085938 23.300781 C 5.351562 23.277344 6.613281 23.234375 7.875 23.191406 L 11.660156 23.070312 C 13.238281 23.015625 14.8125 22.96875 16.390625 22.929688 C 16.707031 22.925781 17.019531 22.914062 17.335938 22.910156 C 17.964844 22.894531 18.59375 22.886719 19.222656 22.878906 C 20.484375 22.878906 21.742188 22.878906 23 22.914062 C 24.261719 22.949219 25.519531 23.011719 26.78125 23.066406 L 28.492188 23.148438 C 28.527344 23.148438 28.550781 23.128906 28.558594 23.09375 C 28.566406 23.058594 28.554688 23.03125 28.519531 23.015625 Z M 15.566406 7.441406 C 15.570312 7.394531 15.59375 7.359375 15.636719 7.339844 C 15.679688 7.316406 15.71875 7.324219 15.757812 7.351562 L 18.535156 9.363281 C 18.574219 9.390625 18.589844 9.429688 18.585938 9.476562 C 18.582031 9.523438 18.558594 9.558594 18.515625 9.582031 L 15.433594 11.039062 C 15.386719 11.058594 15.347656 11.054688 15.308594 11.027344 C 15.269531 11 15.253906 10.960938 15.257812 10.914062 Z M 19.398438 15.207031 C 18.945312 15.738281 18.535156 16.296875 18.164062 16.886719 C 16.324219 19.78125 14.808594 21.535156 14.199219 22.167969 C 14.148438 22.21875 14.089844 22.25 14.015625 22.253906 C 13.925781 22.265625 13.835938 22.28125 13.746094 22.300781 C 13.40625 22.378906 13.066406 22.359375 12.734375 22.246094 L 12.679688 22.226562 C 12.632812 22.207031 12.59375 22.175781 12.5625 22.136719 C 12.53125 22.097656 12.511719 22.050781 12.503906 22 C 12.496094 21.949219 12.5 21.898438 12.519531 21.851562 C 12.535156 21.800781 12.5625 21.761719 12.601562 21.726562 C 13.515625 20.929688 15.472656 19.195312 16.640625 17.242188 C 16.65625 17.222656 16.660156 17.203125 16.648438 17.179688 C 16.664062 17.160156 16.664062 17.140625 16.65625 17.121094 C 16.648438 17.097656 16.632812 17.085938 16.609375 17.082031 C 16.585938 17.082031 16.566406 17.089844 16.550781 17.105469 C 16.539062 17.125 16.535156 17.144531 16.542969 17.167969 C 15.582031 18.304688 13.179688 20.996094 11.019531 22.097656 C 10.761719 22.230469 9.21875 22.566406 8.765625 22.605469 L 8.710938 22.605469 C 8.28125 22.566406 7.898438 22.390625 7.46875 22.28125 C 7.378906 22.257812 7.289062 22.238281 7.199219 22.222656 C 7.011719 22.1875 6.90625 22.074219 6.878906 21.886719 C 6.847656 21.699219 6.917969 21.558594 7.082031 21.46875 C 7.253906 21.367188 7.441406 21.265625 7.613281 21.15625 L 7.761719 21.066406 C 7.84375 21.011719 7.921875 20.960938 8.003906 20.90625 C 8.949219 20.292969 9.886719 19.671875 10.816406 19.042969 C 11.359375 18.691406 11.878906 18.316406 12.375 17.90625 C 12.601562 17.710938 12.425781 17.667969 12.28125 17.761719 C 11.894531 18.015625 11.148438 18.445312 10.746094 18.679688 C 10.722656 18.691406 10.699219 18.683594 10.683594 18.664062 C 10.667969 18.640625 10.667969 18.621094 10.6875 18.597656 C 11.324219 17.917969 13.140625 15.996094 13.746094 15.738281 C 14.480469 15.417969 16.109375 14.929688 17.515625 14.53125 C 17.628906 14.5 17.707031 14.539062 17.75 14.648438 C 17.792969 14.761719 17.765625 14.84375 17.660156 14.902344 C 16.578125 15.628906 15.941406 16.121094 15.71875 16.425781 C 15.691406 16.460938 15.691406 16.492188 15.722656 16.527344 C 15.75 16.558594 15.78125 16.5625 15.816406 16.535156 C 17.191406 15.65625 17.882812 15.140625 19.019531 14.597656 C 19.40625 14.410156 19.679688 14.878906 19.398438 15.207031 Z M 25.050781 22.34375 C 24.53125 22.292969 21.726562 22.023438 21.035156 22.019531 C 21.019531 22.019531 21.007812 22.011719 21 22.003906 C 20.988281 21.992188 20.984375 21.976562 20.988281 21.960938 L 21.71875 14.4375 C 21.699219 14.398438 21.714844 14.371094 21.757812 14.367188 C 21.804688 14.359375 21.824219 14.378906 21.816406 14.425781 L 25.097656 22.273438 C 25.105469 22.292969 25.105469 22.308594 25.09375 22.324219 C 25.082031 22.339844 25.070312 22.34375 25.050781 22.34375 Z M 25.050781 22.34375 " fill-opacity="1" fill-rule="nonzero"/></g></svg>