<?xml version="1.0" encoding="UTF-8"?>
<svg xmlns="http://www.w3.org/2000/svg" xmlns:xlink="http://www.w3.org/1999/xlink" width="24px" height="24px" viewBox="0 0 24 24" version="1.1">
<defs>
<clipPath id="clip1">
  <path d="M 0.691406 2.398438 L 22.398438 2.398438 L 22.398438 20.800781 L 0.691406 20.800781 Z M 0.691406 2.398438 "/>
</clipPath>
</defs>
<g id="surface1">
<path style=" stroke:none;fill-rule:nonzero;fill:rgb(29.019608%,63.529412%,46.27451%);fill-opacity:1;" d="M 16.523438 14.015625 C 16.726562 14.132812 16.980469 14.0625 17.09375 13.863281 C 17.210938 13.664062 17.140625 13.414062 16.945312 13.304688 L 13.316406 11.230469 L 13.316406 6.679688 C 13.316406 6.453125 13.128906 6.269531 12.898438 6.269531 C 12.664062 6.269531 12.476562 6.453125 12.476562 6.679688 L 12.476562 11.710938 L 16.523438 14.015625 "/>
<g clip-path="url(#clip1)" clip-rule="nonzero">
<path style=" stroke:none;fill-rule:nonzero;fill:rgb(29.019608%,63.529412%,46.27451%);fill-opacity:1;" d="M 8.257812 11.523438 L 5.449219 11.523438 C 5.449219 7.429688 8.804688 4.113281 12.945312 4.113281 C 17.089844 4.113281 20.445312 7.429688 20.445312 11.523438 C 20.445312 15.617188 17.089844 18.9375 12.945312 18.9375 C 12.117188 18.9375 11.296875 18.800781 10.507812 18.535156 C 10.0625 18.382812 9.570312 18.617188 9.417969 19.0625 C 9.261719 19.503906 9.503906 19.988281 9.949219 20.140625 C 14.765625 21.777344 20.007812 19.246094 21.664062 14.488281 C 23.320312 9.726562 20.757812 4.546875 15.945312 2.910156 C 11.132812 1.273438 5.886719 3.804688 4.234375 8.5625 C 3.902344 9.515625 3.730469 10.515625 3.730469 11.523438 L 0.929688 11.523438 C 0.796875 11.523438 0.691406 11.628906 0.691406 11.757812 C 0.691406 11.820312 0.714844 11.875 0.757812 11.917969 L 4.417969 15.824219 C 4.507812 15.917969 4.65625 15.925781 4.753906 15.835938 C 4.757812 15.835938 4.757812 15.828125 4.765625 15.824219 L 8.429688 11.917969 C 8.519531 11.820312 8.511719 11.675781 8.414062 11.585938 C 8.371094 11.546875 8.316406 11.523438 8.257812 11.523438 "/>
</g>
</g>
</svg>
