<?xml version="1.0" encoding="UTF-8"?>
<svg xmlns="http://www.w3.org/2000/svg" xmlns:xlink="http://www.w3.org/1999/xlink" width="20px" height="20px" viewBox="0 0 20 20" version="1.1">
<defs>
<clipPath id="clip1">
  <path d="M 2.015625 1.691406 L 17.984375 1.691406 L 17.984375 17.660156 L 2.015625 17.660156 Z M 2.015625 1.691406 "/>
</clipPath>
</defs>
<g id="surface1">
<g clip-path="url(#clip1)" clip-rule="nonzero">
<path style=" stroke:none;fill-rule:nonzero;fill:rgb(100%,100%,100%);fill-opacity:1;" d="M 9.996094 3.132812 C 12.128906 3.132812 12.378906 3.140625 13.222656 3.179688 C 14 3.214844 14.421875 3.34375 14.707031 3.457031 C 15.074219 3.597656 15.339844 3.773438 15.621094 4.050781 C 15.902344 4.332031 16.074219 4.597656 16.222656 4.96875 C 16.328125 5.25 16.457031 5.675781 16.496094 6.453125 C 16.535156 7.296875 16.542969 7.550781 16.542969 9.679688 C 16.542969 11.808594 16.535156 12.0625 16.496094 12.902344 C 16.460938 13.683594 16.332031 14.105469 16.222656 14.386719 C 16.078125 14.761719 15.902344 15.027344 15.621094 15.304688 C 15.339844 15.585938 15.074219 15.753906 14.707031 15.902344 C 14.425781 16.011719 14.003906 16.140625 13.222656 16.179688 C 12.378906 16.21875 12.128906 16.222656 9.996094 16.222656 C 7.863281 16.222656 7.613281 16.21875 6.769531 16.179688 C 5.996094 16.144531 5.570312 16.015625 5.285156 15.902344 C 4.917969 15.761719 4.652344 15.585938 4.371094 15.304688 C 4.089844 15.027344 3.917969 14.761719 3.773438 14.386719 C 3.664062 14.109375 3.535156 13.683594 3.496094 12.902344 C 3.457031 12.0625 3.449219 11.808594 3.449219 9.679688 C 3.449219 7.550781 3.457031 7.296875 3.496094 6.453125 C 3.53125 5.675781 3.660156 5.253906 3.773438 4.96875 C 3.917969 4.597656 4.089844 4.332031 4.371094 4.050781 C 4.652344 3.773438 4.917969 3.601562 5.285156 3.457031 C 5.566406 3.347656 5.988281 3.214844 6.769531 3.179688 C 7.613281 3.140625 7.863281 3.132812 9.996094 3.132812 M 9.996094 1.695312 C 7.828125 1.695312 7.558594 1.707031 6.703125 1.746094 C 5.855469 1.785156 5.273438 1.917969 4.765625 2.113281 C 4.242188 2.316406 3.796875 2.589844 3.351562 3.035156 C 2.910156 3.480469 2.636719 3.925781 2.433594 4.449219 C 2.238281 4.957031 2.105469 5.535156 2.066406 6.386719 C 2.027344 7.238281 2.015625 7.511719 2.015625 9.675781 C 2.015625 11.84375 2.027344 12.113281 2.066406 12.96875 C 2.105469 13.816406 2.238281 14.398438 2.433594 14.90625 C 2.636719 15.429688 2.910156 15.875 3.355469 16.320312 C 3.800781 16.761719 4.246094 17.035156 4.769531 17.238281 C 5.277344 17.433594 5.855469 17.574219 6.707031 17.609375 C 7.558594 17.648438 7.832031 17.660156 10 17.660156 C 12.167969 17.660156 12.4375 17.648438 13.292969 17.609375 C 14.144531 17.574219 14.722656 17.433594 15.230469 17.238281 C 15.753906 17.035156 16.199219 16.761719 16.644531 16.320312 C 17.089844 15.875 17.363281 15.429688 17.566406 14.90625 C 17.761719 14.398438 17.894531 13.816406 17.933594 12.96875 C 17.972656 12.117188 17.984375 11.84375 17.984375 9.675781 C 17.984375 7.507812 17.972656 7.238281 17.933594 6.382812 C 17.894531 5.535156 17.761719 4.953125 17.566406 4.445312 C 17.363281 3.917969 17.089844 3.476562 16.644531 3.03125 C 16.199219 2.589844 15.753906 2.316406 15.230469 2.113281 C 14.722656 1.917969 14.144531 1.777344 13.292969 1.738281 C 12.4375 1.707031 12.167969 1.695312 9.996094 1.695312 "/>
</g>
<path style=" stroke:none;fill-rule:nonzero;fill:rgb(100%,100%,100%);fill-opacity:1;" d="M 9.996094 5.578125 C 7.730469 5.578125 5.898438 7.410156 5.898438 9.675781 C 5.898438 11.941406 7.738281 13.777344 10 13.777344 C 12.261719 13.777344 14.101562 11.941406 14.101562 9.675781 C 14.097656 7.410156 12.261719 5.578125 9.996094 5.578125 M 9.996094 12.339844 C 8.527344 12.339844 7.339844 11.148438 7.339844 9.679688 C 7.339844 8.210938 8.527344 7.019531 9.996094 7.019531 C 11.464844 7.019531 12.65625 8.210938 12.65625 9.679688 C 12.660156 11.144531 11.464844 12.339844 9.996094 12.339844 "/>
<path style=" stroke:none;fill-rule:nonzero;fill:rgb(100%,100%,100%);fill-opacity:1;" d="M 15.214844 5.417969 C 15.214844 5.945312 14.785156 6.378906 14.257812 6.378906 C 13.730469 6.378906 13.300781 5.945312 13.300781 5.417969 C 13.300781 4.890625 13.730469 4.457031 14.257812 4.457031 C 14.785156 4.457031 15.214844 4.886719 15.214844 5.417969 "/>
</g>
</svg>
