<?xml version="1.0" encoding="UTF-8"?>
<svg xmlns="http://www.w3.org/2000/svg" xmlns:xlink="http://www.w3.org/1999/xlink" width="18px" height="18px" viewBox="0 0 18 18" version="1.1">
<defs>
<clipPath id="clip1">
  <path d="M 0.617188 0.324219 L 17.601562 0.324219 L 17.601562 17.3125 L 0.617188 17.3125 Z M 0.617188 0.324219 "/>
</clipPath>
</defs>
<g id="surface1">
<g clip-path="url(#clip1)" clip-rule="nonzero">
<path style=" stroke:none;fill-rule:nonzero;fill:rgb(100%,8.627451%,8.627451%);fill-opacity:1;" d="M 17.597656 8.816406 C 17.59375 13.492188 13.824219 17.3125 9.101562 17.308594 C 4.414062 17.304688 0.617188 13.519531 0.617188 8.8125 C 0.621094 4.097656 4.433594 0.332031 9.109375 0.328125 C 13.796875 0.324219 17.597656 4.132812 17.597656 8.816406 Z M 10.574219 10.679688 C 10.574219 9.628906 10.574219 8.585938 10.578125 7.539062 C 10.578125 7.144531 10.4375 6.808594 10.144531 6.546875 C 9.683594 6.136719 9.148438 6.050781 8.574219 6.253906 C 8.027344 6.449219 7.660156 6.976562 7.664062 7.570312 C 7.675781 9.652344 7.667969 11.738281 7.667969 13.820312 C 7.667969 15 8.675781 15.195312 9.15625 15.195312 C 9.882812 15.195312 10.59375 14.609375 10.578125 13.769531 C 10.5625 12.742188 10.574219 11.707031 10.574219 10.679688 Z M 10.675781 3.992188 C 10.671875 3.121094 9.980469 2.429688 9.109375 2.429688 C 8.238281 2.429688 7.539062 3.125 7.542969 4 C 7.542969 4.859375 8.246094 5.5625 9.109375 5.5625 C 9.980469 5.5625 10.675781 4.863281 10.675781 3.992188 Z M 10.675781 3.992188 "/>
</g>
</g>
</svg>
