<?xml version="1.0" encoding="UTF-8"?>
<svg xmlns="http://www.w3.org/2000/svg" xmlns:xlink="http://www.w3.org/1999/xlink" width="21px" height="21px" viewBox="0 0 21 21" version="1.1">
<defs>
<clipPath id="clip1">
  <path d="M 0.886719 0.546875 L 20.191406 0.546875 L 20.191406 19.851562 L 0.886719 19.851562 Z M 0.886719 0.546875 "/>
</clipPath>
</defs>
<g id="surface1">
<g clip-path="url(#clip1)" clip-rule="nonzero">
<path style=" stroke:none;fill-rule:nonzero;fill:rgb(100%,100%,100%);fill-opacity:1;" d="M 10.53125 0.546875 C 5.199219 0.546875 0.886719 4.867188 0.886719 10.199219 C 0.886719 15.535156 5.199219 19.851562 10.53125 19.851562 C 15.867188 19.851562 20.191406 15.535156 20.191406 10.199219 C 20.191406 4.867188 15.867188 0.546875 10.53125 0.546875 Z M 17.21875 6.339844 L 14.371094 6.339844 C 14.058594 5.132812 13.617188 3.972656 13.039062 2.902344 C 14.816406 3.511719 16.292969 4.742188 17.21875 6.339844 Z M 10.539062 2.511719 C 11.34375 3.667969 11.972656 4.957031 12.382812 6.339844 L 8.695312 6.339844 C 9.105469 4.957031 9.730469 3.667969 10.539062 2.511719 Z M 3.066406 12.128906 C 2.90625 11.511719 2.816406 10.867188 2.816406 10.199219 C 2.816406 9.53125 2.90625 8.886719 3.066406 8.269531 L 6.324219 8.269531 C 6.246094 8.898438 6.191406 9.542969 6.191406 10.199219 C 6.191406 10.855469 6.246094 11.496094 6.332031 12.128906 Z M 3.851562 14.058594 L 6.703125 14.058594 C 7.011719 15.265625 7.453125 16.425781 8.035156 17.503906 C 6.257812 16.894531 4.78125 15.65625 3.851562 14.058594 Z M 6.703125 6.339844 L 3.851562 6.339844 C 4.78125 4.742188 6.257812 3.503906 8.035156 2.894531 C 7.453125 3.972656 7.011719 5.132812 6.703125 6.339844 Z M 10.539062 17.886719 C 9.738281 16.730469 9.109375 15.441406 8.695312 14.058594 L 12.382812 14.058594 C 11.964844 15.441406 11.339844 16.730469 10.539062 17.886719 Z M 12.796875 12.128906 L 8.28125 12.128906 C 8.1875 11.496094 8.125 10.855469 8.125 10.199219 C 8.125 9.542969 8.1875 8.898438 8.28125 8.269531 L 12.796875 8.269531 C 12.890625 8.898438 12.953125 9.542969 12.953125 10.199219 C 12.953125 10.855469 12.890625 11.496094 12.796875 12.128906 Z M 13.042969 17.496094 C 13.621094 16.417969 14.0625 15.265625 14.375 14.058594 L 17.222656 14.058594 C 16.292969 15.65625 14.816406 16.890625 13.042969 17.496094 Z M 14.746094 12.128906 C 14.824219 11.496094 14.882812 10.855469 14.882812 10.199219 C 14.882812 9.542969 14.828125 8.898438 14.746094 8.269531 L 18.003906 8.269531 C 18.164062 8.886719 18.261719 9.53125 18.261719 10.199219 C 18.261719 10.867188 18.167969 11.511719 18.003906 12.128906 Z M 14.746094 12.128906 "/>
</g>
</g>
</svg>
