<?xml version="1.0" encoding="UTF-8"?>
<svg xmlns="http://www.w3.org/2000/svg" xmlns:xlink="http://www.w3.org/1999/xlink" width="21px" height="21px" viewBox="0 0 21 21" version="1.1">
<defs>
<clipPath id="clip1">
  <path d="M 0.714844 12.601562 L 20.53125 12.601562 L 20.53125 18.335938 L 0.714844 18.335938 Z M 0.714844 12.601562 "/>
</clipPath>
<clipPath id="clip2">
  <path d="M 0.714844 8 L 20.53125 8 L 20.53125 14.699219 L 0.714844 14.699219 Z M 0.714844 8 "/>
</clipPath>
<clipPath id="clip3">
  <path d="M 0.714844 1.574219 L 20.53125 1.574219 L 20.53125 9.800781 L 0.714844 9.800781 Z M 0.714844 1.574219 "/>
</clipPath>
</defs>
<g id="surface1">
<g clip-path="url(#clip1)" clip-rule="nonzero">
<path style=" stroke:none;fill-rule:nonzero;fill:rgb(100%,100%,100%);fill-opacity:1;" d="M 20.320312 14.285156 L 16.601562 12.691406 L 11.25 14.808594 C 11.058594 14.886719 10.832031 14.925781 10.605469 14.925781 C 10.382812 14.925781 10.160156 14.886719 9.964844 14.808594 L 4.609375 12.691406 L 0.894531 14.285156 C 0.726562 14.359375 0.726562 14.46875 0.898438 14.539062 L 10.296875 18.261719 C 10.46875 18.328125 10.746094 18.328125 10.917969 18.261719 L 20.316406 14.539062 C 20.488281 14.46875 20.492188 14.359375 20.320312 14.285156 Z M 20.320312 14.285156 "/>
</g>
<g clip-path="url(#clip2)" clip-rule="nonzero">
<path style=" stroke:none;fill-rule:nonzero;fill:rgb(100%,100%,100%);fill-opacity:1;" d="M 20.320312 9.984375 L 16.601562 8.390625 L 11.25 10.507812 C 11.058594 10.585938 10.832031 10.621094 10.605469 10.621094 C 10.382812 10.621094 10.15625 10.585938 9.964844 10.511719 L 4.609375 8.390625 L 0.894531 9.984375 C 0.726562 10.058594 0.726562 10.171875 0.898438 10.238281 L 10.296875 13.960938 C 10.46875 14.03125 10.746094 14.03125 10.917969 13.960938 L 20.316406 10.238281 C 20.488281 10.171875 20.492188 10.058594 20.320312 9.984375 Z M 20.320312 9.984375 "/>
</g>
<g clip-path="url(#clip3)" clip-rule="nonzero">
<path style=" stroke:none;fill-rule:nonzero;fill:rgb(100%,100%,100%);fill-opacity:1;" d="M 0.898438 5.941406 L 5.800781 7.882812 L 10.296875 9.664062 C 10.46875 9.730469 10.746094 9.730469 10.917969 9.664062 L 15.417969 7.882812 L 20.316406 5.941406 C 20.488281 5.875 20.492188 5.757812 20.320312 5.6875 L 10.914062 1.652344 C 10.742188 1.578125 10.46875 1.578125 10.300781 1.652344 L 0.894531 5.6875 C 0.726562 5.757812 0.726562 5.875 0.898438 5.941406 Z M 0.898438 5.941406 "/>
</g>
</g>
</svg>
