<?xml version="1.0" encoding="UTF-8"?>
<svg xmlns="http://www.w3.org/2000/svg" xmlns:xlink="http://www.w3.org/1999/xlink" width="24px" height="24px" viewBox="0 0 24 24" version="1.1">
<defs>
<clipPath id="clip1">
  <path d="M 1.921875 1.601562 L 22.242188 1.601562 L 22.242188 21.914062 L 1.921875 21.914062 Z M 1.921875 1.601562 "/>
</clipPath>
</defs>
<g id="surface1">
<g clip-path="url(#clip1)" clip-rule="nonzero">
<path style=" stroke:none;fill-rule:nonzero;fill:rgb(29.019608%,63.529412%,46.27451%);fill-opacity:1;" d="M 20.734375 3.566406 C 19.992188 3.210938 19.222656 3.132812 18.425781 3.328125 C 18.492188 3.167969 18.53125 3.003906 18.53125 2.832031 C 18.53125 2.667969 18.5 2.507812 18.4375 2.359375 C 18.375 2.210938 18.289062 2.074219 18.171875 1.960938 C 18.054688 1.84375 17.921875 1.753906 17.773438 1.691406 C 17.621094 1.628906 17.464844 1.597656 17.300781 1.601562 L 6.855469 1.601562 C 6.757812 1.597656 6.652344 1.613281 6.554688 1.636719 C 6.457031 1.664062 6.363281 1.695312 6.273438 1.746094 C 6.183594 1.796875 6.101562 1.855469 6.023438 1.925781 C 5.949219 1.992188 5.882812 2.070312 5.832031 2.15625 C 5.773438 2.242188 5.730469 2.335938 5.695312 2.429688 C 5.664062 2.527344 5.644531 2.628906 5.632812 2.726562 C 5.625 2.832031 5.632812 2.933594 5.648438 3.035156 C 5.664062 3.132812 5.695312 3.230469 5.734375 3.324219 C 4.9375 3.132812 4.167969 3.210938 3.425781 3.5625 C 3 3.761719 2.65625 4.054688 2.394531 4.449219 C 2.132812 4.84375 1.992188 5.273438 1.976562 5.746094 C 1.914062 6.96875 2.636719 9.523438 8.097656 12.917969 C 8.554688 13.375 9.074219 13.742188 9.65625 14.019531 C 9.429688 14.621094 9.28125 15.246094 9.210938 15.886719 L 8.460938 15.886719 C 8.257812 15.886719 8.066406 15.929688 7.882812 16.003906 C 7.695312 16.082031 7.535156 16.191406 7.394531 16.332031 C 7.253906 16.472656 7.144531 16.636719 7.070312 16.820312 C 6.992188 17.007812 6.953125 17.199219 6.953125 17.398438 L 6.953125 19.523438 L 6.8125 19.523438 C 6.65625 19.523438 6.507812 19.550781 6.359375 19.613281 C 6.214844 19.671875 6.085938 19.757812 5.976562 19.867188 C 5.867188 19.980469 5.777344 20.109375 5.71875 20.257812 C 5.660156 20.402344 5.628906 20.554688 5.628906 20.710938 C 5.628906 20.867188 5.660156 21.023438 5.71875 21.167969 C 5.777344 21.3125 5.867188 21.445312 5.976562 21.554688 C 6.085938 21.664062 6.214844 21.753906 6.359375 21.8125 C 6.507812 21.871094 6.65625 21.902344 6.8125 21.902344 L 17.339844 21.902344 C 17.496094 21.902344 17.648438 21.871094 17.792969 21.8125 C 17.9375 21.753906 18.066406 21.664062 18.179688 21.554688 C 18.289062 21.445312 18.375 21.3125 18.433594 21.167969 C 18.492188 21.023438 18.523438 20.867188 18.523438 20.710938 C 18.523438 20.554688 18.492188 20.402344 18.433594 20.257812 C 18.375 20.109375 18.289062 19.980469 18.179688 19.867188 C 18.066406 19.757812 17.9375 19.671875 17.792969 19.613281 C 17.648438 19.550781 17.496094 19.523438 17.339844 19.523438 L 17.199219 19.523438 L 17.199219 17.398438 C 17.199219 17.199219 17.164062 17.007812 17.085938 16.820312 C 17.007812 16.632812 16.898438 16.472656 16.757812 16.332031 C 16.617188 16.1875 16.457031 16.078125 16.273438 16.003906 C 16.085938 15.925781 15.894531 15.886719 15.695312 15.886719 L 14.945312 15.886719 C 14.875 15.246094 14.726562 14.621094 14.503906 14.019531 C 15.082031 13.742188 15.601562 13.375 16.054688 12.917969 C 21.519531 9.527344 22.238281 6.972656 22.179688 5.746094 C 22.160156 5.277344 22.019531 4.84375 21.757812 4.453125 C 21.5 4.058594 21.160156 3.765625 20.734375 3.566406 Z M 17.667969 20.710938 C 17.667969 20.804688 17.636719 20.882812 17.574219 20.945312 C 17.511719 21.007812 17.433594 21.039062 17.347656 21.039062 L 6.820312 21.039062 C 6.730469 21.039062 6.652344 21.007812 6.589844 20.941406 C 6.523438 20.878906 6.492188 20.800781 6.492188 20.710938 C 6.492188 20.617188 6.523438 20.542969 6.589844 20.476562 C 6.652344 20.414062 6.730469 20.382812 6.820312 20.382812 L 17.347656 20.382812 C 17.4375 20.382812 17.511719 20.414062 17.578125 20.480469 C 17.640625 20.546875 17.671875 20.621094 17.667969 20.710938 Z M 17.605469 10.070312 C 17.691406 9.679688 17.730469 9.285156 17.730469 8.882812 L 17.730469 5.464844 C 18.582031 5.183594 19.457031 5.316406 19.761719 5.804688 C 20.167969 6.445312 19.746094 7.867188 17.605469 10.070312 Z M 6.855469 2.460938 L 17.300781 2.460938 C 17.398438 2.46875 17.480469 2.507812 17.550781 2.578125 C 17.617188 2.648438 17.648438 2.734375 17.648438 2.832031 C 17.648438 2.929688 17.617188 3.015625 17.550781 3.085938 C 17.480469 3.160156 17.398438 3.195312 17.300781 3.203125 L 6.855469 3.203125 C 6.75 3.210938 6.660156 3.175781 6.585938 3.101562 C 6.507812 3.027344 6.46875 2.9375 6.46875 2.832031 C 6.46875 2.726562 6.507812 2.636719 6.585938 2.5625 C 6.660156 2.492188 6.75 2.457031 6.855469 2.460938 Z M 4.394531 5.804688 C 4.703125 5.316406 5.574219 5.183594 6.429688 5.464844 L 6.429688 8.882812 C 6.429688 9.285156 6.46875 9.679688 6.550781 10.070312 C 4.410156 7.867188 3.992188 6.445312 4.394531 5.804688 Z M 2.835938 5.789062 C 2.84375 5.476562 2.9375 5.1875 3.113281 4.925781 C 3.289062 4.664062 3.515625 4.46875 3.800781 4.339844 C 4.574219 3.960938 5.601562 4.039062 6.425781 4.527344 L 6.425781 4.566406 C 5.273438 4.273438 4.15625 4.566406 3.664062 5.339844 C 3.292969 5.929688 3.085938 7.105469 4.632812 9.167969 C 3.007812 7.503906 2.808594 6.335938 2.835938 5.789062 Z M 16.34375 17.398438 L 16.34375 19.507812 L 7.8125 19.507812 L 7.8125 17.398438 C 7.8125 17.222656 7.878906 17.070312 8.003906 16.941406 C 8.128906 16.816406 8.28125 16.75 8.460938 16.75 L 15.699219 16.75 C 15.878906 16.75 16.027344 16.816406 16.152344 16.941406 C 16.28125 17.070312 16.34375 17.222656 16.34375 17.398438 Z M 14.082031 15.886719 L 10.078125 15.886719 C 10.140625 15.351562 10.269531 14.832031 10.460938 14.328125 C 11.539062 14.652344 12.621094 14.652344 13.703125 14.328125 C 13.894531 14.832031 14.019531 15.351562 14.082031 15.886719 Z M 12.078125 13.703125 C 11.765625 13.703125 11.453125 13.671875 11.144531 13.609375 C 10.835938 13.546875 10.539062 13.457031 10.246094 13.335938 C 9.957031 13.210938 9.679688 13.066406 9.417969 12.890625 C 9.15625 12.710938 8.914062 12.511719 8.691406 12.289062 C 8.46875 12.066406 8.269531 11.820312 8.09375 11.558594 C 7.921875 11.296875 7.773438 11.019531 7.652344 10.726562 C 7.53125 10.433594 7.441406 10.132812 7.378906 9.824219 C 7.320312 9.511719 7.289062 9.199219 7.289062 8.882812 L 7.289062 4.066406 L 16.871094 4.066406 L 16.871094 8.882812 C 16.871094 9.199219 16.839844 9.511719 16.777344 9.824219 C 16.71875 10.132812 16.625 10.433594 16.507812 10.726562 C 16.382812 11.019531 16.238281 11.296875 16.0625 11.558594 C 15.886719 11.820312 15.6875 12.066406 15.464844 12.289062 C 15.242188 12.511719 15.003906 12.710938 14.742188 12.886719 C 14.476562 13.066406 14.203125 13.210938 13.914062 13.335938 C 13.621094 13.457031 13.320312 13.546875 13.011719 13.609375 C 12.707031 13.671875 12.394531 13.703125 12.078125 13.703125 Z M 19.523438 9.164062 C 21.070312 7.105469 20.859375 5.929688 20.492188 5.339844 C 20.003906 4.5625 18.882812 4.273438 17.734375 4.566406 L 17.734375 4.523438 C 18.554688 4.035156 19.582031 3.957031 20.355469 4.339844 C 20.640625 4.46875 20.871094 4.664062 21.042969 4.925781 C 21.21875 5.183594 21.3125 5.472656 21.320312 5.789062 C 21.347656 6.335938 21.148438 7.503906 19.523438 9.167969 Z M 19.523438 9.164062 "/>
</g>
<path style=" stroke:none;fill-rule:nonzero;fill:rgb(29.019608%,63.529412%,46.27451%);fill-opacity:1;" d="M 12.960938 7.09375 L 12.078125 5.292969 L 11.195312 7.09375 L 9.222656 7.382812 L 10.648438 8.785156 L 10.3125 10.757812 L 12.078125 9.824219 L 13.84375 10.757812 L 13.507812 8.78125 L 14.9375 7.375 Z M 12.703125 9.179688 L 12.078125 8.847656 L 11.453125 9.179688 L 11.570312 8.476562 L 11.070312 7.984375 L 11.765625 7.875 L 12.078125 7.242188 L 12.394531 7.882812 L 13.09375 7.992188 L 12.585938 8.484375 Z M 12.703125 9.179688 "/>
</g>
</svg>
