<?xml version="1.0" encoding="UTF-8"?>
<svg xmlns="http://www.w3.org/2000/svg" xmlns:xlink="http://www.w3.org/1999/xlink" width="21px" height="21px" viewBox="0 0 21 21" version="1.1">
<defs>
<clipPath id="clip1">
  <path d="M 1.441406 1.152344 L 19.730469 1.152344 L 19.730469 18.933594 L 1.441406 18.933594 Z M 1.441406 1.152344 "/>
</clipPath>
</defs>
<g id="surface1">
<g clip-path="url(#clip1)" clip-rule="nonzero">
<path style=" stroke:none;fill-rule:nonzero;fill:rgb(100%,100%,100%);fill-opacity:1;" d="M 18.371094 2.878906 C 17.703125 2.574219 17.011719 2.503906 16.292969 2.671875 C 16.355469 2.535156 16.390625 2.390625 16.390625 2.238281 C 16.390625 2.09375 16.363281 1.957031 16.308594 1.824219 C 16.25 1.691406 16.171875 1.574219 16.066406 1.472656 C 15.964844 1.371094 15.84375 1.292969 15.707031 1.238281 C 15.574219 1.183594 15.429688 1.15625 15.285156 1.160156 L 5.882812 1.160156 C 5.792969 1.160156 5.699219 1.171875 5.613281 1.191406 C 5.523438 1.214844 5.4375 1.246094 5.359375 1.289062 C 5.277344 1.332031 5.203125 1.382812 5.136719 1.445312 C 5.070312 1.503906 5.007812 1.574219 4.960938 1.644531 C 4.910156 1.722656 4.871094 1.800781 4.839844 1.886719 C 4.808594 1.972656 4.789062 2.058594 4.785156 2.148438 C 4.777344 2.238281 4.78125 2.328125 4.796875 2.414062 C 4.808594 2.503906 4.835938 2.589844 4.871094 2.671875 C 4.15625 2.503906 3.464844 2.570312 2.796875 2.878906 C 2.410156 3.050781 2.101562 3.3125 1.867188 3.652344 C 1.632812 3.996094 1.507812 4.375 1.492188 4.789062 C 1.4375 5.859375 2.085938 8.097656 7 11.066406 C 7.414062 11.464844 7.878906 11.785156 8.402344 12.027344 C 8.199219 12.558594 8.066406 13.101562 8 13.667969 L 7.324219 13.667969 C 7.144531 13.667969 6.972656 13.699219 6.808594 13.765625 C 6.640625 13.832031 6.496094 13.929688 6.367188 14.054688 C 6.242188 14.175781 6.144531 14.320312 6.074219 14.484375 C 6.007812 14.644531 5.972656 14.816406 5.972656 14.988281 L 5.972656 16.84375 L 5.847656 16.84375 C 5.703125 16.84375 5.566406 16.871094 5.4375 16.921875 C 5.308594 16.976562 5.191406 17.050781 5.089844 17.148438 C 4.992188 17.25 4.914062 17.359375 4.859375 17.488281 C 4.808594 17.613281 4.78125 17.75 4.78125 17.886719 C 4.78125 18.023438 4.808594 18.160156 4.859375 18.289062 C 4.914062 18.414062 4.992188 18.523438 5.089844 18.625 C 5.191406 18.722656 5.308594 18.796875 5.4375 18.851562 C 5.566406 18.902344 5.703125 18.929688 5.847656 18.929688 L 15.316406 18.929688 C 15.460938 18.929688 15.597656 18.902344 15.726562 18.851562 C 15.855469 18.796875 15.972656 18.722656 16.074219 18.625 C 16.171875 18.523438 16.25 18.414062 16.304688 18.289062 C 16.355469 18.160156 16.382812 18.023438 16.382812 17.886719 C 16.382812 17.75 16.355469 17.613281 16.304688 17.488281 C 16.25 17.359375 16.171875 17.25 16.074219 17.148438 C 15.972656 17.050781 15.855469 16.976562 15.726562 16.921875 C 15.597656 16.871094 15.460938 16.84375 15.316406 16.84375 L 15.191406 16.84375 L 15.191406 14.988281 C 15.191406 14.8125 15.160156 14.640625 15.089844 14.480469 C 15.019531 14.320312 14.925781 14.175781 14.796875 14.050781 C 14.667969 13.929688 14.523438 13.832031 14.359375 13.765625 C 14.191406 13.699219 14.019531 13.664062 13.839844 13.664062 L 13.164062 13.664062 C 13.101562 13.101562 12.96875 12.558594 12.765625 12.027344 C 13.285156 11.785156 13.75 11.464844 14.160156 11.066406 C 19.078125 8.097656 19.726562 5.859375 19.671875 4.789062 C 19.65625 4.378906 19.527344 4 19.296875 3.65625 C 19.0625 3.3125 18.753906 3.054688 18.371094 2.878906 Z M 15.617188 17.886719 C 15.617188 17.96875 15.585938 18.03125 15.527344 18.089844 C 15.472656 18.144531 15.40625 18.171875 15.324219 18.171875 L 5.851562 18.171875 C 5.769531 18.171875 5.699219 18.144531 5.644531 18.085938 C 5.585938 18.03125 5.558594 17.964844 5.558594 17.886719 C 5.558594 17.804688 5.585938 17.742188 5.644531 17.683594 C 5.699219 17.628906 5.769531 17.601562 5.851562 17.601562 L 15.324219 17.601562 C 15.40625 17.601562 15.472656 17.628906 15.53125 17.6875 C 15.589844 17.742188 15.617188 17.808594 15.617188 17.886719 Z M 15.558594 8.574219 C 15.632812 8.234375 15.671875 7.886719 15.671875 7.535156 L 15.671875 4.542969 C 16.4375 4.296875 17.222656 4.410156 17.5 4.839844 C 17.863281 5.398438 17.484375 6.648438 15.558594 8.570312 Z M 5.882812 1.914062 L 15.285156 1.914062 C 15.371094 1.917969 15.445312 1.953125 15.507812 2.015625 C 15.566406 2.078125 15.597656 2.152344 15.597656 2.238281 C 15.597656 2.324219 15.566406 2.398438 15.507812 2.460938 C 15.445312 2.523438 15.371094 2.558594 15.285156 2.5625 L 5.882812 2.5625 C 5.789062 2.566406 5.707031 2.539062 5.636719 2.472656 C 5.570312 2.410156 5.535156 2.332031 5.535156 2.238281 C 5.535156 2.144531 5.570312 2.066406 5.636719 2 C 5.707031 1.9375 5.789062 1.910156 5.882812 1.914062 Z M 3.667969 4.839844 C 3.945312 4.410156 4.730469 4.296875 5.496094 4.542969 L 5.496094 7.535156 C 5.496094 7.886719 5.535156 8.234375 5.609375 8.574219 C 3.683594 6.648438 3.304688 5.398438 3.667969 4.839844 Z M 2.265625 4.824219 C 2.273438 4.550781 2.355469 4.296875 2.511719 4.070312 C 2.671875 3.839844 2.875 3.671875 3.132812 3.558594 C 3.832031 3.222656 4.753906 3.292969 5.492188 3.722656 L 5.492188 3.757812 C 4.460938 3.5 3.453125 3.757812 3.011719 4.433594 C 2.675781 4.949219 2.488281 5.980469 3.882812 7.785156 C 2.421875 6.328125 2.242188 5.300781 2.265625 4.824219 Z M 14.421875 14.988281 L 14.421875 16.832031 L 6.746094 16.832031 L 6.746094 14.988281 C 6.746094 14.832031 6.804688 14.695312 6.914062 14.585938 C 7.027344 14.476562 7.164062 14.421875 7.324219 14.421875 L 13.839844 14.421875 C 14.003906 14.421875 14.140625 14.476562 14.25 14.585938 C 14.367188 14.695312 14.421875 14.832031 14.421875 14.988281 Z M 12.386719 13.664062 L 8.78125 13.664062 C 8.839844 13.195312 8.957031 12.742188 9.128906 12.300781 C 10.101562 12.582031 11.074219 12.582031 12.046875 12.300781 C 12.21875 12.742188 12.328125 13.195312 12.386719 13.664062 Z M 10.585938 11.753906 C 10.300781 11.753906 10.019531 11.726562 9.742188 11.671875 C 9.464844 11.617188 9.195312 11.535156 8.933594 11.429688 C 8.671875 11.324219 8.425781 11.195312 8.191406 11.042969 C 7.953125 10.886719 7.734375 10.714844 7.535156 10.515625 C 7.332031 10.320312 7.15625 10.105469 7 9.875 C 6.839844 9.648438 6.707031 9.402344 6.601562 9.148438 C 6.492188 8.890625 6.410156 8.628906 6.355469 8.355469 C 6.296875 8.085938 6.269531 7.8125 6.269531 7.535156 L 6.269531 3.316406 L 14.898438 3.316406 L 14.898438 7.535156 C 14.898438 7.8125 14.871094 8.085938 14.816406 8.355469 C 14.757812 8.628906 14.675781 8.890625 14.570312 9.148438 C 14.460938 9.402344 14.324219 9.648438 14.167969 9.875 C 14.011719 10.105469 13.832031 10.320312 13.632812 10.515625 C 13.429688 10.710938 13.214844 10.886719 12.980469 11.042969 C 12.746094 11.195312 12.496094 11.324219 12.234375 11.429688 C 11.972656 11.535156 11.703125 11.617188 11.425781 11.671875 C 11.148438 11.726562 10.867188 11.753906 10.585938 11.753906 Z M 17.285156 7.78125 C 18.675781 5.976562 18.488281 4.945312 18.15625 4.433594 C 17.714844 3.753906 16.703125 3.5 15.671875 3.753906 L 15.671875 3.722656 C 16.410156 3.292969 17.335938 3.222656 18.03125 3.558594 C 18.289062 3.667969 18.496094 3.839844 18.652344 4.070312 C 18.808594 4.296875 18.894531 4.550781 18.902344 4.824219 C 18.925781 5.300781 18.746094 6.328125 17.285156 7.785156 Z M 17.285156 7.78125 "/>
</g>
<path style=" stroke:none;fill-rule:nonzero;fill:rgb(100%,100%,100%);fill-opacity:1;" d="M 11.378906 5.964844 L 10.585938 4.390625 L 9.789062 5.964844 L 8.011719 6.21875 L 9.300781 7.449219 L 8.996094 9.171875 L 10.585938 8.359375 L 12.171875 9.171875 L 11.871094 7.441406 L 13.15625 6.214844 Z M 11.144531 7.792969 L 10.585938 7.503906 L 10.019531 7.792969 L 10.128906 7.179688 L 9.675781 6.75 L 10.304688 6.652344 L 10.585938 6.09375 L 10.867188 6.65625 L 11.496094 6.75 L 11.042969 7.1875 Z M 11.144531 7.792969 "/>
</g>
</svg>
