<svg xmlns="http://www.w3.org/2000/svg" xmlns:xlink="http://www.w3.org/1999/xlink" width="500" zoomAndPan="magnify" viewBox="0 0 375 374.999991" height="500" preserveAspectRatio="xMidYMid meet" version="1.0"><defs><clipPath id="cebbd9a17d"><path d="M 8.703125 8.703125 L 366.453125 8.703125 L 366.453125 366.453125 L 8.703125 366.453125 Z M 8.703125 8.703125 " clip-rule="nonzero"/></clipPath></defs><g clip-path="url(#cebbd9a17d)"><path fill="#ff3131" d="M 366.453125 187.578125 C 366.453125 190.503906 366.378906 193.429688 366.238281 196.355469 C 366.09375 199.277344 365.878906 202.195312 365.589844 205.109375 C 365.304688 208.023438 364.945312 210.929688 364.515625 213.824219 C 364.085938 216.71875 363.585938 219.601562 363.015625 222.472656 C 362.445312 225.34375 361.804688 228.199219 361.089844 231.039062 C 360.378906 233.878906 359.597656 236.699219 358.75 239.5 C 357.898438 242.304688 356.980469 245.082031 355.996094 247.839844 C 355.007812 250.59375 353.957031 253.324219 352.835938 256.03125 C 351.714844 258.734375 350.53125 261.410156 349.277344 264.054688 C 348.027344 266.703125 346.710938 269.316406 345.332031 271.898438 C 343.949219 274.480469 342.507812 277.027344 341.003906 279.539062 C 339.5 282.046875 337.933594 284.519531 336.304688 286.953125 C 334.679688 289.390625 332.996094 291.78125 331.25 294.132812 C 329.507812 296.484375 327.707031 298.792969 325.847656 301.054688 C 323.992188 303.316406 322.082031 305.53125 320.113281 307.703125 C 318.148438 309.871094 316.128906 311.992188 314.0625 314.0625 C 311.992188 316.132812 309.871094 318.148438 307.703125 320.113281 C 305.53125 322.082031 303.316406 323.992188 301.054688 325.847656 C 298.792969 327.707031 296.484375 329.507812 294.132812 331.25 C 291.78125 332.996094 289.390625 334.679688 286.953125 336.304688 C 284.519531 337.933594 282.046875 339.5 279.539062 341.003906 C 277.027344 342.507812 274.480469 343.949219 271.898438 345.332031 C 269.316406 346.710938 266.703125 348.027344 264.054688 349.277344 C 261.410156 350.53125 258.734375 351.714844 256.03125 352.835938 C 253.324219 353.957031 250.59375 355.007812 247.839844 355.996094 C 245.082031 356.980469 242.304688 357.898438 239.5 358.75 C 236.699219 359.597656 233.878906 360.378906 231.039062 361.089844 C 228.199219 361.800781 225.34375 362.445312 222.472656 363.015625 C 219.601562 363.585938 216.71875 364.085938 213.824219 364.515625 C 210.929688 364.945312 208.023438 365.304688 205.109375 365.589844 C 202.195312 365.878906 199.277344 366.09375 196.355469 366.238281 C 193.429688 366.378906 190.503906 366.453125 187.578125 366.453125 C 184.648438 366.453125 181.722656 366.378906 178.800781 366.238281 C 175.875 366.09375 172.957031 365.878906 170.042969 365.589844 C 167.132812 365.304688 164.226562 364.945312 161.332031 364.515625 C 158.433594 364.085938 155.550781 363.585938 152.679688 363.015625 C 149.808594 362.445312 146.953125 361.800781 144.113281 361.089844 C 141.273438 360.378906 138.453125 359.597656 135.652344 358.75 C 132.851562 357.898438 130.070312 356.980469 127.316406 355.996094 C 124.558594 355.007812 121.828125 353.957031 119.125 352.835938 C 116.421875 351.714844 113.746094 350.53125 111.097656 349.277344 C 108.453125 348.027344 105.835938 346.710938 103.257812 345.332031 C 100.675781 343.949219 98.128906 342.507812 95.617188 341.003906 C 93.105469 339.5 90.632812 337.933594 88.199219 336.304688 C 85.765625 334.679688 83.371094 332.996094 81.019531 331.25 C 78.671875 329.507812 76.363281 327.707031 74.101562 325.847656 C 71.835938 323.992188 69.621094 322.082031 67.453125 320.113281 C 65.28125 318.148438 63.164062 316.128906 61.09375 314.0625 C 59.023438 311.992188 57.003906 309.871094 55.039062 307.703125 C 53.074219 305.53125 51.160156 303.316406 49.304688 301.054688 C 47.449219 298.792969 45.648438 296.484375 43.902344 294.132812 C 42.160156 291.78125 40.472656 289.390625 38.847656 286.953125 C 37.222656 284.519531 35.65625 282.046875 34.152344 279.539062 C 32.644531 277.027344 31.203125 274.480469 29.824219 271.898438 C 28.445312 269.316406 27.128906 266.703125 25.875 264.054688 C 24.625 261.410156 23.4375 258.734375 22.316406 256.03125 C 21.199219 253.324219 20.144531 250.59375 19.160156 247.839844 C 18.171875 245.082031 17.253906 242.304688 16.40625 239.5 C 15.554688 236.699219 14.773438 233.878906 14.0625 231.039062 C 13.351562 228.199219 12.710938 225.34375 12.140625 222.472656 C 11.566406 219.601562 11.066406 216.71875 10.636719 213.824219 C 10.207031 210.929688 9.851562 208.023438 9.5625 205.109375 C 9.277344 202.195312 9.0625 199.277344 8.917969 196.355469 C 8.773438 193.429688 8.703125 190.503906 8.703125 187.578125 C 8.703125 184.648438 8.773438 181.722656 8.917969 178.800781 C 9.0625 175.875 9.277344 172.957031 9.5625 170.042969 C 9.851562 167.132812 10.207031 164.226562 10.636719 161.332031 C 11.066406 158.433594 11.566406 155.550781 12.140625 152.679688 C 12.710938 149.808594 13.351562 146.953125 14.0625 144.113281 C 14.773438 141.273438 15.554688 138.453125 16.40625 135.652344 C 17.253906 132.851562 18.171875 130.070312 19.160156 127.316406 C 20.144531 124.558594 21.199219 121.828125 22.316406 119.125 C 23.4375 116.421875 24.625 113.746094 25.875 111.097656 C 27.128906 108.453125 28.445312 105.835938 29.824219 103.257812 C 31.203125 100.675781 32.644531 98.128906 34.152344 95.617188 C 35.65625 93.105469 37.222656 90.632812 38.847656 88.199219 C 40.472656 85.765625 42.160156 83.371094 43.902344 81.019531 C 45.648438 78.671875 47.449219 76.363281 49.304688 74.101562 C 51.160156 71.835938 53.074219 69.621094 55.039062 67.453125 C 57.003906 65.28125 59.023438 63.164062 61.09375 61.09375 C 63.164062 59.023438 65.28125 57.003906 67.453125 55.039062 C 69.621094 53.074219 71.835938 51.160156 74.101562 49.304688 C 76.363281 47.449219 78.671875 45.648438 81.019531 43.902344 C 83.371094 42.160156 85.765625 40.472656 88.199219 38.847656 C 90.632812 37.222656 93.105469 35.65625 95.617188 34.152344 C 98.128906 32.644531 100.675781 31.203125 103.257812 29.824219 C 105.835938 28.445312 108.453125 27.128906 111.097656 25.875 C 113.746094 24.625 116.421875 23.4375 119.125 22.316406 C 121.828125 21.199219 124.558594 20.144531 127.316406 19.160156 C 130.070312 18.171875 132.851562 17.253906 135.652344 16.40625 C 138.453125 15.554688 141.273438 14.773438 144.113281 14.0625 C 146.953125 13.351562 149.808594 12.710938 152.679688 12.140625 C 155.550781 11.566406 158.433594 11.066406 161.332031 10.636719 C 164.226562 10.207031 167.132812 9.851562 170.042969 9.5625 C 172.957031 9.277344 175.875 9.0625 178.800781 8.917969 C 181.722656 8.773438 184.648438 8.703125 187.578125 8.703125 C 190.503906 8.703125 193.429688 8.773438 196.355469 8.917969 C 199.277344 9.0625 202.195312 9.277344 205.109375 9.5625 C 208.023438 9.851562 210.929688 10.207031 213.824219 10.636719 C 216.71875 11.066406 219.601562 11.566406 222.472656 12.140625 C 225.34375 12.710938 228.199219 13.351562 231.039062 14.0625 C 233.878906 14.773438 236.699219 15.554688 239.5 16.40625 C 242.304688 17.253906 245.082031 18.171875 247.839844 19.160156 C 250.59375 20.144531 253.324219 21.199219 256.03125 22.316406 C 258.734375 23.4375 261.410156 24.625 264.054688 25.875 C 266.703125 27.128906 269.316406 28.445312 271.898438 29.824219 C 274.480469 31.203125 277.027344 32.644531 279.539062 34.152344 C 282.046875 35.65625 284.519531 37.222656 286.953125 38.847656 C 289.390625 40.472656 291.78125 42.160156 294.132812 43.902344 C 296.484375 45.648438 298.792969 47.449219 301.054688 49.304688 C 303.316406 51.160156 305.53125 53.074219 307.703125 55.039062 C 309.871094 57.003906 311.992188 59.023438 314.0625 61.09375 C 316.128906 63.164062 318.148438 65.28125 320.113281 67.453125 C 322.082031 69.621094 323.992188 71.835938 325.847656 74.101562 C 327.707031 76.363281 329.507812 78.671875 331.25 81.019531 C 332.996094 83.371094 334.679688 85.765625 336.304688 88.199219 C 337.933594 90.632812 339.5 93.105469 341.003906 95.617188 C 342.507812 98.128906 343.949219 100.675781 345.332031 103.257812 C 346.710938 105.835938 348.027344 108.453125 349.277344 111.097656 C 350.53125 113.746094 351.714844 116.421875 352.835938 119.125 C 353.957031 121.828125 355.007812 124.558594 355.996094 127.316406 C 356.980469 130.070312 357.898438 132.851562 358.75 135.652344 C 359.597656 138.453125 360.378906 141.273438 361.089844 144.113281 C 361.804688 146.953125 362.445312 149.808594 363.015625 152.679688 C 363.585938 155.550781 364.085938 158.433594 364.515625 161.332031 C 364.945312 164.226562 365.304688 167.132812 365.589844 170.042969 C 365.878906 172.957031 366.09375 175.875 366.238281 178.800781 C 366.378906 181.722656 366.453125 184.648438 366.453125 187.578125 Z M 366.453125 187.578125 " fill-opacity="1" fill-rule="nonzero"/></g></svg>