<?xml version="1.0" encoding="UTF-8"?>
<svg xmlns="http://www.w3.org/2000/svg" xmlns:xlink="http://www.w3.org/1999/xlink" width="20px" height="20px" viewBox="0 0 20 20" version="1.1">
<defs>
<clipPath id="clip1">
  <path d="M 7.332031 2.757812 L 17.113281 2.757812 L 17.113281 16.789062 L 7.332031 16.789062 Z M 7.332031 2.757812 "/>
</clipPath>
<clipPath id="clip2">
  <path d="M 3.082031 7 L 14 7 L 14 12.667969 L 3.082031 12.667969 Z M 3.082031 7 "/>
</clipPath>
</defs>
<g id="surface1">
<g clip-path="url(#clip1)" clip-rule="nonzero">
<path style=" stroke:none;fill-rule:nonzero;fill:rgb(100%,100%,100%);fill-opacity:1;" d="M 16.636719 3.230469 C 16.335938 2.929688 15.925781 2.753906 15.496094 2.757812 L 9.019531 2.757812 C 8.128906 2.761719 7.402344 3.488281 7.398438 4.378906 L 7.398438 7.613281 C 7.398438 7.910156 7.644531 8.15625 7.9375 8.15625 C 8.234375 8.15625 8.476562 7.910156 8.476562 7.613281 L 8.476562 4.378906 C 8.476562 4.082031 8.722656 3.839844 9.019531 3.839844 L 15.496094 3.839844 C 15.789062 3.839844 16.035156 4.082031 16.035156 4.378906 L 16.035156 15.171875 C 16.035156 15.46875 15.789062 15.710938 15.496094 15.710938 L 9.019531 15.710938 C 8.722656 15.710938 8.476562 15.464844 8.476562 15.171875 L 8.476562 11.933594 C 8.476562 11.636719 8.234375 11.394531 7.9375 11.394531 C 7.644531 11.394531 7.398438 11.636719 7.398438 11.933594 L 7.398438 15.171875 C 7.402344 16.058594 8.128906 16.789062 9.019531 16.789062 L 15.496094 16.789062 C 15.925781 16.789062 16.335938 16.621094 16.636719 16.316406 C 16.941406 16.011719 17.113281 15.597656 17.113281 15.171875 L 17.113281 4.378906 C 17.113281 3.949219 16.941406 3.535156 16.636719 3.230469 "/>
</g>
<g clip-path="url(#clip2)" clip-rule="nonzero">
<path style=" stroke:none;fill-rule:nonzero;fill:rgb(100%,100%,100%);fill-opacity:1;" d="M 10.792969 11.550781 C 10.691406 11.652344 10.628906 11.792969 10.628906 11.941406 C 10.628906 12.238281 10.871094 12.480469 11.167969 12.480469 C 11.316406 12.480469 11.457031 12.417969 11.558594 12.316406 L 13.714844 10.15625 C 13.925781 9.949219 13.925781 9.601562 13.714844 9.394531 L 11.558594 7.234375 C 11.457031 7.136719 11.324219 7.082031 11.183594 7.082031 C 10.886719 7.082031 10.644531 7.324219 10.644531 7.621094 C 10.644531 7.761719 10.699219 7.894531 10.792969 7.996094 L 12.03125 9.234375 L 3.621094 9.234375 C 3.324219 9.234375 3.082031 9.480469 3.082031 9.773438 C 3.082031 10.070312 3.324219 10.316406 3.621094 10.316406 L 12.03125 10.316406 L 10.792969 11.550781 "/>
</g>
</g>
</svg>
