<?xml version="1.0" encoding="UTF-8"?>
<svg xmlns="http://www.w3.org/2000/svg" xmlns:xlink="http://www.w3.org/1999/xlink" width="24px" height="24px" viewBox="0 0 24 24" version="1.1">
<defs>
<clipPath id="clip1">
  <path d="M 1.546875 1.164062 L 22.453125 1.164062 L 22.453125 22.066406 L 1.546875 22.066406 Z M 1.546875 1.164062 "/>
</clipPath>
</defs>
<g id="surface1">
<g clip-path="url(#clip1)" clip-rule="nonzero">
<path style=" stroke:none;fill-rule:nonzero;fill:rgb(29.019608%,63.529412%,46.27451%);fill-opacity:1;" d="M 1.546875 4.234375 C 1.546875 2.539062 2.925781 1.164062 4.621094 1.164062 L 7.082031 1.164062 C 7.421875 1.164062 7.695312 1.4375 7.695312 1.773438 C 7.695312 2.117188 7.421875 2.390625 7.082031 2.390625 L 4.621094 2.390625 C 3.601562 2.390625 2.777344 3.214844 2.777344 4.234375 L 2.777344 18.992188 C 2.777344 20.007812 3.601562 20.835938 4.621094 20.835938 L 7.082031 20.835938 C 7.421875 20.835938 7.695312 21.109375 7.695312 21.449219 C 7.695312 21.789062 7.421875 22.066406 7.082031 22.066406 L 4.621094 22.066406 C 2.925781 22.066406 1.546875 20.6875 1.546875 18.992188 Z M 15.253906 18.195312 C 15.367188 18.304688 15.519531 18.378906 15.6875 18.378906 C 15.859375 18.378906 16.011719 18.308594 16.125 18.195312 L 22.273438 12.046875 C 22.382812 11.9375 22.453125 11.785156 22.453125 11.613281 C 22.453125 11.445312 22.382812 11.289062 22.273438 11.179688 L 16.125 5.027344 C 16.011719 4.917969 15.859375 4.851562 15.6875 4.851562 C 15.351562 4.851562 15.070312 5.125 15.070312 5.464844 C 15.070312 5.632812 15.144531 5.789062 15.253906 5.898438 L 20.351562 10.996094 L 9.539062 10.996094 C 9.199219 10.996094 8.925781 11.273438 8.925781 11.613281 C 8.925781 11.953125 9.199219 12.226562 9.539062 12.226562 L 20.351562 12.226562 L 15.253906 17.324219 C 15.144531 17.4375 15.070312 17.589844 15.070312 17.757812 C 15.070312 17.929688 15.140625 18.085938 15.253906 18.195312 Z M 15.253906 18.195312 "/>
</g>
</g>
</svg>
