<svg xmlns="http://www.w3.org/2000/svg" xmlns:xlink="http://www.w3.org/1999/xlink" width="220" zoomAndPan="magnify" viewBox="0 0 165 54" height="72" preserveAspectRatio="xMidYMid meet" version="1.0"><defs><clipPath id="0fe715b997"><path d="M 57 14 L 162.179688 14 L 162.179688 40 L 57 40 Z M 57 14 " clip-rule="nonzero"/></clipPath><clipPath id="4edbfa6f0e"><path d="M 3.125 3.105469 L 46.394531 3.105469 L 46.394531 50.527344 L 3.125 50.527344 Z M 3.125 3.105469 " clip-rule="nonzero"/></clipPath><clipPath id="3863126b22"><path d="M 18.988281 15.949219 C 22.792969 14.835938 37.136719 23.007812 37.136719 26.792969 C 37.136719 30.578125 22.792969 38.75 18.988281 37.636719 C 15.1875 36.523438 15.1875 17.078125 18.988281 15.949219 M 35.578125 8.039062 C 46.394531 14.289062 46.382812 14.289062 46.390625 26.785156 C 46.394531 39.277344 46.390625 39.273438 35.578125 45.53125 C 24.765625 51.789062 24.765625 51.777344 13.953125 45.53125 C 3.140625 39.28125 3.132812 39.285156 3.132812 26.769531 C 3.132812 14.253906 3.132812 14.289062 13.953125 8.03125 C 24.773438 1.773438 24.753906 1.792969 35.578125 8.039062 Z M 35.578125 8.039062 " clip-rule="evenodd"/></clipPath><linearGradient x1="0.0200001" gradientTransform="matrix(0.331315, 0, 0, 0.331633, 3.125672, 1.778128)" y1="75.400002" x2="130.600009" gradientUnits="userSpaceOnUse" y2="75.400002" id="56efd5bd6f"><stop stop-opacity="1" stop-color="rgb(0%, 90.200806%, 99.993896%)" offset="0"/><stop stop-opacity="1" stop-color="rgb(0.0305176%, 90.231323%, 99.856567%)" offset="0.0078125"/><stop stop-opacity="1" stop-color="rgb(0.0915527%, 90.292358%, 99.584961%)" offset="0.015625"/><stop stop-opacity="1" stop-color="rgb(0.152588%, 90.353394%, 99.311829%)" offset="0.0234375"/><stop stop-opacity="1" stop-color="rgb(0.213623%, 90.412903%, 99.038696%)" offset="0.03125"/><stop stop-opacity="1" stop-color="rgb(0.274658%, 90.473938%, 98.76709%)" offset="0.0390625"/><stop stop-opacity="1" stop-color="rgb(0.335693%, 90.534973%, 98.493958%)" offset="0.046875"/><stop stop-opacity="1" stop-color="rgb(0.396729%, 90.596008%, 98.220825%)" offset="0.0546875"/><stop stop-opacity="1" stop-color="rgb(0.457764%, 90.657043%, 97.949219%)" offset="0.0625"/><stop stop-opacity="1" stop-color="rgb(0.518799%, 90.718079%, 97.676086%)" offset="0.0703125"/><stop stop-opacity="1" stop-color="rgb(0.579834%, 90.779114%, 97.402954%)" offset="0.078125"/><stop stop-opacity="1" stop-color="rgb(0.640869%, 90.840149%, 97.131348%)" offset="0.0859375"/><stop stop-opacity="1" stop-color="rgb(0.700378%, 90.901184%, 96.858215%)" offset="0.09375"/><stop stop-opacity="1" stop-color="rgb(0.761414%, 90.962219%, 96.585083%)" offset="0.101563"/><stop stop-opacity="1" stop-color="rgb(0.822449%, 91.023254%, 96.313477%)" offset="0.109375"/><stop stop-opacity="1" stop-color="rgb(0.883484%, 91.08429%, 96.040344%)" offset="0.117188"/><stop stop-opacity="1" stop-color="rgb(0.944519%, 91.145325%, 95.767212%)" offset="0.125"/><stop stop-opacity="1" stop-color="rgb(1.005554%, 91.20636%, 95.495605%)" offset="0.132812"/><stop stop-opacity="1" stop-color="rgb(1.066589%, 91.265869%, 95.222473%)" offset="0.140625"/><stop stop-opacity="1" stop-color="rgb(1.127625%, 91.326904%, 94.949341%)" offset="0.148438"/><stop stop-opacity="1" stop-color="rgb(1.18866%, 91.387939%, 94.677734%)" offset="0.15625"/><stop stop-opacity="1" stop-color="rgb(1.249695%, 91.448975%, 94.404602%)" offset="0.164062"/><stop stop-opacity="1" stop-color="rgb(1.31073%, 91.51001%, 94.13147%)" offset="0.171875"/><stop stop-opacity="1" stop-color="rgb(1.371765%, 91.571045%, 93.859863%)" offset="0.179688"/><stop stop-opacity="1" stop-color="rgb(1.4328%, 91.63208%, 93.586731%)" offset="0.1875"/><stop stop-opacity="1" stop-color="rgb(1.493835%, 91.693115%, 93.313599%)" offset="0.195312"/><stop stop-opacity="1" stop-color="rgb(1.553345%, 91.75415%, 93.041992%)" offset="0.203125"/><stop stop-opacity="1" stop-color="rgb(1.61438%, 91.815186%, 92.76886%)" offset="0.210938"/><stop stop-opacity="1" stop-color="rgb(1.675415%, 91.876221%, 92.495728%)" offset="0.21875"/><stop stop-opacity="1" stop-color="rgb(1.73645%, 91.937256%, 92.224121%)" offset="0.226562"/><stop stop-opacity="1" stop-color="rgb(1.797485%, 91.998291%, 91.950989%)" offset="0.234375"/><stop stop-opacity="1" stop-color="rgb(1.858521%, 92.059326%, 91.679382%)" offset="0.242188"/><stop stop-opacity="1" stop-color="rgb(1.919556%, 92.120361%, 91.40625%)" offset="0.25"/><stop stop-opacity="1" stop-color="rgb(1.980591%, 92.179871%, 91.133118%)" offset="0.257812"/><stop stop-opacity="1" stop-color="rgb(2.041626%, 92.240906%, 90.861511%)" offset="0.265625"/><stop stop-opacity="1" stop-color="rgb(2.102661%, 92.301941%, 90.588379%)" offset="0.273438"/><stop stop-opacity="1" stop-color="rgb(2.163696%, 92.362976%, 90.315247%)" offset="0.28125"/><stop stop-opacity="1" stop-color="rgb(2.224731%, 92.424011%, 90.04364%)" offset="0.289063"/><stop stop-opacity="1" stop-color="rgb(2.285767%, 92.485046%, 89.770508%)" offset="0.296875"/><stop stop-opacity="1" stop-color="rgb(2.346802%, 92.546082%, 89.497375%)" offset="0.304687"/><stop stop-opacity="1" stop-color="rgb(2.406311%, 92.607117%, 89.225769%)" offset="0.3125"/><stop stop-opacity="1" stop-color="rgb(2.467346%, 92.668152%, 88.952637%)" offset="0.320312"/><stop stop-opacity="1" stop-color="rgb(2.528381%, 92.729187%, 88.679504%)" offset="0.328125"/><stop stop-opacity="1" stop-color="rgb(2.589417%, 92.790222%, 88.407898%)" offset="0.335938"/><stop stop-opacity="1" stop-color="rgb(2.650452%, 92.851257%, 88.134766%)" offset="0.34375"/><stop stop-opacity="1" stop-color="rgb(2.711487%, 92.912292%, 87.861633%)" offset="0.351562"/><stop stop-opacity="1" stop-color="rgb(2.772522%, 92.973328%, 87.590027%)" offset="0.359375"/><stop stop-opacity="1" stop-color="rgb(2.833557%, 93.032837%, 87.316895%)" offset="0.367188"/><stop stop-opacity="1" stop-color="rgb(2.894592%, 93.093872%, 87.043762%)" offset="0.375"/><stop stop-opacity="1" stop-color="rgb(2.955627%, 93.154907%, 86.772156%)" offset="0.382813"/><stop stop-opacity="1" stop-color="rgb(3.016663%, 93.215942%, 86.499023%)" offset="0.390625"/><stop stop-opacity="1" stop-color="rgb(3.077698%, 93.276978%, 86.225891%)" offset="0.398438"/><stop stop-opacity="1" stop-color="rgb(3.138733%, 93.338013%, 85.954285%)" offset="0.40625"/><stop stop-opacity="1" stop-color="rgb(3.199768%, 93.399048%, 85.681152%)" offset="0.414062"/><stop stop-opacity="1" stop-color="rgb(3.259277%, 93.460083%, 85.40802%)" offset="0.421875"/><stop stop-opacity="1" stop-color="rgb(3.320312%, 93.521118%, 85.136414%)" offset="0.429688"/><stop stop-opacity="1" stop-color="rgb(3.381348%, 93.582153%, 84.863281%)" offset="0.4375"/><stop stop-opacity="1" stop-color="rgb(3.442383%, 93.643188%, 84.590149%)" offset="0.445312"/><stop stop-opacity="1" stop-color="rgb(3.503418%, 93.704224%, 84.318542%)" offset="0.453125"/><stop stop-opacity="1" stop-color="rgb(3.564453%, 93.765259%, 84.04541%)" offset="0.460938"/><stop stop-opacity="1" stop-color="rgb(3.625488%, 93.826294%, 83.772278%)" offset="0.46875"/><stop stop-opacity="1" stop-color="rgb(3.686523%, 93.885803%, 83.500671%)" offset="0.476563"/><stop stop-opacity="1" stop-color="rgb(3.747559%, 93.946838%, 83.227539%)" offset="0.484375"/><stop stop-opacity="1" stop-color="rgb(3.808594%, 94.007874%, 82.954407%)" offset="0.492188"/><stop stop-opacity="1" stop-color="rgb(3.869629%, 94.068909%, 82.6828%)" offset="0.5"/><stop stop-opacity="1" stop-color="rgb(3.930664%, 94.129944%, 82.409668%)" offset="0.507812"/><stop stop-opacity="1" stop-color="rgb(3.991699%, 94.190979%, 82.136536%)" offset="0.515625"/><stop stop-opacity="1" stop-color="rgb(4.052734%, 94.252014%, 81.864929%)" offset="0.523438"/><stop stop-opacity="1" stop-color="rgb(4.11377%, 94.313049%, 81.591797%)" offset="0.53125"/><stop stop-opacity="1" stop-color="rgb(4.173279%, 94.374084%, 81.318665%)" offset="0.539062"/><stop stop-opacity="1" stop-color="rgb(4.234314%, 94.43512%, 81.047058%)" offset="0.546875"/><stop stop-opacity="1" stop-color="rgb(4.295349%, 94.496155%, 80.773926%)" offset="0.554688"/><stop stop-opacity="1" stop-color="rgb(4.356384%, 94.55719%, 80.500793%)" offset="0.5625"/><stop stop-opacity="1" stop-color="rgb(4.417419%, 94.618225%, 80.229187%)" offset="0.570313"/><stop stop-opacity="1" stop-color="rgb(4.478455%, 94.67926%, 79.956055%)" offset="0.578125"/><stop stop-opacity="1" stop-color="rgb(4.53949%, 94.73877%, 79.682922%)" offset="0.585938"/><stop stop-opacity="1" stop-color="rgb(4.600525%, 94.799805%, 79.411316%)" offset="0.59375"/><stop stop-opacity="1" stop-color="rgb(4.66156%, 94.86084%, 79.138184%)" offset="0.601562"/><stop stop-opacity="1" stop-color="rgb(4.722595%, 94.921875%, 78.865051%)" offset="0.609375"/><stop stop-opacity="1" stop-color="rgb(4.78363%, 94.98291%, 78.593445%)" offset="0.617188"/><stop stop-opacity="1" stop-color="rgb(4.844666%, 95.043945%, 78.320312%)" offset="0.625"/><stop stop-opacity="1" stop-color="rgb(4.905701%, 95.10498%, 78.04718%)" offset="0.632812"/><stop stop-opacity="1" stop-color="rgb(4.966736%, 95.166016%, 77.775574%)" offset="0.640625"/><stop stop-opacity="1" stop-color="rgb(5.026245%, 95.227051%, 77.502441%)" offset="0.648438"/><stop stop-opacity="1" stop-color="rgb(5.08728%, 95.288086%, 77.230835%)" offset="0.65625"/><stop stop-opacity="1" stop-color="rgb(5.148315%, 95.349121%, 76.957703%)" offset="0.664063"/><stop stop-opacity="1" stop-color="rgb(5.209351%, 95.410156%, 76.68457%)" offset="0.671875"/><stop stop-opacity="1" stop-color="rgb(5.270386%, 95.471191%, 76.412964%)" offset="0.679688"/><stop stop-opacity="1" stop-color="rgb(5.331421%, 95.532227%, 76.139832%)" offset="0.6875"/><stop stop-opacity="1" stop-color="rgb(5.392456%, 95.593262%, 75.866699%)" offset="0.695312"/><stop stop-opacity="1" stop-color="rgb(5.453491%, 95.652771%, 75.595093%)" offset="0.703125"/><stop stop-opacity="1" stop-color="rgb(5.514526%, 95.713806%, 75.32196%)" offset="0.710938"/><stop stop-opacity="1" stop-color="rgb(5.575562%, 95.774841%, 75.048828%)" offset="0.71875"/><stop stop-opacity="1" stop-color="rgb(5.636597%, 95.835876%, 74.777222%)" offset="0.726562"/><stop stop-opacity="1" stop-color="rgb(5.697632%, 95.896912%, 74.504089%)" offset="0.734375"/><stop stop-opacity="1" stop-color="rgb(5.758667%, 95.957947%, 74.230957%)" offset="0.742188"/><stop stop-opacity="1" stop-color="rgb(5.819702%, 96.018982%, 73.959351%)" offset="0.75"/><stop stop-opacity="1" stop-color="rgb(5.879211%, 96.080017%, 73.686218%)" offset="0.757813"/><stop stop-opacity="1" stop-color="rgb(5.940247%, 96.141052%, 73.413086%)" offset="0.765625"/><stop stop-opacity="1" stop-color="rgb(6.001282%, 96.202087%, 73.141479%)" offset="0.773438"/><stop stop-opacity="1" stop-color="rgb(6.062317%, 96.263123%, 72.868347%)" offset="0.78125"/><stop stop-opacity="1" stop-color="rgb(6.123352%, 96.324158%, 72.595215%)" offset="0.789062"/><stop stop-opacity="1" stop-color="rgb(6.184387%, 96.385193%, 72.323608%)" offset="0.796875"/><stop stop-opacity="1" stop-color="rgb(6.245422%, 96.446228%, 72.050476%)" offset="0.804688"/><stop stop-opacity="1" stop-color="rgb(6.306458%, 96.505737%, 71.777344%)" offset="0.8125"/><stop stop-opacity="1" stop-color="rgb(6.367493%, 96.566772%, 71.505737%)" offset="0.820312"/><stop stop-opacity="1" stop-color="rgb(6.428528%, 96.627808%, 71.232605%)" offset="0.828125"/><stop stop-opacity="1" stop-color="rgb(6.489563%, 96.688843%, 70.959473%)" offset="0.835938"/><stop stop-opacity="1" stop-color="rgb(6.550598%, 96.749878%, 70.687866%)" offset="0.84375"/><stop stop-opacity="1" stop-color="rgb(6.611633%, 96.810913%, 70.414734%)" offset="0.851563"/><stop stop-opacity="1" stop-color="rgb(6.672668%, 96.871948%, 70.141602%)" offset="0.859375"/><stop stop-opacity="1" stop-color="rgb(6.733704%, 96.932983%, 69.869995%)" offset="0.867188"/><stop stop-opacity="1" stop-color="rgb(6.793213%, 96.994019%, 69.596863%)" offset="0.875"/><stop stop-opacity="1" stop-color="rgb(6.854248%, 97.055054%, 69.32373%)" offset="0.882812"/><stop stop-opacity="1" stop-color="rgb(6.915283%, 97.116089%, 69.052124%)" offset="0.890625"/><stop stop-opacity="1" stop-color="rgb(6.976318%, 97.177124%, 68.778992%)" offset="0.898438"/><stop stop-opacity="1" stop-color="rgb(7.037354%, 97.238159%, 68.505859%)" offset="0.90625"/><stop stop-opacity="1" stop-color="rgb(7.098389%, 97.299194%, 68.234253%)" offset="0.914062"/><stop stop-opacity="1" stop-color="rgb(7.159424%, 97.358704%, 67.961121%)" offset="0.921875"/><stop stop-opacity="1" stop-color="rgb(7.220459%, 97.419739%, 67.687988%)" offset="0.929688"/><stop stop-opacity="1" stop-color="rgb(7.281494%, 97.480774%, 67.416382%)" offset="0.9375"/><stop stop-opacity="1" stop-color="rgb(7.342529%, 97.541809%, 67.14325%)" offset="0.945313"/><stop stop-opacity="1" stop-color="rgb(7.403564%, 97.602844%, 66.870117%)" offset="0.953125"/><stop stop-opacity="1" stop-color="rgb(7.4646%, 97.663879%, 66.598511%)" offset="0.960938"/><stop stop-opacity="1" stop-color="rgb(7.525635%, 97.724915%, 66.325378%)" offset="0.96875"/><stop stop-opacity="1" stop-color="rgb(7.58667%, 97.78595%, 66.052246%)" offset="0.976562"/><stop stop-opacity="1" stop-color="rgb(7.646179%, 97.846985%, 65.78064%)" offset="0.984375"/><stop stop-opacity="1" stop-color="rgb(7.707214%, 97.90802%, 65.507507%)" offset="0.992188"/><stop stop-opacity="1" stop-color="rgb(7.76825%, 97.969055%, 65.234375%)" offset="1"/></linearGradient></defs><g clip-path="url(#0fe715b997)"><path fill="#49525c" d="M 125.953125 39.257812 C 125.054688 39.28125 124.292969 38.96875 123.660156 38.328125 C 123.019531 37.6875 122.707031 36.914062 122.730469 36.007812 C 122.691406 35.089844 123 34.316406 123.660156 33.683594 C 123.976562 33.402344 124.332031 33.183594 124.726562 33.03125 C 125.121094 32.878906 125.53125 32.800781 125.953125 32.800781 C 126.378906 32.800781 126.785156 32.878906 127.183594 33.03125 C 127.578125 33.183594 127.933594 33.402344 128.246094 33.683594 C 128.910156 34.316406 129.21875 35.089844 129.179688 36.007812 C 129.1875 36.4375 129.113281 36.855469 128.953125 37.257812 C 128.792969 37.660156 128.5625 38.015625 128.257812 38.320312 C 127.953125 38.628906 127.601562 38.867188 127.203125 39.027344 C 126.800781 39.191406 126.386719 39.273438 125.953125 39.265625 M 120.9375 38.136719 C 120.367188 38.542969 119.742188 38.824219 119.0625 38.984375 C 118.300781 39.175781 117.527344 39.269531 116.742188 39.265625 C 114.597656 39.265625 112.945312 38.722656 111.792969 37.636719 C 110.640625 36.550781 110.0625 34.953125 110.0625 32.84375 L 110.0625 17.136719 L 113.820312 17.136719 C 114.007812 17.136719 114.183594 17.171875 114.355469 17.242188 C 114.527344 17.3125 114.679688 17.410156 114.8125 17.539062 C 114.945312 17.664062 115.046875 17.8125 115.125 17.984375 C 115.199219 18.152344 115.242188 18.328125 115.25 18.511719 L 115.25 21.496094 L 118.855469 21.496094 L 118.855469 25.476562 L 115.257812 25.476562 L 115.257812 32.773438 C 115.214844 33.429688 115.402344 34.011719 115.824219 34.519531 C 116.273438 34.972656 116.816406 35.175781 117.453125 35.132812 C 119.355469 35.132812 119.699219 34.792969 120.9375 38.128906 Z M 98.335938 35.007812 C 98.953125 35.027344 99.546875 34.921875 100.117188 34.6875 C 100.6875 34.453125 101.183594 34.109375 101.609375 33.660156 C 102.460938 32.765625 102.886719 31.558594 102.886719 30.050781 C 102.886719 28.539062 102.460938 27.335938 101.609375 26.441406 C 101.390625 26.226562 101.15625 26.039062 100.902344 25.871094 C 100.648438 25.703125 100.382812 25.558594 100.101562 25.445312 C 99.820312 25.328125 99.53125 25.242188 99.230469 25.183594 C 98.933594 25.125 98.632812 25.09375 98.328125 25.09375 C 98.023438 25.09375 97.722656 25.125 97.421875 25.183594 C 97.125 25.242188 96.835938 25.328125 96.554688 25.445312 C 96.273438 25.558594 96.003906 25.703125 95.75 25.871094 C 95.496094 26.039062 95.261719 26.226562 95.046875 26.441406 C 94.175781 27.339844 93.746094 28.542969 93.746094 30.050781 C 93.75 31.558594 94.183594 32.761719 95.046875 33.660156 C 95.472656 34.109375 95.976562 34.449219 96.546875 34.683594 C 97.121094 34.914062 97.71875 35.023438 98.335938 35 Z M 98.335938 39.265625 C 96.546875 39.296875 94.859375 38.902344 93.265625 38.085938 C 91.789062 37.324219 90.617188 36.234375 89.757812 34.808594 C 88.886719 33.339844 88.46875 31.753906 88.496094 30.050781 C 88.46875 28.34375 88.886719 26.761719 89.757812 25.292969 C 90.617188 23.871094 91.789062 22.777344 93.265625 22.019531 C 94.054688 21.628906 94.875 21.332031 95.726562 21.132812 C 96.582031 20.933594 97.449219 20.832031 98.324219 20.832031 C 99.203125 20.832031 100.070312 20.933594 100.921875 21.132812 C 101.777344 21.332031 102.597656 21.628906 103.386719 22.019531 C 104.855469 22.78125 106.019531 23.875 106.878906 25.292969 C 107.746094 26.761719 108.167969 28.34375 108.140625 30.050781 C 108.167969 31.753906 107.746094 33.339844 106.878906 34.808594 C 106.019531 36.230469 104.855469 37.320312 103.386719 38.085938 C 101.800781 38.898438 100.117188 39.292969 98.335938 39.257812 Z M 77.015625 35 C 77.632812 35.023438 78.226562 34.914062 78.796875 34.679688 C 79.367188 34.445312 79.863281 34.101562 80.289062 33.65625 C 81.144531 32.757812 81.570312 31.554688 81.566406 30.042969 C 81.566406 28.53125 81.140625 27.332031 80.296875 26.433594 C 79.871094 25.984375 79.371094 25.644531 78.800781 25.410156 C 78.226562 25.171875 77.632812 25.066406 77.015625 25.089844 C 76.398438 25.070312 75.800781 25.175781 75.226562 25.410156 C 74.65625 25.644531 74.152344 25.988281 73.726562 26.433594 C 72.859375 27.332031 72.425781 28.535156 72.425781 30.042969 C 72.425781 31.550781 72.859375 32.753906 73.726562 33.65625 C 74.152344 34.101562 74.65625 34.441406 75.226562 34.679688 C 75.800781 34.914062 76.398438 35.019531 77.015625 35 Z M 77.015625 39.257812 C 75.226562 39.289062 73.539062 38.894531 71.945312 38.078125 C 70.46875 37.320312 69.300781 36.226562 68.441406 34.800781 C 67.570312 33.335938 67.152344 31.75 67.179688 30.042969 C 67.152344 28.339844 67.570312 26.753906 68.441406 25.289062 C 69.300781 23.863281 70.46875 22.769531 71.945312 22.011719 C 72.734375 21.621094 73.554688 21.328125 74.410156 21.125 C 75.261719 20.925781 76.128906 20.828125 77.007812 20.828125 C 77.886719 20.828125 78.75 20.925781 79.605469 21.125 C 80.460938 21.328125 81.28125 21.621094 82.066406 22.011719 C 83.539062 22.773438 84.703125 23.867188 85.558594 25.289062 C 86.425781 26.753906 86.847656 28.339844 86.820312 30.042969 C 86.847656 31.75 86.425781 33.335938 85.558594 34.800781 C 84.703125 36.222656 83.539062 37.316406 82.066406 38.078125 C 80.484375 38.894531 78.796875 39.289062 77.015625 39.257812 Z M 57.179688 14.308594 L 60.933594 14.308594 C 61.125 14.308594 61.304688 14.34375 61.480469 14.417969 C 61.65625 14.488281 61.8125 14.59375 61.945312 14.726562 C 62.078125 14.863281 62.183594 15.015625 62.253906 15.191406 C 62.328125 15.367188 62.363281 15.550781 62.363281 15.738281 L 62.363281 32.839844 C 62.328125 33.476562 62.519531 34.035156 62.929688 34.519531 C 63.378906 34.972656 63.921875 35.175781 64.558594 35.132812 C 66.464844 35.132812 66.808594 34.800781 68.046875 38.117188 C 67.476562 38.523438 66.851562 38.808594 66.171875 38.96875 C 65.410156 39.160156 64.636719 39.253906 63.851562 39.25 C 61.707031 39.25 60.054688 38.707031 58.902344 37.621094 C 57.75 36.535156 57.171875 34.9375 57.171875 32.828125 Z M 141.953125 38.128906 C 141.382812 38.535156 140.757812 38.816406 140.074219 38.976562 C 139.3125 39.167969 138.539062 39.261719 137.753906 39.257812 C 135.605469 39.257812 133.953125 38.714844 132.800781 37.632812 C 131.652344 36.546875 131.078125 34.949219 131.078125 32.839844 L 131.078125 17.136719 L 134.832031 17.136719 C 135.015625 17.136719 135.191406 17.171875 135.363281 17.242188 C 135.535156 17.308594 135.6875 17.410156 135.820312 17.535156 C 135.957031 17.664062 136.058594 17.8125 136.136719 17.980469 C 136.210938 18.152344 136.253906 18.328125 136.261719 18.511719 L 136.261719 21.496094 L 139.867188 21.496094 L 139.867188 25.476562 L 136.261719 25.476562 L 136.261719 32.773438 C 136.21875 33.429688 136.40625 34.011719 136.824219 34.519531 C 137.277344 34.96875 137.820312 35.175781 138.453125 35.132812 C 140.355469 35.132812 140.699219 34.792969 141.953125 38.128906 Z M 152.113281 38.992188 L 149.375 38.992188 L 142.03125 21.492188 L 145.433594 21.492188 C 146.363281 21.492188 147.488281 22.050781 147.84375 22.917969 L 152.105469 33.398438 L 156.367188 22.914062 C 156.71875 22.046875 157.847656 21.492188 158.78125 21.492188 L 162.179688 21.492188 L 154.835938 38.992188 Z M 152.113281 38.992188 " fill-opacity="1" fill-rule="nonzero"/></g><g clip-path="url(#4edbfa6f0e)"><g clip-path="url(#3863126b22)"><path fill="url(#56efd5bd6f)" d="M 3.132812 3.105469 L 3.132812 50.527344 L 46.394531 50.527344 L 46.394531 3.105469 Z M 3.132812 3.105469 " fill-rule="nonzero"/></g></g></svg>