<svg xmlns="http://www.w3.org/2000/svg" xmlns:xlink="http://www.w3.org/1999/xlink" width="480" zoomAndPan="magnify" viewBox="0 0 360 113.249998" height="151" preserveAspectRatio="xMidYMid meet" version="1.0"><defs><clipPath id="f2d76fe054"><path d="M 123 29 L 357.113281 29 L 357.113281 85 L 123 85 Z M 123 29 " clip-rule="nonzero"/></clipPath><clipPath id="f5239b5ec9"><path d="M 3.207031 4.296875 L 99.484375 4.296875 L 99.484375 109 L 3.207031 109 Z M 3.207031 4.296875 " clip-rule="nonzero"/></clipPath><clipPath id="5a70a636f0"><path d="M 38.503906 32.769531 C 46.96875 30.300781 78.878906 48.421875 78.878906 56.8125 C 78.878906 65.199219 46.96875 83.324219 38.503906 80.851562 C 30.039062 78.382812 30.039062 35.269531 38.503906 32.769531 M 75.414062 15.234375 C 99.484375 29.09375 99.457031 29.09375 99.46875 56.789062 C 99.484375 84.484375 99.46875 84.476562 75.414062 98.351562 C 51.359375 112.222656 51.359375 112.203125 27.296875 98.351562 C 3.238281 84.5 3.222656 84.507812 3.222656 56.761719 C 3.222656 29.011719 3.222656 29.09375 27.296875 15.222656 C 51.375 1.347656 51.332031 1.382812 75.414062 15.234375 Z M 75.414062 15.234375 " clip-rule="evenodd"/></clipPath><linearGradient x1="0.0199999" gradientTransform="matrix(0.737197, 0, 0, 0.735207, 3.206855, 1.355056)" y1="75.400002" x2="130.600002" gradientUnits="userSpaceOnUse" y2="75.400002" id="308d08c6aa"><stop stop-opacity="1" stop-color="rgb(0%, 90.200806%, 99.993896%)" offset="0"/><stop stop-opacity="1" stop-color="rgb(0.0305176%, 90.231323%, 99.856567%)" offset="0.0078125"/><stop stop-opacity="1" stop-color="rgb(0.0915527%, 90.292358%, 99.584961%)" offset="0.015625"/><stop stop-opacity="1" stop-color="rgb(0.152588%, 90.353394%, 99.311829%)" offset="0.0234375"/><stop stop-opacity="1" stop-color="rgb(0.213623%, 90.412903%, 99.038696%)" offset="0.03125"/><stop stop-opacity="1" stop-color="rgb(0.274658%, 90.473938%, 98.76709%)" offset="0.0390625"/><stop stop-opacity="1" stop-color="rgb(0.335693%, 90.534973%, 98.493958%)" offset="0.046875"/><stop stop-opacity="1" stop-color="rgb(0.396729%, 90.596008%, 98.220825%)" offset="0.0546875"/><stop stop-opacity="1" stop-color="rgb(0.457764%, 90.657043%, 97.949219%)" offset="0.0625"/><stop stop-opacity="1" stop-color="rgb(0.518799%, 90.718079%, 97.676086%)" offset="0.0703125"/><stop stop-opacity="1" stop-color="rgb(0.579834%, 90.779114%, 97.402954%)" offset="0.078125"/><stop stop-opacity="1" stop-color="rgb(0.640869%, 90.840149%, 97.131348%)" offset="0.0859375"/><stop stop-opacity="1" stop-color="rgb(0.700378%, 90.901184%, 96.858215%)" offset="0.09375"/><stop stop-opacity="1" stop-color="rgb(0.761414%, 90.962219%, 96.585083%)" offset="0.101562"/><stop stop-opacity="1" stop-color="rgb(0.822449%, 91.023254%, 96.313477%)" offset="0.109375"/><stop stop-opacity="1" stop-color="rgb(0.883484%, 91.08429%, 96.040344%)" offset="0.117187"/><stop stop-opacity="1" stop-color="rgb(0.944519%, 91.145325%, 95.767212%)" offset="0.125"/><stop stop-opacity="1" stop-color="rgb(1.005554%, 91.20636%, 95.495605%)" offset="0.132812"/><stop stop-opacity="1" stop-color="rgb(1.066589%, 91.265869%, 95.222473%)" offset="0.140625"/><stop stop-opacity="1" stop-color="rgb(1.127625%, 91.326904%, 94.949341%)" offset="0.148437"/><stop stop-opacity="1" stop-color="rgb(1.18866%, 91.387939%, 94.677734%)" offset="0.15625"/><stop stop-opacity="1" stop-color="rgb(1.249695%, 91.448975%, 94.404602%)" offset="0.164062"/><stop stop-opacity="1" stop-color="rgb(1.31073%, 91.51001%, 94.13147%)" offset="0.171875"/><stop stop-opacity="1" stop-color="rgb(1.371765%, 91.571045%, 93.859863%)" offset="0.179688"/><stop stop-opacity="1" stop-color="rgb(1.4328%, 91.63208%, 93.586731%)" offset="0.1875"/><stop stop-opacity="1" stop-color="rgb(1.493835%, 91.693115%, 93.313599%)" offset="0.195312"/><stop stop-opacity="1" stop-color="rgb(1.553345%, 91.75415%, 93.041992%)" offset="0.203125"/><stop stop-opacity="1" stop-color="rgb(1.61438%, 91.815186%, 92.76886%)" offset="0.210938"/><stop stop-opacity="1" stop-color="rgb(1.675415%, 91.876221%, 92.495728%)" offset="0.21875"/><stop stop-opacity="1" stop-color="rgb(1.73645%, 91.937256%, 92.224121%)" offset="0.226562"/><stop stop-opacity="1" stop-color="rgb(1.797485%, 91.998291%, 91.950989%)" offset="0.234375"/><stop stop-opacity="1" stop-color="rgb(1.858521%, 92.059326%, 91.679382%)" offset="0.242188"/><stop stop-opacity="1" stop-color="rgb(1.919556%, 92.120361%, 91.40625%)" offset="0.25"/><stop stop-opacity="1" stop-color="rgb(1.980591%, 92.179871%, 91.133118%)" offset="0.257813"/><stop stop-opacity="1" stop-color="rgb(2.041626%, 92.240906%, 90.861511%)" offset="0.265625"/><stop stop-opacity="1" stop-color="rgb(2.102661%, 92.301941%, 90.588379%)" offset="0.273438"/><stop stop-opacity="1" stop-color="rgb(2.163696%, 92.362976%, 90.315247%)" offset="0.28125"/><stop stop-opacity="1" stop-color="rgb(2.224731%, 92.424011%, 90.04364%)" offset="0.289062"/><stop stop-opacity="1" stop-color="rgb(2.285767%, 92.485046%, 89.770508%)" offset="0.296875"/><stop stop-opacity="1" stop-color="rgb(2.346802%, 92.546082%, 89.497375%)" offset="0.304688"/><stop stop-opacity="1" stop-color="rgb(2.406311%, 92.607117%, 89.225769%)" offset="0.3125"/><stop stop-opacity="1" stop-color="rgb(2.467346%, 92.668152%, 88.952637%)" offset="0.320312"/><stop stop-opacity="1" stop-color="rgb(2.528381%, 92.729187%, 88.679504%)" offset="0.328125"/><stop stop-opacity="1" stop-color="rgb(2.589417%, 92.790222%, 88.407898%)" offset="0.335938"/><stop stop-opacity="1" stop-color="rgb(2.650452%, 92.851257%, 88.134766%)" offset="0.34375"/><stop stop-opacity="1" stop-color="rgb(2.711487%, 92.912292%, 87.861633%)" offset="0.351562"/><stop stop-opacity="1" stop-color="rgb(2.772522%, 92.973328%, 87.590027%)" offset="0.359375"/><stop stop-opacity="1" stop-color="rgb(2.833557%, 93.032837%, 87.316895%)" offset="0.367188"/><stop stop-opacity="1" stop-color="rgb(2.894592%, 93.093872%, 87.043762%)" offset="0.375"/><stop stop-opacity="1" stop-color="rgb(2.955627%, 93.154907%, 86.772156%)" offset="0.382813"/><stop stop-opacity="1" stop-color="rgb(3.016663%, 93.215942%, 86.499023%)" offset="0.390625"/><stop stop-opacity="1" stop-color="rgb(3.077698%, 93.276978%, 86.225891%)" offset="0.398438"/><stop stop-opacity="1" stop-color="rgb(3.138733%, 93.338013%, 85.954285%)" offset="0.40625"/><stop stop-opacity="1" stop-color="rgb(3.199768%, 93.399048%, 85.681152%)" offset="0.414063"/><stop stop-opacity="1" stop-color="rgb(3.259277%, 93.460083%, 85.40802%)" offset="0.421875"/><stop stop-opacity="1" stop-color="rgb(3.320312%, 93.521118%, 85.136414%)" offset="0.429688"/><stop stop-opacity="1" stop-color="rgb(3.381348%, 93.582153%, 84.863281%)" offset="0.4375"/><stop stop-opacity="1" stop-color="rgb(3.442383%, 93.643188%, 84.590149%)" offset="0.445313"/><stop stop-opacity="1" stop-color="rgb(3.503418%, 93.704224%, 84.318542%)" offset="0.453125"/><stop stop-opacity="1" stop-color="rgb(3.564453%, 93.765259%, 84.04541%)" offset="0.460938"/><stop stop-opacity="1" stop-color="rgb(3.625488%, 93.826294%, 83.772278%)" offset="0.46875"/><stop stop-opacity="1" stop-color="rgb(3.686523%, 93.885803%, 83.500671%)" offset="0.476562"/><stop stop-opacity="1" stop-color="rgb(3.747559%, 93.946838%, 83.227539%)" offset="0.484375"/><stop stop-opacity="1" stop-color="rgb(3.808594%, 94.007874%, 82.954407%)" offset="0.492188"/><stop stop-opacity="1" stop-color="rgb(3.869629%, 94.068909%, 82.6828%)" offset="0.5"/><stop stop-opacity="1" stop-color="rgb(3.930664%, 94.129944%, 82.409668%)" offset="0.507812"/><stop stop-opacity="1" stop-color="rgb(3.991699%, 94.190979%, 82.136536%)" offset="0.515625"/><stop stop-opacity="1" stop-color="rgb(4.052734%, 94.252014%, 81.864929%)" offset="0.523438"/><stop stop-opacity="1" stop-color="rgb(4.11377%, 94.313049%, 81.591797%)" offset="0.53125"/><stop stop-opacity="1" stop-color="rgb(4.173279%, 94.374084%, 81.318665%)" offset="0.539063"/><stop stop-opacity="1" stop-color="rgb(4.234314%, 94.43512%, 81.047058%)" offset="0.546875"/><stop stop-opacity="1" stop-color="rgb(4.295349%, 94.496155%, 80.773926%)" offset="0.554688"/><stop stop-opacity="1" stop-color="rgb(4.356384%, 94.55719%, 80.500793%)" offset="0.5625"/><stop stop-opacity="1" stop-color="rgb(4.417419%, 94.618225%, 80.229187%)" offset="0.570313"/><stop stop-opacity="1" stop-color="rgb(4.478455%, 94.67926%, 79.956055%)" offset="0.578125"/><stop stop-opacity="1" stop-color="rgb(4.53949%, 94.73877%, 79.682922%)" offset="0.585938"/><stop stop-opacity="1" stop-color="rgb(4.600525%, 94.799805%, 79.411316%)" offset="0.59375"/><stop stop-opacity="1" stop-color="rgb(4.66156%, 94.86084%, 79.138184%)" offset="0.601562"/><stop stop-opacity="1" stop-color="rgb(4.722595%, 94.921875%, 78.865051%)" offset="0.609375"/><stop stop-opacity="1" stop-color="rgb(4.78363%, 94.98291%, 78.593445%)" offset="0.617188"/><stop stop-opacity="1" stop-color="rgb(4.844666%, 95.043945%, 78.320312%)" offset="0.625"/><stop stop-opacity="1" stop-color="rgb(4.905701%, 95.10498%, 78.04718%)" offset="0.632813"/><stop stop-opacity="1" stop-color="rgb(4.966736%, 95.166016%, 77.775574%)" offset="0.640625"/><stop stop-opacity="1" stop-color="rgb(5.026245%, 95.227051%, 77.502441%)" offset="0.648438"/><stop stop-opacity="1" stop-color="rgb(5.08728%, 95.288086%, 77.230835%)" offset="0.65625"/><stop stop-opacity="1" stop-color="rgb(5.148315%, 95.349121%, 76.957703%)" offset="0.664062"/><stop stop-opacity="1" stop-color="rgb(5.209351%, 95.410156%, 76.68457%)" offset="0.671875"/><stop stop-opacity="1" stop-color="rgb(5.270386%, 95.471191%, 76.412964%)" offset="0.679688"/><stop stop-opacity="1" stop-color="rgb(5.331421%, 95.532227%, 76.139832%)" offset="0.6875"/><stop stop-opacity="1" stop-color="rgb(5.392456%, 95.593262%, 75.866699%)" offset="0.695312"/><stop stop-opacity="1" stop-color="rgb(5.453491%, 95.652771%, 75.595093%)" offset="0.703125"/><stop stop-opacity="1" stop-color="rgb(5.514526%, 95.713806%, 75.32196%)" offset="0.710937"/><stop stop-opacity="1" stop-color="rgb(5.575562%, 95.774841%, 75.048828%)" offset="0.71875"/><stop stop-opacity="1" stop-color="rgb(5.636597%, 95.835876%, 74.777222%)" offset="0.726563"/><stop stop-opacity="1" stop-color="rgb(5.697632%, 95.896912%, 74.504089%)" offset="0.734375"/><stop stop-opacity="1" stop-color="rgb(5.758667%, 95.957947%, 74.230957%)" offset="0.742188"/><stop stop-opacity="1" stop-color="rgb(5.819702%, 96.018982%, 73.959351%)" offset="0.75"/><stop stop-opacity="1" stop-color="rgb(5.879211%, 96.080017%, 73.686218%)" offset="0.757812"/><stop stop-opacity="1" stop-color="rgb(5.940247%, 96.141052%, 73.413086%)" offset="0.765625"/><stop stop-opacity="1" stop-color="rgb(6.001282%, 96.202087%, 73.141479%)" offset="0.773438"/><stop stop-opacity="1" stop-color="rgb(6.062317%, 96.263123%, 72.868347%)" offset="0.78125"/><stop stop-opacity="1" stop-color="rgb(6.123352%, 96.324158%, 72.595215%)" offset="0.789063"/><stop stop-opacity="1" stop-color="rgb(6.184387%, 96.385193%, 72.323608%)" offset="0.796875"/><stop stop-opacity="1" stop-color="rgb(6.245422%, 96.446228%, 72.050476%)" offset="0.804688"/><stop stop-opacity="1" stop-color="rgb(6.306458%, 96.505737%, 71.777344%)" offset="0.8125"/><stop stop-opacity="1" stop-color="rgb(6.367493%, 96.566772%, 71.505737%)" offset="0.820312"/><stop stop-opacity="1" stop-color="rgb(6.428528%, 96.627808%, 71.232605%)" offset="0.828125"/><stop stop-opacity="1" stop-color="rgb(6.489563%, 96.688843%, 70.959473%)" offset="0.835938"/><stop stop-opacity="1" stop-color="rgb(6.550598%, 96.749878%, 70.687866%)" offset="0.84375"/><stop stop-opacity="1" stop-color="rgb(6.611633%, 96.810913%, 70.414734%)" offset="0.851562"/><stop stop-opacity="1" stop-color="rgb(6.672668%, 96.871948%, 70.141602%)" offset="0.859375"/><stop stop-opacity="1" stop-color="rgb(6.732178%, 96.932983%, 69.869995%)" offset="0.867187"/><stop stop-opacity="1" stop-color="rgb(6.793213%, 96.994019%, 69.596863%)" offset="0.875"/><stop stop-opacity="1" stop-color="rgb(6.854248%, 97.055054%, 69.32373%)" offset="0.882813"/><stop stop-opacity="1" stop-color="rgb(6.915283%, 97.116089%, 69.052124%)" offset="0.890625"/><stop stop-opacity="1" stop-color="rgb(6.976318%, 97.177124%, 68.778992%)" offset="0.898438"/><stop stop-opacity="1" stop-color="rgb(7.037354%, 97.238159%, 68.505859%)" offset="0.90625"/><stop stop-opacity="1" stop-color="rgb(7.098389%, 97.299194%, 68.234253%)" offset="0.914062"/><stop stop-opacity="1" stop-color="rgb(7.159424%, 97.358704%, 67.961121%)" offset="0.921875"/><stop stop-opacity="1" stop-color="rgb(7.220459%, 97.419739%, 67.687988%)" offset="0.929688"/><stop stop-opacity="1" stop-color="rgb(7.281494%, 97.480774%, 67.416382%)" offset="0.9375"/><stop stop-opacity="1" stop-color="rgb(7.342529%, 97.541809%, 67.14325%)" offset="0.945312"/><stop stop-opacity="1" stop-color="rgb(7.403564%, 97.602844%, 66.870117%)" offset="0.953125"/><stop stop-opacity="1" stop-color="rgb(7.4646%, 97.663879%, 66.598511%)" offset="0.960937"/><stop stop-opacity="1" stop-color="rgb(7.525635%, 97.724915%, 66.325378%)" offset="0.96875"/><stop stop-opacity="1" stop-color="rgb(7.58667%, 97.78595%, 66.052246%)" offset="0.976563"/><stop stop-opacity="1" stop-color="rgb(7.646179%, 97.846985%, 65.78064%)" offset="0.984375"/><stop stop-opacity="1" stop-color="rgb(7.707214%, 97.90802%, 65.507507%)" offset="0.992188"/><stop stop-opacity="1" stop-color="rgb(7.76825%, 97.969055%, 65.234375%)" offset="1"/></linearGradient></defs><g clip-path="url(#f2d76fe054)"><path fill="#ffffff" d="M 276.507812 84.449219 C 275.550781 84.46875 274.628906 84.300781 273.742188 83.941406 C 272.855469 83.582031 272.078125 83.0625 271.40625 82.382812 C 270.722656 81.703125 270.199219 80.917969 269.839844 80.023438 C 269.476562 79.128906 269.3125 78.199219 269.335938 77.234375 C 269.292969 76.269531 269.453125 75.335938 269.8125 74.441406 C 270.175781 73.542969 270.707031 72.757812 271.40625 72.089844 C 271.753906 71.777344 272.125 71.5 272.523438 71.253906 C 272.921875 71.011719 273.339844 70.804688 273.773438 70.640625 C 274.210938 70.472656 274.660156 70.347656 275.117188 70.261719 C 275.578125 70.175781 276.039062 70.132812 276.507812 70.132812 C 276.976562 70.132812 277.4375 70.175781 277.898438 70.261719 C 278.355469 70.347656 278.804688 70.472656 279.242188 70.640625 C 279.675781 70.804688 280.09375 71.011719 280.492188 71.253906 C 280.890625 71.5 281.261719 71.777344 281.609375 72.089844 C 282.3125 72.757812 282.84375 73.542969 283.203125 74.4375 C 283.566406 75.335938 283.722656 76.269531 283.679688 77.234375 C 283.691406 77.710938 283.65625 78.179688 283.570312 78.648438 C 283.488281 79.117188 283.359375 79.570312 283.183594 80.011719 C 283.007812 80.453125 282.789062 80.871094 282.527344 81.269531 C 282.269531 81.667969 281.96875 82.035156 281.636719 82.371094 C 281.300781 82.707031 280.933594 83.007812 280.539062 83.273438 C 280.144531 83.535156 279.726562 83.757812 279.285156 83.9375 C 278.84375 84.117188 278.390625 84.25 277.921875 84.339844 C 277.457031 84.429688 276.984375 84.46875 276.507812 84.464844 M 265.347656 81.957031 C 264.082031 82.859375 262.691406 83.484375 261.175781 83.839844 C 259.480469 84.261719 257.761719 84.46875 256.015625 84.464844 C 251.238281 84.464844 247.566406 83.257812 245 80.851562 C 242.433594 78.445312 241.152344 74.90625 241.152344 70.230469 L 241.152344 35.402344 L 249.511719 35.402344 C 249.921875 35.402344 250.316406 35.480469 250.699219 35.636719 C 251.078125 35.789062 251.417969 36.007812 251.714844 36.292969 C 252.007812 36.578125 252.242188 36.90625 252.410156 37.28125 C 252.578125 37.652344 252.671875 38.042969 252.6875 38.453125 L 252.6875 45.070312 L 260.71875 45.070312 L 260.71875 53.894531 L 252.703125 53.894531 L 252.703125 70.066406 C 252.609375 71.523438 253.03125 72.816406 253.964844 73.941406 C 254.441406 74.417969 254.996094 74.777344 255.628906 75.015625 C 256.261719 75.25 256.917969 75.347656 257.589844 75.300781 C 261.824219 75.300781 262.589844 74.546875 265.347656 81.941406 Z M 215.054688 75.023438 C 216.425781 75.070312 217.75 74.832031 219.019531 74.3125 C 220.289062 73.789062 221.394531 73.03125 222.339844 72.039062 C 224.234375 70.046875 225.183594 67.378906 225.183594 64.03125 C 225.183594 60.683594 224.234375 58.015625 222.339844 56.03125 C 221.855469 55.558594 221.332031 55.136719 220.769531 54.765625 C 220.203125 54.390625 219.609375 54.078125 218.984375 53.820312 C 218.355469 53.566406 217.710938 53.371094 217.046875 53.242188 C 216.382812 53.113281 215.714844 53.046875 215.035156 53.046875 C 214.359375 53.046875 213.691406 53.113281 213.027344 53.242188 C 212.363281 53.371094 211.71875 53.566406 211.089844 53.820312 C 210.464844 54.078125 209.871094 54.390625 209.304688 54.765625 C 208.738281 55.136719 208.214844 55.558594 207.734375 56.03125 C 205.804688 58.023438 204.839844 60.6875 204.84375 64.03125 C 204.851562 67.375 205.8125 70.042969 207.734375 72.039062 C 208.6875 73.027344 209.800781 73.78125 211.078125 74.300781 C 212.351562 74.816406 213.679688 75.054688 215.054688 75.007812 Z M 215.054688 84.464844 C 211.078125 84.527344 207.316406 83.65625 203.777344 81.84375 C 200.484375 80.160156 197.882812 77.742188 195.96875 74.582031 C 195.019531 72.988281 194.308594 71.292969 193.832031 69.5 C 193.351562 67.707031 193.128906 65.886719 193.160156 64.03125 C 193.128906 62.179688 193.351562 60.355469 193.832031 58.566406 C 194.308594 56.773438 195.019531 55.082031 195.96875 53.488281 C 197.882812 50.328125 200.484375 47.910156 203.777344 46.226562 C 205.527344 45.363281 207.351562 44.707031 209.253906 44.265625 C 211.152344 43.820312 213.082031 43.601562 215.03125 43.601562 C 216.984375 43.601562 218.914062 43.820312 220.8125 44.265625 C 222.714844 44.707031 224.539062 45.363281 226.289062 46.226562 C 229.5625 47.917969 232.152344 50.339844 234.058594 53.488281 C 235.007812 55.082031 235.722656 56.773438 236.199219 58.566406 C 236.675781 60.355469 236.898438 62.179688 236.867188 64.03125 C 236.898438 65.886719 236.675781 67.707031 236.199219 69.5 C 235.722656 71.292969 235.007812 72.988281 234.058594 74.582031 C 232.152344 77.730469 229.5625 80.152344 226.289062 81.84375 C 222.765625 83.652344 219.019531 84.519531 215.054688 84.449219 Z M 167.617188 75.007812 C 168.988281 75.054688 170.308594 74.816406 171.578125 74.296875 C 172.851562 73.777344 173.957031 73.019531 174.898438 72.023438 C 176.800781 70.035156 177.75 67.363281 177.746094 64.015625 C 177.742188 60.667969 176.796875 58.003906 174.914062 56.019531 C 173.96875 55.019531 172.859375 54.261719 171.585938 53.742188 C 170.316406 53.222656 168.992188 52.984375 167.617188 53.03125 C 166.238281 52.992188 164.914062 53.230469 163.636719 53.75 C 162.363281 54.269531 161.25 55.027344 160.296875 56.019531 C 158.371094 58.007812 157.40625 60.675781 157.40625 64.015625 C 157.40625 67.359375 158.371094 70.027344 160.296875 72.023438 C 161.25 73.015625 162.363281 73.769531 163.636719 74.292969 C 164.914062 74.8125 166.238281 75.050781 167.617188 75.007812 Z M 167.617188 84.449219 C 163.636719 84.511719 159.878906 83.640625 156.335938 81.832031 C 153.046875 80.148438 150.449219 77.726562 148.539062 74.566406 C 147.589844 72.972656 146.875 71.277344 146.398438 69.488281 C 145.921875 67.695312 145.699219 65.871094 145.730469 64.015625 C 145.699219 62.164062 145.921875 60.34375 146.398438 58.550781 C 146.875 56.757812 147.589844 55.066406 148.539062 53.472656 C 150.449219 50.316406 153.046875 47.894531 156.335938 46.210938 C 158.089844 45.347656 159.914062 44.691406 161.816406 44.25 C 163.71875 43.808594 165.644531 43.585938 167.597656 43.585938 C 169.550781 43.585938 171.476562 43.808594 173.378906 44.25 C 175.28125 44.691406 177.109375 45.347656 178.859375 46.210938 C 182.132812 47.902344 184.71875 50.324219 186.621094 53.472656 C 187.570312 55.066406 188.28125 56.757812 188.761719 58.550781 C 189.238281 60.34375 189.460938 62.164062 189.429688 64.015625 C 189.460938 65.871094 189.238281 67.695312 188.761719 69.488281 C 188.28125 71.277344 187.570312 72.972656 186.621094 74.566406 C 184.71875 77.71875 182.132812 80.140625 178.859375 81.832031 C 175.332031 83.640625 171.582031 84.515625 167.617188 84.449219 Z M 123.480469 29.132812 L 131.832031 29.132812 C 132.253906 29.132812 132.660156 29.214844 133.050781 29.375 C 133.441406 29.535156 133.785156 29.765625 134.082031 30.0625 C 134.382812 30.359375 134.613281 30.703125 134.773438 31.09375 C 134.933594 31.480469 135.015625 31.886719 135.019531 32.308594 L 135.019531 70.214844 C 134.941406 71.625 135.359375 72.867188 136.277344 73.941406 C 136.753906 74.417969 137.308594 74.777344 137.941406 75.011719 C 138.570312 75.25 139.222656 75.347656 139.898438 75.300781 C 144.136719 75.300781 144.902344 74.566406 147.660156 81.917969 C 146.394531 82.820312 145.003906 83.449219 143.488281 83.800781 C 141.792969 84.226562 140.074219 84.433594 138.328125 84.425781 C 133.550781 84.425781 129.878906 83.222656 127.3125 80.816406 C 124.75 78.410156 123.464844 74.867188 123.464844 70.191406 Z M 312.105469 81.941406 C 310.835938 82.84375 309.445312 83.46875 307.925781 83.824219 C 306.234375 84.25 304.511719 84.457031 302.765625 84.449219 C 297.980469 84.449219 294.304688 83.246094 291.746094 80.839844 C 289.183594 78.433594 287.90625 74.890625 287.90625 70.214844 L 287.90625 35.402344 L 296.257812 35.402344 C 296.667969 35.402344 297.066406 35.480469 297.445312 35.632812 C 297.828125 35.785156 298.167969 36.007812 298.464844 36.289062 C 298.761719 36.574219 298.992188 36.902344 299.164062 37.277344 C 299.332031 37.652344 299.425781 38.042969 299.441406 38.453125 L 299.441406 45.070312 L 307.460938 45.070312 L 307.460938 53.894531 L 299.441406 53.894531 L 299.441406 70.066406 C 299.347656 71.523438 299.765625 72.816406 300.695312 73.941406 C 301.171875 74.417969 301.730469 74.773438 302.363281 75.011719 C 302.996094 75.25 303.648438 75.347656 304.324219 75.300781 C 308.554688 75.300781 309.320312 74.546875 312.105469 81.941406 Z M 334.71875 83.859375 L 328.621094 83.859375 L 312.285156 45.0625 L 319.847656 45.0625 C 321.917969 45.0625 324.425781 46.296875 325.214844 48.21875 L 334.695312 71.457031 L 344.183594 48.210938 C 344.964844 46.289062 347.46875 45.054688 349.550781 45.054688 L 357.113281 45.054688 L 340.769531 83.851562 Z M 334.71875 83.859375 " fill-opacity="1" fill-rule="nonzero"/></g><g clip-path="url(#f5239b5ec9)"><g clip-path="url(#5a70a636f0)"><path fill="url(#308d08c6aa)" d="M 3.222656 4.296875 L 3.222656 109.429688 L 99.484375 109.429688 L 99.484375 4.296875 Z M 3.222656 4.296875 " fill-rule="nonzero"/></g></g></svg>