<?xml version="1.0" encoding="UTF-8"?>
<svg xmlns="http://www.w3.org/2000/svg" xmlns:xlink="http://www.w3.org/1999/xlink" width="21px" height="21px" viewBox="0 0 21 21" version="1.1">
<defs>
<clipPath id="clip1">
  <path d="M 1.355469 5.039062 L 19.644531 5.039062 L 19.644531 15.199219 L 1.355469 15.199219 Z M 1.355469 5.039062 "/>
</clipPath>
</defs>
<g id="surface1">
<g clip-path="url(#clip1)" clip-rule="nonzero">
<path style=" stroke:none;fill-rule:nonzero;fill:rgb(100%,100%,100%);fill-opacity:1;" d="M 4.417969 12.257812 C 4.460938 12.367188 4.570312 12.445312 4.695312 12.445312 L 14.964844 12.445312 C 15.082031 12.445312 15.191406 12.378906 15.234375 12.269531 C 15.382812 11.929688 15.589844 11.625 15.84375 11.363281 C 16.097656 11.109375 16.394531 10.894531 16.722656 10.742188 C 16.835938 10.703125 16.910156 10.59375 16.910156 10.46875 L 16.910156 8.324219 C 16.910156 8.214844 16.847656 8.105469 16.738281 8.058594 C 16.402344 7.90625 16.101562 7.6875 15.84375 7.429688 C 15.59375 7.171875 15.390625 6.871094 15.242188 6.539062 C 15.199219 6.425781 15.089844 6.347656 14.964844 6.347656 L 4.695312 6.347656 C 4.582031 6.347656 4.472656 6.414062 4.425781 6.523438 C 4.277344 6.863281 4.070312 7.167969 3.8125 7.429688 C 3.5625 7.683594 3.265625 7.898438 2.9375 8.050781 C 2.824219 8.09375 2.75 8.199219 2.75 8.324219 L 2.75 10.46875 C 2.75 10.578125 2.8125 10.6875 2.917969 10.734375 C 3.253906 10.890625 3.558594 11.105469 3.816406 11.363281 C 4.066406 11.621094 4.269531 11.921875 4.417969 12.257812 Z M 9.832031 6.933594 C 10.515625 6.933594 11.136719 7.210938 11.585938 7.65625 C 12.035156 8.101562 12.3125 8.71875 12.3125 9.398438 C 12.3125 10.074219 12.035156 10.695312 11.585938 11.140625 C 11.136719 11.585938 10.515625 11.859375 9.832031 11.859375 C 9.144531 11.859375 8.523438 11.585938 8.074219 11.140625 C 7.625 10.695312 7.347656 10.074219 7.347656 9.398438 C 7.347656 8.71875 7.625 8.101562 8.074219 7.65625 C 8.523438 7.207031 9.144531 6.933594 9.832031 6.933594 Z M 15.425781 7.835938 C 15.6875 8.101562 15.992188 8.328125 16.324219 8.503906 L 16.324219 10.289062 C 15.992188 10.464844 15.6875 10.691406 15.425781 10.957031 C 15.164062 11.222656 14.945312 11.523438 14.777344 11.859375 L 11.640625 11.859375 C 11.769531 11.765625 11.890625 11.664062 12.003906 11.550781 C 12.558594 11 12.902344 10.238281 12.902344 9.398438 C 12.902344 8.554688 12.558594 7.792969 12.003906 7.242188 C 11.890625 7.128906 11.769531 7.027344 11.640625 6.933594 L 14.777344 6.933594 C 14.945312 7.269531 15.164062 7.570312 15.425781 7.835938 Z M 3.335938 8.503906 C 3.667969 8.328125 3.972656 8.101562 4.234375 7.835938 C 4.496094 7.570312 4.714844 7.269531 4.882812 6.933594 L 8.019531 6.933594 C 7.890625 7.027344 7.769531 7.128906 7.660156 7.242188 C 7.101562 7.792969 6.757812 8.554688 6.757812 9.398438 C 6.757812 10.238281 7.101562 11 7.660156 11.550781 C 7.769531 11.664062 7.890625 11.765625 8.019531 11.859375 L 4.882812 11.859375 C 4.714844 11.523438 4.496094 11.222656 4.234375 10.957031 C 3.972656 10.691406 3.667969 10.464844 3.335938 10.289062 Z M 10.25 10.242188 C 10.3125 10.179688 10.351562 10.09375 10.351562 10 C 10.351562 9.902344 10.3125 9.820312 10.25 9.757812 C 10.1875 9.691406 10.101562 9.65625 10.003906 9.65625 L 9.65625 9.65625 C 9.417969 9.65625 9.199219 9.558594 9.042969 9.402344 C 8.886719 9.246094 8.789062 9.03125 8.789062 8.792969 C 8.789062 8.558594 8.886719 8.34375 9.042969 8.1875 C 9.179688 8.050781 9.363281 7.960938 9.570312 7.9375 L 9.570312 7.6875 C 9.570312 7.542969 9.6875 7.429688 9.832031 7.429688 C 9.976562 7.429688 10.089844 7.542969 10.089844 7.6875 L 10.089844 7.9375 C 10.292969 7.957031 10.480469 8.046875 10.617188 8.1875 C 10.777344 8.339844 10.871094 8.554688 10.871094 8.792969 C 10.871094 8.9375 10.757812 9.050781 10.613281 9.050781 C 10.46875 9.050781 10.351562 8.9375 10.351562 8.792969 C 10.351562 8.699219 10.3125 8.613281 10.25 8.550781 C 10.1875 8.488281 10.101562 8.449219 10.003906 8.449219 L 9.832031 8.449219 C 9.832031 8.449219 9.832031 8.449219 9.828125 8.449219 L 9.65625 8.449219 C 9.558594 8.449219 9.472656 8.488281 9.410156 8.550781 C 9.347656 8.613281 9.308594 8.699219 9.308594 8.792969 C 9.308594 8.886719 9.347656 8.972656 9.410156 9.035156 C 9.472656 9.101562 9.5625 9.136719 9.65625 9.136719 L 10.003906 9.136719 C 10.246094 9.136719 10.460938 9.234375 10.617188 9.390625 C 10.777344 9.546875 10.871094 9.761719 10.871094 9.996094 C 10.871094 10.234375 10.777344 10.449219 10.617188 10.605469 L 10.601562 10.621094 C 10.464844 10.75 10.285156 10.835938 10.089844 10.855469 L 10.089844 11.105469 C 10.089844 11.246094 9.976562 11.363281 9.832031 11.363281 C 9.6875 11.363281 9.570312 11.246094 9.570312 11.105469 L 9.570312 10.855469 C 9.363281 10.832031 9.183594 10.742188 9.042969 10.605469 C 8.886719 10.449219 8.789062 10.234375 8.789062 9.996094 C 8.789062 9.855469 8.90625 9.738281 9.046875 9.738281 C 9.191406 9.738281 9.308594 9.855469 9.308594 9.996094 C 9.308594 10.09375 9.347656 10.179688 9.410156 10.238281 C 9.472656 10.304688 9.558594 10.339844 9.65625 10.339844 L 10.003906 10.339844 C 10.09375 10.339844 10.175781 10.308594 10.238281 10.25 Z M 19.351562 6.492188 L 18.304688 6.492188 L 18.304688 5.335938 C 18.304688 5.175781 18.171875 5.042969 18.011719 5.042969 L 1.648438 5.042969 C 1.488281 5.042969 1.355469 5.175781 1.355469 5.335938 L 1.355469 13.457031 C 1.355469 13.617188 1.488281 13.75 1.648438 13.75 L 2.695312 13.75 L 2.695312 14.902344 C 2.695312 15.0625 2.828125 15.195312 2.988281 15.195312 L 19.351562 15.195312 C 19.511719 15.195312 19.644531 15.0625 19.644531 14.902344 L 19.644531 6.785156 C 19.644531 6.625 19.511719 6.492188 19.351562 6.492188 Z M 1.945312 5.628906 L 17.714844 5.628906 L 17.714844 13.164062 L 1.945312 13.164062 Z M 19.054688 14.609375 L 3.285156 14.609375 L 3.285156 13.75 L 18.011719 13.75 C 18.171875 13.75 18.304688 13.617188 18.304688 13.457031 L 18.304688 7.078125 L 19.054688 7.078125 Z M 19.054688 14.609375 "/>
</g>
</g>
</svg>
