<?xml version="1.0" encoding="UTF-8"?>
<svg xmlns="http://www.w3.org/2000/svg" xmlns:xlink="http://www.w3.org/1999/xlink" width="21px" height="21px" viewBox="0 0 21 21" version="1.1">
<defs>
<clipPath id="clip1">
  <path d="M 3.578125 2.101562 L 17.296875 2.101562 L 17.296875 19.445312 L 3.578125 19.445312 Z M 3.578125 2.101562 "/>
</clipPath>
<clipPath id="clip2">
  <path d="M 8.398438 0.652344 L 12.601562 0.652344 L 12.601562 4.199219 L 8.398438 4.199219 Z M 8.398438 0.652344 "/>
</clipPath>
</defs>
<g id="surface1">
<g clip-path="url(#clip1)" clip-rule="nonzero">
<path style=" stroke:none;fill-rule:nonzero;fill:rgb(100%,100%,100%);fill-opacity:1;" d="M 15.582031 2.359375 L 11.296875 2.359375 C 11.296875 2.828125 10.910156 3.214844 10.441406 3.214844 C 9.964844 3.214844 9.582031 2.828125 9.582031 2.359375 L 5.296875 2.359375 C 4.351562 2.359375 3.582031 3.128906 3.582031 4.070312 L 3.582031 17.738281 C 3.582031 18.679688 4.351562 19.445312 5.296875 19.445312 L 15.582031 19.445312 C 16.523438 19.445312 17.296875 18.679688 17.296875 17.738281 L 17.296875 4.070312 C 17.296875 3.128906 16.523438 2.359375 15.582031 2.359375 Z M 15.582031 2.359375 "/>
</g>
<path style=" stroke:none;fill-rule:nonzero;fill:rgb(7.058824%,9.019608%,7.843137%);fill-opacity:1;" d="M 15.582031 18.167969 L 5.296875 18.167969 C 5.039062 18.167969 4.867188 17.996094 4.867188 17.738281 L 4.867188 4.070312 C 4.867188 3.8125 5.039062 3.640625 5.296875 3.640625 L 15.582031 3.640625 C 15.839844 3.640625 16.007812 3.8125 16.007812 4.070312 L 16.007812 17.738281 C 16.007812 17.996094 15.839844 18.167969 15.582031 18.167969 Z M 15.582031 18.167969 "/>
<path style=" stroke:none;fill-rule:nonzero;fill:rgb(100%,100%,100%);fill-opacity:1;" d="M 11.296875 2.359375 C 11.296875 2.828125 10.910156 3.214844 10.441406 3.214844 C 9.964844 3.214844 9.582031 2.828125 9.582031 2.359375 L 6.582031 2.359375 L 6.582031 4.070312 C 6.582031 4.535156 6.96875 4.921875 7.441406 4.921875 L 13.441406 4.921875 C 13.910156 4.921875 14.296875 4.535156 14.296875 4.070312 L 14.296875 2.359375 Z M 11.296875 2.359375 "/>
<g clip-path="url(#clip2)" clip-rule="nonzero">
<path style=" stroke:none;fill-rule:nonzero;fill:rgb(100%,100%,100%);fill-opacity:1;" d="M 10.441406 0.652344 C 9.496094 0.652344 8.726562 1.417969 8.726562 2.359375 C 8.726562 3.296875 9.496094 4.070312 10.441406 4.070312 C 11.382812 4.070312 12.152344 3.296875 12.152344 2.359375 C 12.152344 1.417969 11.382812 0.652344 10.441406 0.652344 Z M 10.441406 3.214844 C 9.964844 3.214844 9.582031 2.828125 9.582031 2.359375 C 9.582031 1.890625 9.964844 1.503906 10.441406 1.503906 C 10.910156 1.503906 11.296875 1.890625 11.296875 2.359375 C 11.296875 2.828125 10.910156 3.214844 10.441406 3.214844 Z M 10.441406 3.214844 "/>
</g>
<path style=" stroke:none;fill-rule:nonzero;fill:rgb(100%,100%,100%);fill-opacity:1;" d="M 13.867188 11.332031 C 13.867188 13.210938 12.324219 14.75 10.441406 14.75 C 8.554688 14.75 7.011719 13.210938 7.011719 11.332031 C 7.011719 9.449219 8.554688 7.914062 10.441406 7.914062 C 12.324219 7.914062 13.867188 9.449219 13.867188 11.332031 "/>
<path style=" stroke:none;fill-rule:nonzero;fill:rgb(7.058824%,9.019608%,7.843137%);fill-opacity:1;" d="M 10.058594 13.054688 L 8.421875 11.417969 L 9.027344 10.8125 L 10.066406 11.851562 L 12.070312 9.902344 L 12.667969 10.511719 Z M 10.058594 13.054688 "/>
</g>
</svg>
