<svg xmlns="http://www.w3.org/2000/svg" xmlns:xlink="http://www.w3.org/1999/xlink" width="250" zoomAndPan="magnify" viewBox="0 0 187.5 97.5" height="130" preserveAspectRatio="xMidYMid meet" version="1.0"><defs><clipPath id="975b631830"><path d="M 39.195312 39 L 68 39 L 68 58.769531 L 39.195312 58.769531 Z M 39.195312 39 " clip-rule="nonzero"/></clipPath><clipPath id="7f26aa8c10"><path d="M 114 38.570312 L 119 38.570312 L 119 58 L 114 58 Z M 114 38.570312 " clip-rule="nonzero"/></clipPath><clipPath id="cf4ec708b3"><path d="M 121 38.570312 L 126 38.570312 L 126 58 L 121 58 Z M 121 38.570312 " clip-rule="nonzero"/></clipPath><clipPath id="e9aae1b16c"><path d="M 128 43 L 147.972656 43 L 147.972656 58 L 128 58 Z M 128 43 " clip-rule="nonzero"/></clipPath></defs><g clip-path="url(#975b631830)"><path fill="#ffffff" d="M 64.097656 57.652344 L 64.097656 45.78125 L 55.25 57.273438 C 54.84375 57.78125 54.242188 58.042969 53.46875 58.042969 C 52.695312 58.042969 52.097656 57.78125 51.6875 57.273438 L 42.859375 45.78125 L 42.859375 57.652344 L 39.195312 57.652344 L 39.195312 40.878906 C 39.195312 40.3125 39.398438 39.90625 39.820312 39.628906 C 40.246094 39.367188 40.753906 39.238281 41.382812 39.238281 C 41.863281 39.238281 42.246094 39.3125 42.523438 39.441406 C 42.800781 39.570312 43.0625 39.789062 43.296875 40.09375 L 53.527344 53.589844 L 63.835938 40.09375 C 64.070312 39.789062 64.300781 39.570312 64.566406 39.441406 C 64.828125 39.3125 65.179688 39.238281 65.644531 39.238281 C 66.257812 39.238281 66.785156 39.367188 67.207031 39.628906 C 67.628906 39.890625 67.835938 40.3125 67.835938 40.878906 L 67.835938 57.652344 Z M 64.097656 57.652344 " fill-opacity="1" fill-rule="nonzero"/></g><path fill="#ffffff" d="M 77.675781 57.652344 C 76.34375 57.652344 75.234375 57.535156 74.34375 57.320312 C 73.457031 57.101562 72.753906 56.753906 72.214844 56.257812 C 71.6875 55.78125 71.308594 55.140625 71.089844 54.359375 C 70.871094 53.574219 70.753906 52.617188 70.753906 51.472656 L 70.753906 49.539062 C 70.753906 48.394531 70.871094 47.421875 71.089844 46.640625 C 71.308594 45.839844 71.6875 45.203125 72.214844 44.722656 C 72.738281 44.246094 73.457031 43.882812 74.34375 43.664062 C 75.234375 43.445312 76.34375 43.332031 77.675781 43.332031 L 82.492188 43.332031 C 83.835938 43.332031 84.957031 43.445312 85.835938 43.664062 C 86.726562 43.882812 87.425781 44.246094 87.964844 44.738281 C 88.492188 45.230469 88.871094 45.871094 89.089844 46.667969 C 89.308594 47.464844 89.425781 48.421875 89.425781 49.570312 L 89.425781 51.472656 C 89.425781 52.617188 89.308594 53.574219 89.089844 54.359375 C 88.871094 55.140625 88.492188 55.78125 87.964844 56.257812 C 87.441406 56.738281 86.726562 57.101562 85.835938 57.320312 C 84.945312 57.535156 83.835938 57.652344 82.492188 57.652344 Z M 85.46875 49.671875 C 85.46875 49.078125 85.425781 48.582031 85.324219 48.191406 C 85.222656 47.800781 85.046875 47.496094 84.796875 47.277344 C 84.535156 47.058594 84.183594 46.914062 83.71875 46.828125 C 83.25 46.753906 82.667969 46.710938 81.964844 46.710938 L 78.214844 46.710938 C 77.5 46.710938 76.929688 46.753906 76.476562 46.828125 C 76.023438 46.898438 75.675781 47.058594 75.410156 47.277344 C 75.148438 47.496094 74.972656 47.800781 74.886719 48.191406 C 74.785156 48.582031 74.738281 49.078125 74.738281 49.671875 L 74.738281 51.371094 C 74.738281 51.964844 74.785156 52.457031 74.886719 52.835938 C 74.988281 53.210938 75.164062 53.515625 75.410156 53.734375 C 75.675781 53.953125 76.023438 54.113281 76.476562 54.199219 C 76.929688 54.285156 77.511719 54.328125 78.214844 54.328125 L 81.964844 54.328125 C 82.679688 54.328125 83.265625 54.285156 83.71875 54.199219 C 84.183594 54.113281 84.535156 53.953125 84.796875 53.734375 C 85.0625 53.515625 85.234375 53.210938 85.324219 52.835938 C 85.425781 52.457031 85.46875 51.964844 85.46875 51.371094 Z M 85.46875 49.671875 " fill-opacity="1" fill-rule="nonzero"/><path fill="#ffffff" d="M 107.046875 57.652344 L 107.046875 49.671875 C 107.046875 49.078125 107 48.582031 106.898438 48.207031 C 106.796875 47.828125 106.636719 47.523438 106.386719 47.304688 C 106.15625 47.089844 105.820312 46.929688 105.410156 46.84375 C 104.988281 46.753906 104.460938 46.710938 103.832031 46.710938 L 99.527344 46.710938 C 98.898438 46.710938 98.386719 46.753906 97.964844 46.84375 C 97.542969 46.929688 97.222656 47.089844 96.972656 47.304688 C 96.722656 47.523438 96.550781 47.828125 96.445312 48.207031 C 96.34375 48.582031 96.300781 49.078125 96.300781 49.671875 L 96.300781 57.652344 L 92.34375 57.652344 L 92.34375 49.539062 C 92.34375 48.394531 92.460938 47.421875 92.679688 46.640625 C 92.898438 45.839844 93.28125 45.203125 93.804688 44.722656 C 94.332031 44.246094 95.046875 43.882812 95.9375 43.664062 C 96.828125 43.445312 97.9375 43.332031 99.265625 43.332031 L 104.082031 43.332031 C 105.425781 43.332031 106.550781 43.445312 107.425781 43.664062 C 108.316406 43.882812 109.015625 44.230469 109.554688 44.722656 C 110.082031 45.203125 110.460938 45.839844 110.679688 46.640625 C 110.898438 47.4375 111.015625 48.394531 111.015625 49.539062 L 111.015625 57.652344 Z M 107.046875 57.652344 " fill-opacity="1" fill-rule="nonzero"/><g clip-path="url(#7f26aa8c10)"><path fill="#ffffff" d="M 114.066406 57.652344 L 114.066406 38.714844 L 118.109375 38.714844 L 118.109375 57.667969 L 114.066406 57.667969 Z M 114.066406 57.652344 " fill-opacity="1" fill-rule="nonzero"/></g><g clip-path="url(#cf4ec708b3)"><path fill="#ffffff" d="M 122.59375 42.515625 C 122.097656 42.515625 121.746094 42.414062 121.542969 42.226562 C 121.335938 42.039062 121.234375 41.71875 121.234375 41.296875 L 121.234375 39.761719 C 121.234375 39.339844 121.335938 39.035156 121.542969 38.847656 C 121.746094 38.65625 122.097656 38.570312 122.59375 38.570312 L 123.890625 38.570312 C 124.402344 38.570312 124.765625 38.65625 124.972656 38.847656 C 125.175781 39.035156 125.277344 39.339844 125.277344 39.761719 L 125.277344 41.296875 C 125.277344 41.71875 125.175781 42.023438 124.972656 42.226562 C 124.765625 42.414062 124.402344 42.515625 123.890625 42.515625 Z M 121.25 57.652344 L 121.25 43.707031 L 125.292969 43.707031 L 125.292969 57.652344 Z M 121.25 57.652344 " fill-opacity="1" fill-rule="nonzero"/></g><g clip-path="url(#e9aae1b16c)"><path fill="#31ce93" d="M 142.605469 43.128906 L 147.714844 43.183594 L 140.519531 50.195312 L 147.804688 57.507812 L 142.855469 57.507812 L 137.992188 52.328125 L 133.042969 57.507812 L 128.210938 57.507812 " fill-opacity="1" fill-rule="nonzero"/></g><path fill="#31ce93" d="M 134.621094 41.039062 C 134.621094 40.90625 134.578125 40.777344 134.488281 40.675781 C 134.402344 40.574219 134.269531 40.515625 134.140625 40.515625 C 134.125 40.515625 134.125 40.515625 134.109375 40.515625 C 133.992188 40.515625 133.863281 40.558594 133.773438 40.644531 C 133.671875 40.734375 133.613281 40.863281 133.613281 40.992188 C 133.597656 41.269531 133.816406 41.5 134.082031 41.515625 C 134.375 41.515625 134.605469 41.3125 134.621094 41.039062 Z M 134.621094 41.039062 " fill-opacity="1" fill-rule="nonzero"/><path fill="#31ce93" d="M 130.386719 40.890625 C 130.386719 40.761719 130.34375 40.632812 130.257812 40.53125 C 130.167969 40.429688 130.039062 40.371094 129.90625 40.371094 C 129.890625 40.371094 129.890625 40.371094 129.875 40.371094 C 129.761719 40.371094 129.628906 40.414062 129.539062 40.5 C 129.4375 40.585938 129.378906 40.71875 129.378906 40.847656 C 129.367188 41.125 129.585938 41.355469 129.847656 41.371094 C 130.140625 41.371094 130.375 41.167969 130.386719 40.890625 Z M 130.386719 40.890625 " fill-opacity="1" fill-rule="nonzero"/><path fill="#31ce93" d="M 130.386719 45.101562 C 130.386719 44.96875 130.34375 44.839844 130.257812 44.738281 C 130.167969 44.636719 130.039062 44.578125 129.90625 44.578125 C 129.890625 44.578125 129.890625 44.578125 129.875 44.578125 C 129.761719 44.578125 129.628906 44.621094 129.539062 44.707031 C 129.4375 44.796875 129.378906 44.925781 129.378906 45.058594 C 129.367188 45.332031 129.585938 45.566406 129.847656 45.578125 C 130.140625 45.578125 130.375 45.375 130.386719 45.101562 Z M 130.386719 45.101562 " fill-opacity="1" fill-rule="nonzero"/><path fill="#31ce93" d="M 135.191406 41.632812 C 135.292969 41.472656 135.351562 41.285156 135.351562 41.082031 C 135.367188 40.761719 135.261719 40.441406 135.042969 40.195312 C 134.824219 39.949219 134.519531 39.804688 134.199219 39.789062 C 133.863281 39.773438 133.554688 39.875 133.308594 40.09375 C 133.058594 40.3125 132.914062 40.617188 132.898438 40.9375 C 132.871094 41.601562 133.378906 42.183594 134.066406 42.226562 C 134.09375 42.226562 134.109375 42.226562 134.140625 42.226562 C 134.316406 42.226562 134.503906 42.183594 134.664062 42.109375 L 138.257812 45.941406 L 138.765625 45.433594 Z M 134.09375 41.5 C 133.816406 41.488281 133.613281 41.253906 133.628906 40.980469 C 133.628906 40.847656 133.6875 40.71875 133.789062 40.632812 C 133.875 40.542969 133.992188 40.5 134.125 40.5 C 134.140625 40.5 134.140625 40.5 134.152344 40.5 C 134.285156 40.5 134.417969 40.558594 134.503906 40.660156 C 134.589844 40.761719 134.636719 40.890625 134.636719 41.023438 C 134.605469 41.3125 134.375 41.515625 134.09375 41.5 Z M 134.09375 41.5 " fill-opacity="1" fill-rule="nonzero"/><path fill="#31ce93" d="M 130.941406 45.695312 C 131.042969 45.519531 131.101562 45.332031 131.101562 45.144531 C 131.117188 44.824219 131.015625 44.503906 130.796875 44.257812 C 130.578125 44.011719 130.269531 43.867188 129.949219 43.851562 C 129.628906 43.839844 129.308594 43.941406 129.058594 44.15625 C 128.8125 44.375 128.664062 44.679688 128.652344 45 C 128.621094 45.667969 129.132812 46.246094 129.820312 46.289062 C 129.847656 46.289062 129.863281 46.289062 129.890625 46.289062 C 130.066406 46.289062 130.257812 46.246094 130.417969 46.175781 L 134.082031 50.078125 L 134.589844 49.570312 Z M 129.863281 45.566406 C 129.585938 45.550781 129.378906 45.316406 129.394531 45.042969 C 129.394531 44.910156 129.453125 44.78125 129.554688 44.695312 C 129.644531 44.605469 129.761719 44.5625 129.890625 44.5625 C 129.90625 44.5625 129.90625 44.5625 129.921875 44.5625 C 130.050781 44.5625 130.183594 44.621094 130.269531 44.722656 C 130.359375 44.824219 130.402344 44.957031 130.402344 45.085938 C 130.375 45.375 130.140625 45.578125 129.863281 45.566406 Z M 129.863281 45.566406 " fill-opacity="1" fill-rule="nonzero"/><path fill="#31ce93" d="M 130.941406 41.5 C 131.042969 41.328125 131.101562 41.140625 131.117188 40.9375 C 131.132812 40.617188 131.03125 40.296875 130.8125 40.050781 C 130.59375 39.804688 130.285156 39.660156 129.964844 39.644531 C 129.644531 39.628906 129.320312 39.730469 129.074219 39.949219 C 128.824219 40.167969 128.679688 40.472656 128.664062 40.789062 C 128.636719 41.457031 129.144531 42.039062 129.832031 42.082031 C 129.863281 42.082031 129.875 42.082031 129.90625 42.082031 C 130.082031 42.082031 130.257812 42.039062 130.417969 41.980469 L 136.125 48.0625 L 136.636719 47.550781 Z M 129.863281 41.355469 C 129.585938 41.34375 129.378906 41.109375 129.394531 40.835938 C 129.394531 40.703125 129.453125 40.574219 129.554688 40.484375 C 129.644531 40.398438 129.761719 40.355469 129.890625 40.355469 C 129.90625 40.355469 129.90625 40.355469 129.921875 40.355469 C 130.050781 40.355469 130.183594 40.414062 130.269531 40.515625 C 130.359375 40.617188 130.402344 40.746094 130.402344 40.878906 C 130.375 41.167969 130.140625 41.371094 129.863281 41.355469 Z M 129.863281 41.355469 " fill-opacity="1" fill-rule="nonzero"/></svg>