<svg xmlns="http://www.w3.org/2000/svg" xmlns:xlink="http://www.w3.org/1999/xlink" width="169" zoomAndPan="magnify" viewBox="0 0 126.75 30.000001" height="40" preserveAspectRatio="xMidYMid meet" version="1.0"><defs><clipPath id="542671292b"><path d="M 3.378906 4 L 36 4 L 36 25 L 3.378906 25 Z M 3.378906 4 " clip-rule="nonzero"/></clipPath><clipPath id="d688f0dc03"><path d="M 86 3.539062 L 91 3.539062 L 91 25 L 86 25 Z M 86 3.539062 " clip-rule="nonzero"/></clipPath><clipPath id="79ef087590"><path d="M 94 3.539062 L 99 3.539062 L 99 25 L 94 25 Z M 94 3.539062 " clip-rule="nonzero"/></clipPath><clipPath id="b138c1b198"><path d="M 101 8 L 123.371094 8 L 123.371094 25 L 101 25 Z M 101 8 " clip-rule="nonzero"/></clipPath></defs><g clip-path="url(#542671292b)"><path fill="#ffffff" d="M 30.894531 24.289062 L 30.894531 11.382812 L 21.121094 23.878906 C 20.667969 24.429688 20.007812 24.714844 19.152344 24.714844 C 18.296875 24.714844 17.636719 24.429688 17.183594 23.878906 L 7.425781 11.382812 L 7.425781 24.289062 L 3.378906 24.289062 L 3.378906 6.046875 C 3.378906 5.433594 3.605469 4.992188 4.074219 4.691406 C 4.539062 4.40625 5.105469 4.265625 5.796875 4.265625 C 6.332031 4.265625 6.75 4.34375 7.054688 4.488281 C 7.363281 4.628906 7.652344 4.867188 7.910156 5.195312 L 19.214844 19.871094 L 30.601562 5.195312 C 30.859375 4.867188 31.121094 4.628906 31.410156 4.488281 C 31.699219 4.34375 32.085938 4.265625 32.601562 4.265625 C 33.28125 4.265625 33.859375 4.40625 34.328125 4.691406 C 34.796875 4.976562 35.023438 5.433594 35.023438 6.046875 L 35.023438 24.289062 Z M 30.894531 24.289062 " fill-opacity="1" fill-rule="nonzero"/></g><path fill="#ffffff" d="M 45.890625 24.289062 C 44.425781 24.289062 43.199219 24.164062 42.214844 23.925781 C 41.230469 23.691406 40.457031 23.3125 39.859375 22.773438 C 39.28125 22.253906 38.859375 21.558594 38.617188 20.707031 C 38.375 19.855469 38.246094 18.8125 38.246094 17.566406 L 38.246094 15.46875 C 38.246094 14.222656 38.375 13.164062 38.617188 12.3125 C 38.859375 11.445312 39.28125 10.75 39.859375 10.230469 C 40.441406 9.710938 41.230469 9.316406 42.214844 9.078125 C 43.199219 8.839844 44.425781 8.714844 45.890625 8.714844 L 51.214844 8.714844 C 52.699219 8.714844 53.941406 8.839844 54.90625 9.078125 C 55.890625 9.316406 56.664062 9.710938 57.261719 10.246094 C 57.84375 10.78125 58.261719 11.476562 58.503906 12.34375 C 58.746094 13.210938 58.875 14.253906 58.875 15.5 L 58.875 17.566406 C 58.875 18.8125 58.746094 19.855469 58.503906 20.707031 C 58.261719 21.558594 57.84375 22.253906 57.261719 22.773438 C 56.683594 23.296875 55.890625 23.691406 54.90625 23.925781 C 53.925781 24.164062 52.699219 24.289062 51.214844 24.289062 Z M 54.503906 15.609375 C 54.503906 14.964844 54.457031 14.425781 54.34375 14 C 54.230469 13.574219 54.035156 13.242188 53.761719 13.007812 C 53.472656 12.769531 53.085938 12.613281 52.570312 12.519531 C 52.054688 12.4375 51.40625 12.390625 50.632812 12.390625 L 46.488281 12.390625 C 45.699219 12.390625 45.070312 12.4375 44.570312 12.519531 C 44.070312 12.597656 43.683594 12.769531 43.390625 13.007812 C 43.101562 13.242188 42.910156 13.574219 42.8125 14 C 42.699219 14.425781 42.652344 14.964844 42.652344 15.609375 L 42.652344 17.457031 C 42.652344 18.105469 42.699219 18.640625 42.8125 19.050781 C 42.925781 19.460938 43.117188 19.792969 43.390625 20.027344 C 43.683594 20.265625 44.070312 20.4375 44.570312 20.535156 C 45.070312 20.628906 45.714844 20.675781 46.488281 20.675781 L 50.632812 20.675781 C 51.425781 20.675781 52.070312 20.628906 52.570312 20.535156 C 53.085938 20.4375 53.472656 20.265625 53.761719 20.027344 C 54.054688 19.792969 54.246094 19.460938 54.34375 19.050781 C 54.457031 18.640625 54.503906 18.105469 54.503906 17.457031 Z M 54.503906 15.609375 " fill-opacity="1" fill-rule="nonzero"/><path fill="#ffffff" d="M 78.34375 24.289062 L 78.34375 15.609375 C 78.34375 14.964844 78.292969 14.425781 78.179688 14.015625 C 78.066406 13.605469 77.890625 13.277344 77.617188 13.039062 C 77.359375 12.800781 76.988281 12.628906 76.535156 12.535156 C 76.066406 12.4375 75.488281 12.390625 74.792969 12.390625 L 70.035156 12.390625 C 69.34375 12.390625 68.777344 12.4375 68.308594 12.535156 C 67.84375 12.628906 67.488281 12.800781 67.214844 13.039062 C 66.9375 13.277344 66.746094 13.605469 66.632812 14.015625 C 66.519531 14.425781 66.472656 14.964844 66.472656 15.609375 L 66.472656 24.289062 L 62.101562 24.289062 L 62.101562 15.46875 C 62.101562 14.222656 62.230469 13.164062 62.472656 12.3125 C 62.714844 11.445312 63.132812 10.75 63.714844 10.230469 C 64.292969 9.710938 65.085938 9.316406 66.066406 9.078125 C 67.050781 8.839844 68.277344 8.714844 69.746094 8.714844 L 75.066406 8.714844 C 76.550781 8.714844 77.792969 8.839844 78.761719 9.078125 C 79.746094 9.316406 80.519531 9.695312 81.117188 10.230469 C 81.695312 10.75 82.117188 11.445312 82.359375 12.3125 C 82.597656 13.179688 82.726562 14.222656 82.726562 15.46875 L 82.726562 24.289062 Z M 78.34375 24.289062 " fill-opacity="1" fill-rule="nonzero"/><g clip-path="url(#d688f0dc03)"><path fill="#ffffff" d="M 86.097656 24.289062 L 86.097656 3.699219 L 90.566406 3.699219 L 90.566406 24.304688 L 86.097656 24.304688 Z M 86.097656 24.289062 " fill-opacity="1" fill-rule="nonzero"/></g><g clip-path="url(#79ef087590)"><path fill="#ffffff" d="M 95.519531 7.832031 C 94.96875 7.832031 94.582031 7.722656 94.355469 7.515625 C 94.132812 7.3125 94.019531 6.964844 94.019531 6.507812 L 94.019531 4.832031 C 94.019531 4.375 94.132812 4.042969 94.355469 3.839844 C 94.582031 3.632812 94.96875 3.539062 95.519531 3.539062 L 96.953125 3.539062 C 97.519531 3.539062 97.921875 3.632812 98.148438 3.839844 C 98.371094 4.042969 98.484375 4.375 98.484375 4.832031 L 98.484375 6.507812 C 98.484375 6.964844 98.371094 7.292969 98.148438 7.515625 C 97.921875 7.722656 97.519531 7.832031 96.953125 7.832031 Z M 94.035156 24.289062 L 94.035156 9.125 L 98.5 9.125 L 98.5 24.289062 Z M 94.035156 24.289062 " fill-opacity="1" fill-rule="nonzero"/></g><g clip-path="url(#b138c1b198)"><path fill="#ffffff" d="M 117.628906 8.496094 L 123.273438 8.558594 L 115.324219 16.179688 L 123.371094 24.132812 L 117.902344 24.132812 L 112.535156 18.5 L 107.066406 24.132812 L 101.726562 24.132812 " fill-opacity="1" fill-rule="nonzero"/></g><path fill="#ffffff" d="M 108.808594 6.222656 C 108.808594 6.078125 108.757812 5.9375 108.664062 5.828125 C 108.566406 5.71875 108.421875 5.652344 108.273438 5.652344 C 108.257812 5.652344 108.257812 5.652344 108.242188 5.652344 C 108.113281 5.652344 107.96875 5.699219 107.871094 5.796875 C 107.757812 5.890625 107.695312 6.03125 107.695312 6.175781 C 107.679688 6.472656 107.921875 6.726562 108.210938 6.742188 C 108.535156 6.742188 108.792969 6.523438 108.808594 6.222656 Z M 108.808594 6.222656 " fill-opacity="1" fill-rule="nonzero"/><path fill="#ffffff" d="M 104.128906 6.066406 C 104.128906 5.921875 104.082031 5.78125 103.984375 5.671875 C 103.890625 5.558594 103.742188 5.496094 103.597656 5.496094 C 103.582031 5.496094 103.582031 5.496094 103.566406 5.496094 C 103.4375 5.496094 103.292969 5.542969 103.195312 5.636719 C 103.082031 5.734375 103.019531 5.875 103.019531 6.015625 C 103 6.316406 103.242188 6.570312 103.535156 6.585938 C 103.855469 6.585938 104.113281 6.363281 104.128906 6.066406 Z M 104.128906 6.066406 " fill-opacity="1" fill-rule="nonzero"/><path fill="#ffffff" d="M 104.128906 10.640625 C 104.128906 10.5 104.082031 10.355469 103.984375 10.246094 C 103.886719 10.136719 103.742188 10.070312 103.597656 10.070312 C 103.582031 10.070312 103.582031 10.070312 103.566406 10.070312 C 103.4375 10.070312 103.292969 10.121094 103.195312 10.214844 C 103.082031 10.308594 103.019531 10.449219 103.019531 10.59375 C 103 10.894531 103.242188 11.144531 103.535156 11.160156 C 103.855469 11.160156 104.113281 10.941406 104.128906 10.640625 Z M 104.128906 10.640625 " fill-opacity="1" fill-rule="nonzero"/><path fill="#ffffff" d="M 109.4375 6.867188 C 109.550781 6.695312 109.613281 6.488281 109.613281 6.269531 C 109.628906 5.921875 109.515625 5.574219 109.273438 5.308594 C 109.03125 5.039062 108.695312 4.878906 108.339844 4.863281 C 107.96875 4.847656 107.628906 4.960938 107.355469 5.195312 C 107.082031 5.433594 106.921875 5.765625 106.902344 6.113281 C 106.871094 6.835938 107.4375 7.46875 108.195312 7.515625 C 108.226562 7.515625 108.242188 7.515625 108.273438 7.515625 C 108.46875 7.515625 108.679688 7.46875 108.855469 7.390625 L 112.824219 11.554688 L 113.386719 11.003906 Z M 108.226562 6.726562 C 107.921875 6.710938 107.695312 6.457031 107.710938 6.160156 C 107.710938 6.015625 107.777344 5.875 107.886719 5.78125 C 107.984375 5.683594 108.113281 5.636719 108.257812 5.636719 C 108.273438 5.636719 108.273438 5.636719 108.289062 5.636719 C 108.4375 5.636719 108.582031 5.703125 108.679688 5.8125 C 108.773438 5.921875 108.824219 6.0625 108.824219 6.207031 C 108.792969 6.523438 108.53125 6.742188 108.226562 6.726562 Z M 108.226562 6.726562 " fill-opacity="1" fill-rule="nonzero"/><path fill="#ffffff" d="M 104.742188 11.285156 C 104.855469 11.097656 104.921875 10.894531 104.921875 10.6875 C 104.9375 10.339844 104.824219 9.992188 104.582031 9.726562 C 104.339844 9.457031 104 9.300781 103.644531 9.28125 C 103.292969 9.265625 102.9375 9.378906 102.664062 9.613281 C 102.386719 9.851562 102.226562 10.183594 102.210938 10.53125 C 102.179688 11.253906 102.742188 11.886719 103.5 11.933594 C 103.53125 11.933594 103.550781 11.933594 103.582031 11.933594 C 103.773438 11.933594 103.984375 11.886719 104.164062 11.808594 L 108.210938 16.050781 L 108.773438 15.5 Z M 103.550781 11.144531 C 103.242188 11.128906 103.019531 10.875 103.035156 10.578125 C 103.035156 10.433594 103.097656 10.292969 103.210938 10.199219 C 103.308594 10.105469 103.4375 10.054688 103.582031 10.054688 C 103.597656 10.054688 103.597656 10.054688 103.613281 10.054688 C 103.757812 10.054688 103.90625 10.121094 104 10.230469 C 104.097656 10.339844 104.148438 10.480469 104.148438 10.625 C 104.113281 10.941406 103.855469 11.160156 103.550781 11.144531 Z M 103.550781 11.144531 " fill-opacity="1" fill-rule="nonzero"/><path fill="#ffffff" d="M 104.742188 6.726562 C 104.855469 6.539062 104.921875 6.332031 104.9375 6.113281 C 104.953125 5.765625 104.839844 5.417969 104.597656 5.148438 C 104.355469 4.878906 104.015625 4.722656 103.664062 4.707031 C 103.308594 4.691406 102.953125 4.800781 102.679688 5.039062 C 102.40625 5.273438 102.242188 5.605469 102.226562 5.953125 C 102.195312 6.679688 102.757812 7.3125 103.515625 7.359375 C 103.550781 7.359375 103.566406 7.359375 103.597656 7.359375 C 103.792969 7.359375 103.984375 7.3125 104.164062 7.246094 L 110.46875 13.859375 L 111.03125 13.308594 Z M 103.550781 6.570312 C 103.242188 6.554688 103.019531 6.300781 103.035156 6 C 103.035156 5.859375 103.097656 5.71875 103.210938 5.621094 C 103.308594 5.527344 103.4375 5.480469 103.582031 5.480469 C 103.597656 5.480469 103.597656 5.480469 103.613281 5.480469 C 103.757812 5.480469 103.90625 5.542969 104 5.652344 C 104.097656 5.765625 104.148438 5.90625 104.148438 6.046875 C 104.113281 6.363281 103.855469 6.585938 103.550781 6.570312 Z M 103.550781 6.570312 " fill-opacity="1" fill-rule="nonzero"/></svg>