<svg xmlns="http://www.w3.org/2000/svg" xmlns:xlink="http://www.w3.org/1999/xlink" width="300" zoomAndPan="magnify" viewBox="0 0 224.87999 225" height="300" preserveAspectRatio="xMidYMid meet" version="1.0"><path fill="#31ce93" d="M 166.382812 55.375 L 219.425781 55.976562 L 144.707031 128.277344 L 220.339844 203.726562 L 168.953125 203.726562 L 118.484375 150.285156 L 67.105469 203.726562 L 16.929688 203.726562 " fill-opacity="1" fill-rule="nonzero"/><path fill="#31ce93" d="M 83.472656 33.820312 C 83.472656 32.472656 83.015625 31.125 82.109375 30.078125 C 81.195312 29.03125 79.835938 28.429688 78.472656 28.429688 C 78.320312 28.429688 78.320312 28.429688 78.167969 28.429688 C 76.957031 28.429688 75.589844 28.878906 74.683594 29.777344 C 73.617188 30.675781 73.019531 32.023438 73.019531 33.371094 C 72.867188 36.214844 75.132812 38.609375 77.863281 38.761719 C 80.898438 38.761719 83.320312 36.664062 83.472656 33.820312 Z M 83.472656 33.820312 " fill-opacity="1" fill-rule="nonzero"/><path fill="#31ce93" d="M 39.519531 32.320312 C 39.519531 30.972656 39.0625 29.628906 38.148438 28.578125 C 37.246094 27.53125 35.882812 26.933594 34.511719 26.933594 C 34.363281 26.933594 34.363281 26.933594 34.210938 26.933594 C 33 26.933594 31.636719 27.382812 30.726562 28.28125 C 29.667969 29.179688 29.058594 30.527344 29.058594 31.871094 C 28.90625 34.71875 31.179688 37.113281 33.914062 37.261719 C 36.941406 37.261719 39.367188 35.164062 39.519531 32.320312 Z M 39.519531 32.320312 " fill-opacity="1" fill-rule="nonzero"/><path fill="#31ce93" d="M 39.519531 75.734375 C 39.519531 74.386719 39.0625 73.039062 38.148438 71.992188 C 37.246094 70.945312 35.882812 70.347656 34.511719 70.347656 C 34.363281 70.347656 34.363281 70.347656 34.210938 70.347656 C 33 70.347656 31.636719 70.792969 30.726562 71.691406 C 29.667969 72.589844 29.058594 73.9375 29.058594 75.285156 C 28.90625 78.128906 31.179688 80.523438 33.914062 80.675781 C 36.941406 80.675781 39.367188 78.578125 39.519531 75.734375 Z M 39.519531 75.734375 " fill-opacity="1" fill-rule="nonzero"/><path fill="#31ce93" d="M 89.382812 39.957031 C 90.449219 38.3125 91.046875 36.367188 91.046875 34.269531 C 91.199219 30.976562 90.144531 27.683594 87.867188 25.140625 C 85.59375 22.59375 82.414062 21.097656 79.074219 20.945312 C 75.589844 20.796875 72.410156 21.84375 69.828125 24.089844 C 67.257812 26.335938 65.738281 29.480469 65.585938 32.773438 C 65.289062 39.660156 70.589844 45.648438 77.710938 46.097656 C 78.015625 46.097656 78.167969 46.097656 78.472656 46.097656 C 80.289062 46.097656 82.261719 45.648438 83.925781 44.898438 L 121.214844 84.417969 L 126.515625 79.179688 Z M 78.015625 38.613281 C 75.132812 38.460938 73.019531 36.066406 73.160156 33.222656 C 73.160156 31.875 73.769531 30.527344 74.835938 29.628906 C 75.742188 28.730469 76.957031 28.28125 78.320312 28.28125 C 78.472656 28.28125 78.472656 28.28125 78.625 28.28125 C 79.988281 28.28125 81.347656 28.882812 82.261719 29.929688 C 83.167969 30.976562 83.625 32.324219 83.625 33.671875 C 83.320312 36.664062 80.898438 38.761719 78.015625 38.613281 Z M 78.015625 38.613281 " fill-opacity="1" fill-rule="nonzero"/><path fill="#31ce93" d="M 45.277344 81.871094 C 46.335938 80.078125 46.945312 78.128906 46.945312 76.183594 C 47.097656 72.890625 46.03125 69.597656 43.765625 67.054688 C 41.492188 64.507812 38.300781 63.011719 34.96875 62.863281 C 31.636719 62.710938 28.304688 63.757812 25.726562 66.003906 C 23.148438 68.25 21.632812 71.394531 21.480469 74.6875 C 21.175781 81.574219 26.480469 87.5625 33.609375 88.011719 C 33.914062 88.011719 34.066406 88.011719 34.363281 88.011719 C 36.179688 88.011719 38.148438 87.5625 39.824219 86.8125 L 77.863281 127.082031 L 83.167969 121.839844 Z M 34.066406 80.527344 C 31.179688 80.375 29.058594 77.980469 29.210938 75.136719 C 29.210938 73.789062 29.820312 72.441406 30.875 71.542969 C 31.789062 70.644531 33 70.195312 34.363281 70.195312 C 34.511719 70.195312 34.511719 70.195312 34.664062 70.195312 C 36.035156 70.195312 37.398438 70.796875 38.300781 71.84375 C 39.214844 72.890625 39.671875 74.238281 39.671875 75.585938 C 39.367188 78.578125 36.941406 80.675781 34.066406 80.527344 Z M 34.066406 80.527344 " fill-opacity="1" fill-rule="nonzero"/><path fill="#31ce93" d="M 45.277344 38.609375 C 46.335938 36.8125 46.945312 34.867188 47.097656 32.769531 C 47.25 29.476562 46.183594 26.183594 43.917969 23.640625 C 41.640625 21.09375 38.453125 19.597656 35.121094 19.449219 C 31.789062 19.296875 28.449219 20.347656 25.878906 22.59375 C 23.300781 24.835938 21.785156 27.980469 21.632812 31.273438 C 21.328125 38.160156 26.632812 44.148438 33.761719 44.597656 C 34.066406 44.597656 34.210938 44.597656 34.511719 44.597656 C 36.332031 44.597656 38.148438 44.148438 39.824219 43.550781 L 99.082031 106.273438 L 104.386719 101.03125 Z M 34.066406 37.113281 C 31.179688 36.960938 29.058594 34.566406 29.210938 31.722656 C 29.210938 30.375 29.820312 29.027344 30.875 28.128906 C 31.789062 27.234375 33 26.785156 34.363281 26.785156 C 34.511719 26.785156 34.511719 26.785156 34.664062 26.785156 C 36.035156 26.785156 37.398438 27.382812 38.300781 28.429688 C 39.214844 29.476562 39.671875 30.824219 39.671875 32.171875 C 39.367188 35.167969 36.941406 37.261719 34.066406 37.113281 Z M 34.066406 37.113281 " fill-opacity="1" fill-rule="nonzero"/></svg>