<svg xmlns="http://www.w3.org/2000/svg" xmlns:xlink="http://www.w3.org/1999/xlink" width="169" zoomAndPan="magnify" viewBox="0 0 126.75 30.000001" height="40" preserveAspectRatio="xMidYMid meet" version="1.0"><defs><clipPath id="7d0b11b4f2"><path d="M 2.5 4 L 35 4 L 35 25.921875 L 2.5 25.921875 Z M 2.5 4 " clip-rule="nonzero"/></clipPath><clipPath id="8689d2bea2"><path d="M 86 3.378906 L 91 3.378906 L 91 25 L 86 25 Z M 86 3.378906 " clip-rule="nonzero"/></clipPath><clipPath id="fc8dba5006"><path d="M 94 3.378906 L 99 3.378906 L 99 25 L 94 25 Z M 94 3.378906 " clip-rule="nonzero"/></clipPath><clipPath id="7f3a12b2fd"><path d="M 102 8 L 123.949219 8 L 123.949219 25 L 102 25 Z M 102 8 " clip-rule="nonzero"/></clipPath></defs><g clip-path="url(#7d0b11b4f2)"><path fill="#ffffff" d="M 30.351562 24.820312 L 30.351562 11.480469 L 20.460938 24.394531 C 20.003906 24.96875 19.335938 25.261719 18.46875 25.261719 C 17.605469 25.261719 16.9375 24.96875 16.480469 24.394531 L 6.605469 11.480469 L 6.605469 24.820312 L 2.507812 24.820312 L 2.507812 5.972656 C 2.507812 5.335938 2.738281 4.878906 3.210938 4.570312 C 3.683594 4.277344 4.253906 4.128906 4.957031 4.128906 C 5.496094 4.128906 5.917969 4.210938 6.230469 4.355469 C 6.539062 4.503906 6.832031 4.75 7.09375 5.089844 L 18.535156 20.253906 L 30.058594 5.089844 C 30.320312 4.75 30.582031 4.503906 30.875 4.355469 C 31.167969 4.210938 31.558594 4.128906 32.082031 4.128906 C 32.769531 4.128906 33.355469 4.277344 33.828125 4.570312 C 34.300781 4.863281 34.53125 5.335938 34.53125 5.972656 L 34.53125 24.820312 Z M 30.351562 24.820312 " fill-opacity="1" fill-rule="nonzero"/></g><path fill="#ffffff" d="M 45.53125 24.820312 C 44.046875 24.820312 42.804688 24.691406 41.808594 24.445312 C 40.8125 24.199219 40.03125 23.808594 39.425781 23.253906 C 38.839844 22.714844 38.414062 22 38.171875 21.117188 C 37.925781 20.238281 37.792969 19.160156 37.792969 17.875 L 37.792969 15.707031 C 37.792969 14.417969 37.925781 13.324219 38.171875 12.445312 C 38.414062 11.546875 38.839844 10.828125 39.425781 10.292969 C 40.015625 9.753906 40.8125 9.347656 41.808594 9.101562 C 42.804688 8.855469 44.046875 8.726562 45.53125 8.726562 L 50.917969 8.726562 C 52.417969 8.726562 53.675781 8.855469 54.65625 9.101562 C 55.652344 9.347656 56.433594 9.753906 57.039062 10.308594 C 57.625 10.863281 58.050781 11.578125 58.292969 12.476562 C 58.539062 13.375 58.667969 14.449219 58.667969 15.738281 L 58.667969 17.875 C 58.667969 19.160156 58.539062 20.238281 58.292969 21.117188 C 58.050781 22 57.625 22.714844 57.039062 23.253906 C 56.449219 23.792969 55.652344 24.199219 54.65625 24.445312 C 53.660156 24.691406 52.417969 24.820312 50.917969 24.820312 Z M 54.246094 15.851562 C 54.246094 15.183594 54.199219 14.628906 54.082031 14.1875 C 53.96875 13.75 53.773438 13.40625 53.496094 13.160156 C 53.203125 12.917969 52.808594 12.753906 52.289062 12.65625 C 51.765625 12.574219 51.113281 12.527344 50.328125 12.527344 L 46.136719 12.527344 C 45.335938 12.527344 44.699219 12.574219 44.191406 12.65625 C 43.6875 12.738281 43.296875 12.917969 43 13.160156 C 42.707031 13.40625 42.511719 13.75 42.414062 14.1875 C 42.300781 14.628906 42.25 15.183594 42.25 15.851562 L 42.25 17.757812 C 42.25 18.429688 42.300781 18.984375 42.414062 19.40625 C 42.527344 19.832031 42.722656 20.171875 43 20.417969 C 43.296875 20.660156 43.6875 20.839844 44.191406 20.9375 C 44.699219 21.039062 45.351562 21.085938 46.136719 21.085938 L 50.328125 21.085938 C 51.128906 21.085938 51.78125 21.039062 52.289062 20.9375 C 52.808594 20.839844 53.203125 20.660156 53.496094 20.417969 C 53.789062 20.171875 53.984375 19.832031 54.082031 19.40625 C 54.199219 18.984375 54.246094 18.429688 54.246094 17.757812 Z M 54.246094 15.851562 " fill-opacity="1" fill-rule="nonzero"/><path fill="#ffffff" d="M 78.371094 24.820312 L 78.371094 15.851562 C 78.371094 15.183594 78.320312 14.628906 78.207031 14.207031 C 78.09375 13.78125 77.914062 13.4375 77.636719 13.195312 C 77.375 12.949219 77 12.769531 76.542969 12.671875 C 76.070312 12.574219 75.480469 12.527344 74.777344 12.527344 L 69.964844 12.527344 C 69.261719 12.527344 68.691406 12.574219 68.21875 12.671875 C 67.746094 12.769531 67.386719 12.949219 67.109375 13.195312 C 66.832031 13.4375 66.632812 13.78125 66.519531 14.207031 C 66.40625 14.628906 66.355469 15.183594 66.355469 15.851562 L 66.355469 24.820312 L 61.933594 24.820312 L 61.933594 15.707031 C 61.933594 14.417969 62.066406 13.324219 62.308594 12.445312 C 62.554688 11.546875 62.980469 10.828125 63.566406 10.292969 C 64.152344 9.753906 64.953125 9.347656 65.949219 9.101562 C 66.945312 8.855469 68.183594 8.726562 69.671875 8.726562 L 75.054688 8.726562 C 76.558594 8.726562 77.816406 8.855469 78.792969 9.101562 C 79.789062 9.347656 80.574219 9.738281 81.175781 10.292969 C 81.765625 10.828125 82.1875 11.546875 82.433594 12.445312 C 82.679688 13.339844 82.808594 14.417969 82.808594 15.707031 L 82.808594 24.820312 Z M 78.371094 24.820312 " fill-opacity="1" fill-rule="nonzero"/><g clip-path="url(#8689d2bea2)"><path fill="#ffffff" d="M 86.21875 24.820312 L 86.21875 3.542969 L 90.742188 3.542969 L 90.742188 24.835938 L 86.21875 24.835938 Z M 86.21875 24.820312 " fill-opacity="1" fill-rule="nonzero"/></g><g clip-path="url(#fc8dba5006)"><path fill="#ffffff" d="M 95.75 7.8125 C 95.195312 7.8125 94.804688 7.699219 94.578125 7.488281 C 94.347656 7.273438 94.234375 6.917969 94.234375 6.445312 L 94.234375 4.714844 C 94.234375 4.242188 94.347656 3.898438 94.578125 3.6875 C 94.804688 3.476562 95.195312 3.378906 95.75 3.378906 L 97.203125 3.378906 C 97.777344 3.378906 98.183594 3.476562 98.414062 3.6875 C 98.640625 3.898438 98.753906 4.242188 98.753906 4.714844 L 98.753906 6.445312 C 98.753906 6.917969 98.640625 7.257812 98.414062 7.488281 C 98.183594 7.699219 97.777344 7.8125 97.203125 7.8125 Z M 94.25 24.820312 L 94.25 9.148438 L 98.769531 9.148438 L 98.769531 24.820312 Z M 94.25 24.820312 " fill-opacity="1" fill-rule="nonzero"/></g><g clip-path="url(#7f3a12b2fd)"><path fill="#31ce93" d="M 118.128906 8.5 L 123.839844 8.5625 L 115.792969 16.4375 L 123.9375 24.65625 L 118.40625 24.65625 L 112.972656 18.835938 L 107.4375 24.65625 L 102.035156 24.65625 " fill-opacity="1" fill-rule="nonzero"/></g><path fill="#31ce93" d="M 109.203125 6.148438 C 109.203125 6.003906 109.152344 5.855469 109.054688 5.742188 C 108.957031 5.628906 108.808594 5.5625 108.664062 5.5625 C 108.644531 5.5625 108.644531 5.5625 108.628906 5.5625 C 108.5 5.5625 108.351562 5.613281 108.253906 5.710938 C 108.140625 5.808594 108.074219 5.953125 108.074219 6.101562 C 108.058594 6.410156 108.304688 6.671875 108.597656 6.6875 C 108.925781 6.6875 109.183594 6.460938 109.203125 6.148438 Z M 109.203125 6.148438 " fill-opacity="1" fill-rule="nonzero"/><path fill="#31ce93" d="M 104.46875 5.988281 C 104.46875 5.839844 104.417969 5.695312 104.320312 5.578125 C 104.222656 5.464844 104.074219 5.402344 103.929688 5.402344 C 103.914062 5.402344 103.914062 5.402344 103.894531 5.402344 C 103.765625 5.402344 103.617188 5.449219 103.519531 5.546875 C 103.40625 5.644531 103.339844 5.792969 103.339844 5.9375 C 103.324219 6.25 103.570312 6.507812 103.863281 6.527344 C 104.191406 6.527344 104.453125 6.296875 104.46875 5.988281 Z M 104.46875 5.988281 " fill-opacity="1" fill-rule="nonzero"/><path fill="#31ce93" d="M 104.46875 10.714844 C 104.46875 10.570312 104.417969 10.421875 104.320312 10.308594 C 104.222656 10.195312 104.074219 10.128906 103.929688 10.128906 C 103.914062 10.128906 103.914062 10.128906 103.894531 10.128906 C 103.765625 10.128906 103.617188 10.175781 103.519531 10.277344 C 103.40625 10.375 103.339844 10.519531 103.339844 10.667969 C 103.324219 10.976562 103.570312 11.238281 103.863281 11.253906 C 104.191406 11.253906 104.449219 11.027344 104.46875 10.714844 Z M 104.46875 10.714844 " fill-opacity="1" fill-rule="nonzero"/><path fill="#31ce93" d="M 109.835938 6.820312 C 109.953125 6.640625 110.015625 6.425781 110.015625 6.199219 C 110.035156 5.839844 109.917969 5.480469 109.675781 5.203125 C 109.429688 4.925781 109.085938 4.765625 108.726562 4.746094 C 108.351562 4.730469 108.007812 4.847656 107.730469 5.089844 C 107.453125 5.335938 107.292969 5.675781 107.273438 6.035156 C 107.242188 6.785156 107.8125 7.4375 108.582031 7.488281 C 108.613281 7.488281 108.628906 7.488281 108.664062 7.488281 C 108.859375 7.488281 109.070312 7.4375 109.25 7.355469 L 113.265625 11.660156 L 113.835938 11.089844 Z M 108.613281 6.671875 C 108.304688 6.65625 108.074219 6.394531 108.089844 6.085938 C 108.089844 5.9375 108.15625 5.792969 108.269531 5.695312 C 108.367188 5.597656 108.5 5.546875 108.644531 5.546875 C 108.664062 5.546875 108.664062 5.546875 108.679688 5.546875 C 108.824219 5.546875 108.972656 5.613281 109.070312 5.726562 C 109.167969 5.839844 109.21875 5.988281 109.21875 6.132812 C 109.183594 6.460938 108.921875 6.6875 108.613281 6.671875 Z M 108.613281 6.671875 " fill-opacity="1" fill-rule="nonzero"/><path fill="#31ce93" d="M 105.085938 11.382812 C 105.203125 11.1875 105.265625 10.976562 105.265625 10.765625 C 105.285156 10.40625 105.167969 10.046875 104.925781 9.769531 C 104.679688 9.492188 104.335938 9.328125 103.976562 9.3125 C 103.617188 9.296875 103.257812 9.410156 102.980469 9.65625 C 102.703125 9.898438 102.542969 10.242188 102.527344 10.601562 C 102.492188 11.351562 103.0625 12.003906 103.832031 12.050781 C 103.863281 12.050781 103.878906 12.050781 103.914062 12.050781 C 104.109375 12.050781 104.320312 12.003906 104.5 11.921875 L 108.597656 16.308594 L 109.167969 15.738281 Z M 103.878906 11.238281 C 103.570312 11.222656 103.339844 10.960938 103.359375 10.652344 C 103.359375 10.503906 103.421875 10.355469 103.539062 10.257812 C 103.636719 10.160156 103.765625 10.113281 103.914062 10.113281 C 103.929688 10.113281 103.929688 10.113281 103.945312 10.113281 C 104.09375 10.113281 104.238281 10.175781 104.335938 10.292969 C 104.433594 10.40625 104.484375 10.550781 104.484375 10.699219 C 104.449219 11.027344 104.191406 11.253906 103.878906 11.238281 Z M 103.878906 11.238281 " fill-opacity="1" fill-rule="nonzero"/><path fill="#31ce93" d="M 105.085938 6.671875 C 105.203125 6.476562 105.265625 6.265625 105.285156 6.035156 C 105.300781 5.675781 105.1875 5.320312 104.941406 5.042969 C 104.695312 4.765625 104.351562 4.601562 103.992188 4.585938 C 103.636719 4.570312 103.277344 4.683594 103 4.925781 C 102.722656 5.171875 102.558594 5.515625 102.542969 5.871094 C 102.507812 6.625 103.082031 7.273438 103.847656 7.324219 C 103.878906 7.324219 103.894531 7.324219 103.929688 7.324219 C 104.125 7.324219 104.320312 7.273438 104.5 7.210938 L 110.882812 14.042969 L 111.453125 13.472656 Z M 103.878906 6.507812 C 103.570312 6.492188 103.339844 6.230469 103.359375 5.921875 C 103.359375 5.773438 103.421875 5.628906 103.539062 5.53125 C 103.636719 5.433594 103.765625 5.382812 103.914062 5.382812 C 103.929688 5.382812 103.929688 5.382812 103.945312 5.382812 C 104.09375 5.382812 104.238281 5.449219 104.335938 5.5625 C 104.433594 5.675781 104.484375 5.824219 104.484375 5.972656 C 104.449219 6.296875 104.191406 6.523438 103.878906 6.507812 Z M 103.878906 6.507812 " fill-opacity="1" fill-rule="nonzero"/></svg>