<?xml version="1.0" encoding="UTF-8"?>
<svg xmlns="http://www.w3.org/2000/svg" xmlns:xlink="http://www.w3.org/1999/xlink" width="21px" height="21px" viewBox="0 0 21 21" version="1.1">
<defs>
<clipPath id="clip1">
  <path d="M 8 17.5 L 13 17.5 L 13 19.5625 L 8 19.5625 Z M 8 17.5 "/>
</clipPath>
<clipPath id="clip2">
  <path d="M 1.957031 0.761719 L 19.226562 0.761719 L 19.226562 17 L 1.957031 17 Z M 1.957031 0.761719 "/>
</clipPath>
</defs>
<g id="surface1">
<g clip-path="url(#clip1)" clip-rule="nonzero">
<path style=" stroke:none;fill-rule:nonzero;fill:rgb(100%,100%,100%);fill-opacity:1;" d="M 12.765625 17.921875 C 12.71875 17.859375 12.636719 17.820312 12.582031 17.824219 L 8.613281 17.851562 C 8.613281 17.851562 8.472656 17.886719 8.433594 17.949219 C 8.394531 18.007812 8.386719 18.085938 8.417969 18.152344 C 8.792969 19.007812 9.652344 19.554688 10.59375 19.554688 C 11.550781 19.554688 12.410156 18.992188 12.785156 18.125 C 12.808594 18.054688 12.800781 17.976562 12.765625 17.921875 Z M 12.765625 17.921875 "/>
</g>
<g clip-path="url(#clip2)" clip-rule="nonzero">
<path style=" stroke:none;fill-rule:nonzero;fill:rgb(100%,100%,100%);fill-opacity:1;" d="M 19.074219 15.8125 L 16.640625 13.804688 L 16.640625 8.453125 C 16.640625 5.742188 14.800781 3.449219 12.292969 2.71875 C 12.304688 2.636719 12.320312 2.558594 12.320312 2.472656 C 12.320312 1.53125 11.546875 0.765625 10.59375 0.765625 C 9.640625 0.765625 8.867188 1.53125 8.867188 2.472656 C 8.867188 2.558594 8.882812 2.636719 8.894531 2.71875 C 6.386719 3.449219 4.546875 5.738281 4.546875 8.453125 L 4.546875 13.804688 L 2.109375 15.8125 C 2.011719 15.894531 1.957031 16.015625 1.957031 16.140625 L 1.957031 16.566406 C 1.957031 16.800781 2.148438 16.992188 2.386719 16.992188 L 18.796875 16.992188 C 19.035156 16.992188 19.226562 16.800781 19.226562 16.566406 L 19.226562 16.140625 C 19.226562 16.015625 19.171875 15.894531 19.074219 15.8125 Z M 9.738281 2.542969 C 9.738281 2.519531 9.730469 2.496094 9.730469 2.472656 C 9.730469 2 10.117188 1.617188 10.59375 1.617188 C 11.070312 1.617188 11.457031 2 11.457031 2.472656 C 11.457031 2.496094 11.453125 2.519531 11.449219 2.542969 C 11.167969 2.503906 10.882812 2.472656 10.589844 2.472656 C 10.296875 2.472656 10.015625 2.5 9.738281 2.542969 Z M 9.738281 2.542969 "/>
</g>
</g>
</svg>
