<?xml version="1.0" encoding="UTF-8"?>
<svg xmlns="http://www.w3.org/2000/svg" xmlns:xlink="http://www.w3.org/1999/xlink" width="30px" height="30px" viewBox="0 0 30 30" version="1.1">
<defs>
<clipPath id="clip1">
  <path d="M 2.734375 19 L 27.410156 19 L 27.410156 26.925781 L 2.734375 26.925781 Z M 2.734375 19 "/>
</clipPath>
<clipPath id="clip2">
  <path d="M 2.734375 2.25 L 27.410156 2.25 L 27.410156 14 L 2.734375 14 Z M 2.734375 2.25 "/>
</clipPath>
<clipPath id="clip3">
  <path d="M 2.734375 12 L 27.410156 12 L 27.410156 21 L 2.734375 21 Z M 2.734375 12 "/>
</clipPath>
</defs>
<g id="surface1">
<g clip-path="url(#clip1)" clip-rule="nonzero">
<path style=" stroke:none;fill-rule:nonzero;fill:rgb(29.019608%,63.529412%,46.27451%);fill-opacity:1;" d="M 3.648438 22.320312 L 13.171875 26.402344 C 13.769531 26.660156 14.398438 26.789062 15.050781 26.789062 C 15.703125 26.789062 16.328125 26.660156 16.929688 26.402344 L 26.453125 22.320312 C 26.691406 22.210938 26.878906 22.046875 27.019531 21.828125 C 27.160156 21.609375 27.230469 21.367188 27.230469 21.109375 C 27.230469 20.847656 27.160156 20.605469 27.019531 20.386719 C 26.878906 20.167969 26.691406 20.003906 26.453125 19.894531 L 24.929688 19.242188 C 24.269531 18.960938 23.605469 18.960938 22.945312 19.242188 L 17.753906 21.472656 C 17.117188 21.753906 16.453125 21.9375 15.757812 22.019531 C 14.617188 22.144531 13.519531 21.976562 12.460938 21.523438 L 7.152344 19.242188 C 6.492188 18.960938 5.828125 18.960938 5.164062 19.242188 L 3.648438 19.894531 C 3.410156 20.003906 3.222656 20.167969 3.082031 20.386719 C 2.941406 20.605469 2.871094 20.847656 2.871094 21.109375 C 2.871094 21.367188 2.941406 21.609375 3.082031 21.828125 C 3.222656 22.046875 3.410156 22.210938 3.648438 22.320312 Z M 3.648438 22.320312 "/>
</g>
<g clip-path="url(#clip2)" clip-rule="nonzero">
<path style=" stroke:none;fill-rule:nonzero;fill:rgb(29.019608%,63.529412%,46.27451%);fill-opacity:1;" d="M 3.648438 9.285156 L 13.171875 13.363281 C 13.769531 13.621094 14.398438 13.75 15.050781 13.75 C 15.703125 13.75 16.328125 13.621094 16.929688 13.363281 L 26.453125 9.285156 C 26.691406 9.175781 26.878906 9.011719 27.019531 8.789062 C 27.160156 8.570312 27.230469 8.332031 27.230469 8.070312 C 27.230469 7.808594 27.160156 7.570312 27.019531 7.347656 C 26.878906 7.128906 26.691406 6.964844 26.453125 6.855469 L 16.929688 2.777344 C 16.328125 2.519531 15.703125 2.390625 15.050781 2.390625 C 14.398438 2.390625 13.769531 2.519531 13.171875 2.777344 L 3.648438 6.855469 C 3.410156 6.964844 3.222656 7.128906 3.082031 7.347656 C 2.941406 7.570312 2.871094 7.808594 2.871094 8.070312 C 2.871094 8.332031 2.941406 8.570312 3.082031 8.789062 C 3.222656 9.011719 3.410156 9.175781 3.648438 9.285156 Z M 3.648438 9.285156 "/>
</g>
<g clip-path="url(#clip3)" clip-rule="nonzero">
<path style=" stroke:none;fill-rule:nonzero;fill:rgb(29.019608%,63.529412%,46.27451%);fill-opacity:1;" d="M 3.648438 15.800781 L 13.171875 19.878906 C 13.769531 20.136719 14.398438 20.265625 15.050781 20.265625 C 15.703125 20.265625 16.328125 20.136719 16.929688 19.878906 L 26.453125 15.800781 C 26.691406 15.691406 26.878906 15.527344 27.019531 15.308594 C 27.160156 15.085938 27.230469 14.847656 27.230469 14.585938 C 27.230469 14.324219 27.160156 14.085938 27.019531 13.867188 C 26.878906 13.644531 26.691406 13.480469 26.453125 13.371094 L 24.929688 12.722656 C 24.269531 12.4375 23.609375 12.4375 22.949219 12.722656 L 17.757812 14.949219 C 17.121094 15.226562 16.453125 15.402344 15.761719 15.480469 C 14.621094 15.605469 13.523438 15.4375 12.464844 14.984375 L 7.152344 12.722656 C 6.492188 12.4375 5.832031 12.4375 5.171875 12.722656 L 3.648438 13.378906 C 3.410156 13.488281 3.222656 13.652344 3.085938 13.871094 C 2.945312 14.089844 2.875 14.328125 2.875 14.589844 C 2.875 14.847656 2.945312 15.089844 3.085938 15.308594 C 3.222656 15.527344 3.410156 15.691406 3.648438 15.800781 Z M 3.648438 15.800781 "/>
</g>
</g>
</svg>
