<svg xmlns="http://www.w3.org/2000/svg" xmlns:xlink="http://www.w3.org/1999/xlink" width="200" zoomAndPan="magnify" viewBox="0 0 150 149.999998" height="200" preserveAspectRatio="xMidYMid meet" version="1.0"><defs><clipPath id="e6c40fae42"><path d="M 36.414062 30.101562 L 93.449219 30.101562 L 93.449219 119.699219 L 36.414062 119.699219 Z M 36.414062 30.101562 " clip-rule="nonzero"/></clipPath><clipPath id="896729306d"><path d="M 66.015625 30.101562 L 113.664062 30.101562 L 113.664062 84.8125 L 66.015625 84.8125 Z M 66.015625 30.101562 " clip-rule="nonzero"/></clipPath><clipPath id="70555cf703"><path d="M 68.644531 76 L 120.167969 76 L 120.167969 120.066406 L 68.644531 120.066406 Z M 68.644531 76 " clip-rule="nonzero"/></clipPath><clipPath id="bdb936c6ca"><path d="M 72 72.066406 L 76 72.066406 L 76 80 L 72 80 Z M 72 72.066406 " clip-rule="nonzero"/></clipPath><clipPath id="b3e7acdc40"><path d="M 59.453125 85 L 68 85 L 68 88 L 59.453125 88 Z M 59.453125 85 " clip-rule="nonzero"/></clipPath></defs><g clip-path="url(#e6c40fae42)"><path fill="#ffffff" d="M 86.566406 101.851562 C 86.566406 104.136719 84.699219 105.980469 82.425781 105.980469 L 76.828125 105.980469 C 75.441406 105.980469 74.324219 107.109375 74.324219 108.492188 C 74.324219 109.875 73.1875 110.988281 71.804688 110.988281 L 58.0625 110.988281 C 56.679688 110.988281 55.542969 109.875 55.542969 108.492188 C 55.542969 107.109375 54.425781 105.980469 53.042969 105.980469 L 47.441406 105.980469 C 45.152344 105.980469 43.304688 104.136719 43.304688 101.871094 L 43.304688 41.082031 C 43.304688 38.820312 45.152344 36.976562 47.441406 36.976562 L 64.703125 36.976562 C 66.472656 35.191406 68.648438 33.808594 71.109375 33.003906 C 71.632812 31.96875 72.246094 30.988281 72.957031 30.105469 L 47.441406 30.105469 C 41.359375 30.105469 36.414062 35.015625 36.414062 41.082031 L 36.414062 108.722656 C 36.414062 114.785156 41.359375 119.699219 47.441406 119.699219 L 82.425781 119.699219 C 88.507812 119.699219 93.433594 114.785156 93.433594 108.722656 L 93.433594 91.03125 L 86.566406 91.03125 L 86.566406 101.851562 " fill-opacity="1" fill-rule="nonzero"/></g><g clip-path="url(#896729306d)"><path fill="#4aa276" d="M 106.664062 44.238281 L 106.601562 44.238281 C 105.445312 44.238281 104.671875 43.144531 104.941406 42.023438 C 105.199219 40.953125 105.234375 39.800781 104.996094 38.621094 C 104.378906 35.496094 101.777344 32.996094 98.621094 32.496094 C 97.101562 32.257812 95.648438 32.453125 94.367188 32.980469 C 93.765625 33.226562 93.058594 33.125 92.570312 32.691406 C 90.773438 31.085938 88.398438 30.105469 85.800781 30.105469 C 81.210938 30.105469 77.335938 33.148438 76.09375 37.324219 C 75.90625 37.953125 75.367188 38.449219 74.714844 38.539062 C 69.960938 39.199219 66.3125 43.253906 66.3125 48.164062 C 66.3125 53.164062 70.113281 57.289062 75 57.824219 L 84.609375 57.824219 C 85.671875 57.824219 86.535156 58.683594 86.535156 59.742188 L 86.535156 68.160156 L 81.550781 68.160156 C 80.875 68.160156 80.507812 68.9375 80.929688 69.460938 L 87.828125 77.898438 L 79.117188 77.898438 C 77.394531 77.898438 75.796875 79.070312 75.519531 80.761719 C 75.167969 82.921875 76.828125 84.789062 78.929688 84.789062 L 100.867188 84.789062 C 102.585938 84.789062 104.183594 83.613281 104.460938 81.921875 C 104.8125 79.761719 103.148438 77.898438 101.050781 77.898438 L 92.15625 77.898438 L 99.050781 69.460938 C 99.476562 68.9375 99.105469 68.160156 98.433594 68.160156 L 93.445312 68.160156 L 93.445312 59.742188 C 93.445312 58.683594 94.308594 57.824219 95.371094 57.824219 L 107.992188 57.824219 C 107.992188 57.824219 113.6875 56.640625 113.667969 51.03125 C 113.65625 47.25 110.453125 44.238281 106.664062 44.238281 " fill-opacity="1" fill-rule="nonzero"/></g><path fill="#ffffff" d="M 99.636719 118.703125 C 97.125 118.703125 94.601562 118.117188 92.34375 117.003906 L 86.851562 114.300781 L 80.914062 111.296875 C 78.90625 110.28125 78.105469 107.828125 79.128906 105.835938 C 79.324219 105.453125 79.574219 105.109375 79.867188 104.816406 C 80.628906 104.050781 81.6875 103.613281 82.769531 103.613281 C 83.410156 103.613281 84.050781 103.769531 84.621094 104.058594 L 87.648438 105.589844 L 71.238281 89.410156 C 69.640625 87.835938 69.628906 85.265625 71.207031 83.671875 C 71.21875 83.660156 71.269531 83.613281 71.269531 83.613281 C 72.023438 82.886719 73.019531 82.488281 74.085938 82.488281 C 75.1875 82.488281 76.273438 82.929688 77.058594 83.707031 L 83.660156 90.214844 C 83.125 88.777344 83.433594 87.09375 84.589844 85.9375 L 84.644531 85.882812 C 85.394531 85.15625 86.394531 84.757812 87.457031 84.757812 C 88.5625 84.757812 89.644531 85.203125 90.433594 85.976562 L 90.703125 86.242188 C 90.15625 84.804688 90.425781 83.132812 91.535156 81.976562 L 91.585938 81.921875 C 92.359375 81.148438 93.390625 80.722656 94.488281 80.722656 C 95.574219 80.722656 96.597656 81.140625 97.367188 81.898438 L 98.375 82.890625 C 97.824219 81.453125 98.097656 79.777344 99.207031 78.625 C 99.226562 78.605469 99.246094 78.582031 99.269531 78.5625 C 100.042969 77.792969 101.066406 77.371094 102.160156 77.371094 C 103.246094 77.371094 104.265625 77.789062 105.039062 78.546875 L 113.625 87.011719 L 114.132812 87.511719 C 114.140625 87.523438 114.753906 88.136719 115.03125 88.503906 C 118.476562 92.578125 119.609375 97.863281 118.214844 103.390625 C 117.699219 105.441406 116.816406 107.355469 115.59375 109.074219 C 115.050781 109.847656 114.417969 110.59375 113.726562 111.289062 L 111 114.023438 C 110.875 114.148438 110.75 114.265625 110.625 114.382812 C 107.675781 117.171875 103.773438 118.703125 99.636719 118.703125 " fill-opacity="1" fill-rule="nonzero"/><g clip-path="url(#70555cf703)"><path fill="#000000" d="M 102.160156 76.007812 C 100.703125 76.007812 99.339844 76.570312 98.308594 77.589844 C 98.265625 77.632812 98.234375 77.664062 98.214844 77.683594 C 97.597656 78.324219 97.160156 79.09375 96.925781 79.925781 C 96.179688 79.554688 95.347656 79.359375 94.488281 79.359375 C 93.023438 79.359375 91.648438 79.929688 90.617188 80.964844 L 90.597656 80.980469 L 90.574219 81.003906 L 90.5625 81.019531 L 90.542969 81.039062 C 89.832031 81.777344 89.363281 82.679688 89.164062 83.664062 C 88.613281 83.488281 88.039062 83.394531 87.457031 83.394531 C 86.042969 83.394531 84.707031 83.929688 83.699219 84.894531 C 83.691406 84.90625 83.679688 84.914062 83.671875 84.921875 L 83.648438 84.945312 L 83.613281 84.976562 C 83.027344 85.566406 82.601562 86.261719 82.34375 86.996094 L 78.023438 82.738281 C 76.984375 81.714844 75.546875 81.125 74.085938 81.125 C 72.664062 81.125 71.324219 81.660156 70.316406 82.632812 L 70.269531 82.679688 C 70.257812 82.695312 70.246094 82.707031 70.230469 82.71875 C 68.125 84.84375 68.140625 88.277344 70.273438 90.378906 L 82.335938 102.269531 C 81.046875 102.375 79.8125 102.941406 78.894531 103.855469 C 78.503906 104.25 78.171875 104.703125 77.914062 105.203125 L 77.910156 105.210938 L 77.90625 105.214844 C 76.542969 107.878906 77.613281 111.152344 80.292969 112.511719 L 86.230469 115.515625 L 86.257812 115.53125 L 91.734375 118.226562 C 94.179688 119.429688 96.914062 120.066406 99.636719 120.066406 C 104.125 120.066406 108.363281 118.398438 111.566406 115.375 L 111.574219 115.367188 C 111.707031 115.242188 111.839844 115.113281 111.964844 114.988281 L 111.972656 114.980469 L 114.699219 112.246094 C 115.445312 111.5 116.125 110.695312 116.714844 109.855469 C 118.035156 107.996094 118.984375 105.933594 119.542969 103.722656 C 121.046875 97.769531 119.820312 92.0625 116.097656 87.644531 C 115.738281 87.1875 115.109375 86.558594 115.101562 86.550781 L 115.097656 86.546875 L 114.589844 86.046875 L 112.628906 84.113281 L 106.003906 77.578125 C 104.972656 76.566406 103.609375 76.007812 102.160156 76.007812 Z M 102.160156 78.730469 C 102.851562 78.730469 103.542969 78.992188 104.074219 79.511719 L 110.699219 86.046875 L 112.660156 87.980469 L 113.167969 88.480469 C 113.339844 88.648438 113.824219 89.160156 113.957031 89.347656 C 117.339844 93.328125 118.097656 98.253906 116.886719 103.058594 C 116.421875 104.902344 115.617188 106.675781 114.472656 108.289062 C 113.96875 109.003906 113.394531 109.6875 112.753906 110.328125 L 110.027344 113.0625 C 109.910156 113.175781 109.796875 113.289062 109.679688 113.398438 C 106.917969 116.007812 103.300781 117.34375 99.636719 117.34375 C 97.363281 117.34375 95.070312 116.828125 92.949219 115.785156 L 87.472656 113.089844 L 81.535156 110.082031 C 80.199219 109.40625 79.667969 107.78125 80.347656 106.453125 C 80.480469 106.195312 80.648438 105.96875 80.839844 105.773438 C 81.355469 105.261719 82.054688 104.976562 82.769531 104.976562 C 83.1875 104.976562 83.605469 105.070312 84 105.269531 L 88.992188 107.796875 L 89.273438 107.9375 C 89.429688 108.019531 89.582031 108.054688 89.730469 108.054688 C 89.992188 108.054688 90.226562 107.941406 90.402344 107.765625 C 90.75 107.417969 90.847656 106.824219 90.402344 106.386719 L 72.203125 88.445312 C 71.140625 87.394531 71.132812 85.683594 72.1875 84.625 C 72.199219 84.613281 72.210938 84.601562 72.222656 84.589844 C 72.742188 84.089844 73.410156 83.847656 74.085938 83.847656 C 74.8125 83.847656 75.542969 84.128906 76.09375 84.671875 L 91.210938 99.574219 C 91.441406 99.800781 91.742188 99.917969 92.046875 99.917969 C 92.335938 99.914062 92.625 99.808594 92.851562 99.597656 C 92.859375 99.589844 92.867188 99.578125 92.878906 99.570312 C 93.339844 99.109375 93.300781 98.328125 92.832031 97.867188 L 85.578125 90.714844 C 84.511719 89.664062 84.503906 87.953125 85.5625 86.894531 C 85.574219 86.882812 85.585938 86.871094 85.597656 86.859375 C 86.113281 86.359375 86.785156 86.121094 87.457031 86.121094 C 88.183594 86.121094 88.917969 86.398438 89.46875 86.941406 L 97.707031 95.066406 C 97.9375 95.292969 98.242188 95.40625 98.542969 95.40625 C 98.832031 95.40625 99.121094 95.296875 99.347656 95.085938 C 99.355469 95.078125 99.367188 95.070312 99.375 95.058594 C 99.835938 94.597656 99.796875 93.820312 99.328125 93.359375 L 92.640625 86.765625 C 91.578125 85.714844 91.492188 83.992188 92.523438 82.917969 C 92.535156 82.90625 92.546875 82.894531 92.558594 82.882812 C 93.089844 82.351562 93.789062 82.082031 94.488281 82.082031 C 95.179688 82.082031 95.875 82.34375 96.402344 82.867188 L 104.371094 90.71875 C 104.601562 90.949219 104.902344 91.0625 105.203125 91.0625 C 105.503906 91.0625 105.808594 90.945312 106.039062 90.714844 C 106.5 90.253906 106.496094 89.511719 106.035156 89.054688 L 100.3125 83.410156 C 99.25 82.363281 99.160156 80.640625 100.195312 79.566406 C 100.207031 79.554688 100.21875 79.542969 100.230469 79.53125 C 100.761719 78.996094 101.460938 78.730469 102.160156 78.730469 " fill-opacity="1" fill-rule="nonzero"/></g><path fill="#000000" d="M 64.863281 75.984375 C 64.488281 75.988281 64.136719 76.132812 63.875 76.394531 C 63.871094 76.398438 63.871094 76.398438 63.867188 76.398438 C 63.324219 76.949219 63.324219 77.835938 63.878906 78.378906 L 67.605469 82.035156 C 67.875 82.300781 68.226562 82.445312 68.605469 82.441406 C 68.976562 82.441406 69.328125 82.296875 69.59375 82.03125 C 69.59375 82.03125 69.597656 82.03125 69.597656 82.027344 C 69.863281 81.761719 70.007812 81.410156 70.007812 81.039062 C 70.003906 80.664062 69.855469 80.3125 69.589844 80.046875 L 65.859375 76.390625 C 65.59375 76.128906 65.238281 75.984375 64.863281 75.984375 " fill-opacity="1" fill-rule="nonzero"/><g clip-path="url(#bdb936c6ca)"><path fill="#000000" d="M 75.328125 73.460938 C 75.324219 72.691406 74.6875 72.066406 73.914062 72.066406 C 73.136719 72.070312 72.507812 72.703125 72.511719 73.472656 L 72.546875 78.242188 C 72.546875 79.015625 73.183594 79.640625 73.960938 79.636719 C 74.34375 79.636719 74.695312 79.480469 74.949219 79.226562 C 75.207031 78.972656 75.363281 78.621094 75.363281 78.230469 L 75.328125 73.460938 " fill-opacity="1" fill-rule="nonzero"/></g><g clip-path="url(#b3e7acdc40)"><path fill="#000000" d="M 60.894531 85.019531 C 60.117188 85.015625 59.484375 85.640625 59.480469 86.410156 C 59.476562 87.183594 60.109375 87.8125 60.882812 87.816406 L 65.683594 87.851562 C 66.074219 87.855469 66.425781 87.695312 66.683594 87.441406 C 66.9375 87.191406 67.09375 86.84375 67.097656 86.457031 C 67.101562 85.6875 66.472656 85.054688 65.695312 85.054688 L 60.894531 85.019531 " fill-opacity="1" fill-rule="nonzero"/></g><path fill="#000000" d="M 83.59375 74.480469 C 83.21875 74.480469 82.871094 74.632812 82.601562 74.894531 L 78.921875 78.601562 C 78.65625 78.867188 78.511719 79.21875 78.511719 79.59375 C 78.515625 79.96875 78.664062 80.316406 78.929688 80.582031 C 79.480469 81.125 80.371094 81.121094 80.917969 80.578125 C 80.917969 80.574219 80.921875 80.574219 80.921875 80.574219 L 84.601562 76.867188 C 85.148438 76.316406 85.144531 75.429688 84.59375 74.886719 C 84.324219 74.625 83.972656 74.480469 83.59375 74.480469 " fill-opacity="1" fill-rule="nonzero"/><path fill="#000000" d="M 66.222656 91.3125 C 66.222656 91.3125 66.21875 91.316406 66.21875 91.316406 L 62.539062 95.023438 C 62.273438 95.289062 62.128906 95.640625 62.132812 96.015625 C 62.132812 96.390625 62.28125 96.738281 62.546875 97.003906 C 62.816406 97.265625 63.167969 97.410156 63.546875 97.410156 C 63.921875 97.40625 64.273438 97.261719 64.535156 97 C 64.539062 96.996094 64.539062 96.996094 64.539062 96.996094 L 68.21875 93.289062 C 68.484375 93.023438 68.628906 92.671875 68.628906 92.296875 C 68.625 91.921875 68.476562 91.570312 68.210938 91.308594 C 67.945312 91.046875 67.589844 90.902344 67.214844 90.902344 C 66.839844 90.902344 66.488281 91.050781 66.222656 91.3125 " fill-opacity="1" fill-rule="nonzero"/></svg>