<svg xmlns="http://www.w3.org/2000/svg" xmlns:xlink="http://www.w3.org/1999/xlink" width="40" zoomAndPan="magnify" viewBox="0 0 30 30.000001" height="40" preserveAspectRatio="xMidYMid meet" version="1.0"><defs><clipPath id="fa2c342a97"><path d="M 8.03125 7.546875 L 21.824219 7.546875 L 21.824219 21.339844 L 8.03125 21.339844 Z M 8.03125 7.546875 " clip-rule="nonzero"/></clipPath></defs><g clip-path="url(#fa2c342a97)"><path fill="#008037" d="M 21.820312 14.441406 C 21.820312 18.253906 18.734375 21.339844 14.925781 21.339844 C 12.792969 21.339844 10.890625 20.371094 9.625 18.847656 C 8.679688 17.714844 8.09375 16.269531 8.039062 14.691406 C 8.035156 14.609375 8.035156 14.523438 8.035156 14.441406 C 8.035156 10.636719 11.121094 7.546875 14.925781 7.546875 C 15.710938 7.546875 16.460938 7.675781 17.160156 7.917969 C 18.613281 8.417969 19.847656 9.382812 20.679688 10.644531 C 21.398438 11.730469 21.820312 13.039062 21.820312 14.441406 " fill-opacity="1" fill-rule="nonzero"/></g></svg>