<svg xmlns="http://www.w3.org/2000/svg" xmlns:xlink="http://www.w3.org/1999/xlink" width="40" zoomAndPan="magnify" viewBox="0 0 30 30.000001" height="40" preserveAspectRatio="xMidYMid meet" version="1.0"><defs><clipPath id="485003cef4"><path d="M 2.335938 1.851562 L 27.738281 1.851562 L 27.738281 27.253906 L 2.335938 27.253906 Z M 2.335938 1.851562 " clip-rule="nonzero"/></clipPath></defs><path fill="#ffffff" d="M 4.132812 8.195312 C 4.570312 7.4375 5.542969 7.175781 6.304688 7.617188 C 7.0625 8.054688 7.324219 9.023438 6.882812 9.785156 C 6.445312 10.542969 5.472656 10.804688 4.714844 10.367188 C 3.957031 9.925781 3.695312 8.957031 4.132812 8.195312 " fill-opacity="1" fill-rule="nonzero"/><path fill="#ffffff" d="M 8.675781 3.652344 C 9.4375 3.214844 10.410156 3.476562 10.847656 4.234375 C 11.285156 4.996094 11.023438 5.964844 10.265625 6.402344 C 9.507812 6.839844 8.535156 6.582031 8.097656 5.824219 C 7.65625 5.066406 7.917969 4.09375 8.675781 3.652344 " fill-opacity="1" fill-rule="nonzero"/><path fill="#ffffff" d="M 12.65625 8.203125 L 12.65625 13.757812 C 12.65625 15.511719 14.074219 16.933594 15.832031 16.933594 L 20.59375 16.933594 L 20.59375 13.757812 L 15.832031 13.757812 L 15.832031 8.203125 L 12.65625 8.203125 " fill-opacity="1" fill-rule="nonzero"/><g clip-path="url(#485003cef4)"><path fill="#ffffff" d="M 15.035156 1.851562 L 13.449219 1.851562 L 13.449219 5.027344 L 15.035156 5.027344 C 20.296875 5.027344 24.5625 9.289062 24.5625 14.550781 C 24.5625 19.8125 20.296875 24.078125 15.035156 24.078125 C 9.773438 24.078125 5.511719 19.8125 5.511719 14.550781 L 5.511719 12.964844 L 2.335938 12.964844 L 2.335938 14.550781 C 2.335938 21.566406 8.023438 27.253906 15.035156 27.253906 C 22.050781 27.253906 27.738281 21.566406 27.738281 14.550781 C 27.738281 7.535156 22.050781 1.851562 15.035156 1.851562 " fill-opacity="1" fill-rule="nonzero"/></g></svg>