<?xml version="1.0" encoding="UTF-8"?>
<svg xmlns="http://www.w3.org/2000/svg" xmlns:xlink="http://www.w3.org/1999/xlink" width="20px" height="20px" viewBox="0 0 20 20" version="1.1">
<defs>
<clipPath id="clip1">
  <path d="M 3.429688 1.878906 L 16.488281 1.878906 L 16.488281 17.199219 L 3.429688 17.199219 Z M 3.429688 1.878906 "/>
</clipPath>
</defs>
<g id="surface1">
<g clip-path="url(#clip1)" clip-rule="nonzero">
<path style=" stroke:none;fill-rule:nonzero;fill:rgb(100%,100%,100%);fill-opacity:1;" d="M 12.316406 7.769531 C 12.429688 7.871094 12.4375 8.050781 12.332031 8.167969 L 9.472656 11.289062 C 9.417969 11.347656 9.347656 11.378906 9.269531 11.382812 C 9.191406 11.382812 9.121094 11.351562 9.066406 11.292969 L 7.597656 9.792969 C 7.472656 9.699219 7.457031 9.523438 7.550781 9.402344 C 7.648438 9.28125 7.824219 9.261719 7.949219 9.355469 C 7.964844 9.371094 7.980469 9.386719 7.992188 9.402344 L 9.253906 10.691406 L 11.925781 7.785156 C 12.027344 7.675781 12.199219 7.664062 12.316406 7.765625 Z M 14.683594 13.089844 C 13.253906 15.050781 10.367188 16.515625 9.957031 16.640625 C 9.550781 16.515625 6.664062 15.042969 5.234375 13.089844 C 3.917969 11.289062 3.910156 7.402344 4.058594 4.496094 C 4.980469 4.566406 7.769531 4.578125 9.972656 2.535156 C 12.175781 4.582031 14.960938 4.570312 15.871094 4.496094 C 16.003906 7.402344 15.996094 11.289062 14.683594 13.089844 Z M 16.417969 4.183594 C 16.414062 4.105469 16.378906 4.027344 16.316406 3.980469 C 16.253906 3.929688 16.175781 3.910156 16.097656 3.917969 C 16.0625 3.917969 12.597656 4.402344 10.15625 1.960938 C 10.046875 1.847656 9.871094 1.847656 9.761719 1.957031 C 9.761719 1.957031 9.757812 1.957031 9.757812 1.960938 C 7.316406 4.40625 3.863281 3.917969 3.824219 3.917969 C 3.746094 3.910156 3.664062 3.929688 3.601562 3.980469 C 3.539062 4.027344 3.503906 4.105469 3.496094 4.183594 C 3.347656 7.1875 3.316406 11.414062 4.78125 13.425781 C 6.308594 15.492188 9.292969 17.019531 9.792969 17.175781 C 9.902344 17.207031 10.015625 17.207031 10.125 17.175781 C 10.621094 17.019531 13.621094 15.496094 15.136719 13.421875 C 16.601562 11.414062 16.570312 7.1875 16.417969 4.183594 "/>
</g>
</g>
</svg>
