<?xml version="1.0" encoding="UTF-8"?>
<svg xmlns="http://www.w3.org/2000/svg" xmlns:xlink="http://www.w3.org/1999/xlink" width="21px" height="21px" viewBox="0 0 21 21" version="1.1">
<defs>
<clipPath id="clip1">
  <path d="M 1.484375 1.835938 L 10 1.835938 L 10 12.601562 L 1.484375 12.601562 Z M 1.484375 1.835938 "/>
</clipPath>
<clipPath id="clip2">
  <path d="M 6.300781 4.199219 L 19.265625 4.199219 L 19.265625 18.597656 L 6.300781 18.597656 Z M 6.300781 4.199219 "/>
</clipPath>
<clipPath id="clip3">
  <path d="M 1.484375 11.199219 L 8 11.199219 L 8 18.597656 L 1.484375 18.597656 Z M 1.484375 11.199219 "/>
</clipPath>
</defs>
<g id="surface1">
<g clip-path="url(#clip1)" clip-rule="nonzero">
<path style=" stroke:none;fill-rule:evenodd;fill:rgb(100%,100%,100%);fill-opacity:1;" d="M 1.488281 12.152344 L 2.890625 12.179688 L 4.851562 10.183594 L 6.402344 11.769531 C 6.8125 11.234375 7.3125 10.785156 7.890625 10.445312 L 7.992188 10.386719 L 8.070312 10.472656 L 7.730469 8.984375 C 7.449219 9.058594 7.15625 9.097656 6.859375 9.097656 C 5.890625 9.097656 4.984375 8.699219 4.3125 7.980469 L 4.234375 7.894531 L 4.132812 7.953125 C 2.707031 8.789062 1.773438 10.257812 1.5 12.085938 Z M 6.859375 8.363281 C 5.09375 8.363281 3.660156 6.898438 3.660156 5.097656 C 3.660156 3.296875 5.09375 1.832031 6.859375 1.832031 C 8.382812 1.832031 9.664062 2.929688 9.980469 4.390625 C 8.644531 4.863281 7.507812 6.464844 7.496094 8.296875 C 7.289062 8.339844 7.078125 8.363281 6.859375 8.363281 "/>
</g>
<g clip-path="url(#clip2)" clip-rule="nonzero">
<path style=" stroke:none;fill-rule:evenodd;fill:rgb(100%,100%,100%);fill-opacity:1;" d="M 9.125 18.597656 L 19.140625 18.597656 C 19.261719 15.867188 18.332031 13.535156 15.84375 12.0625 L 15.714844 11.988281 L 15.609375 12.097656 C 14.757812 13.011719 13.613281 13.515625 12.382812 13.515625 C 11.152344 13.515625 10.003906 13.011719 9.152344 12.097656 L 9.050781 11.988281 L 8.921875 12.0625 C 8.394531 12.375 7.933594 12.726562 7.542969 13.109375 L 9.214844 14.816406 L 6.597656 14.816406 C 6.714844 16.117188 7.1875 17.183594 8.3125 18.003906 Z M 12.382812 12.582031 C 10.144531 12.582031 8.324219 10.726562 8.324219 8.441406 C 8.324219 6.15625 10.144531 4.300781 12.382812 4.300781 C 14.617188 4.300781 16.4375 6.15625 16.4375 8.441406 C 16.4375 10.722656 14.617188 12.582031 12.382812 12.582031 "/>
</g>
<g clip-path="url(#clip3)" clip-rule="nonzero">
<path style=" stroke:none;fill-rule:evenodd;fill:rgb(29.019608%,63.529412%,46.27451%);fill-opacity:1;" d="M 4.617188 11.550781 L 1.8125 14.289062 L 3.414062 14.289062 C 3.816406 17.03125 5.820312 18.207031 7.824219 18.597656 C 6.421875 17.617188 5.78125 16.246094 5.78125 14.289062 L 7.425781 14.289062 L 4.617188 11.550781 "/>
</g>
</g>
</svg>
