<?xml version="1.0" encoding="UTF-8"?>
<svg xmlns="http://www.w3.org/2000/svg" xmlns:xlink="http://www.w3.org/1999/xlink" width="24px" height="24px" viewBox="0 0 24 24" version="1.1">
<defs>
<clipPath id="clip1">
  <path d="M 1.125 4.800781 L 22.609375 4.800781 L 22.609375 20.320312 L 1.125 20.320312 Z M 1.125 4.800781 "/>
</clipPath>
</defs>
<g id="surface1">
<g clip-path="url(#clip1)" clip-rule="nonzero">
<path style=" stroke:none;fill-rule:nonzero;fill:rgb(29.019608%,63.529412%,46.27451%);fill-opacity:1;" d="M 8.132812 11.054688 C 5.898438 5.617188 13.679688 2.332031 15.820312 7.796875 C 17.488281 12.945312 10.457031 15.914062 8.132812 11.054688 Z M 17.804688 13.5 C 22.289062 13.300781 21.714844 6.503906 17.261719 7.109375 C 17.449219 7.605469 17.570312 8.121094 17.621094 8.652344 C 17.675781 9.183594 17.660156 9.710938 17.570312 10.238281 C 17.488281 10.765625 17.335938 11.269531 17.117188 11.753906 C 16.898438 12.238281 16.617188 12.683594 16.28125 13.089844 C 16.753906 13.367188 17.257812 13.5 17.804688 13.5 Z M 6.007812 13.5 C 6.554688 13.5 7.058594 13.367188 7.53125 13.089844 C 7.195312 12.683594 6.914062 12.238281 6.695312 11.753906 C 6.476562 11.269531 6.324219 10.765625 6.242188 10.238281 C 6.152344 9.710938 6.136719 9.183594 6.191406 8.652344 C 6.242188 8.121094 6.363281 7.605469 6.550781 7.109375 C 2.09375 6.503906 1.527344 13.304688 6.007812 13.5 Z M 15.230469 15.152344 C 14.355469 15.15625 12.101562 15.148438 11.261719 15.152344 L 8.582031 15.152344 C 8.363281 15.148438 8.144531 15.171875 7.929688 15.214844 C 7.714844 15.257812 7.507812 15.324219 7.304688 15.414062 C 7.101562 15.496094 6.914062 15.601562 6.730469 15.726562 C 6.546875 15.851562 6.382812 15.992188 6.226562 16.152344 C 6.070312 16.308594 5.929688 16.484375 5.808594 16.671875 C 5.6875 16.855469 5.585938 17.054688 5.503906 17.261719 C 5.417969 17.46875 5.351562 17.683594 5.3125 17.902344 C 5.269531 18.125 5.246094 18.347656 5.246094 18.570312 L 5.246094 20.289062 L 18.574219 20.289062 L 18.566406 18.570312 C 18.566406 18.347656 18.542969 18.125 18.5 17.902344 C 18.460938 17.683594 18.394531 17.46875 18.308594 17.261719 C 18.226562 17.054688 18.125 16.855469 18.003906 16.671875 C 17.882812 16.484375 17.742188 16.308594 17.585938 16.152344 C 17.429688 15.992188 17.265625 15.851562 17.082031 15.726562 C 16.898438 15.601562 16.710938 15.496094 16.507812 15.414062 C 16.304688 15.324219 16.097656 15.257812 15.882812 15.214844 C 15.667969 15.171875 15.449219 15.148438 15.230469 15.152344 Z M 22.539062 18.570312 C 22.535156 18.332031 22.507812 18.09375 22.460938 17.859375 C 22.410156 17.621094 22.335938 17.398438 22.242188 17.175781 C 22.144531 16.957031 22.023438 16.75 21.886719 16.554688 C 21.75 16.359375 21.59375 16.183594 21.417969 16.023438 C 21.246094 15.863281 21.054688 15.722656 20.855469 15.601562 C 20.652344 15.476562 20.441406 15.382812 20.21875 15.304688 C 19.992188 15.230469 19.769531 15.179688 19.535156 15.15625 C 19.304688 15.128906 19.070312 15.128906 18.835938 15.152344 C 19.257812 15.617188 19.585938 16.140625 19.808594 16.730469 C 20.039062 17.324219 20.148438 17.9375 20.148438 18.570312 L 20.164062 20.289062 L 22.542969 20.289062 Z M 1.273438 18.570312 L 1.269531 20.289062 L 3.65625 20.289062 L 3.65625 18.570312 C 3.65625 17.9375 3.769531 17.320312 3.996094 16.730469 C 4.226562 16.140625 4.554688 15.617188 4.976562 15.152344 C 4.742188 15.128906 4.507812 15.128906 4.277344 15.15625 C 4.042969 15.179688 3.820312 15.230469 3.59375 15.304688 C 3.371094 15.382812 3.160156 15.476562 2.957031 15.601562 C 2.757812 15.722656 2.566406 15.863281 2.394531 16.023438 C 2.21875 16.183594 2.0625 16.359375 1.925781 16.554688 C 1.789062 16.75 1.667969 16.957031 1.570312 17.175781 C 1.476562 17.398438 1.402344 17.621094 1.351562 17.859375 C 1.304688 18.09375 1.277344 18.332031 1.273438 18.570312 Z M 1.273438 18.570312 "/>
</g>
</g>
</svg>
