<svg xmlns="http://www.w3.org/2000/svg" xmlns:xlink="http://www.w3.org/1999/xlink" width="40" zoomAndPan="magnify" viewBox="0 0 30 30.000001" height="40" preserveAspectRatio="xMidYMid meet" version="1.0"><defs><clipPath id="be6b2fe820"><path d="M 5 2.902344 L 15 2.902344 L 15 13 L 5 13 Z M 5 2.902344 " clip-rule="nonzero"/></clipPath><clipPath id="915218e2b0"><path d="M 2.90625 11 L 12 11 L 12 18 L 2.90625 18 Z M 2.90625 11 " clip-rule="nonzero"/></clipPath><clipPath id="0f5689ddee"><path d="M 10 16 L 26.855469 16 L 26.855469 26.128906 L 10 26.128906 Z M 10 16 " clip-rule="nonzero"/></clipPath><clipPath id="ae252b3ff5"><path d="M 3 15 L 12 15 L 12 26.128906 L 3 26.128906 Z M 3 15 " clip-rule="nonzero"/></clipPath></defs><g clip-path="url(#be6b2fe820)"><path fill="#ffffff" d="M 10.917969 12.191406 C 10.875 12.195312 10.816406 12.199219 10.734375 12.203125 C 10.648438 12.203125 10.585938 12.207031 10.550781 12.207031 C 9.269531 12.207031 8.113281 11.683594 7.273438 10.84375 C 6.433594 10 5.910156 8.835938 5.910156 7.554688 C 5.910156 6.273438 6.433594 5.109375 7.273438 4.269531 C 8.113281 3.425781 9.273438 2.902344 10.550781 2.902344 C 11.449219 2.902344 12.289062 3.160156 13 3.605469 C 13.734375 4.066406 14.332031 4.726562 14.714844 5.515625 L 13.828125 5.949219 C 13.527344 5.332031 13.054688 4.8125 12.476562 4.453125 C 11.917969 4.101562 11.257812 3.898438 10.550781 3.898438 C 9.542969 3.898438 8.632812 4.308594 7.972656 4.96875 C 7.316406 5.632812 6.90625 6.546875 6.90625 7.554688 C 6.90625 8.5625 7.316406 9.476562 7.972656 10.136719 C 8.632812 10.800781 9.546875 11.210938 10.550781 11.210938 C 10.625 11.210938 10.671875 11.210938 10.695312 11.207031 C 10.726562 11.207031 10.773438 11.203125 10.839844 11.199219 L 10.917969 12.191406 " fill-opacity="1" fill-rule="nonzero"/></g><g clip-path="url(#915218e2b0)"><path fill="#ffffff" d="M 11.609375 13.886719 C 11.40625 13.9375 11.199219 13.976562 10.988281 14.003906 C 10.777344 14.03125 10.570312 14.042969 10.355469 14.042969 C 9.660156 14.042969 8.988281 13.902344 8.367188 13.636719 C 7.820312 13.398438 7.316406 13.0625 6.871094 12.640625 C 6.105469 13.121094 5.46875 13.757812 4.972656 14.519531 C 4.4375 15.351562 4.070312 16.332031 3.902344 17.425781 L 3.886719 17.511719 L 2.910156 17.359375 L 2.921875 17.277344 C 3.109375 16.042969 3.527344 14.929688 4.144531 13.976562 C 4.765625 13.019531 5.585938 12.234375 6.574219 11.660156 L 6.578125 11.65625 L 6.710938 11.582031 L 7.046875 11.390625 L 7.3125 11.671875 L 7.417969 11.78125 C 7.804688 12.1875 8.261719 12.503906 8.761719 12.71875 C 9.257812 12.933594 9.796875 13.046875 10.355469 13.046875 C 10.53125 13.046875 10.699219 13.035156 10.867188 13.015625 C 11.035156 12.992188 11.199219 12.960938 11.363281 12.921875 L 11.609375 13.886719 " fill-opacity="1" fill-rule="nonzero"/></g><path fill="#ffffff" d="M 17.515625 17.476562 C 15.929688 17.476562 14.492188 16.828125 13.449219 15.785156 C 12.40625 14.742188 11.761719 13.300781 11.761719 11.710938 C 11.761719 10.121094 12.40625 8.679688 13.449219 7.632812 C 14.492188 6.585938 15.929688 5.941406 17.515625 5.941406 C 19.101562 5.941406 20.539062 6.585938 21.578125 7.632812 C 22.621094 8.675781 23.265625 10.117188 23.265625 11.707031 C 23.265625 13.296875 22.621094 14.738281 21.578125 15.78125 C 20.535156 16.828125 19.097656 17.476562 17.515625 17.476562 Z M 14.152344 15.082031 C 15.011719 15.945312 16.203125 16.480469 17.515625 16.480469 C 18.828125 16.480469 20.015625 15.945312 20.875 15.082031 C 21.738281 14.21875 22.273438 13.023438 22.273438 11.707031 C 22.273438 10.390625 21.738281 9.199219 20.878906 8.335938 C 20.015625 7.472656 18.824219 6.9375 17.515625 6.9375 C 16.203125 6.9375 15.011719 7.472656 14.152344 8.335938 C 13.289062 9.199219 12.757812 10.390625 12.757812 11.710938 C 12.757812 13.023438 13.289062 14.21875 14.152344 15.082031 " fill-opacity="1" fill-rule="nonzero"/><g clip-path="url(#0f5689ddee)"><path fill="#ffffff" d="M 13.292969 25.132812 L 25.792969 25.132812 C 25.800781 23.597656 25.523438 22.179688 24.882812 20.941406 C 24.261719 19.730469 23.292969 18.683594 21.917969 17.851562 C 21.347656 18.414062 20.695312 18.851562 19.984375 19.160156 C 19.214844 19.492188 18.378906 19.664062 17.515625 19.664062 C 16.652344 19.664062 15.816406 19.492188 15.042969 19.160156 C 14.335938 18.851562 13.679688 18.414062 13.113281 17.851562 C 12.851562 18.007812 12.605469 18.171875 12.375 18.34375 C 12.09375 18.554688 11.832031 18.777344 11.589844 19.011719 L 10.902344 18.292969 C 11.171875 18.035156 11.464844 17.785156 11.785156 17.546875 C 12.097656 17.316406 12.429688 17.09375 12.78125 16.890625 L 12.785156 16.886719 L 12.953125 16.792969 L 13.289062 16.601562 L 13.558594 16.882812 L 13.6875 17.019531 C 14.195312 17.550781 14.785156 17.964844 15.4375 18.242188 C 16.082031 18.523438 16.785156 18.667969 17.515625 18.667969 C 18.242188 18.667969 18.945312 18.523438 19.59375 18.242188 C 20.242188 17.964844 20.835938 17.550781 21.339844 17.019531 L 21.34375 17.015625 L 21.476562 16.878906 L 21.746094 16.601562 L 22.082031 16.792969 L 22.246094 16.890625 C 23.886719 17.839844 25.03125 19.0625 25.765625 20.484375 C 26.550781 22.015625 26.855469 23.765625 26.769531 25.652344 L 26.746094 26.128906 L 13.292969 26.128906 L 13.292969 25.132812 " fill-opacity="1" fill-rule="nonzero"/></g><g clip-path="url(#ae252b3ff5)"><path fill="#ffffff" d="M 7.457031 17.355469 L 5.054688 19.65625 L 6.324219 19.65625 L 6.386719 20.082031 C 6.601562 21.535156 7.207031 22.605469 8.019531 23.386719 C 8.523438 23.867188 9.105469 24.242188 9.734375 24.527344 C 9.511719 24.230469 9.320312 23.914062 9.160156 23.574219 C 8.6875 22.601562 8.464844 21.472656 8.464844 20.152344 L 8.464844 19.65625 L 9.851562 19.65625 Z M 3.476562 19.792969 L 7.113281 16.308594 L 7.457031 15.980469 L 7.796875 16.308594 L 11.433594 19.792969 L 11.089844 20.652344 L 9.472656 20.652344 C 9.519531 21.605469 9.707031 22.433594 10.050781 23.144531 C 10.445312 23.964844 11.054688 24.648438 11.890625 25.21875 L 11.515625 26.121094 C 10.007812 25.828125 8.496094 25.21875 7.335938 24.109375 C 6.453125 23.261719 5.78125 22.132812 5.480469 20.652344 L 3.816406 20.652344 L 3.476562 19.792969 " fill-opacity="1" fill-rule="nonzero"/></g></svg>