<svg xmlns="http://www.w3.org/2000/svg" xmlns:xlink="http://www.w3.org/1999/xlink" width="40" zoomAndPan="magnify" viewBox="0 0 30 30.000001" height="40" preserveAspectRatio="xMidYMid meet" version="1.0"><defs><clipPath id="150293f0b4"><path d="M 6 3.496094 L 15 3.496094 L 15 13 L 6 13 Z M 6 3.496094 " clip-rule="nonzero"/></clipPath><clipPath id="e7b94ed432"><path d="M 3.613281 11 L 12 11 L 12 18 L 3.613281 18 Z M 3.613281 11 " clip-rule="nonzero"/></clipPath><clipPath id="70634ac1cc"><path d="M 11 16 L 26.113281 16 L 26.113281 25.273438 L 11 25.273438 Z M 11 16 " clip-rule="nonzero"/></clipPath><clipPath id="39d4933980"><path d="M 4 15 L 13 15 L 13 25.273438 L 4 25.273438 Z M 4 15 " clip-rule="nonzero"/></clipPath></defs><g clip-path="url(#150293f0b4)"><path fill="#ffffff" d="M 11.136719 12.207031 C 11.097656 12.207031 11.042969 12.210938 10.964844 12.214844 C 10.882812 12.21875 10.824219 12.21875 10.792969 12.21875 C 9.589844 12.21875 8.5 11.730469 7.710938 10.941406 C 6.921875 10.152344 6.433594 9.0625 6.433594 7.859375 C 6.433594 6.65625 6.921875 5.566406 7.710938 4.777344 C 8.5 3.988281 9.589844 3.496094 10.792969 3.496094 C 11.636719 3.496094 12.425781 3.738281 13.09375 4.15625 C 13.785156 4.589844 14.347656 5.210938 14.707031 5.945312 L 13.871094 6.355469 C 13.589844 5.777344 13.148438 5.289062 12.601562 4.949219 C 12.078125 4.621094 11.457031 4.433594 10.792969 4.433594 C 9.847656 4.433594 8.992188 4.816406 8.371094 5.433594 C 7.75 6.054688 7.367188 6.914062 7.367188 7.859375 C 7.367188 8.804688 7.75 9.660156 8.371094 10.28125 C 8.992188 10.902344 9.847656 11.285156 10.792969 11.285156 C 10.863281 11.285156 10.910156 11.285156 10.929688 11.285156 C 10.957031 11.285156 11 11.28125 11.066406 11.277344 L 11.136719 12.207031 " fill-opacity="1" fill-rule="nonzero"/></g><g clip-path="url(#e7b94ed432)"><path fill="#ffffff" d="M 11.785156 13.792969 C 11.597656 13.84375 11.402344 13.878906 11.203125 13.90625 C 11.007812 13.929688 10.808594 13.941406 10.609375 13.941406 C 9.957031 13.941406 9.324219 13.808594 8.742188 13.558594 C 8.226562 13.339844 7.753906 13.023438 7.335938 12.625 C 6.617188 13.078125 6.015625 13.675781 5.550781 14.386719 C 5.046875 15.167969 4.703125 16.085938 4.546875 17.109375 L 4.542969 17.113281 L 4.53125 17.191406 L 3.613281 17.050781 L 3.625 16.972656 L 3.621094 16.972656 C 3.800781 15.816406 4.191406 14.773438 4.769531 13.882812 C 5.355469 12.984375 6.125 12.246094 7.054688 11.707031 L 7.058594 11.703125 L 7.183594 11.632812 L 7.5 11.453125 L 7.75 11.71875 L 7.847656 11.820312 C 8.214844 12.203125 8.640625 12.5 9.109375 12.699219 C 9.578125 12.902344 10.085938 13.007812 10.609375 13.007812 C 10.773438 13.007812 10.933594 12.996094 11.089844 12.976562 C 11.246094 12.957031 11.402344 12.929688 11.554688 12.890625 L 11.785156 13.792969 " fill-opacity="1" fill-rule="nonzero"/></g><path fill="#ffffff" d="M 17.335938 17.160156 C 15.847656 17.160156 14.496094 16.554688 13.515625 15.574219 C 12.539062 14.597656 11.933594 13.246094 11.933594 11.753906 C 11.933594 10.261719 12.539062 8.914062 13.515625 7.933594 C 14.496094 6.953125 15.847656 6.34375 17.335938 6.34375 C 18.828125 6.34375 20.179688 6.953125 21.15625 7.929688 C 22.136719 8.910156 22.742188 10.261719 22.742188 11.75 C 22.742188 13.242188 22.136719 14.59375 21.15625 15.570312 C 20.175781 16.550781 18.824219 17.160156 17.335938 17.160156 Z M 14.175781 14.914062 C 14.988281 15.722656 16.105469 16.226562 17.335938 16.226562 C 18.570312 16.226562 19.6875 15.722656 20.496094 14.914062 C 21.308594 14.105469 21.808594 12.984375 21.808594 11.75 C 21.808594 10.519531 21.308594 9.402344 20.496094 8.589844 C 19.6875 7.78125 18.570312 7.28125 17.335938 7.28125 C 16.101562 7.28125 14.984375 7.78125 14.175781 8.589844 C 13.367188 9.398438 12.867188 10.519531 12.867188 11.753906 C 12.867188 12.988281 13.367188 14.105469 14.175781 14.914062 " fill-opacity="1" fill-rule="nonzero"/><g clip-path="url(#70634ac1cc)"><path fill="#ffffff" d="M 13.371094 24.335938 L 25.113281 24.335938 C 25.125 22.898438 24.863281 21.570312 24.261719 20.410156 C 23.679688 19.273438 22.769531 18.292969 21.476562 17.511719 C 20.941406 18.039062 20.324219 18.449219 19.660156 18.738281 C 18.933594 19.046875 18.148438 19.210938 17.335938 19.210938 C 16.523438 19.210938 15.738281 19.046875 15.015625 18.738281 C 14.347656 18.449219 13.734375 18.039062 13.199219 17.511719 C 12.953125 17.660156 12.722656 17.8125 12.507812 17.972656 C 12.242188 18.171875 11.996094 18.378906 11.769531 18.597656 L 11.121094 17.925781 C 11.375 17.683594 11.652344 17.449219 11.953125 17.226562 C 12.246094 17.007812 12.558594 16.804688 12.890625 16.609375 L 12.894531 16.609375 L 13.050781 16.519531 L 13.367188 16.339844 L 13.617188 16.601562 L 13.742188 16.734375 C 14.214844 17.230469 14.773438 17.617188 15.382812 17.878906 C 15.992188 18.140625 16.652344 18.277344 17.335938 18.277344 C 18.023438 18.277344 18.683594 18.140625 19.289062 17.878906 C 19.898438 17.617188 20.457031 17.230469 20.933594 16.734375 L 20.9375 16.730469 L 21.0625 16.597656 L 21.316406 16.339844 L 21.785156 16.609375 C 23.324219 17.5 24.402344 18.648438 25.089844 19.980469 C 25.832031 21.414062 26.113281 23.054688 26.035156 24.824219 L 26.011719 25.273438 L 13.371094 25.273438 L 13.371094 24.335938 " fill-opacity="1" fill-rule="nonzero"/></g><g clip-path="url(#39d4933980)"><path fill="#ffffff" d="M 7.882812 17.046875 L 5.628906 19.203125 L 6.820312 19.203125 L 6.878906 19.601562 C 7.082031 20.964844 7.648438 21.96875 8.414062 22.703125 C 8.886719 23.152344 9.433594 23.503906 10.023438 23.769531 C 9.816406 23.492188 9.636719 23.195312 9.484375 22.878906 C 9.042969 21.964844 8.832031 20.90625 8.832031 19.667969 L 8.832031 19.203125 L 10.136719 19.203125 Z M 4.144531 19.332031 L 7.5625 16.066406 L 7.882812 15.757812 L 8.207031 16.066406 L 11.621094 19.332031 L 11.300781 20.136719 L 9.777344 20.136719 C 9.824219 21.03125 10 21.804688 10.324219 22.472656 C 10.695312 23.242188 11.265625 23.882812 12.050781 24.417969 L 11.703125 25.261719 C 10.285156 24.992188 8.863281 24.417969 7.773438 23.375 C 6.941406 22.582031 6.3125 21.527344 6.027344 20.136719 L 4.464844 20.136719 L 4.144531 19.332031 " fill-opacity="1" fill-rule="nonzero"/></g></svg>