<?xml version="1.0" encoding="UTF-8"?>
<svg xmlns="http://www.w3.org/2000/svg" xmlns:xlink="http://www.w3.org/1999/xlink" width="20px" height="20px" viewBox="0 0 20 20" version="1.1">
<defs>
<clipPath id="clip1">
  <path d="M 2 1.421875 L 17.964844 1.421875 L 17.964844 17.871094 L 2 17.871094 Z M 2 1.421875 "/>
</clipPath>
</defs>
<g id="surface1">
<g clip-path="url(#clip1)" clip-rule="nonzero">
<path style=" stroke:none;fill-rule:evenodd;fill:rgb(100%,100%,100%);fill-opacity:1;" d="M 14.28125 16.121094 L 14.28125 16.84375 C 14.28125 17.410156 14.746094 17.871094 15.3125 17.871094 C 15.878906 17.871094 16.339844 17.410156 16.339844 16.84375 L 16.339844 13.867188 C 16.339844 13.863281 16.339844 13.859375 16.339844 13.855469 C 16.339844 13.566406 16.214844 13.28125 15.972656 13.082031 C 15.785156 12.917969 15.550781 12.839844 15.320312 12.839844 C 15.316406 12.839844 15.316406 12.839844 15.3125 12.839844 L 12.332031 12.839844 C 11.761719 12.839844 11.300781 13.300781 11.300781 13.867188 C 11.300781 14.394531 11.699219 14.828125 12.210938 14.886719 C 11.523438 15.167969 10.773438 15.320312 9.984375 15.320312 C 6.714844 15.320312 4.058594 12.667969 4.058594 9.402344 C 4.058594 8.832031 3.597656 8.371094 3.03125 8.371094 C 2.460938 8.371094 2 8.832031 2 9.402344 C 2 13.800781 5.578125 17.375 9.984375 17.375 C 11.566406 17.375 13.042969 16.914062 14.28125 16.121094 Z M 3.628906 5.441406 C 3.632812 5.730469 3.757812 6.019531 3.996094 6.21875 C 4.1875 6.378906 4.417969 6.457031 4.648438 6.460938 C 4.652344 6.460938 4.65625 6.460938 4.660156 6.460938 L 7.640625 6.460938 C 8.207031 6.460938 8.667969 6 8.667969 5.433594 C 8.667969 4.90625 8.269531 4.472656 7.761719 4.410156 C 8.449219 4.132812 9.199219 3.980469 9.984375 3.980469 C 13.253906 3.980469 15.910156 6.628906 15.910156 9.898438 C 15.910156 10.464844 16.371094 10.925781 16.941406 10.925781 C 17.507812 10.925781 17.96875 10.464844 17.96875 9.898438 C 17.96875 5.496094 14.394531 1.925781 9.984375 1.925781 C 8.402344 1.925781 6.929688 2.382812 5.6875 3.175781 L 5.6875 2.457031 C 5.6875 1.886719 5.226562 1.425781 4.660156 1.425781 C 4.089844 1.425781 3.628906 1.886719 3.628906 2.457031 L 3.628906 5.433594 C 3.628906 5.433594 3.628906 5.441406 3.628906 5.441406 Z M 3.628906 5.441406 "/>
</g>
</g>
</svg>
