<?xml version="1.0" encoding="UTF-8"?>
<svg xmlns="http://www.w3.org/2000/svg" xmlns:xlink="http://www.w3.org/1999/xlink" width="24px" height="24px" viewBox="0 0 24 24" version="1.1">
<defs>
<clipPath id="clip1">
  <path d="M 1.933594 1.546875 L 22.257812 1.546875 L 22.257812 21.867188 L 1.933594 21.867188 Z M 1.933594 1.546875 "/>
</clipPath>
</defs>
<g id="surface1">
<g clip-path="url(#clip1)" clip-rule="nonzero">
<path style=" stroke:none;fill-rule:nonzero;fill:rgb(29.019608%,63.529412%,46.27451%);fill-opacity:1;" d="M 21.925781 21.867188 L 2.261719 21.867188 C 2.085938 21.867188 1.941406 21.722656 1.941406 21.542969 L 1.941406 19.710938 C 1.941406 16.652344 4.429688 14.164062 7.484375 14.164062 L 16.707031 14.164062 C 19.761719 14.164062 22.25 16.652344 22.25 19.710938 L 22.25 21.542969 C 22.25 21.722656 22.101562 21.867188 21.925781 21.867188 Z M 12.09375 13.300781 C 8.855469 13.300781 6.21875 10.664062 6.21875 7.421875 C 6.21875 4.179688 8.855469 1.546875 12.09375 1.546875 C 15.335938 1.546875 17.972656 4.179688 17.972656 7.421875 C 17.972656 10.664062 15.335938 13.300781 12.09375 13.300781 Z M 12.09375 13.300781 "/>
</g>
</g>
</svg>
