<?xml version="1.0" encoding="UTF-8"?>
<svg xmlns="http://www.w3.org/2000/svg" xmlns:xlink="http://www.w3.org/1999/xlink" width="21px" height="21px" viewBox="0 0 21 21" version="1.1">
<defs>
<clipPath id="clip1">
  <path d="M 6.4375 10.5 L 10 10.5 L 10 14.261719 L 6.4375 14.261719 Z M 6.4375 10.5 "/>
</clipPath>
<clipPath id="clip2">
  <path d="M 8.398438 6.132812 L 14.5625 6.132812 L 14.5625 12.601562 L 8.398438 12.601562 Z M 8.398438 6.132812 "/>
</clipPath>
<clipPath id="clip3">
  <path d="M 1.316406 1.304688 L 16.800781 1.304688 L 16.800781 16.800781 L 1.316406 16.800781 Z M 1.316406 1.304688 "/>
</clipPath>
<clipPath id="clip4">
  <path d="M 9.101562 9 L 19.609375 9 L 19.609375 19.089844 L 9.101562 19.089844 Z M 9.101562 9 "/>
</clipPath>
</defs>
<g id="surface1">
<g clip-path="url(#clip1)" clip-rule="nonzero">
<path style=" stroke:none;fill-rule:nonzero;fill:rgb(0.392157%,0.392157%,0.392157%);fill-opacity:1;" d="M 9.761719 12.738281 L 9.578125 12.671875 C 9.589844 12.539062 9.582031 12.398438 9.566406 12.265625 L 9.742188 12.1875 C 9.855469 12.136719 9.902344 12 9.847656 11.894531 L 9.742188 11.671875 C 9.691406 11.554688 9.558594 11.507812 9.453125 11.5625 L 9.273438 11.644531 C 9.191406 11.535156 9.089844 11.441406 8.976562 11.363281 L 9.046875 11.179688 C 9.082031 11.0625 9.023438 10.933594 8.910156 10.890625 L 8.683594 10.804688 C 8.570312 10.765625 8.4375 10.824219 8.398438 10.9375 L 8.332031 11.125 C 8.199219 11.109375 8.0625 11.117188 7.929688 11.136719 L 7.84375 10.949219 C 7.792969 10.839844 7.660156 10.792969 7.554688 10.84375 L 7.332031 10.949219 C 7.21875 11.003906 7.171875 11.136719 7.222656 11.242188 L 7.304688 11.425781 C 7.199219 11.507812 7.105469 11.609375 7.027344 11.722656 L 6.84375 11.65625 C 6.730469 11.617188 6.601562 11.675781 6.558594 11.789062 L 6.476562 12.019531 C 6.457031 12.074219 6.457031 12.136719 6.480469 12.195312 C 6.507812 12.246094 6.546875 12.289062 6.605469 12.308594 L 6.789062 12.371094 C 6.777344 12.507812 6.785156 12.644531 6.804688 12.78125 L 6.625 12.859375 C 6.511719 12.910156 6.464844 13.046875 6.519531 13.152344 L 6.625 13.375 C 6.679688 13.492188 6.8125 13.539062 6.914062 13.484375 L 7.09375 13.402344 C 7.179688 13.511719 7.277344 13.601562 7.390625 13.683594 L 7.324219 13.867188 C 7.304688 13.921875 7.304688 13.980469 7.332031 14.039062 C 7.359375 14.09375 7.394531 14.132812 7.457031 14.15625 L 7.6875 14.242188 C 7.738281 14.261719 7.796875 14.261719 7.859375 14.234375 C 7.910156 14.207031 7.953125 14.167969 7.972656 14.109375 L 8.035156 13.921875 C 8.167969 13.933594 8.308594 13.929688 8.4375 13.910156 L 8.519531 14.085938 C 8.570312 14.203125 8.699219 14.25 8.808594 14.195312 L 9.03125 14.085938 C 9.144531 14.035156 9.191406 13.902344 9.136719 13.792969 L 9.054688 13.617188 C 9.164062 13.53125 9.253906 13.429688 9.335938 13.316406 L 9.519531 13.382812 C 9.570312 13.402344 9.636719 13.402344 9.691406 13.375 C 9.742188 13.351562 9.78125 13.3125 9.800781 13.25 L 9.886719 13.019531 C 9.933594 12.910156 9.875 12.785156 9.761719 12.738281 Z M 8.550781 13.324219 C 8.429688 13.375 8.3125 13.402344 8.1875 13.402344 C 7.84375 13.402344 7.535156 13.203125 7.394531 12.890625 C 7.191406 12.453125 7.390625 11.925781 7.824219 11.722656 C 7.941406 11.671875 8.0625 11.644531 8.1875 11.644531 C 8.53125 11.644531 8.839844 11.84375 8.976562 12.152344 C 9.175781 12.601562 8.984375 13.117188 8.550781 13.324219 Z M 8.550781 13.324219 "/>
</g>
<g clip-path="url(#clip2)" clip-rule="nonzero">
<path style=" stroke:none;fill-rule:nonzero;fill:rgb(0.392157%,0.392157%,0.392157%);fill-opacity:1;" d="M 14.253906 9.464844 L 13.945312 9.347656 C 13.972656 9.125 13.957031 8.890625 13.921875 8.664062 L 14.214844 8.527344 C 14.398438 8.4375 14.488281 8.21875 14.398438 8.023438 L 14.230469 7.648438 C 14.140625 7.460938 13.925781 7.375 13.734375 7.460938 L 13.441406 7.601562 C 13.292969 7.421875 13.121094 7.261719 12.9375 7.136719 L 13.046875 6.820312 C 13.121094 6.628906 13.023438 6.410156 12.832031 6.34375 L 12.445312 6.199219 C 12.257812 6.132812 12.035156 6.230469 11.96875 6.417969 L 11.855469 6.730469 C 11.632812 6.703125 11.402344 6.71875 11.179688 6.757812 L 11.042969 6.457031 C 10.953125 6.273438 10.738281 6.183594 10.546875 6.273438 L 10.171875 6.445312 C 9.984375 6.53125 9.902344 6.75 9.984375 6.941406 L 10.125 7.242188 C 9.949219 7.386719 9.789062 7.558594 9.664062 7.746094 L 9.355469 7.632812 C 9.167969 7.570312 8.945312 7.667969 8.878906 7.851562 L 8.734375 8.246094 C 8.699219 8.339844 8.699219 8.4375 8.746094 8.53125 C 8.789062 8.625 8.863281 8.691406 8.957031 8.726562 L 9.265625 8.835938 C 9.242188 9.0625 9.246094 9.296875 9.292969 9.519531 L 9 9.660156 C 8.8125 9.746094 8.726562 9.964844 8.8125 10.160156 L 8.984375 10.539062 C 9.070312 10.722656 9.289062 10.8125 9.480469 10.722656 L 9.777344 10.585938 C 9.921875 10.765625 10.09375 10.921875 10.277344 11.050781 L 10.164062 11.363281 C 10.128906 11.457031 10.128906 11.554688 10.175781 11.648438 C 10.214844 11.742188 10.292969 11.808594 10.386719 11.84375 L 10.777344 11.988281 C 10.871094 12.019531 10.96875 12.019531 11.058594 11.972656 C 11.152344 11.933594 11.21875 11.855469 11.253906 11.761719 L 11.363281 11.449219 C 11.589844 11.476562 11.816406 11.46875 12.042969 11.425781 L 12.179688 11.722656 C 12.265625 11.90625 12.480469 11.996094 12.675781 11.90625 L 13.046875 11.734375 C 13.234375 11.648438 13.320312 11.429688 13.234375 11.238281 L 13.09375 10.9375 C 13.273438 10.792969 13.429688 10.617188 13.558594 10.429688 L 13.867188 10.546875 C 13.957031 10.578125 14.058594 10.578125 14.152344 10.53125 C 14.242188 10.492188 14.308594 10.414062 14.339844 10.320312 L 14.488281 9.929688 C 14.542969 9.746094 14.445312 9.535156 14.253906 9.464844 Z M 12.21875 10.441406 C 12.027344 10.53125 11.816406 10.570312 11.605469 10.570312 C 11.035156 10.570312 10.511719 10.234375 10.277344 9.714844 C 9.933594 8.976562 10.257812 8.09375 10.988281 7.753906 C 11.179688 7.660156 11.386719 7.621094 11.597656 7.621094 C 12.171875 7.621094 12.691406 7.960938 12.929688 8.480469 C 13.273438 9.21875 12.949219 10.101562 12.21875 10.441406 Z M 12.21875 10.441406 "/>
</g>
<g clip-path="url(#clip3)" clip-rule="nonzero">
<path style=" stroke:none;fill-rule:nonzero;fill:rgb(100%,100%,100%);fill-opacity:1;" d="M 15.917969 6.949219 L 14.394531 6.949219 C 14.230469 6.949219 14.082031 6.851562 14.019531 6.699219 C 14.019531 6.695312 14.015625 6.695312 14.015625 6.695312 C 13.953125 6.539062 13.988281 6.367188 14.105469 6.246094 L 15.179688 5.164062 C 15.339844 5.003906 15.339844 4.746094 15.179688 4.585938 L 13.066406 2.457031 C 12.910156 2.296875 12.652344 2.296875 12.496094 2.457031 L 11.417969 3.542969 C 11.300781 3.660156 11.125 3.691406 10.976562 3.628906 C 10.972656 3.628906 10.972656 3.628906 10.96875 3.625 C 10.816406 3.5625 10.71875 3.414062 10.71875 3.25 L 10.71875 1.714844 C 10.71875 1.488281 10.539062 1.308594 10.3125 1.308594 L 7.324219 1.308594 C 7.105469 1.308594 6.921875 1.488281 6.921875 1.714844 L 6.921875 3.25 C 6.921875 3.414062 6.824219 3.5625 6.667969 3.625 C 6.667969 3.628906 6.667969 3.628906 6.667969 3.628906 C 6.511719 3.691406 6.339844 3.660156 6.222656 3.542969 L 5.144531 2.457031 C 4.988281 2.296875 4.730469 2.296875 4.570312 2.457031 L 2.460938 4.585938 C 2.300781 4.746094 2.300781 5.003906 2.460938 5.164062 L 3.535156 6.246094 C 3.652344 6.367188 3.6875 6.539062 3.625 6.695312 C 3.625 6.695312 3.625 6.695312 3.625 6.699219 C 3.558594 6.851562 3.414062 6.949219 3.25 6.949219 L 1.726562 6.949219 C 1.5 6.949219 1.320312 7.132812 1.320312 7.359375 L 1.320312 10.371094 C 1.320312 10.597656 1.5 10.777344 1.726562 10.777344 L 3.25 10.777344 C 3.414062 10.777344 3.558594 10.878906 3.625 11.03125 C 3.625 11.035156 3.625 11.035156 3.625 11.039062 C 3.6875 11.191406 3.652344 11.367188 3.535156 11.484375 L 2.460938 12.570312 C 2.300781 12.726562 2.300781 12.988281 2.460938 13.148438 L 4.570312 15.277344 C 4.730469 15.433594 4.988281 15.433594 5.144531 15.277344 L 6.222656 14.191406 C 6.339844 14.074219 6.511719 14.039062 6.667969 14.105469 C 6.824219 14.167969 6.921875 14.316406 6.921875 14.484375 L 6.921875 16.019531 C 6.921875 16.246094 7.105469 16.425781 7.324219 16.425781 L 9.472656 16.425781 C 9.605469 16.425781 9.726562 16.355469 9.792969 16.242188 C 9.832031 16.179688 9.875 16.121094 9.929688 16.066406 C 9.964844 16.027344 9.941406 15.964844 9.886719 15.964844 C 9.390625 15.964844 8.984375 15.554688 8.984375 15.054688 L 8.984375 13.046875 C 8.984375 13.019531 8.964844 13 8.9375 13 C 8.898438 13 8.859375 13 8.820312 13 C 6.558594 13 4.71875 11.152344 4.71875 8.867188 C 4.71875 6.585938 6.558594 4.734375 8.820312 4.734375 C 10.792969 4.734375 12.441406 6.136719 12.832031 8.007812 C 12.890625 8.28125 13.15625 8.457031 13.429688 8.398438 C 13.492188 8.386719 13.554688 8.378906 13.617188 8.378906 L 15.609375 8.378906 C 15.65625 8.378906 15.699219 8.378906 15.746094 8.390625 C 16.046875 8.433594 16.320312 8.199219 16.320312 7.886719 L 16.320312 7.359375 C 16.320312 7.132812 16.136719 6.949219 15.917969 6.949219 "/>
</g>
<g clip-path="url(#clip4)" clip-rule="nonzero">
<path style=" stroke:none;fill-rule:nonzero;fill:rgb(29.019608%,63.529412%,46.27451%);fill-opacity:1;" d="M 14.613281 16.804688 C 13.105469 16.804688 11.878906 15.570312 11.878906 14.050781 C 11.878906 12.53125 13.105469 11.296875 14.613281 11.296875 C 16.121094 11.296875 17.34375 12.53125 17.34375 14.050781 C 17.34375 15.570312 16.121094 16.804688 14.613281 16.804688 Z M 19.339844 12.777344 L 18.324219 12.777344 C 18.214844 12.777344 18.117188 12.710938 18.078125 12.609375 L 18.074219 12.605469 C 18.03125 12.503906 18.054688 12.386719 18.132812 12.308594 L 18.851562 11.585938 C 18.953125 11.480469 18.953125 11.304688 18.851562 11.199219 L 17.441406 9.78125 C 17.335938 9.675781 17.167969 9.675781 17.0625 9.78125 L 16.34375 10.503906 C 16.265625 10.582031 16.148438 10.605469 16.046875 10.5625 C 15.945312 10.519531 15.878906 10.421875 15.878906 10.3125 L 15.878906 9.289062 C 15.878906 9.136719 15.757812 9.015625 15.609375 9.015625 L 13.617188 9.015625 C 13.46875 9.015625 13.347656 9.136719 13.347656 9.289062 L 13.347656 10.3125 C 13.347656 10.421875 13.285156 10.519531 13.183594 10.5625 L 13.175781 10.5625 C 13.074219 10.605469 12.960938 10.582031 12.882812 10.503906 L 12.164062 9.78125 C 12.0625 9.675781 11.890625 9.675781 11.785156 9.78125 L 10.378906 11.199219 C 10.273438 11.304688 10.273438 11.480469 10.378906 11.585938 L 11.09375 12.308594 C 11.171875 12.386719 11.195312 12.503906 11.152344 12.605469 L 11.152344 12.609375 C 11.109375 12.710938 11.011719 12.777344 10.902344 12.777344 L 9.886719 12.777344 C 9.738281 12.777344 9.617188 12.898438 9.617188 13.046875 L 9.617188 15.054688 C 9.617188 15.207031 9.738281 15.324219 9.886719 15.324219 L 10.902344 15.324219 C 11.011719 15.324219 11.109375 15.394531 11.152344 15.496094 L 11.152344 15.5 C 11.195312 15.597656 11.171875 15.71875 11.09375 15.796875 L 10.378906 16.519531 C 10.273438 16.625 10.273438 16.796875 10.378906 16.902344 L 11.785156 18.324219 C 11.890625 18.425781 12.0625 18.425781 12.164062 18.324219 L 12.882812 17.597656 C 12.960938 17.523438 13.074219 17.496094 13.175781 17.539062 L 13.183594 17.539062 C 13.285156 17.585938 13.347656 17.683594 13.347656 17.792969 L 13.347656 18.816406 C 13.347656 18.964844 13.46875 19.089844 13.617188 19.089844 L 15.609375 19.089844 C 15.757812 19.089844 15.878906 18.964844 15.878906 18.816406 L 15.878906 17.792969 C 15.878906 17.683594 15.945312 17.585938 16.046875 17.539062 C 16.148438 17.496094 16.265625 17.523438 16.34375 17.597656 L 17.0625 18.324219 C 17.167969 18.425781 17.335938 18.425781 17.441406 18.324219 L 18.851562 16.902344 C 18.953125 16.796875 18.953125 16.625 18.851562 16.519531 L 18.132812 15.796875 C 18.054688 15.71875 18.03125 15.597656 18.074219 15.5 L 18.078125 15.496094 C 18.117188 15.394531 18.214844 15.324219 18.324219 15.324219 L 19.339844 15.324219 C 19.488281 15.324219 19.609375 15.207031 19.609375 15.054688 L 19.609375 13.046875 C 19.609375 12.898438 19.488281 12.777344 19.339844 12.777344 "/>
</g>
</g>
</svg>
