<?xml version="1.0" encoding="UTF-8"?>
<svg xmlns="http://www.w3.org/2000/svg" xmlns:xlink="http://www.w3.org/1999/xlink" width="30px" height="30px" viewBox="0 0 30 30" version="1.1">
<defs>
<clipPath id="clip1">
  <path d="M 1.816406 1.453125 L 27.945312 1.453125 L 27.945312 27.582031 L 1.816406 27.582031 Z M 1.816406 1.453125 "/>
</clipPath>
</defs>
<g id="surface1">
<g clip-path="url(#clip1)" clip-rule="nonzero">
<path style=" stroke:none;fill-rule:nonzero;fill:rgb(29.019608%,63.529412%,46.27451%);fill-opacity:1;" d="M 27.929688 27.105469 L 27.046875 13.613281 C 27.046875 13.378906 26.859375 13.1875 26.625 13.1875 L 24.578125 13.1875 L 24.578125 12.691406 C 24.578125 11.980469 24.265625 11.335938 23.765625 10.871094 C 23.621094 10.738281 23.460938 10.621094 23.289062 10.519531 L 23.035156 6.636719 C 23.035156 6.402344 22.847656 6.214844 22.613281 6.214844 L 18.964844 6.214844 L 18.964844 5.238281 C 18.964844 4.195312 18.507812 3.25 17.769531 2.566406 C 17.039062 1.890625 16.039062 1.472656 14.9375 1.472656 C 14.355469 1.472656 13.800781 1.589844 13.300781 1.800781 C 12.796875 1.589844 12.242188 1.472656 11.660156 1.472656 C 10.558594 1.472656 9.558594 1.890625 8.828125 2.566406 C 8.09375 3.25 7.632812 4.195312 7.632812 5.238281 L 7.632812 6.214844 L 6.839844 6.214844 C 6.828125 6.214844 6.816406 6.214844 6.804688 6.214844 L 4.238281 6.214844 C 4.023438 6.214844 3.839844 6.378906 3.820312 6.597656 L 1.816406 27.09375 L 1.816406 27.136719 C 1.816406 27.371094 2.007812 27.558594 2.238281 27.558594 L 7.921875 27.492188 C 7.988281 27.535156 8.066406 27.558594 8.148438 27.558594 L 27.539062 27.558594 C 27.769531 27.542969 27.945312 27.339844 27.929688 27.105469 Z M 23.734375 12.691406 L 23.734375 13.1875 L 23.464844 13.1875 L 23.363281 11.675781 C 23.597656 11.960938 23.734375 12.3125 23.734375 12.691406 Z M 19.128906 13.1875 L 17.28125 13.1875 L 17.28125 12.691406 C 17.28125 12.226562 17.488281 11.804688 17.820312 11.496094 C 18.164062 11.179688 18.640625 10.980469 19.164062 10.980469 C 19.371094 10.980469 19.566406 11.011719 19.753906 11.066406 C 19.363281 11.511719 19.128906 12.074219 19.128906 12.691406 Z M 19.972656 12.691406 C 19.972656 12.230469 20.179688 11.808594 20.507812 11.5 C 20.839844 11.808594 21.042969 12.230469 21.042969 12.691406 L 21.042969 13.1875 L 19.972656 13.1875 Z M 21.265625 11.070312 C 21.449219 11.011719 21.648438 10.980469 21.855469 10.980469 C 22.074219 10.980469 22.289062 11.015625 22.484375 11.082031 L 22.621094 13.1875 L 21.886719 13.1875 L 21.886719 12.691406 C 21.886719 12.078125 21.652344 11.511719 21.265625 11.070312 Z M 14.9375 2.320312 C 15.820312 2.320312 16.621094 2.652344 17.199219 3.1875 C 17.769531 3.714844 18.121094 4.441406 18.121094 5.238281 L 18.121094 6.214844 L 15.683594 6.214844 L 15.683594 5.238281 C 15.683594 4.195312 15.226562 3.25 14.488281 2.566406 C 14.421875 2.503906 14.351562 2.441406 14.277344 2.382812 C 14.492188 2.34375 14.710938 2.320312 14.9375 2.320312 Z M 11.757812 6.214844 L 11.757812 5.238281 C 11.757812 4.441406 12.109375 3.71875 12.679688 3.1875 C 12.863281 3.015625 13.070312 2.867188 13.300781 2.742188 C 13.527344 2.867188 13.734375 3.015625 13.921875 3.1875 C 14.488281 3.71875 14.84375 4.441406 14.84375 5.238281 L 14.84375 6.214844 Z M 8.476562 5.238281 C 8.476562 4.441406 8.828125 3.71875 9.398438 3.1875 C 9.976562 2.652344 10.777344 2.320312 11.660156 2.320312 C 11.886719 2.320312 12.105469 2.34375 12.320312 2.382812 C 12.246094 2.441406 12.175781 2.503906 12.109375 2.566406 C 11.371094 3.25 10.914062 4.195312 10.914062 5.238281 L 10.914062 6.214844 L 8.476562 6.214844 Z M 10.914062 7.0625 L 10.914062 9.320312 C 10.914062 9.554688 11.101562 9.742188 11.335938 9.742188 C 11.566406 9.742188 11.757812 9.554688 11.757812 9.320312 L 11.757812 7.0625 L 18.121094 7.0625 L 18.121094 9.320312 C 18.121094 9.554688 18.308594 9.742188 18.542969 9.742188 C 18.773438 9.742188 18.964844 9.554688 18.964844 9.320312 L 18.964844 7.0625 L 22.222656 7.0625 L 22.425781 10.191406 C 22.242188 10.152344 22.050781 10.132812 21.855469 10.132812 C 21.367188 10.132812 20.90625 10.253906 20.507812 10.46875 C 20.109375 10.253906 19.652344 10.132812 19.164062 10.132812 C 18.421875 10.132812 17.746094 10.414062 17.253906 10.871094 C 16.75 11.335938 16.441406 11.980469 16.441406 12.691406 L 16.441406 13.1875 L 16.207031 13.1875 C 16.203125 13.1875 16.199219 13.1875 16.199219 13.1875 L 14.414062 13.1875 C 14.203125 13.1875 14.019531 13.351562 13.996094 13.570312 L 12.617188 26.707031 C 11.542969 26.707031 8.542969 26.707031 8.542969 26.707031 L 7.253906 7.0625 Z M 4.617188 7.0625 L 6.414062 7.0625 L 7.695312 26.648438 C 6.394531 26.664062 2.699219 26.703125 2.699219 26.703125 Z M 14.792969 14.039062 L 15.804688 14.039062 L 16.632812 26.707031 C 15.664062 26.707031 13.460938 26.707031 13.460938 26.707031 Z M 17.476562 26.707031 L 16.644531 14.039062 L 19.128906 14.039062 L 19.128906 15.300781 C 19.128906 15.535156 19.320312 15.722656 19.550781 15.722656 C 19.785156 15.722656 19.972656 15.535156 19.972656 15.300781 L 19.972656 14.039062 L 23.734375 14.039062 L 23.734375 15.300781 C 23.734375 15.535156 23.925781 15.722656 24.15625 15.722656 C 24.390625 15.722656 24.578125 15.535156 24.578125 15.300781 L 24.578125 14.039062 L 26.234375 14.039062 L 27.0625 26.707031 Z M 17.476562 26.707031 "/>
</g>
</g>
</svg>
