<?xml version="1.0" encoding="UTF-8"?>
<svg xmlns="http://www.w3.org/2000/svg" xmlns:xlink="http://www.w3.org/1999/xlink" width="20px" height="20px" viewBox="0 0 20 20" version="1.1">
<defs>
<clipPath id="clip1">
  <path d="M 1.722656 3.578125 L 18.445312 3.578125 L 18.445312 15.675781 L 1.722656 15.675781 Z M 1.722656 3.578125 "/>
</clipPath>
</defs>
<g id="surface1">
<g clip-path="url(#clip1)" clip-rule="nonzero">
<path style=" stroke:none;fill-rule:nonzero;fill:rgb(100%,100%,100%);fill-opacity:1;" d="M 7.902344 6.480469 L 5.582031 6.480469 L 5.582031 4.199219 L 4.042969 4.199219 L 4.042969 6.480469 L 1.722656 6.480469 L 1.722656 7.992188 L 4.042969 7.992188 L 4.042969 10.273438 L 5.582031 10.273438 L 5.582031 7.992188 L 7.902344 7.992188 Z M 18.390625 13.332031 C 18.320312 13.179688 18.25 13.125 18.152344 13.058594 C 17.433594 12.566406 15.421875 11.441406 13.054688 11.429688 L 13.054688 11.425781 C 13.046875 11.425781 13.042969 11.425781 13.035156 11.425781 C 13.027344 11.425781 13.019531 11.425781 13.011719 11.425781 L 13.011719 11.429688 C 10.644531 11.441406 8.632812 12.566406 7.917969 13.058594 C 7.816406 13.125 7.746094 13.179688 7.675781 13.332031 C 7.621094 13.457031 7.625 13.710938 7.625 13.710938 L 7.625 15.683594 L 18.445312 15.683594 L 18.445312 13.710938 C 18.445312 13.710938 18.449219 13.457031 18.390625 13.332031 Z M 13.003906 9.988281 C 14.546875 9.988281 15.800781 8.550781 15.800781 6.785156 C 15.800781 5.011719 14.546875 3.578125 13.003906 3.578125 C 11.457031 3.578125 10.207031 5.011719 10.207031 6.785156 C 10.207031 8.550781 11.457031 9.988281 13.003906 9.988281 "/>
</g>
</g>
</svg>
