<svg xmlns="http://www.w3.org/2000/svg" xmlns:xlink="http://www.w3.org/1999/xlink" width="150" zoomAndPan="magnify" viewBox="0 0 112.5 112.499997" height="150" preserveAspectRatio="xMidYMid meet" version="1.0"><defs><clipPath id="3b4858d4df"><path d="M 39.039062 63 L 73.539062 63 L 73.539062 78.75 L 39.039062 78.75 Z M 39.039062 63 " clip-rule="nonzero"/></clipPath></defs><path fill="#4aa276" d="M 68.789062 48.722656 C 68.695312 48.378906 68.460938 48.09375 68.128906 47.921875 C 68.199219 47.140625 68.09375 46.183594 67.910156 45.398438 C 67.757812 44.753906 67.511719 44.027344 67.140625 43.273438 C 66.746094 42.53125 66.261719 41.738281 65.578125 41.007812 C 64.933594 40.25 64.097656 39.5625 63.15625 38.957031 C 54.953125 33.765625 43.621094 39.90625 44.503906 47.921875 C 44.171875 48.097656 43.941406 48.378906 43.84375 48.722656 C 41.902344 48.757812 40.339844 50.195312 40.339844 51.976562 C 40.339844 53.753906 41.902344 55.195312 43.84375 55.230469 C 44 55.792969 44.53125 56.21875 45.195312 56.21875 C 45.980469 56.21875 46.613281 55.636719 46.613281 54.921875 L 46.613281 49.035156 C 46.613281 48.625 46.394531 48.277344 46.078125 48.039062 C 46.429688 46.015625 47.488281 43.871094 48.96875 42.542969 C 51.140625 40.429688 54.910156 39.210938 59.054688 40.128906 C 60.652344 40.605469 62.222656 41.402344 63.53125 42.679688 C 64.988281 43.984375 66.167969 45.941406 66.554688 48.039062 C 65.714844 48.660156 66.015625 49.199219 66.015625 54.921875 C 66.015625 55.367188 66.28125 55.746094 66.660156 55.976562 L 66.660156 56.476562 C 66.660156 56.792969 66.570312 57.101562 66.398438 57.367188 C 64.542969 60.253906 64.421875 60.546875 61.617188 61.441406 C 60.738281 61.722656 59.742188 61.84375 58.738281 62.089844 C 57.808594 61.175781 56.175781 61.777344 56.175781 63 C 56.175781 64.542969 58.589844 64.898438 59.058594 63.351562 C 59.738281 63.1875 60.4375 63.089844 61.09375 62.890625 C 64.707031 61.792969 65.890625 61.140625 67.804688 57.5 C 67.984375 57.152344 68.082031 56.773438 68.082031 56.382812 L 68.082031 56.0625 C 68.4375 55.890625 68.691406 55.59375 68.789062 55.230469 C 70.730469 55.195312 72.289062 53.753906 72.289062 51.976562 C 72.289062 50.199219 70.730469 48.761719 68.789062 48.722656 " fill-opacity="1" fill-rule="nonzero"/><g clip-path="url(#3b4858d4df)"><path fill="#4aa276" d="M 56.320312 69.765625 C 57.480469 68.140625 58.492188 66.746094 59.480469 65.335938 C 60.640625 63.683594 61.808594 63.148438 63.644531 63.765625 C 65.972656 64.550781 68.277344 65.425781 70.535156 66.40625 C 72.46875 67.246094 73.554688 68.75 73.4375 70.980469 C 73.375 72.074219 73.4375 73.175781 73.421875 74.277344 C 73.382812 77.304688 72 78.714844 68.992188 78.726562 C 65.109375 78.753906 61.230469 78.738281 57.347656 78.738281 C 52.835938 78.738281 48.324219 78.746094 43.8125 78.730469 C 40.585938 78.714844 39.226562 77.339844 39.210938 74.140625 C 39.203125 73.09375 39.261719 72.042969 39.195312 71 C 39.054688 68.679688 40.25 67.191406 42.226562 66.339844 C 44.484375 65.367188 46.800781 64.519531 49.132812 63.75 C 51.121094 63.089844 51.738281 63.386719 52.972656 65.109375 C 54.03125 66.589844 55.101562 68.070312 56.320312 69.765625 " fill-opacity="1" fill-rule="nonzero"/></g><path fill="#4aa276" d="M 64.542969 50.441406 C 64.328125 53.171875 63.464844 56.664062 60.59375 59.351562 C 58.160156 61.628906 54.445312 61.6875 52.050781 59.355469 C 48.730469 56.121094 47.683594 52.007812 48.199219 47.570312 C 48.464844 45.246094 49.886719 43.417969 52.269531 42.640625 C 55.816406 41.484375 59.246094 41.367188 62.367188 43.84375 C 64.191406 45.285156 64.605469 47.265625 64.542969 50.441406 " fill-opacity="1" fill-rule="nonzero"/></svg>