<?xml version="1.0" encoding="UTF-8"?>
<svg xmlns="http://www.w3.org/2000/svg" xmlns:xlink="http://www.w3.org/1999/xlink" width="24px" height="24px" viewBox="0 0 24 24" version="1.1">
<defs>
<clipPath id="clip1">
  <path d="M 0.613281 1.648438 L 23.257812 1.648438 L 23.257812 23.132812 L 0.613281 23.132812 Z M 0.613281 1.648438 "/>
</clipPath>
</defs>
<g id="surface1">
<g clip-path="url(#clip1)" clip-rule="nonzero">
<path style=" stroke:none;fill-rule:nonzero;fill:rgb(100%,100%,100%);fill-opacity:1;" d="M 21.507812 17.96875 C 20.425781 16.886719 18.933594 16.214844 17.296875 16.214844 L 15.234375 16.214844 C 15.234375 16.1875 15.238281 16.164062 15.238281 16.132812 L 15.238281 15.144531 C 15.324219 15.066406 15.414062 14.984375 15.496094 14.898438 C 15.75 14.644531 15.976562 14.363281 16.175781 14.054688 C 17.207031 13.9375 18.011719 13.578125 18.21875 12.617188 C 18.546875 12.554688 18.839844 12.390625 19.070312 12.164062 C 19.367188 11.863281 19.554688 11.449219 19.554688 10.992188 L 19.554688 9.15625 C 19.554688 8.699219 19.367188 8.289062 19.070312 7.988281 L 19.042969 7.964844 C 18.847656 7.773438 18.601562 7.632812 18.332031 7.558594 C 18.335938 7.554688 18.335938 7.546875 18.335938 7.539062 C 18.335938 5.914062 17.628906 4.445312 16.492188 3.375 C 15.363281 2.3125 13.804688 1.652344 12.097656 1.652344 L 11.773438 1.652344 C 10.0625 1.652344 8.507812 2.3125 7.378906 3.375 C 6.242188 4.445312 5.539062 5.914062 5.539062 7.539062 C 5.539062 7.546875 5.539062 7.554688 5.539062 7.558594 C 5.257812 7.636719 5.007812 7.785156 4.804688 7.988281 C 4.503906 8.289062 4.316406 8.703125 4.316406 9.15625 L 4.316406 10.992188 C 4.316406 11.4375 4.492188 11.839844 4.78125 12.140625 L 4.804688 12.164062 C 5.101562 12.460938 5.515625 12.648438 5.972656 12.648438 C 6.351562 12.648438 6.707031 12.519531 6.988281 12.296875 C 7.183594 13.304688 7.679688 14.203125 8.375 14.898438 C 8.507812 15.03125 8.644531 15.15625 8.789062 15.273438 L 8.789062 16.132812 C 8.789062 16.164062 8.789062 16.191406 8.789062 16.214844 L 6.574219 16.214844 C 4.933594 16.214844 3.445312 16.890625 2.363281 17.972656 C 1.285156 19.054688 0.613281 20.546875 0.613281 22.1875 L 0.613281 22.765625 C 0.613281 22.96875 0.773438 23.132812 0.976562 23.132812 L 22.894531 23.132812 C 23.09375 23.132812 23.257812 22.96875 23.257812 22.765625 L 23.257812 22.1875 C 23.257812 20.546875 22.585938 19.054688 21.507812 17.96875 Z M 16.605469 13.222656 C 16.726562 12.929688 16.820312 12.617188 16.882812 12.296875 C 17.050781 12.429688 17.246094 12.527344 17.457031 12.585938 C 17.320312 12.910156 17.015625 13.105469 16.605469 13.222656 Z M 18.550781 8.503906 C 18.71875 8.671875 18.820312 8.902344 18.820312 9.15625 L 18.820312 10.992188 C 18.820312 11.246094 18.71875 11.476562 18.550781 11.648438 C 18.382812 11.8125 18.152344 11.917969 17.898438 11.917969 C 17.644531 11.917969 17.414062 11.8125 17.246094 11.648438 L 17.242188 11.648438 C 17.078125 11.476562 16.976562 11.246094 16.976562 10.992188 L 16.976562 9.15625 C 16.976562 8.898438 17.078125 8.671875 17.242188 8.503906 L 17.246094 8.503906 C 17.414062 8.335938 17.644531 8.230469 17.898438 8.230469 C 18.148438 8.230469 18.367188 8.328125 18.535156 8.488281 Z M 7.875 3.90625 C 8.875 2.96875 10.253906 2.386719 11.773438 2.386719 L 12.097656 2.386719 C 13.617188 2.386719 14.992188 2.96875 15.992188 3.90625 C 16.984375 4.835938 17.601562 6.117188 17.601562 7.527344 C 17.367188 7.570312 17.144531 7.664062 16.953125 7.804688 C 16.839844 6.601562 16.304688 5.519531 15.492188 4.710938 C 14.582031 3.796875 13.320312 3.226562 11.933594 3.226562 C 10.546875 3.226562 9.289062 3.796875 8.375 4.710938 C 7.566406 5.519531 7.027344 6.601562 6.914062 7.804688 C 6.726562 7.664062 6.503906 7.570312 6.265625 7.527344 C 6.273438 6.117188 6.886719 4.835938 7.875 3.90625 Z M 16.210938 7.753906 C 15.351562 7.75 14.523438 7.636719 13.734375 7.421875 C 12.828125 7.171875 11.960938 6.78125 11.140625 6.25 C 11 6.160156 10.808594 6.179688 10.6875 6.300781 C 10.320312 6.664062 9.855469 6.972656 9.285156 7.214844 C 8.816406 7.414062 8.273438 7.570312 7.664062 7.6875 C 7.796875 6.734375 8.242188 5.878906 8.890625 5.226562 C 9.671875 4.445312 10.75 3.960938 11.933594 3.960938 C 13.121094 3.960938 14.195312 4.445312 14.976562 5.226562 C 15.644531 5.894531 16.089844 6.773438 16.210938 7.753906 Z M 5.972656 11.917969 C 5.71875 11.917969 5.488281 11.8125 5.320312 11.648438 L 5.304688 11.628906 C 5.144531 11.460938 5.046875 11.242188 5.046875 10.992188 L 5.046875 9.15625 C 5.046875 8.898438 5.152344 8.671875 5.320312 8.503906 C 5.488281 8.335938 5.71875 8.230469 5.972656 8.230469 C 6.226562 8.230469 6.457031 8.335938 6.625 8.503906 C 6.789062 8.671875 6.894531 8.902344 6.894531 9.15625 L 6.894531 10.992188 C 6.894531 11.246094 6.789062 11.476562 6.625 11.648438 C 6.457031 11.8125 6.226562 11.917969 5.972656 11.917969 Z M 7.625 11.335938 L 7.625 8.441406 C 8.355469 8.3125 9.007812 8.128906 9.570312 7.882812 C 10.121094 7.648438 10.59375 7.359375 10.988281 7.015625 C 11.800781 7.507812 12.648438 7.878906 13.542969 8.125 C 14.410156 8.363281 15.308594 8.480469 16.246094 8.480469 L 16.246094 11.335938 C 16.246094 12.0625 16.058594 12.753906 15.738281 13.359375 C 15.179688 13.398438 14.539062 13.371094 13.914062 13.351562 L 13.785156 13.34375 C 13.726562 13.15625 13.628906 12.988281 13.492188 12.851562 C 13.28125 12.632812 12.984375 12.496094 12.65625 12.496094 C 12.332031 12.496094 12.035156 12.632812 11.820312 12.851562 C 11.609375 13.070312 11.476562 13.367188 11.476562 13.699219 C 11.476562 14.027344 11.609375 14.328125 11.820312 14.542969 C 12.035156 14.765625 12.332031 14.898438 12.65625 14.898438 C 12.984375 14.898438 13.28125 14.765625 13.492188 14.542969 C 13.621094 14.414062 13.71875 14.253906 13.777344 14.074219 L 13.886719 14.078125 C 14.335938 14.097656 14.792969 14.113281 15.230469 14.109375 C 15.148438 14.203125 15.066406 14.296875 14.976562 14.382812 C 14.195312 15.164062 13.121094 15.652344 11.933594 15.652344 C 11.214844 15.652344 10.539062 15.472656 9.9375 15.15625 C 9.742188 15.050781 9.554688 14.925781 9.375 14.789062 C 9.351562 14.769531 9.324219 14.757812 9.300781 14.742188 C 9.15625 14.632812 9.019531 14.511719 8.890625 14.382812 C 8.109375 13.601562 7.625 12.523438 7.625 11.335938 Z M 13.105469 13.699219 C 13.105469 13.832031 13.054688 13.949219 12.972656 14.035156 C 12.890625 14.117188 12.777344 14.167969 12.65625 14.167969 C 12.535156 14.167969 12.421875 14.117188 12.339844 14.035156 C 12.257812 13.949219 12.207031 13.832031 12.207031 13.699219 C 12.207031 13.566406 12.257812 13.445312 12.339844 13.363281 C 12.421875 13.277344 12.535156 13.226562 12.65625 13.226562 C 12.777344 13.226562 12.890625 13.277344 12.972656 13.363281 C 13.054688 13.445312 13.105469 13.566406 13.105469 13.699219 Z M 9.871094 15.9375 C 10.019531 16.007812 10.171875 16.070312 10.324219 16.121094 C 10.789062 16.28125 11.289062 16.371094 11.800781 16.382812 C 11.804688 16.382812 11.808594 16.382812 11.816406 16.382812 C 11.839844 16.382812 11.863281 16.382812 11.886719 16.382812 L 12.132812 16.382812 C 12.679688 16.382812 13.207031 16.289062 13.695312 16.121094 C 13.976562 16.023438 14.246094 15.902344 14.503906 15.757812 L 14.503906 16.132812 C 14.503906 16.800781 14.230469 17.40625 13.792969 17.84375 C 13.355469 18.285156 12.75 18.554688 12.085938 18.554688 L 11.933594 18.554688 C 11.273438 18.554688 10.664062 18.285156 10.226562 17.84375 C 9.789062 17.40625 9.519531 16.800781 9.519531 16.132812 L 9.519531 15.757812 C 9.632812 15.824219 9.75 15.882812 9.871094 15.9375 Z M 1.34375 22.1875 C 1.34375 20.746094 1.929688 19.4375 2.882812 18.488281 C 3.828125 17.539062 5.136719 16.945312 6.574219 16.945312 L 8.894531 16.945312 C 9.039062 17.492188 9.324219 17.976562 9.710938 18.363281 C 10.199219 18.851562 10.851562 19.179688 11.570312 19.265625 L 11.570312 22.398438 L 1.34375 22.398438 Z M 22.527344 22.398438 L 12.300781 22.398438 L 12.300781 19.28125 C 13.082031 19.226562 13.789062 18.886719 14.3125 18.363281 C 14.695312 17.976562 14.980469 17.492188 15.128906 16.945312 L 17.292969 16.945312 C 18.734375 16.945312 20.039062 17.539062 20.992188 18.488281 C 21.9375 19.4375 22.527344 20.746094 22.527344 22.191406 Z M 22.527344 22.398438 "/>
</g>
</g>
</svg>
