<?xml version="1.0" encoding="UTF-8"?>
<svg xmlns="http://www.w3.org/2000/svg" xmlns:xlink="http://www.w3.org/1999/xlink" width="21px" height="21px" viewBox="0 0 21 21" version="1.1">
<defs>
<clipPath id="clip1">
  <path d="M 1.117188 1.269531 L 19.914062 1.269531 L 19.914062 19.054688 L 1.117188 19.054688 Z M 1.117188 1.269531 "/>
</clipPath>
</defs>
<g id="surface1">
<g clip-path="url(#clip1)" clip-rule="nonzero">
<path style=" stroke:none;fill-rule:nonzero;fill:rgb(100%,100%,100%);fill-opacity:1;" d="M 18.460938 14.777344 C 17.5625 13.882812 16.324219 13.328125 14.964844 13.328125 L 13.253906 13.328125 C 13.253906 13.300781 13.253906 13.28125 13.253906 13.257812 L 13.253906 12.4375 C 13.332031 12.371094 13.402344 12.308594 13.46875 12.234375 C 13.683594 12.027344 13.871094 11.789062 14.035156 11.539062 C 14.890625 11.441406 15.5625 11.140625 15.730469 10.347656 C 16.003906 10.292969 16.246094 10.160156 16.4375 9.972656 C 16.683594 9.722656 16.839844 9.382812 16.839844 9.003906 L 16.839844 7.484375 C 16.839844 7.105469 16.683594 6.765625 16.4375 6.515625 L 16.417969 6.496094 C 16.253906 6.339844 16.050781 6.222656 15.828125 6.160156 C 15.828125 6.15625 15.828125 6.148438 15.828125 6.144531 C 15.828125 4.800781 15.242188 3.582031 14.296875 2.699219 C 13.359375 1.820312 12.070312 1.273438 10.648438 1.273438 L 10.378906 1.273438 C 8.960938 1.273438 7.667969 1.820312 6.730469 2.699219 C 5.789062 3.582031 5.203125 4.800781 5.203125 6.144531 C 5.203125 6.148438 5.203125 6.15625 5.203125 6.160156 C 4.972656 6.226562 4.761719 6.347656 4.597656 6.515625 L 4.59375 6.515625 C 4.34375 6.765625 4.191406 7.109375 4.191406 7.484375 L 4.191406 9.003906 C 4.191406 9.371094 4.335938 9.703125 4.578125 9.953125 L 4.59375 9.972656 C 4.84375 10.222656 5.183594 10.375 5.566406 10.375 C 5.882812 10.375 6.175781 10.265625 6.40625 10.085938 C 6.570312 10.914062 6.980469 11.660156 7.558594 12.234375 C 7.667969 12.34375 7.78125 12.445312 7.902344 12.546875 L 7.902344 13.257812 C 7.902344 13.28125 7.902344 13.304688 7.902344 13.328125 L 6.066406 13.328125 C 4.703125 13.328125 3.46875 13.882812 2.570312 14.777344 C 1.671875 15.671875 1.117188 16.910156 1.117188 18.269531 L 1.117188 18.746094 C 1.117188 18.914062 1.253906 19.050781 1.417969 19.050781 L 19.609375 19.050781 C 19.777344 19.050781 19.914062 18.914062 19.914062 18.746094 L 19.914062 18.269531 C 19.914062 16.910156 19.355469 15.671875 18.460938 14.777344 Z M 14.394531 10.851562 C 14.492188 10.605469 14.570312 10.347656 14.621094 10.082031 C 14.761719 10.191406 14.925781 10.277344 15.097656 10.320312 C 14.984375 10.589844 14.730469 10.753906 14.394531 10.851562 Z M 16.007812 6.941406 C 16.144531 7.082031 16.230469 7.273438 16.230469 7.484375 L 16.230469 9.003906 C 16.230469 9.210938 16.144531 9.40625 16.007812 9.542969 C 15.867188 9.683594 15.675781 9.769531 15.464844 9.769531 C 15.253906 9.769531 15.0625 9.683594 14.925781 9.542969 L 14.921875 9.542969 C 14.785156 9.40625 14.699219 9.214844 14.699219 9.003906 L 14.699219 7.484375 C 14.699219 7.273438 14.785156 7.082031 14.921875 6.941406 L 14.925781 6.941406 C 15.0625 6.804688 15.253906 6.71875 15.464844 6.71875 C 15.671875 6.71875 15.855469 6.796875 15.992188 6.929688 Z M 7.144531 3.140625 C 7.972656 2.363281 9.121094 1.882812 10.378906 1.882812 L 10.648438 1.882812 C 11.910156 1.882812 13.054688 2.363281 13.882812 3.140625 C 14.707031 3.910156 15.214844 4.972656 15.21875 6.136719 C 15.023438 6.171875 14.839844 6.25 14.679688 6.363281 C 14.585938 5.371094 14.140625 4.472656 13.46875 3.804688 C 12.710938 3.046875 11.664062 2.574219 10.511719 2.574219 C 9.363281 2.574219 8.316406 3.046875 7.558594 3.804688 C 6.886719 4.472656 6.441406 5.371094 6.347656 6.363281 C 6.191406 6.25 6.007812 6.171875 5.808594 6.136719 C 5.8125 4.972656 6.324219 3.910156 7.144531 3.140625 Z M 14.066406 6.320312 C 13.351562 6.320312 12.664062 6.226562 12.007812 6.046875 C 11.257812 5.839844 10.539062 5.519531 9.855469 5.082031 C 9.738281 5.003906 9.582031 5.019531 9.476562 5.121094 C 9.175781 5.421875 8.789062 5.671875 8.316406 5.875 C 7.925781 6.042969 7.476562 6.171875 6.96875 6.269531 C 7.078125 5.480469 7.449219 4.769531 7.988281 4.234375 C 8.636719 3.585938 9.53125 3.183594 10.511719 3.183594 C 11.496094 3.183594 12.390625 3.585938 13.042969 4.234375 C 13.59375 4.78125 13.964844 5.511719 14.066406 6.320312 Z M 5.566406 9.769531 C 5.355469 9.769531 5.164062 9.683594 5.023438 9.542969 L 5.007812 9.527344 C 4.878906 9.390625 4.796875 9.207031 4.796875 9.003906 L 4.796875 7.484375 C 4.796875 7.273438 4.882812 7.082031 5.019531 6.941406 L 5.023438 6.941406 C 5.164062 6.804688 5.355469 6.71875 5.566406 6.71875 C 5.773438 6.71875 5.964844 6.804688 6.105469 6.941406 C 6.246094 7.082031 6.332031 7.273438 6.332031 7.484375 L 6.332031 9.003906 C 6.332031 9.210938 6.246094 9.40625 6.105469 9.542969 C 5.964844 9.683594 5.773438 9.769531 5.566406 9.769531 Z M 6.9375 9.285156 L 6.9375 6.890625 C 7.542969 6.785156 8.082031 6.628906 8.550781 6.429688 C 9.011719 6.238281 9.402344 5.996094 9.730469 5.710938 C 10.402344 6.121094 11.105469 6.425781 11.847656 6.628906 C 12.566406 6.824219 13.3125 6.921875 14.09375 6.921875 L 14.09375 9.285156 C 14.09375 9.890625 13.941406 10.460938 13.671875 10.960938 C 13.203125 10.992188 12.675781 10.972656 12.15625 10.953125 L 12.050781 10.949219 C 12.003906 10.796875 11.917969 10.65625 11.808594 10.539062 C 11.632812 10.359375 11.386719 10.246094 11.113281 10.246094 C 10.84375 10.246094 10.597656 10.359375 10.417969 10.539062 C 10.242188 10.722656 10.132812 10.96875 10.132812 11.242188 C 10.132812 11.515625 10.242188 11.761719 10.417969 11.945312 C 10.597656 12.125 10.84375 12.238281 11.113281 12.238281 C 11.386719 12.238281 11.632812 12.125 11.808594 11.945312 C 11.914062 11.835938 11.996094 11.699219 12.042969 11.550781 L 12.136719 11.558594 C 12.511719 11.570312 12.886719 11.585938 13.25 11.582031 C 13.183594 11.660156 13.113281 11.734375 13.042969 11.808594 C 12.390625 12.457031 11.496094 12.859375 10.511719 12.859375 C 9.917969 12.859375 9.355469 12.710938 8.855469 12.449219 C 8.691406 12.359375 8.535156 12.257812 8.390625 12.144531 C 8.371094 12.128906 8.347656 12.117188 8.324219 12.109375 C 8.207031 12.015625 8.09375 11.917969 7.988281 11.808594 C 7.339844 11.160156 6.9375 10.265625 6.9375 9.285156 Z M 11.488281 11.242188 C 11.488281 11.351562 11.441406 11.453125 11.375 11.523438 C 11.308594 11.589844 11.214844 11.632812 11.113281 11.632812 C 11.011719 11.632812 10.917969 11.589844 10.851562 11.523438 C 10.78125 11.453125 10.738281 11.351562 10.738281 11.242188 C 10.738281 11.132812 10.78125 11.03125 10.851562 10.960938 C 10.917969 10.894531 11.011719 10.851562 11.113281 10.851562 C 11.214844 10.851562 11.308594 10.894531 11.375 10.960938 C 11.441406 11.03125 11.488281 11.132812 11.488281 11.242188 Z M 8.800781 13.09375 C 8.925781 13.152344 9.050781 13.203125 9.179688 13.246094 C 9.566406 13.378906 9.976562 13.457031 10.402344 13.464844 C 10.40625 13.464844 10.410156 13.464844 10.414062 13.464844 C 10.433594 13.464844 10.457031 13.464844 10.476562 13.464844 L 10.679688 13.464844 C 11.132812 13.464844 11.570312 13.386719 11.976562 13.246094 C 12.207031 13.167969 12.4375 13.066406 12.644531 12.945312 L 12.644531 13.257812 C 12.644531 13.808594 12.421875 14.3125 12.058594 14.671875 C 11.695312 15.035156 11.191406 15.261719 10.640625 15.261719 L 10.511719 15.261719 C 9.964844 15.261719 9.460938 15.035156 9.097656 14.671875 C 8.734375 14.3125 8.507812 13.808594 8.507812 13.257812 L 8.507812 12.949219 C 8.601562 13 8.699219 13.050781 8.800781 13.09375 Z M 1.722656 18.269531 C 1.722656 17.074219 2.210938 15.992188 2.996094 15.207031 C 3.785156 14.417969 4.871094 13.929688 6.066406 13.929688 L 7.988281 13.929688 C 8.113281 14.378906 8.347656 14.78125 8.667969 15.101562 C 9.074219 15.507812 9.613281 15.78125 10.210938 15.847656 L 10.210938 18.441406 L 1.722656 18.441406 Z M 19.308594 18.441406 L 10.816406 18.441406 L 10.816406 15.863281 C 11.46875 15.816406 12.054688 15.535156 12.488281 15.101562 C 12.808594 14.78125 13.042969 14.378906 13.167969 13.929688 L 14.964844 13.929688 C 16.15625 13.929688 17.242188 14.421875 18.03125 15.207031 C 18.816406 15.992188 19.308594 17.074219 19.308594 18.269531 Z M 19.308594 18.441406 "/>
</g>
</g>
</svg>
