<?xml version="1.0" encoding="UTF-8"?>
<svg xmlns="http://www.w3.org/2000/svg" xmlns:xlink="http://www.w3.org/1999/xlink" width="30px" height="30px" viewBox="0 0 30 30" version="1.1">
<defs>
<clipPath id="clip1">
  <path d="M 2.550781 2.070312 L 27.230469 2.070312 L 27.230469 26.746094 L 2.550781 26.746094 Z M 2.550781 2.070312 "/>
</clipPath>
</defs>
<g id="surface1">
<g clip-path="url(#clip1)" clip-rule="nonzero">
<path style=" stroke:none;fill-rule:evenodd;fill:rgb(29.019608%,63.529412%,46.27451%);fill-opacity:1;" d="M 20.554688 14.339844 C 21.488281 13.746094 22.050781 14.023438 22.414062 14.378906 C 23.28125 13.890625 23.769531 14.222656 24.011719 14.375 C 24.058594 14.390625 24.191406 14.5 24.378906 14.410156 C 25.078125 14.09375 25.699219 14.457031 25.839844 14.925781 L 27.109375 19.160156 C 27.203125 19.472656 27.230469 19.753906 27.207031 20.078125 L 27.125 21.304688 C 27.097656 21.695312 26.835938 22.011719 26.457031 22.113281 L 21.742188 23.378906 C 21.425781 23.460938 21.113281 23.382812 20.878906 23.152344 L 18.859375 21.195312 C 18.601562 20.945312 18.40625 20.710938 18.207031 20.414062 L 16.238281 17.507812 C 15.222656 16.171875 16.785156 15.09375 17.730469 16.222656 L 19.566406 18.363281 L 17.085938 10.804688 C 16.660156 9.605469 18.105469 9.082031 18.5625 10.230469 L 20.152344 14.242188 C 20.238281 14.460938 20.453125 14.40625 20.554688 14.339844 Z M 10.59375 19.097656 L 15.097656 19.097656 C 15.15625 19.097656 15.207031 19.15625 15.207031 19.222656 L 15.207031 20.046875 C 15.207031 20.113281 15.15625 20.171875 15.097656 20.171875 L 10.59375 20.171875 C 10.53125 20.171875 10.480469 20.113281 10.480469 20.046875 L 10.480469 19.222656 C 10.480469 19.152344 10.53125 19.097656 10.59375 19.097656 Z M 10.59375 21.242188 L 13.601562 21.242188 C 13.664062 21.242188 13.714844 21.300781 13.714844 21.367188 L 13.714844 22.191406 C 13.714844 22.257812 13.664062 22.316406 13.601562 22.316406 L 10.59375 22.316406 C 10.53125 22.316406 10.480469 22.261719 10.480469 22.191406 L 10.480469 21.367188 C 10.480469 21.300781 10.53125 21.242188 10.59375 21.242188 Z M 6.152344 19.097656 L 8.476562 19.097656 C 8.722656 19.097656 8.921875 19.300781 8.921875 19.546875 L 8.921875 21.867188 C 8.921875 22.113281 8.722656 22.316406 8.476562 22.316406 L 6.152344 22.316406 C 5.90625 22.316406 5.707031 22.113281 5.707031 21.867188 L 5.707031 19.546875 C 5.707031 19.300781 5.90625 19.097656 6.152344 19.097656 Z M 10.59375 14.199219 L 15.097656 14.199219 C 15.15625 14.199219 15.207031 14.253906 15.207031 14.320312 L 15.207031 15.144531 C 15.207031 15.214844 15.15625 15.269531 15.097656 15.269531 L 10.59375 15.269531 C 10.53125 15.269531 10.480469 15.214844 10.480469 15.144531 L 10.480469 14.320312 C 10.480469 14.253906 10.53125 14.199219 10.59375 14.199219 Z M 10.59375 16.34375 L 13.601562 16.34375 C 13.664062 16.34375 13.714844 16.398438 13.714844 16.464844 L 13.714844 17.292969 C 13.714844 17.359375 13.664062 17.414062 13.601562 17.414062 L 10.59375 17.414062 C 10.53125 17.414062 10.480469 17.359375 10.480469 17.292969 L 10.480469 16.464844 C 10.480469 16.398438 10.53125 16.34375 10.59375 16.34375 Z M 11.261719 7.332031 L 18.050781 7.332031 C 18.167969 7.332031 18.265625 7.414062 18.265625 7.511719 L 18.265625 8.296875 C 18.265625 8.394531 18.167969 8.472656 18.050781 8.472656 L 11.261719 8.472656 C 11.144531 8.472656 11.050781 8.394531 11.050781 8.296875 L 11.050781 7.511719 C 11.050781 7.414062 11.144531 7.332031 11.261719 7.332031 Z M 11.261719 9.78125 L 15.804688 9.78125 C 15.921875 9.78125 16.015625 9.859375 16.015625 9.957031 L 16.015625 10.742188 C 16.015625 10.839844 15.921875 10.917969 15.804688 10.917969 L 11.261719 10.917969 C 11.144531 10.917969 11.050781 10.839844 11.050781 10.742188 L 11.050781 9.957031 C 11.050781 9.859375 11.144531 9.78125 11.261719 9.78125 Z M 6.152344 14.199219 L 8.476562 14.199219 C 8.722656 14.199219 8.921875 14.398438 8.921875 14.644531 L 8.921875 16.96875 C 8.921875 17.214844 8.722656 17.414062 8.476562 17.414062 L 6.152344 17.414062 C 5.90625 17.414062 5.707031 17.214844 5.707031 16.96875 L 5.707031 14.644531 C 5.707031 14.398438 5.90625 14.199219 6.152344 14.199219 Z M 6.183594 8.375 L 7.105469 9.445312 L 9.261719 7.246094 C 9.359375 7.144531 9.527344 7.148438 9.621094 7.253906 L 10.152344 7.800781 C 10.25 7.902344 10.242188 8.066406 10.144531 8.164062 L 7.523438 10.792969 C 7.199219 11.101562 6.859375 11.074219 6.589844 10.765625 L 5.21875 9.207031 C 5.125 9.101562 5.140625 8.9375 5.246094 8.847656 L 5.820312 8.347656 C 5.875 8.300781 5.9375 8.28125 6.007812 8.285156 C 6.078125 8.289062 6.136719 8.320312 6.183594 8.375 Z M 3.710938 2.074219 L 21.761719 2.074219 C 22.40625 2.074219 22.921875 2.601562 22.921875 3.234375 L 22.921875 12.9375 C 22.921875 13.078125 22.753906 13.167969 22.617188 13.109375 C 22.339844 12.984375 22.070312 12.972656 21.726562 12.996094 C 21.554688 13.003906 21.417969 13.019531 21.417969 12.796875 L 21.417969 5.046875 C 21.417969 4.910156 21.300781 4.792969 21.171875 4.792969 L 4.3125 4.792969 C 4.171875 4.792969 4.054688 4.910156 4.054688 5.046875 C 4.054688 11.695312 4.054688 18.34375 4.054688 24.988281 C 4.054688 25.117188 4.171875 25.234375 4.3125 25.234375 L 21.171875 25.234375 C 21.300781 25.234375 21.417969 25.117188 21.417969 24.988281 L 21.417969 24.660156 C 21.417969 24.574219 21.492188 24.453125 21.632812 24.445312 C 22.128906 24.417969 22.21875 24.382812 22.695312 24.269531 C 22.902344 24.222656 22.921875 24.355469 22.921875 24.4375 L 22.921875 25.578125 C 22.921875 26.222656 22.40625 26.738281 21.761719 26.738281 L 3.710938 26.738281 C 3.078125 26.738281 2.550781 26.222656 2.550781 25.578125 C 2.550781 18.132812 2.550781 10.683594 2.550781 3.234375 C 2.550781 2.601562 3.078125 2.074219 3.710938 2.074219 Z M 10.613281 3.042969 L 20.722656 3.042969 C 20.949219 3.042969 21.140625 3.222656 21.140625 3.449219 C 21.140625 3.6875 20.949219 3.867188 20.722656 3.867188 L 10.613281 3.867188 C 10.386719 3.867188 10.203125 3.6875 10.203125 3.449219 C 10.203125 3.222656 10.386719 3.042969 10.613281 3.042969 Z M 6.578125 3.03125 C 6.8125 3.03125 6.996094 3.214844 6.996094 3.449219 C 6.996094 3.675781 6.8125 3.855469 6.578125 3.855469 C 6.351562 3.855469 6.167969 3.675781 6.167969 3.449219 C 6.167969 3.214844 6.351562 3.03125 6.578125 3.03125 Z M 5.4375 3.03125 C 5.664062 3.03125 5.847656 3.214844 5.847656 3.449219 C 5.847656 3.675781 5.664062 3.855469 5.4375 3.855469 C 5.203125 3.855469 5.019531 3.675781 5.019531 3.449219 C 5.019531 3.214844 5.203125 3.03125 5.4375 3.03125 Z M 4.292969 3.03125 C 4.515625 3.03125 4.699219 3.214844 4.699219 3.449219 C 4.699219 3.675781 4.515625 3.855469 4.292969 3.855469 C 4.054688 3.855469 3.871094 3.675781 3.871094 3.449219 C 3.871094 3.214844 4.054688 3.03125 4.292969 3.03125 Z M 4.292969 3.03125 "/>
</g>
</g>
</svg>
