<svg xmlns="http://www.w3.org/2000/svg" xmlns:xlink="http://www.w3.org/1999/xlink" width="200" zoomAndPan="magnify" viewBox="0 0 150 149.999998" height="200" preserveAspectRatio="xMidYMid meet" version="1.0"><defs><clipPath id="dbaa83321a"><path d="M 40.738281 33.125 L 108.988281 33.125 L 108.988281 117 L 40.738281 117 Z M 40.738281 33.125 " clip-rule="nonzero"/></clipPath><clipPath id="b91eb0f7b1"><path d="M 56 33.125 L 94 33.125 L 94 51 L 56 51 Z M 56 33.125 " clip-rule="nonzero"/></clipPath><clipPath id="d276e3f7bf"><path d="M 87 50 L 135.273438 50 L 135.273438 87 L 87 87 Z M 87 50 " clip-rule="nonzero"/></clipPath><clipPath id="37ccd9e7a4"><path d="M 86 47 L 135.273438 47 L 135.273438 80 L 86 80 Z M 86 47 " clip-rule="nonzero"/></clipPath></defs><g clip-path="url(#dbaa83321a)"><path fill="#4aa276" d="M 40.722656 43.671875 C 40.722656 37.738281 45.5 32.929688 51.390625 32.929688 L 97.949219 32.929688 C 103.839844 32.929688 108.617188 37.738281 108.617188 43.671875 L 108.617188 106.183594 C 108.617188 112.117188 103.839844 116.929688 97.949219 116.929688 L 51.390625 116.929688 C 45.5 116.929688 40.722656 112.117188 40.722656 106.183594 Z M 51.390625 38.789062 C 48.714844 38.789062 46.542969 40.976562 46.542969 43.671875 L 46.542969 106.183594 C 46.542969 108.882812 48.714844 111.070312 51.390625 111.070312 L 97.949219 111.070312 C 100.625 111.070312 102.796875 108.882812 102.796875 106.183594 L 102.796875 43.671875 C 102.796875 40.976562 100.625 38.789062 97.949219 38.789062 Z M 51.390625 38.789062 " fill-opacity="1" fill-rule="evenodd"/></g><g clip-path="url(#b91eb0f7b1)"><path fill="#4aa276" d="M 56.242188 35.859375 C 56.242188 34.242188 57.542969 32.929688 59.152344 32.929688 L 90.1875 32.929688 C 91.796875 32.929688 93.097656 34.242188 93.097656 35.859375 L 93.097656 39.765625 C 93.097656 45.699219 88.320312 50.511719 82.429688 50.511719 L 66.910156 50.511719 C 61.019531 50.511719 56.242188 45.699219 56.242188 39.765625 Z M 62.058594 38.789062 L 62.058594 39.765625 C 62.058594 42.464844 64.230469 44.648438 66.910156 44.648438 L 82.429688 44.648438 C 85.105469 44.648438 87.277344 42.464844 87.277344 39.765625 L 87.277344 38.789062 Z M 62.058594 38.789062 " fill-opacity="1" fill-rule="evenodd"/></g><path fill="#4aa276" d="M 75.640625 94.464844 C 75.640625 92.847656 76.941406 91.535156 78.550781 91.535156 L 94.066406 91.535156 C 95.675781 91.535156 96.976562 92.847656 96.976562 94.464844 C 96.976562 96.082031 95.675781 97.394531 94.066406 97.394531 L 78.550781 97.394531 C 76.941406 97.394531 75.640625 96.082031 75.640625 94.464844 Z M 75.640625 94.464844 " fill-opacity="1" fill-rule="evenodd"/><path fill="#4aa276" d="M 75.640625 63.207031 C 75.640625 61.589844 76.941406 60.277344 78.550781 60.277344 L 94.066406 60.277344 C 95.675781 60.277344 96.976562 61.589844 96.976562 63.207031 C 96.976562 64.828125 95.675781 66.140625 94.066406 66.140625 L 78.550781 66.140625 C 76.941406 66.140625 75.640625 64.828125 75.640625 63.207031 Z M 75.640625 63.207031 " fill-opacity="1" fill-rule="evenodd"/><path fill="#4aa276" d="M 55.777344 56.992188 C 56.910156 55.847656 58.753906 55.847656 59.890625 56.992188 L 68.121094 65.28125 C 69.257812 66.425781 69.257812 68.28125 68.121094 69.425781 C 66.984375 70.570312 65.140625 70.570312 64.003906 69.425781 L 55.777344 61.136719 C 54.640625 59.992188 54.640625 58.136719 55.777344 56.992188 Z M 55.777344 56.992188 " fill-opacity="1" fill-rule="evenodd"/><path fill="#4aa276" d="M 68.121094 56.992188 C 66.984375 55.847656 65.140625 55.847656 64.003906 56.992188 L 55.777344 65.28125 C 54.640625 66.425781 54.640625 68.28125 55.777344 69.425781 C 56.910156 70.570312 58.753906 70.570312 59.890625 69.425781 L 68.121094 61.136719 C 69.257812 59.992188 69.257812 58.136719 68.121094 56.992188 Z M 68.121094 56.992188 " fill-opacity="1" fill-rule="evenodd"/><path fill="#4aa276" d="M 70.523438 82.984375 C 71.792969 83.976562 72.019531 85.820312 71.035156 87.097656 L 63.085938 97.402344 C 62.558594 98.089844 61.75 98.503906 60.882812 98.535156 C 60.019531 98.5625 59.1875 98.199219 58.613281 97.550781 L 52.980469 91.148438 C 51.914062 89.9375 52.027344 88.085938 53.230469 87.015625 C 54.429688 85.941406 56.269531 86.050781 57.335938 87.261719 L 60.640625 91.019531 L 66.4375 83.503906 C 67.425781 82.222656 69.253906 81.992188 70.523438 82.984375 Z M 70.523438 82.984375 " fill-opacity="1" fill-rule="evenodd"/><g clip-path="url(#d276e3f7bf)"><path fill="#ffffff" d="M 87.417969 65.875 C 87.289062 67.402344 87.949219 67.855469 88.988281 68.582031 C 90.015625 69.296875 96.273438 63.839844 98.320312 63.011719 C 100.363281 62.179688 119.570312 58.132812 118.734375 54.441406 C 117.902344 50.746094 112.101562 50.199219 107.628906 50.953125 C 103.160156 51.707031 94.605469 55.621094 92.105469 57.730469 C 89.605469 59.84375 87.417969 65.875 87.417969 65.875 Z M 101.746094 68.351562 C 101.746094 68.351562 95.835938 70.261719 95.835938 75.222656 C 95.835938 80.183594 97.273438 82.980469 97.957031 84.339844 C 98.636719 85.695312 100.761719 87.011719 103.695312 85.746094 C 107.105469 84.277344 102.878906 75.816406 113.667969 79.699219 C 118.609375 81.476562 123.738281 83.878906 128.722656 82.226562 C 133.453125 80.65625 135.273438 74.738281 135.273438 71.429688 C 135.273438 64.660156 130.289062 66.46875 128.625 68.125 C 126.964844 69.777344 113.667969 73.085938 112.007812 73.085938 C 110.34375 73.085938 101.746094 68.351562 101.746094 68.351562 Z M 101.746094 68.351562 " fill-opacity="1" fill-rule="nonzero"/></g><path fill="#000000" d="M 109.203125 76.703125 C 109.203125 76.703125 109.003906 74.527344 106.917969 74.273438 C 105.203125 74.066406 102.503906 74.636719 101.101562 77.425781 C 99.699219 80.214844 97.207031 79.75 97.308594 82.074219 C 97.414062 84.398438 98.140625 86.210938 99.648438 86.671875 C 101.152344 87.140625 103.28125 86.3125 103.542969 83.832031 C 103.800781 81.351562 104.113281 79.078125 105.722656 78.097656 C 107.335938 77.117188 109.203125 76.703125 109.203125 76.703125 Z M 109.203125 76.703125 " fill-opacity="1" fill-rule="nonzero"/><path fill="#ffffff" d="M 107.023438 73.085938 C 107.023438 73.085938 105.359375 71.429688 102.035156 71.429688 C 98.714844 71.429688 90.960938 74.957031 93.3125 81.972656 C 94.972656 86.933594 99.699219 84.609375 100.375 79.699219 C 101.050781 74.78125 107.023438 73.085938 107.023438 73.085938 Z M 107.023438 73.085938 " fill-opacity="1" fill-rule="nonzero"/><path fill="#000000" d="M 105.359375 73.085938 C 105.359375 73.085938 103.699219 71.429688 100.375 71.429688 C 97.050781 71.429688 92.257812 73.960938 92.066406 81.351562 C 91.910156 87.398438 98.765625 84.660156 98.714844 79.699219 C 98.660156 74.738281 105.359375 73.085938 105.359375 73.085938 Z M 105.359375 73.085938 " fill-opacity="1" fill-rule="nonzero"/><path fill="#ffffff" d="M 85.417969 74.738281 C 85.417969 80.191406 86.179688 83.480469 89.453125 82.917969 C 94.886719 81.988281 92.824219 75.289062 97.578125 73.402344 C 101.03125 72.035156 106.054688 72.363281 110.90625 75.226562 C 114.101562 77.117188 112.007812 69.777344 108.683594 68.125 C 105.359375 66.46875 95.390625 68.125 93.726562 68.125 C 92.066406 68.125 85.417969 74.738281 85.417969 74.738281 Z M 85.417969 74.738281 " fill-opacity="1" fill-rule="nonzero"/><path fill="#000000" d="M 85.15625 75.027344 C 82.511719 79.433594 84.121094 83.988281 88.742188 83.007812 C 93.214844 82.058594 90.972656 76.277344 95.390625 73.085938 C 97.863281 71.296875 103.195312 70.695312 106.519531 72.347656 C 109.84375 74.003906 110.34375 69.777344 107.023438 68.125 C 103.699219 66.46875 92.832031 68.082031 91.171875 68.183594 C 88 68.382812 85.15625 75.027344 85.15625 75.027344 Z M 85.15625 75.027344 " fill-opacity="1" fill-rule="nonzero"/><path fill="#4aa276" d="M 92.761719 78.234375 C 91.632812 79.519531 89.667969 79.652344 88.375 78.53125 L 88.050781 78.25 C 86.753906 77.125 86.621094 75.175781 87.75 73.886719 L 125.179688 31.195312 C 126.308594 29.910156 128.269531 29.773438 129.5625 30.898438 L 129.886719 31.179688 C 131.183594 32.304688 131.316406 34.257812 130.1875 35.542969 Z M 92.761719 78.234375 " fill-opacity="1" fill-rule="nonzero"/><path fill="#4aa276" d="M 94.542969 76.203125 C 90.621094 80.675781 80.726562 89.445312 79.472656 88.359375 C 78.222656 87.273438 85.609375 76.332031 89.53125 71.855469 C 93.453125 67.382812 92.292969 70.960938 93.675781 72.160156 C 95.058594 73.363281 98.464844 71.730469 94.542969 76.203125 Z M 94.542969 76.203125 " fill-opacity="1" fill-rule="nonzero"/><path fill="#ffffff" d="M 88.195312 71.472656 C 88.195312 73.128906 92.21875 74.640625 93.882812 72.988281 C 95.542969 71.332031 99.433594 69.300781 104.550781 71.429688 C 116.519531 76.40625 112.007812 69.777344 107.023438 68.125 C 102.035156 66.46875 93.726562 68.125 92.066406 68.125 C 90.402344 68.125 88.195312 71.472656 88.195312 71.472656 Z M 88.195312 71.472656 " fill-opacity="1" fill-rule="nonzero"/><g clip-path="url(#37ccd9e7a4)"><path fill="#000000" d="M 87.40625 66.542969 C 86.808594 64.699219 91.039062 54.503906 92.957031 52.925781 C 95.371094 50.9375 104.703125 47.859375 108.027344 47.859375 C 111.351562 47.859375 135.273438 59.855469 135.273438 68.125 C 135.273438 76.390625 131.949219 77.425781 127.171875 78.714844 C 123.351562 79.75 115.347656 79.117188 111.851562 75.875 C 108.785156 73.03125 106.65625 71.070312 103.699219 69.777344 C 98.210938 67.382812 94.554688 70.476562 92.890625 72.132812 C 89.566406 75.4375 83.304688 71.867188 88.53125 66.210938 C 92.265625 62.164062 95.558594 60.902344 98.714844 59.855469 C 108.683594 56.546875 115.332031 56.546875 112.007812 53.242188 C 110.832031 52.070312 110.191406 53.8125 108.558594 54.109375 C 105.265625 54.703125 102.648438 55.105469 98.3125 56.542969 C 96.8125 57.039062 89.71875 61.542969 87.40625 66.542969 Z M 87.40625 66.542969 " fill-opacity="1" fill-rule="nonzero"/></g><path fill="#ffffff" d="M 99.039062 57.003906 C 100.808594 56.363281 108.515625 54.964844 112.523438 53.582031 C 115.761719 52.464844 118.605469 54.636719 112.457031 56.9375 C 106.523438 59.15625 100.363281 58.976562 95.867188 60.75 C 94.167969 61.421875 92.691406 59.304688 99.039062 57.003906 Z M 99.039062 57.003906 " fill-opacity="1" fill-rule="nonzero"/><path fill="#4aa276" d="M 114.480469 43.359375 C 114.480469 43.359375 104.628906 54.59375 100.441406 59.332031 C 104.1875 57.800781 107.539062 58.09375 110.742188 56.21875 C 113.945312 54.34375 115.40625 52.34375 120.265625 46.800781 C 122.070312 44.742188 114.480469 43.359375 114.480469 43.359375 Z M 114.480469 43.359375 " fill-opacity="1" fill-rule="nonzero"/></svg>