<?xml version="1.0" encoding="UTF-8"?>
<svg xmlns="http://www.w3.org/2000/svg" xmlns:xlink="http://www.w3.org/1999/xlink" width="20px" height="20px" viewBox="0 0 20 20" version="1.1">
<defs>
<clipPath id="clip1">
  <path d="M 2.257812 2.03125 L 17.742188 2.03125 L 17.742188 17.515625 L 2.257812 17.515625 Z M 2.257812 2.03125 "/>
</clipPath>
</defs>
<g id="surface1">
<g clip-path="url(#clip1)" clip-rule="nonzero">
<path style=" stroke:none;fill-rule:evenodd;fill:rgb(100%,100%,100%);fill-opacity:1;" d="M 10 17.515625 C 14.277344 17.515625 17.742188 14.050781 17.742188 9.773438 C 17.742188 5.496094 14.277344 2.03125 10 2.03125 C 5.722656 2.03125 2.257812 5.496094 2.257812 9.773438 C 2.257812 14.050781 5.722656 17.515625 10 17.515625 Z M 14.121094 6.742188 L 12.707031 12.984375 C 12.699219 13.019531 12.691406 13.050781 12.675781 13.082031 C 12.664062 13.101562 12.652344 13.117188 12.640625 13.136719 C 12.59375 13.199219 12.527344 13.25 12.449219 13.277344 C 12.316406 13.324219 12.167969 13.296875 12.058594 13.207031 L 10.21875 11.699219 L 9.445312 13.089844 C 9.367188 13.234375 9.207031 13.316406 9.046875 13.296875 C 8.886719 13.277344 8.75 13.164062 8.707031 13.007812 L 7.96875 10.425781 L 6.195312 10.066406 C 6.019531 10.035156 5.890625 9.886719 5.871094 9.710938 C 5.871094 9.699219 5.871094 9.691406 5.871094 9.675781 C 5.871094 9.667969 5.871094 9.652344 5.871094 9.640625 C 5.886719 9.492188 5.980469 9.355469 6.121094 9.300781 L 13.574219 6.28125 C 13.578125 6.277344 13.582031 6.277344 13.589844 6.273438 C 13.648438 6.253906 13.710938 6.246094 13.773438 6.253906 C 13.816406 6.257812 13.863281 6.269531 13.902344 6.289062 C 13.90625 6.292969 13.910156 6.292969 13.917969 6.296875 C 13.972656 6.324219 14.019531 6.371094 14.058594 6.421875 C 14.074219 6.449219 14.089844 6.480469 14.105469 6.511719 C 14.117188 6.550781 14.125 6.589844 14.128906 6.628906 C 14.128906 6.664062 14.128906 6.703125 14.121094 6.742188 Z M 11.847656 8.308594 L 9.789062 10.828125 C 9.769531 10.847656 9.757812 10.871094 9.746094 10.894531 L 9.214844 11.851562 L 8.757812 10.253906 Z M 11.847656 8.308594 "/>
</g>
</g>
</svg>
