<?xml version="1.0" encoding="UTF-8"?>
<svg xmlns="http://www.w3.org/2000/svg" xmlns:xlink="http://www.w3.org/1999/xlink" width="20px" height="20px" viewBox="0 0 20 20" version="1.1">
<defs>
<clipPath id="clip1">
  <path d="M 3.527344 1.535156 L 16.59375 1.535156 L 16.59375 17.988281 L 3.527344 17.988281 Z M 3.527344 1.535156 "/>
</clipPath>
</defs>
<g id="surface1">
<path style=" stroke:none;fill-rule:nonzero;fill:rgb(100%,100%,100%);fill-opacity:1;" d="M 8.898438 12.027344 L 6.558594 12.027344 C 6.28125 12.027344 6.074219 12.253906 6.074219 12.511719 C 6.074219 12.769531 6.300781 12.992188 6.558594 12.992188 L 8.898438 12.992188 C 9.171875 12.992188 9.378906 12.769531 9.378906 12.511719 C 9.378906 12.253906 9.171875 12.027344 8.898438 12.027344 "/>
<path style=" stroke:none;fill-rule:nonzero;fill:rgb(100%,100%,100%);fill-opacity:1;" d="M 6.558594 10.582031 L 11.425781 10.582031 C 11.703125 10.582031 11.910156 10.355469 11.910156 10.097656 C 11.910156 9.824219 11.683594 9.617188 11.425781 9.617188 L 6.558594 9.617188 C 6.28125 9.617188 6.074219 9.839844 6.074219 10.097656 C 6.074219 10.355469 6.300781 10.582031 6.558594 10.582031 "/>
<path style=" stroke:none;fill-rule:nonzero;fill:rgb(100%,100%,100%);fill-opacity:1;" d="M 6.558594 8.136719 L 11.425781 8.136719 C 11.703125 8.136719 11.910156 7.910156 11.910156 7.652344 C 11.910156 7.378906 11.683594 7.171875 11.425781 7.171875 L 6.558594 7.171875 C 6.28125 7.171875 6.074219 7.394531 6.074219 7.652344 C 6.074219 7.910156 6.300781 8.136719 6.558594 8.136719 "/>
<path style=" stroke:none;fill-rule:nonzero;fill:rgb(100%,100%,100%);fill-opacity:1;" d="M 6.558594 5.691406 L 8.554688 5.691406 C 8.828125 5.691406 9.035156 5.464844 9.035156 5.207031 C 9.035156 4.933594 8.8125 4.726562 8.554688 4.726562 L 6.558594 4.726562 C 6.28125 4.726562 6.074219 4.949219 6.074219 5.207031 C 6.074219 5.464844 6.300781 5.691406 6.558594 5.691406 "/>
<g clip-path="url(#clip1)" clip-rule="nonzero">
<path style=" stroke:none;fill-rule:nonzero;fill:rgb(100%,100%,100%);fill-opacity:1;" d="M 13.199219 16.972656 C 11.875 16.972656 10.792969 15.886719 10.792969 14.558594 C 10.792969 13.234375 11.875 12.148438 13.199219 12.148438 C 14.523438 12.148438 15.609375 13.234375 15.609375 14.558594 C 15.609375 15.886719 14.523438 16.972656 13.199219 16.972656 Z M 4.492188 14.714844 L 4.492188 2.574219 L 10.394531 2.574219 L 10.394531 5.207031 C 10.394531 5.484375 10.617188 5.691406 10.878906 5.691406 L 13.492188 5.691406 L 13.492188 11.183594 C 13.386719 11.167969 13.285156 11.167969 13.183594 11.167969 C 11.324219 11.167969 9.792969 12.683594 9.792969 14.558594 L 9.792969 14.714844 Z M 11.375 2.761719 L 13.320312 4.707031 L 11.375 4.707031 Z M 14.488281 11.425781 L 14.488281 4.691406 C 14.488281 4.570312 14.4375 4.433594 14.355469 4.347656 L 11.738281 1.730469 C 11.652344 1.644531 11.511719 1.589844 11.394531 1.589844 L 4.011719 1.589844 C 3.734375 1.589844 3.527344 1.816406 3.527344 2.074219 L 3.527344 15.199219 C 3.527344 15.472656 3.753906 15.679688 4.011719 15.679688 L 10.015625 15.679688 C 10.480469 16.988281 11.738281 17.933594 13.199219 17.933594 C 15.058594 17.933594 16.589844 16.417969 16.589844 14.542969 C 16.589844 13.144531 15.710938 11.941406 14.488281 11.425781 "/>
</g>
<path style=" stroke:none;fill-rule:nonzero;fill:rgb(100%,100%,100%);fill-opacity:1;" d="M 13.855469 13.613281 L 12.800781 14.664062 L 12.460938 14.316406 C 12.269531 14.128906 11.960938 14.128906 11.769531 14.316406 C 11.582031 14.507812 11.582031 14.816406 11.769531 15.007812 L 12.476562 15.714844 C 12.582031 15.816406 12.699219 15.851562 12.820312 15.851562 C 12.941406 15.851562 13.078125 15.800781 13.167969 15.714844 L 14.574219 14.300781 C 14.765625 14.113281 14.765625 13.800781 14.574219 13.613281 C 14.355469 13.421875 14.042969 13.421875 13.855469 13.613281 "/>
</g>
</svg>
