<svg xmlns="http://www.w3.org/2000/svg" xmlns:xlink="http://www.w3.org/1999/xlink" width="40" zoomAndPan="magnify" viewBox="0 0 30 30.000001" height="40" preserveAspectRatio="xMidYMid meet" version="1.0"><defs><clipPath id="d2c9b54fd8"><path d="M 2.515625 2.03125 L 27.195312 2.03125 L 27.195312 26.710938 L 2.515625 26.710938 Z M 2.515625 2.03125 " clip-rule="nonzero"/></clipPath></defs><g clip-path="url(#d2c9b54fd8)"><path fill="#ffffff" d="M 23.335938 25.9375 L 15.621094 25.9375 C 16.464844 25.308594 17.039062 24.339844 17.148438 23.238281 L 26.398438 23.238281 C 26.207031 24.757812 24.910156 25.9375 23.335938 25.9375 Z M 9.433594 5.503906 L 3.3125 5.503906 C 3.5 3.984375 4.800781 2.804688 6.371094 2.804688 C 7.941406 2.804688 9.242188 3.984375 9.433594 5.503906 Z M 26.808594 22.46875 L 24.878906 22.46875 L 24.878906 5.886719 C 24.878906 3.761719 23.152344 2.03125 21.023438 2.03125 L 6.371094 2.03125 C 4.246094 2.03125 2.515625 3.761719 2.515625 5.886719 C 2.515625 6.101562 2.6875 6.273438 2.902344 6.273438 L 9.457031 6.273438 L 9.457031 12.460938 C 9.457031 12.675781 9.628906 12.847656 9.84375 12.847656 C 10.054688 12.847656 10.226562 12.675781 10.226562 12.460938 L 10.226562 5.886719 C 10.226562 4.625 9.613281 3.507812 8.675781 2.804688 L 21.023438 2.804688 C 22.726562 2.804688 24.109375 4.1875 24.109375 5.886719 L 24.109375 22.46875 L 16.78125 22.46875 C 16.570312 22.46875 16.398438 22.640625 16.398438 22.855469 C 16.398438 24.554688 15.011719 25.9375 13.3125 25.9375 C 12.152344 25.9375 11.105469 25.300781 10.570312 24.269531 C 10.472656 24.082031 10.238281 24.007812 10.050781 24.105469 C 9.863281 24.203125 9.789062 24.4375 9.886719 24.625 C 10.554688 25.910156 11.863281 26.710938 13.3125 26.710938 L 23.335938 26.710938 C 25.464844 26.710938 27.195312 24.980469 27.195312 22.855469 C 27.195312 22.640625 27.019531 22.46875 26.808594 22.46875 " fill-opacity="1" fill-rule="nonzero"/></g><path fill="#ffffff" d="M 13.3125 12.214844 L 21.023438 12.214844 C 21.238281 12.214844 21.410156 12.042969 21.410156 11.828125 C 21.410156 11.617188 21.238281 11.445312 21.023438 11.445312 L 13.3125 11.445312 C 13.101562 11.445312 12.925781 11.617188 12.925781 11.828125 C 12.925781 12.042969 13.101562 12.214844 13.3125 12.214844 " fill-opacity="1" fill-rule="nonzero"/><path fill="#ffffff" d="M 21.023438 14.015625 L 14.46875 14.015625 C 14.257812 14.015625 14.082031 14.1875 14.082031 14.402344 C 14.082031 14.613281 14.257812 14.785156 14.46875 14.785156 L 21.023438 14.785156 C 21.238281 14.785156 21.410156 14.613281 21.410156 14.402344 C 21.410156 14.1875 21.238281 14.015625 21.023438 14.015625 " fill-opacity="1" fill-rule="nonzero"/><path fill="#ffffff" d="M 21.023438 16.585938 L 16.011719 16.585938 C 15.800781 16.585938 15.625 16.757812 15.625 16.972656 C 15.625 17.183594 15.800781 17.359375 16.011719 17.359375 L 21.023438 17.359375 C 21.238281 17.359375 21.410156 17.183594 21.410156 16.972656 C 21.410156 16.757812 21.238281 16.585938 21.023438 16.585938 " fill-opacity="1" fill-rule="nonzero"/><path fill="#ffffff" d="M 21.023438 19.15625 L 16.011719 19.15625 C 15.800781 19.15625 15.625 19.328125 15.625 19.542969 C 15.625 19.753906 15.800781 19.925781 16.011719 19.925781 L 21.023438 19.925781 C 21.238281 19.925781 21.410156 19.753906 21.410156 19.542969 C 21.410156 19.328125 21.238281 19.15625 21.023438 19.15625 " fill-opacity="1" fill-rule="nonzero"/><path fill="#ffffff" d="M 13.3125 7.074219 L 21.023438 7.074219 C 21.238281 7.074219 21.410156 6.902344 21.410156 6.6875 C 21.410156 6.476562 21.238281 6.304688 21.023438 6.304688 L 13.3125 6.304688 C 13.101562 6.304688 12.925781 6.476562 12.925781 6.6875 C 12.925781 6.902344 13.101562 7.074219 13.3125 7.074219 " fill-opacity="1" fill-rule="nonzero"/><path fill="#ffffff" d="M 13.3125 9.644531 L 21.023438 9.644531 C 21.238281 9.644531 21.410156 9.472656 21.410156 9.261719 C 21.410156 9.046875 21.238281 8.875 21.023438 8.875 L 13.3125 8.875 C 13.101562 8.875 12.925781 9.046875 12.925781 9.261719 C 12.925781 9.472656 13.101562 9.644531 13.3125 9.644531 " fill-opacity="1" fill-rule="nonzero"/><path fill="#ffffff" d="M 9.84375 22.730469 C 7.503906 22.730469 5.601562 20.828125 5.601562 18.488281 C 5.601562 16.148438 7.503906 14.246094 9.84375 14.246094 C 12.179688 14.246094 14.082031 16.148438 14.082031 18.488281 C 14.082031 20.828125 12.179688 22.730469 9.84375 22.730469 Z M 14.855469 18.488281 C 14.855469 15.722656 12.605469 13.476562 9.84375 13.476562 C 7.078125 13.476562 4.828125 15.722656 4.828125 18.488281 C 4.828125 21.25 7.078125 23.5 9.84375 23.5 C 12.605469 23.5 14.855469 21.25 14.855469 18.488281 " fill-opacity="1" fill-rule="nonzero"/><path fill="#ffffff" d="M 9.324219 16.933594 L 10.359375 16.933594 C 10.710938 16.933594 11 17.195312 11 17.515625 C 11 17.730469 11.171875 17.902344 11.382812 17.902344 C 11.597656 17.902344 11.769531 17.730469 11.769531 17.515625 C 11.769531 16.769531 11.136719 16.160156 10.359375 16.160156 L 10.226562 16.160156 L 10.226562 15.402344 C 10.226562 15.191406 10.054688 15.015625 9.84375 15.015625 C 9.628906 15.015625 9.457031 15.191406 9.457031 15.402344 L 9.457031 16.160156 L 9.324219 16.160156 C 8.546875 16.160156 7.914062 16.769531 7.914062 17.515625 C 7.914062 18.265625 8.546875 18.871094 9.324219 18.871094 L 10.359375 18.871094 C 10.710938 18.871094 11 19.136719 11 19.457031 C 11 19.78125 10.710938 20.042969 10.359375 20.042969 L 9.324219 20.042969 C 8.972656 20.042969 8.683594 19.78125 8.683594 19.457031 C 8.683594 19.246094 8.511719 19.074219 8.300781 19.074219 C 8.085938 19.074219 7.914062 19.246094 7.914062 19.457031 C 7.914062 20.207031 8.546875 20.8125 9.324219 20.8125 L 9.457031 20.8125 L 9.457031 21.570312 C 9.457031 21.785156 9.628906 21.957031 9.84375 21.957031 C 10.054688 21.957031 10.226562 21.785156 10.226562 21.570312 L 10.226562 20.8125 L 10.359375 20.8125 C 11.136719 20.8125 11.769531 20.207031 11.769531 19.457031 C 11.769531 18.710938 11.136719 18.101562 10.359375 18.101562 L 9.324219 18.101562 C 8.972656 18.101562 8.683594 17.839844 8.683594 17.515625 C 8.683594 17.195312 8.972656 16.933594 9.324219 16.933594 " fill-opacity="1" fill-rule="nonzero"/></svg>