<svg xmlns="http://www.w3.org/2000/svg" xmlns:xlink="http://www.w3.org/1999/xlink" width="40" zoomAndPan="magnify" viewBox="0 0 30 30.000001" height="40" preserveAspectRatio="xMidYMid meet" version="1.0"><defs><clipPath id="9ba7c4593d"><path d="M 2 1 L 28.71875 1 L 28.71875 28 L 2 28 Z M 2 1 " clip-rule="nonzero"/></clipPath></defs><g clip-path="url(#9ba7c4593d)"><path fill="#ffffff" d="M 24.589844 5.644531 C 24.246094 5.300781 23.882812 4.976562 23.503906 4.675781 C 23.125 4.375 22.726562 4.09375 22.316406 3.839844 C 21.902344 3.582031 21.476562 3.351562 21.039062 3.140625 C 20.601562 2.933594 20.152344 2.753906 19.691406 2.597656 C 19.230469 2.441406 18.765625 2.3125 18.289062 2.207031 C 17.816406 2.105469 17.335938 2.03125 16.851562 1.984375 C 16.371094 1.9375 15.886719 1.917969 15.402344 1.925781 C 14.914062 1.933594 14.433594 1.96875 13.949219 2.03125 C 13.46875 2.09375 12.992188 2.183594 12.523438 2.304688 C 12.050781 2.421875 11.589844 2.566406 11.132812 2.734375 C 10.679688 2.90625 10.238281 3.105469 9.804688 3.324219 C 9.375 3.546875 8.957031 3.792969 8.550781 4.0625 C 8.148438 4.332031 7.761719 4.625 7.390625 4.9375 C 7.019531 5.253906 6.667969 5.585938 6.339844 5.941406 C 6.007812 6.296875 5.695312 6.667969 5.40625 7.058594 C 5.117188 7.445312 4.851562 7.851562 4.609375 8.273438 C 4.367188 8.691406 4.148438 9.125 3.953125 9.570312 C 3.761719 10.015625 3.59375 10.472656 3.453125 10.9375 C 3.3125 11.402344 3.199219 11.871094 3.113281 12.347656 C 3.023438 12.828125 2.964844 13.308594 2.933594 13.792969 C 2.902344 14.277344 2.898438 14.761719 2.921875 15.246094 C 2.945312 15.730469 2.996094 16.214844 3.074219 16.691406 C 3.15625 17.171875 3.261719 17.644531 3.394531 18.109375 C 3.527344 18.578125 3.6875 19.035156 3.871094 19.484375 C 4.058594 19.933594 4.269531 20.367188 4.503906 20.792969 C 4.742188 21.21875 5 21.628906 5.28125 22.023438 C 5.566406 22.417969 5.871094 22.792969 6.195312 23.152344 C 6.523438 23.511719 6.867188 23.851562 7.234375 24.171875 C 7.597656 24.492188 7.980469 24.792969 8.378906 25.066406 C 8.777344 25.34375 9.191406 25.597656 9.621094 25.824219 C 10.046875 26.054688 10.488281 26.257812 10.9375 26.4375 C 11.390625 26.613281 11.851562 26.765625 12.320312 26.894531 C 12.789062 27.019531 13.261719 27.117188 13.742188 27.1875 C 14.222656 27.257812 14.707031 27.304688 15.191406 27.320312 C 15.675781 27.335938 16.160156 27.324219 16.644531 27.285156 C 17.128906 27.242188 17.609375 27.175781 18.085938 27.082031 C 18.5625 26.988281 19.03125 26.867188 19.492188 26.71875 C 19.953125 26.570312 20.40625 26.394531 20.847656 26.195312 C 21.292969 25.992188 21.71875 25.769531 22.136719 25.519531 C 22.554688 25.269531 22.953125 24.996094 23.339844 24.703125 C 23.722656 24.40625 24.089844 24.089844 24.441406 23.75 C 24.789062 23.414062 25.117188 23.058594 25.425781 22.683594 C 25.734375 22.308594 26.019531 21.914062 26.28125 21.507812 C 26.546875 21.101562 26.785156 20.679688 27 20.242188 C 27.214844 19.808594 27.402344 19.359375 27.566406 18.902344 C 27.730469 18.445312 27.867188 17.980469 27.976562 17.507812 C 28.085938 17.035156 28.171875 16.558594 28.226562 16.078125 C 28.28125 15.59375 28.308594 15.109375 28.308594 14.625 C 28.308594 12.941406 27.988281 11.320312 27.34375 9.765625 C 26.699219 8.207031 25.78125 6.835938 24.589844 5.644531 Z M 11.886719 7.546875 L 12.976562 9 L 11.523438 10.089844 L 22.867188 10.089844 L 22.867188 11.902344 L 11.523438 11.902344 L 12.976562 12.992188 L 11.886719 14.445312 L 7.289062 10.996094 Z M 19.328125 21.703125 L 18.238281 20.25 L 19.691406 19.160156 L 9.257812 19.160156 L 9.257812 17.347656 L 19.691406 17.347656 L 18.238281 16.257812 L 19.328125 14.804688 L 23.925781 18.253906 Z M 19.328125 21.703125 " fill-opacity="1" fill-rule="nonzero"/></g></svg>