<?xml version="1.0" encoding="UTF-8"?>
<svg xmlns="http://www.w3.org/2000/svg" xmlns:xlink="http://www.w3.org/1999/xlink" width="20px" height="20px" viewBox="0 0 20 20" version="1.1">
<defs>
<clipPath id="clip1">
  <path d="M 1.363281 1.039062 L 18.78125 1.039062 L 18.78125 18.460938 L 1.363281 18.460938 Z M 1.363281 1.039062 "/>
</clipPath>
</defs>
<g id="surface1">
<path style=" stroke:none;fill-rule:nonzero;fill:rgb(100%,100%,100%);fill-opacity:1;" d="M 13.902344 7.835938 C 13.902344 7.835938 14.035156 10.613281 11.914062 12.332031 C 8.753906 14.902344 5.339844 12.816406 5.339844 12.816406 C 5.339844 12.816406 6.167969 12.832031 6.902344 12.632812 C 7.636719 12.433594 8.15625 11.964844 8.15625 11.964844 C 8.15625 11.964844 7.355469 11.796875 6.949219 11.496094 C 6.527344 11.195312 6.375 10.613281 6.375 10.613281 C 6.375 10.613281 6.644531 10.636719 6.824219 10.636719 C 6.996094 10.628906 7.210938 10.550781 7.210938 10.550781 C 7.210938 10.550781 6.636719 10.484375 6.105469 9.882812 C 5.683594 9.410156 5.714844 8.628906 5.714844 8.628906 C 5.714844 8.628906 5.964844 8.773438 6.105469 8.808594 C 6.234375 8.847656 6.492188 8.847656 6.492188 8.847656 C 6.492188 8.847656 5.992188 8.546875 5.765625 7.785156 C 5.542969 7.011719 5.972656 6.234375 5.972656 6.234375 C 5.972656 6.234375 6.707031 7.128906 7.8125 7.710938 C 8.921875 8.289062 9.964844 8.269531 9.964844 8.269531 C 9.964844 8.269531 9.808594 7.804688 10.074219 7.128906 C 10.335938 6.449219 10.9375 5.964844 11.847656 5.890625 C 12.757812 5.816406 13.339844 6.507812 13.339844 6.507812 C 13.339844 6.507812 13.617188 6.457031 13.941406 6.339844 C 14.261719 6.222656 14.578125 6.074219 14.578125 6.074219 C 14.578125 6.074219 14.46875 6.417969 14.246094 6.691406 C 14.027344 6.960938 13.777344 7.121094 13.777344 7.121094 C 13.777344 7.121094 14.066406 7.101562 14.351562 7.019531 C 14.636719 6.941406 14.796875 6.859375 14.796875 6.859375 C 14.480469 7.417969 13.902344 7.835938 13.902344 7.835938 Z M 13.902344 7.835938 "/>
<g clip-path="url(#clip1)" clip-rule="nonzero">
<path style=" stroke:none;fill-rule:nonzero;fill:rgb(100%,100%,100%);fill-opacity:1;" d="M 10.074219 18.460938 C 5.273438 18.460938 1.363281 14.558594 1.363281 9.75 C 1.363281 4.941406 5.273438 1.039062 10.074219 1.039062 C 14.871094 1.039062 18.78125 4.949219 18.78125 9.75 C 18.78125 14.550781 14.878906 18.460938 10.074219 18.460938 Z M 10.074219 1.519531 C 5.53125 1.519531 1.839844 5.207031 1.839844 9.75 C 1.839844 14.292969 5.53125 17.980469 10.074219 17.980469 C 14.613281 17.980469 18.304688 14.292969 18.304688 9.75 C 18.304688 5.207031 14.613281 1.519531 10.074219 1.519531 Z M 10.074219 1.519531 "/>
</g>
</g>
</svg>
