<?xml version="1.0" encoding="UTF-8"?>
<svg xmlns="http://www.w3.org/2000/svg" xmlns:xlink="http://www.w3.org/1999/xlink" width="24px" height="24px" viewBox="0 0 24 24" version="1.1">
<defs>
<clipPath id="clip1">
  <path d="M 1.226562 1.238281 L 22.710938 1.238281 L 22.710938 23.226562 L 1.226562 23.226562 Z M 1.226562 1.238281 "/>
</clipPath>
</defs>
<g id="surface1">
<g clip-path="url(#clip1)" clip-rule="nonzero">
<path style=" stroke:none;fill-rule:evenodd;fill:rgb(100%,100%,100%);fill-opacity:1;" d="M 17.757812 20.949219 L 17.757812 21.917969 C 17.757812 22.679688 18.375 23.296875 19.140625 23.296875 C 19.902344 23.296875 20.523438 22.679688 20.523438 21.917969 L 20.523438 17.925781 C 20.523438 17.921875 20.523438 17.914062 20.523438 17.914062 C 20.519531 17.523438 20.351562 17.140625 20.03125 16.871094 C 19.773438 16.65625 19.460938 16.550781 19.152344 16.550781 C 19.148438 16.550781 19.144531 16.550781 19.140625 16.550781 L 15.128906 16.550781 C 14.367188 16.550781 13.742188 17.164062 13.742188 17.925781 C 13.742188 18.632812 14.277344 19.214844 14.96875 19.292969 C 14.042969 19.667969 13.03125 19.875 11.972656 19.875 C 7.570312 19.875 4 16.320312 4 11.941406 C 4 11.179688 3.378906 10.5625 2.617188 10.5625 C 1.851562 10.5625 1.230469 11.179688 1.230469 11.941406 C 1.230469 17.839844 6.042969 22.632812 11.972656 22.632812 C 14.101562 22.632812 16.085938 22.011719 17.757812 20.949219 Z M 3.421875 6.632812 C 3.429688 7.019531 3.59375 7.402344 3.914062 7.671875 C 4.171875 7.886719 4.484375 7.992188 4.792969 7.992188 C 4.796875 7.992188 4.804688 7.992188 4.804688 7.992188 L 8.820312 7.992188 C 9.582031 7.992188 10.203125 7.378906 10.203125 6.617188 C 10.203125 5.914062 9.667969 5.328125 8.976562 5.246094 C 9.902344 4.875 10.914062 4.667969 11.972656 4.667969 C 16.375 4.667969 19.945312 8.226562 19.945312 12.601562 C 19.945312 13.367188 20.570312 13.980469 21.332031 13.980469 C 22.097656 13.980469 22.714844 13.367188 22.714844 12.601562 C 22.714844 6.703125 17.902344 1.914062 11.972656 1.914062 C 9.847656 1.914062 7.863281 2.53125 6.191406 3.59375 L 6.191406 2.625 C 6.191406 1.867188 5.570312 1.246094 4.804688 1.246094 C 4.042969 1.246094 3.421875 1.867188 3.421875 2.625 L 3.421875 6.617188 C 3.421875 6.621094 3.421875 6.625 3.421875 6.632812 Z M 3.421875 6.632812 "/>
</g>
</g>
</svg>
