<svg xmlns="http://www.w3.org/2000/svg" xmlns:xlink="http://www.w3.org/1999/xlink" width="100" zoomAndPan="magnify" viewBox="0 0 75 74.999997" height="100" preserveAspectRatio="xMidYMid meet" version="1.0"><defs><clipPath id="103e050dcb"><path d="M 5 4.96875 L 70 4.96875 L 70 70.21875 L 5 70.21875 Z M 5 4.96875 " clip-rule="nonzero"/></clipPath></defs><g clip-path="url(#103e050dcb)"><path fill="#ffffff" d="M 19.839844 22.84375 C 19.84375 22.261719 19.871094 21.679688 19.929688 21.097656 C 19.988281 20.515625 20.074219 19.9375 20.1875 19.363281 C 20.300781 18.792969 20.445312 18.226562 20.613281 17.667969 C 20.785156 17.109375 20.980469 16.558594 21.203125 16.019531 C 21.429688 15.480469 21.679688 14.953125 21.953125 14.4375 C 22.230469 13.921875 22.53125 13.421875 22.855469 12.933594 C 23.179688 12.449219 23.527344 11.980469 23.898438 11.527344 C 24.269531 11.078125 24.660156 10.644531 25.074219 10.230469 C 25.488281 9.820312 25.917969 9.425781 26.371094 9.054688 C 26.820312 8.683594 27.289062 8.335938 27.777344 8.011719 C 28.261719 7.6875 28.761719 7.386719 29.277344 7.113281 C 29.792969 6.835938 30.320312 6.585938 30.859375 6.363281 C 31.398438 6.136719 31.949219 5.941406 32.507812 5.769531 C 33.066406 5.601562 33.632812 5.457031 34.207031 5.34375 C 34.777344 5.230469 35.355469 5.144531 35.9375 5.085938 C 36.519531 5.027344 37.101562 5 37.6875 4.996094 C 61.273438 5.832031 61.320312 39.785156 37.746094 40.6875 C 37.160156 40.691406 36.578125 40.664062 35.996094 40.605469 C 35.410156 40.550781 34.832031 40.46875 34.257812 40.355469 C 33.683594 40.242188 33.117188 40.101562 32.554688 39.929688 C 31.996094 39.761719 31.445312 39.566406 30.902344 39.34375 C 30.359375 39.121094 29.832031 38.871094 29.316406 38.597656 C 28.796875 38.320312 28.296875 38.023438 27.808594 37.699219 C 27.320312 37.375 26.851562 37.027344 26.398438 36.65625 C 25.945312 36.285156 25.507812 35.890625 25.09375 35.480469 C 24.679688 35.066406 24.285156 34.632812 23.914062 34.179688 C 23.542969 33.730469 23.191406 33.261719 22.867188 32.773438 C 22.542969 32.289062 22.238281 31.785156 21.964844 31.269531 C 21.6875 30.753906 21.433594 30.226562 21.210938 29.683594 C 20.984375 29.144531 20.789062 28.59375 20.617188 28.035156 C 20.445312 27.472656 20.304688 26.90625 20.1875 26.332031 C 20.074219 25.757812 19.988281 25.179688 19.929688 24.597656 C 19.871094 24.015625 19.84375 23.429688 19.839844 22.84375 Z M 55.746094 40.699219 C 55.261719 40.398438 54.734375 40.257812 54.164062 40.273438 C 53.597656 40.285156 53.078125 40.453125 52.605469 40.773438 C 51.542969 41.640625 50.410156 42.40625 49.210938 43.078125 C 48.015625 43.746094 46.769531 44.308594 45.472656 44.761719 C 44.179688 45.214844 42.855469 45.558594 41.503906 45.78125 C 40.148438 46.007812 38.785156 46.117188 37.414062 46.105469 C 36.042969 46.097656 34.683594 45.96875 33.332031 45.726562 C 31.980469 45.480469 30.664062 45.121094 29.375 44.648438 C 28.085938 44.175781 26.847656 43.597656 25.660156 42.910156 C 24.472656 42.226562 23.351562 41.441406 22.300781 40.5625 C 21.898438 40.378906 21.476562 40.296875 21.035156 40.320312 C 20.589844 40.34375 20.179688 40.46875 19.800781 40.695312 C 18.703125 41.425781 17.652344 42.21875 16.652344 43.078125 C 15.652344 43.9375 14.710938 44.855469 13.824219 45.832031 C 12.9375 46.808594 12.113281 47.835938 11.355469 48.914062 C 10.59375 49.988281 9.902344 51.109375 9.28125 52.273438 C 8.660156 53.433594 8.109375 54.632812 7.636719 55.863281 C 7.164062 57.09375 6.765625 58.347656 6.445312 59.625 C 6.128906 60.90625 5.886719 62.199219 5.726562 63.507812 C 5.566406 64.816406 5.488281 66.132812 5.492188 67.449219 C 5.492188 67.8125 5.558594 68.164062 5.699219 68.5 C 5.839844 68.835938 6.035156 69.132812 6.292969 69.390625 C 6.550781 69.644531 6.847656 69.84375 7.183594 69.984375 C 7.519531 70.121094 7.871094 70.191406 8.234375 70.191406 L 67.230469 70.191406 C 67.59375 70.191406 67.945312 70.121094 68.28125 69.984375 C 68.617188 69.84375 68.914062 69.644531 69.167969 69.390625 C 69.425781 69.132812 69.625 68.835938 69.765625 68.5 C 69.902344 68.164062 69.972656 67.8125 69.972656 67.449219 C 69.972656 66.132812 69.890625 64.824219 69.730469 63.519531 C 69.566406 62.210938 69.328125 60.921875 69.007812 59.644531 C 68.691406 58.367188 68.296875 57.117188 67.824219 55.886719 C 67.351562 54.660156 66.808594 53.464844 66.191406 52.304688 C 65.570312 51.140625 64.886719 50.023438 64.132812 48.945312 C 63.378906 47.867188 62.558594 46.839844 61.679688 45.859375 C 60.800781 44.882812 59.863281 43.960938 58.871094 43.097656 C 57.878906 42.234375 56.835938 41.433594 55.746094 40.699219 Z M 55.746094 40.699219 " fill-opacity="1" fill-rule="nonzero"/></g></svg>