<svg xmlns="http://www.w3.org/2000/svg" xmlns:xlink="http://www.w3.org/1999/xlink" width="40" zoomAndPan="magnify" viewBox="0 0 30 30.000001" height="40" preserveAspectRatio="xMidYMid meet" version="1.0"><defs><clipPath id="3451cf5d4d"><path d="M 8 3.738281 L 14 3.738281 L 14 9 L 8 9 Z M 8 3.738281 " clip-rule="nonzero"/></clipPath><clipPath id="9ed1512fda"><path d="M 16 3.738281 L 21 3.738281 L 21 9 L 16 9 Z M 16 3.738281 " clip-rule="nonzero"/></clipPath><clipPath id="6b39d4054b"><path d="M 10 18 L 20 18 L 20 25.515625 L 10 25.515625 Z M 10 18 " clip-rule="nonzero"/></clipPath><clipPath id="ae4faaa59c"><path d="M 3.285156 15 L 12 15 L 12 23 L 3.285156 23 Z M 3.285156 15 " clip-rule="nonzero"/></clipPath><clipPath id="b22e75471b"><path d="M 18 15 L 26.511719 15 L 26.511719 23 L 18 23 Z M 18 15 " clip-rule="nonzero"/></clipPath></defs><g clip-path="url(#3451cf5d4d)"><path fill="#ffffff" d="M 13.507812 6.109375 C 13.507812 6.421875 13.445312 6.722656 13.328125 7.011719 C 13.210938 7.304688 13.042969 7.558594 12.824219 7.78125 C 12.609375 8.003906 12.355469 8.175781 12.074219 8.292969 C 11.789062 8.414062 11.492188 8.472656 11.183594 8.472656 C 10.875 8.472656 10.578125 8.414062 10.292969 8.292969 C 10.011719 8.175781 9.757812 8.003906 9.542969 7.78125 C 9.324219 7.558594 9.15625 7.304688 9.039062 7.011719 C 8.917969 6.722656 8.859375 6.421875 8.859375 6.109375 C 8.859375 5.792969 8.917969 5.492188 9.039062 5.203125 C 9.15625 4.910156 9.324219 4.65625 9.542969 4.433594 C 9.757812 4.210938 10.011719 4.042969 10.292969 3.921875 C 10.578125 3.800781 10.875 3.742188 11.183594 3.742188 C 11.492188 3.742188 11.789062 3.800781 12.074219 3.921875 C 12.355469 4.042969 12.609375 4.210938 12.824219 4.433594 C 13.042969 4.65625 13.210938 4.910156 13.328125 5.203125 C 13.445312 5.492188 13.507812 5.792969 13.507812 6.109375 Z M 13.507812 6.109375 " fill-opacity="1" fill-rule="nonzero"/></g><g clip-path="url(#9ed1512fda)"><path fill="#ffffff" d="M 20.84375 6.109375 C 20.84375 6.421875 20.785156 6.722656 20.667969 7.011719 C 20.550781 7.304688 20.382812 7.558594 20.164062 7.78125 C 19.949219 8.003906 19.695312 8.175781 19.410156 8.292969 C 19.128906 8.414062 18.832031 8.472656 18.523438 8.472656 C 18.214844 8.472656 17.917969 8.414062 17.632812 8.292969 C 17.347656 8.175781 17.097656 8.003906 16.878906 7.78125 C 16.664062 7.558594 16.496094 7.304688 16.378906 7.011719 C 16.257812 6.722656 16.199219 6.421875 16.199219 6.109375 C 16.199219 5.792969 16.257812 5.492188 16.378906 5.203125 C 16.496094 4.910156 16.664062 4.65625 16.878906 4.433594 C 17.097656 4.210938 17.347656 4.042969 17.632812 3.921875 C 17.917969 3.800781 18.214844 3.742188 18.523438 3.742188 C 18.832031 3.742188 19.128906 3.800781 19.410156 3.921875 C 19.695312 4.042969 19.949219 4.210938 20.164062 4.433594 C 20.382812 4.65625 20.550781 4.910156 20.667969 5.203125 C 20.785156 5.492188 20.84375 5.792969 20.84375 6.109375 Z M 20.84375 6.109375 " fill-opacity="1" fill-rule="nonzero"/></g><path fill="#ffffff" d="M 17.699219 15.113281 C 17.699219 15.488281 17.628906 15.851562 17.488281 16.199219 C 17.347656 16.546875 17.144531 16.855469 16.882812 17.121094 C 16.621094 17.386719 16.320312 17.59375 15.980469 17.738281 C 15.636719 17.882812 15.28125 17.953125 14.914062 17.953125 C 14.542969 17.953125 14.1875 17.882812 13.84375 17.738281 C 13.503906 17.59375 13.203125 17.386719 12.941406 17.121094 C 12.679688 16.855469 12.480469 16.546875 12.335938 16.199219 C 12.195312 15.851562 12.125 15.488281 12.125 15.113281 C 12.125 14.738281 12.195312 14.375 12.335938 14.027344 C 12.480469 13.679688 12.679688 13.371094 12.941406 13.105469 C 13.203125 12.839844 13.503906 12.632812 13.84375 12.488281 C 14.1875 12.34375 14.542969 12.273438 14.914062 12.273438 C 15.28125 12.273438 15.636719 12.34375 15.980469 12.488281 C 16.320312 12.632812 16.621094 12.839844 16.882812 13.105469 C 17.144531 13.371094 17.347656 13.679688 17.488281 14.027344 C 17.628906 14.375 17.699219 14.738281 17.699219 15.113281 Z M 17.699219 15.113281 " fill-opacity="1" fill-rule="nonzero"/><g clip-path="url(#6b39d4054b)"><path fill="#ffffff" d="M 14.914062 25.527344 C 12.050781 25.527344 11.023438 24.804688 10.917969 24.722656 C 10.800781 24.632812 10.730469 24.492188 10.730469 24.34375 L 10.730469 22.6875 C 10.730469 20.335938 12.605469 18.425781 14.914062 18.425781 C 17.21875 18.425781 19.09375 20.335938 19.09375 22.6875 L 19.09375 24.34375 C 19.09375 24.492188 19.023438 24.632812 18.90625 24.722656 C 18.800781 24.804688 17.773438 25.527344 14.914062 25.527344 Z M 14.914062 25.527344 " fill-opacity="1" fill-rule="nonzero"/></g><g clip-path="url(#ae4faaa59c)"><path fill="#ffffff" d="M 11.519531 18.804688 C 11.066406 16.953125 9.421875 15.574219 7.46875 15.574219 C 5.164062 15.574219 3.285156 17.484375 3.285156 19.832031 L 3.285156 21.488281 C 3.285156 21.636719 3.355469 21.777344 3.472656 21.867188 C 3.582031 21.949219 4.609375 22.671875 7.46875 22.671875 C 8.457031 22.671875 9.226562 22.585938 9.8125 22.46875 C 9.871094 21.011719 10.519531 19.710938 11.519531 18.804688 Z M 11.519531 18.804688 " fill-opacity="1" fill-rule="nonzero"/></g><g clip-path="url(#b22e75471b)"><path fill="#ffffff" d="M 22.332031 15.574219 C 20.382812 15.574219 18.746094 16.941406 18.285156 18.785156 C 19.296875 19.695312 19.953125 21.007812 20.011719 22.472656 C 20.597656 22.589844 21.355469 22.671875 22.332031 22.671875 C 25.191406 22.671875 26.21875 21.949219 26.328125 21.867188 C 26.445312 21.78125 26.511719 21.640625 26.511719 21.488281 L 26.511719 19.832031 C 26.511719 17.484375 24.636719 15.574219 22.332031 15.574219 Z M 22.332031 15.574219 " fill-opacity="1" fill-rule="nonzero"/></g><path fill="#ffffff" d="M 25.132812 12.273438 C 25.132812 12.648438 25.0625 13.011719 24.917969 13.359375 C 24.777344 13.707031 24.578125 14.015625 24.316406 14.28125 C 24.054688 14.546875 23.753906 14.753906 23.410156 14.898438 C 23.070312 15.042969 22.714844 15.113281 22.34375 15.113281 C 21.976562 15.113281 21.621094 15.042969 21.277344 14.898438 C 20.9375 14.753906 20.636719 14.546875 20.375 14.28125 C 20.113281 14.015625 19.910156 13.707031 19.769531 13.359375 C 19.628906 13.011719 19.558594 12.648438 19.558594 12.273438 C 19.558594 11.898438 19.628906 11.535156 19.769531 11.1875 C 19.910156 10.839844 20.113281 10.53125 20.375 10.265625 C 20.636719 10 20.9375 9.792969 21.277344 9.648438 C 21.621094 9.503906 21.976562 9.433594 22.34375 9.433594 C 22.714844 9.433594 23.070312 9.503906 23.410156 9.648438 C 23.753906 9.792969 24.054688 10 24.316406 10.265625 C 24.578125 10.53125 24.777344 10.839844 24.917969 11.1875 C 25.0625 11.535156 25.132812 11.898438 25.132812 12.273438 Z M 25.132812 12.273438 " fill-opacity="1" fill-rule="nonzero"/><path fill="#ffffff" d="M 10.265625 12.273438 C 10.265625 12.648438 10.195312 13.011719 10.054688 13.359375 C 9.914062 13.707031 9.710938 14.015625 9.449219 14.28125 C 9.1875 14.546875 8.886719 14.753906 8.546875 14.898438 C 8.207031 15.042969 7.847656 15.113281 7.480469 15.113281 C 7.109375 15.113281 6.753906 15.042969 6.414062 14.898438 C 6.070312 14.753906 5.769531 14.546875 5.507812 14.28125 C 5.246094 14.015625 5.046875 13.707031 4.90625 13.359375 C 4.761719 13.011719 4.691406 12.648438 4.691406 12.273438 C 4.691406 11.898438 4.761719 11.535156 4.90625 11.1875 C 5.046875 10.839844 5.246094 10.53125 5.507812 10.265625 C 5.769531 10 6.070312 9.792969 6.414062 9.648438 C 6.753906 9.503906 7.109375 9.433594 7.480469 9.433594 C 7.847656 9.433594 8.207031 9.503906 8.546875 9.648438 C 8.886719 9.792969 9.1875 10 9.449219 10.265625 C 9.710938 10.53125 9.914062 10.839844 10.054688 11.1875 C 10.195312 11.535156 10.265625 11.898438 10.265625 12.273438 Z M 10.265625 12.273438 " fill-opacity="1" fill-rule="nonzero"/><path fill="#ffffff" d="M 18.628906 15.113281 C 18.628906 15.644531 18.519531 16.148438 18.324219 16.605469 C 18.777344 16.023438 19.351562 15.546875 20 15.207031 C 19.164062 14.511719 18.628906 13.453125 18.628906 12.273438 C 18.628906 11.085938 19.171875 10.023438 20.011719 9.328125 C 19.570312 9.089844 19.066406 8.949219 18.523438 8.949219 C 17.019531 8.949219 15.777344 9.960938 15.398438 11.363281 C 17.214844 11.605469 18.628906 13.191406 18.628906 15.113281 Z M 18.628906 15.113281 " fill-opacity="1" fill-rule="nonzero"/><path fill="#ffffff" d="M 11.195312 12.273438 C 11.195312 13.457031 10.65625 14.519531 9.816406 15.214844 C 10.492188 15.570312 11.085938 16.078125 11.542969 16.703125 C 11.324219 16.21875 11.195312 15.679688 11.195312 15.113281 C 11.195312 13.234375 12.550781 11.671875 14.316406 11.378906 C 13.941406 9.972656 12.695312 8.949219 11.183594 8.949219 C 10.667969 8.949219 10.1875 9.074219 9.761719 9.292969 C 10.632812 9.984375 11.195312 11.0625 11.195312 12.273438 Z M 11.195312 12.273438 " fill-opacity="1" fill-rule="nonzero"/></svg>