<svg xmlns="http://www.w3.org/2000/svg" xmlns:xlink="http://www.w3.org/1999/xlink" width="150" zoomAndPan="magnify" viewBox="0 0 112.5 112.499997" height="150" preserveAspectRatio="xMidYMid meet" version="1.0"><defs><clipPath id="941036612a"><path d="M 33.777344 33.75 L 78.777344 33.75 L 78.777344 78.75 L 33.777344 78.75 Z M 33.777344 33.75 " clip-rule="nonzero"/></clipPath><clipPath id="7994ae9a73"><path d="M 33.777344 33.75 L 57 33.75 L 57 78.75 L 33.777344 78.75 Z M 33.777344 33.75 " clip-rule="nonzero"/></clipPath></defs><g clip-path="url(#941036612a)"><path fill="#4aa276" d="M 78.773438 57.425781 C 78.773438 53.996094 76.582031 51.078125 73.523438 49.988281 C 74.207031 48.820312 74.601562 47.464844 74.601562 46.011719 C 74.601562 41.65625 71.0625 38.121094 66.699219 38.121094 C 65.621094 38.121094 64.597656 38.339844 63.660156 38.726562 C 62.5 35.8125 59.652344 33.75 56.316406 33.75 C 52.953125 33.75 50.085938 35.847656 48.945312 38.804688 C 47.960938 38.367188 46.875 38.121094 45.726562 38.121094 C 41.363281 38.121094 37.828125 41.65625 37.828125 46.011719 C 37.828125 47.480469 38.230469 48.851562 38.925781 50.03125 C 35.925781 51.148438 33.785156 54.035156 33.785156 57.425781 C 33.785156 60.492188 35.539062 63.148438 38.101562 64.453125 C 37.921875 65.113281 37.828125 65.804688 37.828125 66.519531 C 37.828125 70.878906 41.363281 74.410156 45.726562 74.410156 C 46.878906 74.410156 47.96875 74.164062 48.953125 73.722656 C 50.101562 76.664062 52.964844 78.75 56.316406 78.75 C 59.640625 78.75 62.480469 76.703125 63.648438 73.800781 C 64.589844 74.195312 65.617188 74.410156 66.699219 74.410156 C 71.0625 74.410156 74.601562 70.878906 74.601562 66.519531 C 74.601562 65.828125 74.511719 65.152344 74.339844 64.515625 C 76.964844 63.230469 78.773438 60.539062 78.773438 57.425781 " fill-opacity="1" fill-rule="nonzero"/></g><path fill="#ffffff" d="M 44.128906 58.867188 C 46.75 61.433594 49.371094 64.003906 51.992188 66.574219 C 52.792969 67.359375 54.105469 67.371094 54.90625 66.574219 C 58 63.480469 61.097656 60.390625 64.191406 57.296875 C 65.945312 55.546875 67.695312 53.800781 69.449219 52.050781 C 70.242188 51.257812 70.242188 49.933594 69.449219 49.140625 C 68.652344 48.347656 67.328125 48.347656 66.535156 49.140625 L 57.246094 58.414062 C 55.496094 60.164062 53.742188 61.914062 51.992188 63.664062 L 54.90625 63.664062 L 47.039062 55.957031 C 46.238281 55.171875 44.925781 55.160156 44.128906 55.957031 C 43.339844 56.746094 43.324219 58.082031 44.128906 58.867188 " fill-opacity="1" fill-rule="nonzero"/><path fill="#ffffff" d="M 45.726562 74.410156 C 44.214844 74.410156 42.800781 73.984375 41.597656 73.25 C 42.800781 73.984375 44.214844 74.410156 45.726562 74.410156 M 47.589844 74.1875 C 48.0625 74.074219 48.519531 73.917969 48.953125 73.722656 C 48.957031 73.726562 48.957031 73.730469 48.960938 73.734375 C 48.957031 73.730469 48.957031 73.726562 48.953125 73.722656 C 48.519531 73.917969 48.0625 74.074219 47.589844 74.1875 M 38.925781 50.03125 C 38.617188 49.507812 38.367188 48.953125 38.183594 48.363281 C 38.367188 48.953125 38.617188 49.507812 38.925781 50.03125 M 41.597656 39.285156 C 42.800781 38.546875 44.214844 38.121094 45.726562 38.121094 C 44.214844 38.121094 42.800781 38.546875 41.597656 39.285156 M 48.945312 38.804688 C 49.082031 38.445312 49.25 38.097656 49.4375 37.761719 C 49.25 38.097656 49.082031 38.445312 48.945312 38.804688 " fill-opacity="1" fill-rule="nonzero"/><g clip-path="url(#7994ae9a73)"><path fill="#4aa276" d="M 56.277344 78.75 C 52.949219 78.734375 50.109375 76.660156 48.960938 73.734375 C 48.957031 73.730469 48.957031 73.726562 48.953125 73.722656 C 48.519531 73.917969 48.0625 74.074219 47.589844 74.1875 C 46.992188 74.332031 46.371094 74.410156 45.726562 74.410156 C 44.214844 74.410156 42.800781 73.984375 41.597656 73.25 C 39.335938 71.859375 37.828125 69.367188 37.828125 66.519531 C 37.828125 65.804688 37.921875 65.113281 38.101562 64.453125 C 35.65625 63.210938 33.949219 60.734375 33.796875 57.84375 C 33.789062 57.703125 33.785156 57.566406 33.785156 57.425781 C 33.785156 54.035156 35.925781 51.148438 38.925781 50.03125 C 38.617188 49.507812 38.367188 48.953125 38.183594 48.363281 C 37.953125 47.621094 37.828125 46.832031 37.828125 46.011719 C 37.828125 43.167969 39.335938 40.671875 41.597656 39.285156 C 42.800781 38.546875 44.214844 38.121094 45.726562 38.121094 C 46.875 38.121094 47.960938 38.367188 48.945312 38.804688 C 49.082031 38.445312 49.25 38.09375 49.4375 37.761719 C 50.789062 35.378906 53.34375 33.765625 56.277344 33.75 L 56.277344 59.382812 C 55.332031 60.328125 54.382812 61.277344 53.433594 62.222656 L 47.039062 55.957031 C 46.636719 55.5625 46.105469 55.363281 45.578125 55.363281 C 45.050781 55.363281 44.523438 55.558594 44.128906 55.957031 C 43.339844 56.746094 43.324219 58.082031 44.128906 58.867188 C 46.75 61.433594 49.371094 64.003906 51.992188 66.574219 C 52.394531 66.96875 52.925781 67.167969 53.457031 67.167969 C 53.980469 67.167969 54.507812 66.972656 54.90625 66.574219 C 55.363281 66.117188 55.820312 65.660156 56.277344 65.203125 L 56.277344 78.75 " fill-opacity="1" fill-rule="nonzero"/></g><path fill="#ffffff" d="M 53.457031 67.167969 C 52.925781 67.167969 52.394531 66.96875 51.992188 66.574219 C 49.371094 64.003906 46.75 61.433594 44.128906 58.867188 C 43.324219 58.082031 43.339844 56.746094 44.128906 55.957031 C 44.523438 55.558594 45.050781 55.363281 45.578125 55.363281 C 46.105469 55.363281 46.636719 55.5625 47.039062 55.957031 L 53.433594 62.222656 C 54.382812 61.277344 55.332031 60.328125 56.277344 59.382812 L 56.277344 65.203125 C 55.820312 65.660156 55.363281 66.117188 54.90625 66.574219 C 54.507812 66.972656 53.980469 67.167969 53.457031 67.167969 " fill-opacity="1" fill-rule="nonzero"/></svg>