<svg xmlns="http://www.w3.org/2000/svg" xmlns:xlink="http://www.w3.org/1999/xlink" width="300" zoomAndPan="magnify" viewBox="0 0 224.87999 225" height="300" preserveAspectRatio="xMidYMid meet" version="1.0"><defs><clipPath id="6e7f5f3c7d"><path d="M 18.804688 18.863281 L 206.203125 18.863281 L 206.203125 206.261719 L 18.804688 206.261719 Z M 18.804688 18.863281 " clip-rule="nonzero"/></clipPath><clipPath id="ec055bc300"><path d="M 18.804688 174 L 113 174 L 113 206.261719 L 18.804688 206.261719 Z M 18.804688 174 " clip-rule="nonzero"/></clipPath><clipPath id="d578d6d6a1"><path d="M 18.804688 18.863281 L 113 18.863281 L 113 206.261719 L 18.804688 206.261719 Z M 18.804688 18.863281 " clip-rule="nonzero"/></clipPath></defs><g clip-path="url(#6e7f5f3c7d)"><path fill="#4aa276" d="M 206.203125 174.652344 C 206.203125 192.109375 192.050781 206.261719 174.589844 206.261719 L 50.414062 206.261719 C 32.957031 206.261719 18.804688 192.109375 18.804688 174.652344 L 18.804688 50.476562 C 18.804688 33.015625 32.957031 18.863281 50.417969 18.863281 L 174.59375 18.863281 C 192.050781 18.863281 206.203125 33.015625 206.203125 50.476562 L 206.203125 174.652344 " fill-opacity="1" fill-rule="nonzero"/></g><path fill="#ffffff" d="M 73.539062 62.945312 L 162.296875 114.007812 L 73.539062 165.074219 L 73.539062 62.945312 " fill-opacity="1" fill-rule="nonzero"/><g clip-path="url(#ec055bc300)"><path fill="#ffffff" d="M 112.503906 206.261719 L 50.414062 206.261719 C 32.957031 206.261719 18.804688 192.109375 18.804688 174.652344 C 18.804688 192.109375 32.957031 206.261719 50.417969 206.261719 L 112.507812 206.261719 " fill-opacity="1" fill-rule="nonzero"/></g><g clip-path="url(#d578d6d6a1)"><path fill="#4aa276" d="M 112.503906 206.261719 L 50.414062 206.261719 C 32.957031 206.261719 18.804688 192.109375 18.804688 174.652344 L 18.804688 50.476562 C 18.804688 33.015625 32.957031 18.863281 50.417969 18.863281 L 112.507812 18.863281 L 112.507812 85.363281 L 73.539062 62.941406 L 73.539062 165.070312 L 112.507812 142.65625 L 112.507812 206.261719 " fill-opacity="1" fill-rule="nonzero"/></g><path fill="#ffffff" d="M 73.539062 165.074219 L 73.539062 62.945312 L 112.503906 85.363281 L 112.503906 142.65625 L 73.539062 165.074219 " fill-opacity="1" fill-rule="nonzero"/></svg>