<?xml version="1.0" encoding="UTF-8"?>
<svg xmlns="http://www.w3.org/2000/svg" xmlns:xlink="http://www.w3.org/1999/xlink" width="30px" height="30px" viewBox="0 0 30 30" version="1.1">
<defs>
<clipPath id="clip1">
  <path d="M 2.550781 2.070312 L 27 2.070312 L 27 26.746094 L 2.550781 26.746094 Z M 2.550781 2.070312 "/>
</clipPath>
</defs>
<g id="surface1">
<g clip-path="url(#clip1)" clip-rule="nonzero">
<path style=" stroke:none;fill-rule:nonzero;fill:rgb(29.019608%,63.529412%,46.27451%);fill-opacity:1;" d="M 26.488281 9.28125 L 9.359375 9.28125 L 26.191406 6.101562 C 26.332031 6.078125 26.441406 6.003906 26.519531 5.886719 C 26.601562 5.769531 26.628906 5.640625 26.601562 5.5 L 26.027344 2.472656 C 26 2.332031 25.929688 2.222656 25.8125 2.140625 C 25.695312 2.0625 25.566406 2.035156 25.425781 2.058594 L 3.199219 6.261719 C 3.058594 6.285156 2.949219 6.359375 2.867188 6.476562 C 2.789062 6.59375 2.761719 6.722656 2.789062 6.859375 L 3.351562 9.84375 L 3.351562 24.347656 C 3.351562 24.667969 3.414062 24.976562 3.535156 25.269531 C 3.660156 25.566406 3.832031 25.828125 4.058594 26.054688 C 4.285156 26.28125 4.546875 26.453125 4.84375 26.578125 C 5.136719 26.699219 5.445312 26.761719 5.765625 26.761719 L 24.582031 26.761719 C 24.902344 26.761719 25.210938 26.699219 25.507812 26.578125 C 25.800781 26.453125 26.0625 26.28125 26.289062 26.054688 C 26.515625 25.828125 26.691406 25.566406 26.8125 25.269531 C 26.933594 24.976562 26.996094 24.667969 26.996094 24.347656 L 26.996094 9.796875 C 26.996094 9.65625 26.945312 9.535156 26.847656 9.433594 C 26.75 9.335938 26.628906 9.285156 26.488281 9.28125 Z M 25.972656 12.367188 L 24.707031 12.367188 L 23.335938 10.3125 L 25.972656 10.3125 Z M 20.59375 12.367188 L 19.222656 10.3125 L 22.101562 10.3125 L 23.472656 12.367188 Z M 16.480469 12.367188 L 15.109375 10.3125 L 17.988281 10.3125 L 19.359375 12.367188 Z M 12.367188 12.367188 L 10.996094 10.3125 L 13.875 10.3125 L 15.246094 12.367188 Z M 8.253906 12.367188 L 6.882812 10.3125 L 9.761719 10.3125 L 11.132812 12.367188 Z M 9.179688 6.179688 L 10.910156 7.949219 L 8.082031 8.480469 L 6.355469 6.710938 Z M 13.222656 5.417969 L 14.953125 7.179688 L 12.125 7.714844 L 10.394531 5.945312 Z M 17.265625 4.65625 L 18.992188 6.421875 L 16.167969 6.953125 L 14.4375 5.183594 Z M 21.304688 3.890625 L 23.035156 5.652344 L 20.207031 6.1875 L 18.480469 4.421875 Z M 4.378906 10.3125 L 5.648438 10.3125 L 7.019531 12.367188 L 4.378906 12.367188 Z M 25.496094 5.1875 L 24.246094 5.421875 L 22.519531 3.65625 L 25.113281 3.167969 Z M 5.136719 6.9375 L 6.871094 8.707031 L 4.277344 9.195312 L 3.894531 7.175781 Z M 24.589844 25.734375 L 5.769531 25.734375 C 5.582031 25.734375 5.40625 25.699219 5.238281 25.628906 C 5.066406 25.558594 4.917969 25.457031 4.789062 25.328125 C 4.65625 25.199219 4.558594 25.046875 4.488281 24.878906 C 4.417969 24.707031 4.382812 24.53125 4.378906 24.347656 L 4.378906 13.394531 L 25.972656 13.394531 L 25.972656 24.347656 C 25.972656 24.53125 25.9375 24.707031 25.867188 24.878906 C 25.796875 25.046875 25.699219 25.195312 25.566406 25.328125 C 25.4375 25.457031 25.289062 25.558594 25.117188 25.628906 C 24.949219 25.699219 24.773438 25.734375 24.589844 25.734375 Z M 24.589844 25.734375 "/>
</g>
<path style=" stroke:none;fill-rule:nonzero;fill:rgb(29.019608%,63.529412%,46.27451%);fill-opacity:1;" d="M 13.386719 15.523438 C 13.214844 15.421875 13.039062 15.421875 12.867188 15.519531 C 12.691406 15.617188 12.605469 15.765625 12.605469 15.964844 L 12.605469 23.164062 C 12.605469 23.304688 12.65625 23.425781 12.757812 23.527344 C 12.855469 23.628906 12.980469 23.679688 13.121094 23.679688 C 13.214844 23.675781 13.304688 23.652344 13.386719 23.605469 L 19.382812 20.003906 C 19.460938 19.957031 19.519531 19.894531 19.566406 19.816406 C 19.609375 19.738281 19.632812 19.65625 19.632812 19.5625 C 19.632812 19.472656 19.609375 19.390625 19.566406 19.3125 C 19.519531 19.234375 19.460938 19.171875 19.382812 19.125 Z M 13.632812 22.253906 L 13.632812 16.875 L 18.121094 19.566406 Z M 13.632812 22.253906 "/>
</g>
</svg>
