<svg xmlns="http://www.w3.org/2000/svg" xmlns:xlink="http://www.w3.org/1999/xlink" width="40" zoomAndPan="magnify" viewBox="0 0 30 30.000001" height="40" preserveAspectRatio="xMidYMid meet" version="1.0"><defs><clipPath id="1bf6d1863c"><path d="M 2.671875 2.726562 L 27.351562 2.726562 L 27.351562 25.953125 L 2.671875 25.953125 Z M 2.671875 2.726562 " clip-rule="nonzero"/></clipPath></defs><g clip-path="url(#1bf6d1863c)"><path fill="#ffffff" d="M 6.933594 10.820312 L 8.945312 10.820312 L 9.253906 21.460938 L 6.664062 21.460938 Z M 5.039062 21.84375 L 24.980469 21.84375 L 24.980469 23.214844 L 26.175781 23.214844 L 26.175781 24.582031 L 27.332031 24.582031 L 27.332031 25.953125 L 2.6875 25.953125 L 2.6875 24.582031 L 3.847656 24.582031 L 3.847656 23.214844 L 5.039062 23.214844 Z M 26.019531 7.847656 L 15.011719 2.726562 L 4 7.847656 L 4 8.683594 L 26.019531 8.683594 Z M 6.121094 9.066406 L 23.898438 9.066406 L 23.898438 10.4375 L 6.121094 10.4375 Z M 21.039062 10.820312 L 23.046875 10.820312 L 23.355469 21.460938 L 20.769531 21.460938 Z M 16.335938 10.820312 L 18.347656 10.820312 L 18.65625 21.460938 L 16.066406 21.460938 Z M 11.636719 10.820312 L 13.644531 10.820312 L 13.953125 21.460938 L 11.363281 21.460938 Z M 11.636719 10.820312 " fill-opacity="1" fill-rule="nonzero"/></g></svg>