<svg xmlns="http://www.w3.org/2000/svg" xmlns:xlink="http://www.w3.org/1999/xlink" width="100" zoomAndPan="magnify" viewBox="0 0 75 74.999997" height="100" preserveAspectRatio="xMidYMid meet" version="1.0"><defs><clipPath id="df8092b7df"><path d="M 27 65 L 57 65 L 57 71.023438 L 27 71.023438 Z M 27 65 " clip-rule="nonzero"/></clipPath><clipPath id="c1f02dcf00"><path d="M 7.5 4.273438 L 63.75 4.273438 L 63.75 21 L 7.5 21 Z M 7.5 4.273438 " clip-rule="nonzero"/></clipPath></defs><path fill="#ffffff" d="M 43.96875 47.472656 L 41.449219 44.949219 L 28.332031 44.949219 C 28.195312 44.949219 28.0625 44.921875 27.933594 44.871094 C 27.808594 44.816406 27.695312 44.742188 27.597656 44.644531 C 27.5 44.546875 27.425781 44.433594 27.371094 44.304688 C 27.320312 44.179688 27.292969 44.046875 27.292969 43.90625 C 27.289062 43.492188 27.210938 43.09375 27.050781 42.710938 C 26.890625 42.328125 26.667969 41.992188 26.375 41.699219 C 26.082031 41.40625 25.742188 41.179688 25.359375 41.019531 C 24.980469 40.859375 24.582031 40.78125 24.167969 40.777344 C 24.027344 40.777344 23.894531 40.75 23.769531 40.699219 C 23.640625 40.644531 23.527344 40.570312 23.429688 40.472656 C 23.332031 40.375 23.257812 40.261719 23.207031 40.132812 C 23.152344 40.007812 23.125 39.875 23.125 39.734375 L 23.125 10.53125 L 18.957031 10.53125 L 18.957031 48.078125 C 18.957031 48.21875 18.984375 48.351562 19.039062 48.476562 C 19.089844 48.605469 19.167969 48.71875 19.265625 48.816406 C 19.363281 48.914062 19.472656 48.988281 19.601562 49.042969 C 19.730469 49.09375 19.863281 49.121094 20 49.121094 L 44.15625 49.121094 C 44.050781 48.578125 43.988281 48.027344 43.96875 47.472656 Z M 43.96875 47.472656 " fill-opacity="1" fill-rule="nonzero"/><path fill="#ffffff" d="M 36.667969 28.261719 C 36.667969 28.402344 36.640625 28.535156 36.585938 28.664062 C 36.535156 28.789062 36.460938 28.902344 36.363281 29 C 36.265625 29.097656 36.152344 29.175781 36.023438 29.226562 C 35.894531 29.28125 35.761719 29.304688 35.625 29.304688 C 35.488281 29.304688 35.355469 29.28125 35.226562 29.226562 C 35.097656 29.175781 34.984375 29.097656 34.886719 29 C 34.789062 28.902344 34.714844 28.789062 34.664062 28.664062 C 34.609375 28.535156 34.582031 28.402344 34.582031 28.261719 C 34.582031 28.125 34.609375 27.992188 34.664062 27.863281 C 34.714844 27.738281 34.789062 27.625 34.886719 27.527344 C 34.984375 27.429688 35.097656 27.351562 35.226562 27.300781 C 35.355469 27.246094 35.488281 27.21875 35.625 27.21875 C 35.761719 27.21875 35.894531 27.246094 36.023438 27.300781 C 36.152344 27.351562 36.265625 27.429688 36.363281 27.527344 C 36.460938 27.625 36.535156 27.738281 36.585938 27.863281 C 36.640625 27.992188 36.667969 28.125 36.667969 28.261719 Z M 36.667969 28.261719 " fill-opacity="1" fill-rule="nonzero"/><path fill="#ffffff" d="M 38.230469 15.746094 C 37.824219 15.746094 37.476562 15.886719 37.1875 16.175781 C 37.019531 16.355469 36.894531 16.558594 36.8125 16.789062 L 39.644531 16.789062 C 39.550781 16.480469 39.371094 16.226562 39.109375 16.035156 C 38.847656 15.84375 38.554688 15.746094 38.230469 15.746094 Z M 38.230469 15.746094 " fill-opacity="1" fill-rule="nonzero"/><path fill="#ffffff" d="M 33.019531 19.917969 C 33.425781 19.921875 33.773438 19.777344 34.0625 19.492188 C 34.230469 19.3125 34.355469 19.109375 34.4375 18.875 L 31.605469 18.875 C 31.699219 19.1875 31.878906 19.441406 32.140625 19.632812 C 32.402344 19.824219 32.695312 19.921875 33.019531 19.917969 Z M 33.019531 19.917969 " fill-opacity="1" fill-rule="nonzero"/><path fill="#ffffff" d="M 44.519531 36.730469 L 46.042969 38.253906 L 46.042969 10.53125 L 25.207031 10.53125 L 25.207031 38.796875 C 25.707031 38.898438 26.183594 39.074219 26.632812 39.316406 C 27.082031 39.558594 27.488281 39.859375 27.847656 40.222656 C 28.210938 40.582031 28.511719 40.988281 28.753906 41.4375 C 28.996094 41.886719 29.167969 42.363281 29.269531 42.863281 L 39.355469 42.863281 L 38.875 42.386719 C 38.691406 42.199219 38.523438 41.996094 38.378906 41.777344 C 38.234375 41.558594 38.113281 41.332031 38.011719 41.085938 C 37.910156 40.84375 37.835938 40.59375 37.785156 40.339844 C 37.734375 40.082031 37.707031 39.820312 37.707031 39.558594 C 37.707031 39.296875 37.734375 39.035156 37.785156 38.777344 C 37.835938 38.523438 37.910156 38.273438 38.011719 38.03125 C 38.113281 37.785156 38.234375 37.554688 38.378906 37.339844 C 38.523438 37.121094 38.691406 36.917969 38.875 36.730469 C 39.253906 36.371094 39.691406 36.089844 40.179688 35.894531 C 40.664062 35.699219 41.171875 35.601562 41.699219 35.601562 C 42.222656 35.601562 42.730469 35.699219 43.21875 35.894531 C 43.707031 36.089844 44.140625 36.371094 44.519531 36.730469 Z M 35.625 31.390625 C 35.210938 31.390625 34.8125 31.3125 34.429688 31.152344 C 34.046875 30.996094 33.707031 30.769531 33.414062 30.476562 C 33.121094 30.183594 32.894531 29.84375 32.738281 29.460938 C 32.578125 29.078125 32.5 28.679688 32.5 28.261719 C 32.5 27.847656 32.578125 27.449219 32.738281 27.066406 C 32.894531 26.683594 33.121094 26.34375 33.414062 26.050781 C 33.707031 25.757812 34.046875 25.53125 34.429688 25.371094 C 34.8125 25.214844 35.210938 25.132812 35.625 25.132812 C 36.039062 25.132812 36.4375 25.214844 36.820312 25.371094 C 37.203125 25.53125 37.542969 25.757812 37.835938 26.050781 C 38.128906 26.34375 38.355469 26.683594 38.511719 27.066406 C 38.671875 27.449219 38.75 27.847656 38.75 28.261719 C 38.75 28.679688 38.667969 29.078125 38.507812 29.460938 C 38.351562 29.84375 38.125 30.179688 37.832031 30.472656 C 37.539062 30.765625 37.203125 30.992188 36.820312 31.152344 C 36.4375 31.3125 36.039062 31.390625 35.625 31.390625 Z M 38.699219 22.003906 C 38.558594 22 38.429688 21.964844 38.304688 21.90625 C 38.179688 21.847656 38.070312 21.765625 37.976562 21.664062 C 37.886719 21.558594 37.816406 21.445312 37.769531 21.3125 C 37.722656 21.183594 37.703125 21.046875 37.710938 20.910156 C 37.71875 20.773438 37.75 20.640625 37.808594 20.515625 C 37.867188 20.390625 37.949219 20.28125 38.050781 20.1875 C 38.152344 20.097656 38.269531 20.027344 38.398438 19.980469 C 38.53125 19.933594 38.664062 19.914062 38.800781 19.917969 C 39.007812 19.894531 39.183594 19.800781 39.324219 19.648438 C 39.515625 19.425781 39.636719 19.167969 39.6875 18.875 L 36.582031 18.875 C 36.523438 19.308594 36.390625 19.714844 36.183594 20.101562 C 35.980469 20.484375 35.710938 20.820312 35.382812 21.105469 C 35.058594 21.394531 34.691406 21.613281 34.285156 21.769531 C 33.878906 21.925781 33.457031 22.003906 33.019531 22.003906 C 32.058594 22.003906 31.230469 21.667969 30.542969 20.992188 C 29.957031 20.402344 29.59375 19.699219 29.457031 18.875 L 29.375 18.875 C 29.238281 18.875 29.105469 18.851562 28.976562 18.796875 C 28.847656 18.746094 28.734375 18.667969 28.636719 18.570312 C 28.539062 18.472656 28.464844 18.359375 28.414062 18.234375 C 28.359375 18.105469 28.332031 17.972656 28.332031 17.832031 C 28.332031 17.695312 28.359375 17.5625 28.414062 17.433594 C 28.464844 17.308594 28.539062 17.195312 28.636719 17.097656 C 28.734375 17 28.847656 16.921875 28.976562 16.871094 C 29.105469 16.816406 29.238281 16.789062 29.375 16.789062 L 29.4375 16.789062 C 29.519531 15.902344 29.871094 15.136719 30.488281 14.496094 C 31.0625 13.9375 31.75 13.660156 32.550781 13.660156 C 32.691406 13.667969 32.820312 13.703125 32.945312 13.761719 C 33.070312 13.820312 33.179688 13.902344 33.273438 14.003906 C 33.363281 14.109375 33.433594 14.222656 33.480469 14.355469 C 33.527344 14.484375 33.546875 14.617188 33.542969 14.757812 C 33.535156 14.894531 33.507812 15.023438 33.449219 15.148438 C 33.394531 15.273438 33.316406 15.378906 33.214844 15.472656 C 33.117188 15.566406 33.003906 15.636719 32.875 15.683594 C 32.746094 15.730469 32.617188 15.753906 32.480469 15.746094 C 32.257812 15.761719 32.074219 15.855469 31.925781 16.019531 C 31.734375 16.242188 31.613281 16.5 31.5625 16.789062 L 34.667969 16.789062 C 34.726562 16.359375 34.859375 15.953125 35.066406 15.566406 C 35.269531 15.183594 35.539062 14.847656 35.863281 14.5625 C 36.191406 14.273438 36.558594 14.054688 36.964844 13.898438 C 37.371094 13.742188 37.792969 13.664062 38.230469 13.660156 C 39.191406 13.664062 40.019531 14 40.707031 14.671875 C 41.292969 15.265625 41.65625 15.96875 41.792969 16.789062 L 41.875 16.789062 C 42.011719 16.789062 42.144531 16.816406 42.273438 16.871094 C 42.402344 16.921875 42.515625 17 42.613281 17.097656 C 42.710938 17.195312 42.785156 17.308594 42.835938 17.433594 C 42.890625 17.5625 42.917969 17.695312 42.917969 17.832031 C 42.917969 17.972656 42.890625 18.105469 42.835938 18.234375 C 42.785156 18.359375 42.710938 18.472656 42.613281 18.570312 C 42.515625 18.667969 42.402344 18.746094 42.273438 18.796875 C 42.144531 18.851562 42.011719 18.875 41.875 18.875 L 41.8125 18.875 C 41.730469 19.765625 41.378906 20.53125 40.761719 21.171875 C 40.203125 21.714844 39.535156 21.992188 38.761719 22.003906 Z M 38.699219 22.003906 " fill-opacity="1" fill-rule="nonzero"/><path fill="#ffffff" d="M 48.125 10.53125 L 48.125 40.339844 L 52.292969 44.511719 L 52.292969 10.53125 Z M 48.125 10.53125 " fill-opacity="1" fill-rule="nonzero"/><path fill="#ffffff" d="M 54.375 29.921875 L 54.375 47.035156 C 54.375 47.25 54.320312 47.441406 54.203125 47.617188 C 54.085938 47.796875 53.929688 47.925781 53.734375 48.003906 C 53.539062 48.085938 53.335938 48.105469 53.128906 48.066406 C 52.921875 48.023438 52.742188 47.925781 52.59375 47.777344 L 43.042969 38.214844 C 42.863281 38.039062 42.65625 37.902344 42.421875 37.808594 C 42.191406 37.714844 41.949219 37.664062 41.699219 37.664062 C 41.445312 37.664062 41.203125 37.714844 40.972656 37.808594 C 40.738281 37.902344 40.535156 38.039062 40.355469 38.214844 C 40.175781 38.390625 40.035156 38.597656 39.9375 38.828125 C 39.839844 39.0625 39.792969 39.304688 39.792969 39.558594 C 39.792969 39.8125 39.839844 40.054688 39.9375 40.289062 C 40.035156 40.519531 40.175781 40.726562 40.355469 40.902344 L 45.738281 46.296875 C 45.9375 46.503906 46.039062 46.75 46.042969 47.035156 C 46.039062 48.234375 46.265625 49.386719 46.722656 50.492188 C 47.183594 51.601562 47.835938 52.574219 48.6875 53.417969 L 48.863281 53.597656 C 48.960938 53.695312 49.039062 53.808594 49.089844 53.9375 C 49.144531 54.066406 49.167969 54.199219 49.167969 54.335938 C 49.167969 54.476562 49.144531 54.609375 49.089844 54.738281 C 49.039062 54.867188 48.960938 54.980469 48.863281 55.078125 C 48.765625 55.175781 48.652344 55.25 48.523438 55.300781 C 48.394531 55.355469 48.261719 55.378906 48.125 55.378906 C 47.988281 55.378906 47.855469 55.355469 47.726562 55.300781 C 47.597656 55.25 47.484375 55.175781 47.386719 55.078125 L 47.207031 54.902344 C 46.140625 53.839844 45.328125 52.609375 44.769531 51.207031 L 26.25 51.207031 L 26.25 54.691406 C 26.25 55.382812 26.378906 56.050781 26.644531 56.691406 C 26.90625 57.328125 27.28125 57.894531 27.769531 58.382812 L 29.800781 60.417969 C 30.210938 60.820312 30.417969 61.3125 30.417969 61.886719 L 30.417969 63.722656 L 53.332031 63.722656 L 53.332031 61.886719 C 53.332031 61.3125 53.539062 60.820312 53.949219 60.417969 L 56.40625 57.945312 C 57.09375 57.261719 57.621094 56.472656 57.988281 55.578125 C 58.359375 54.683594 58.542969 53.75 58.542969 52.78125 L 58.542969 37.117188 C 58.542969 36.148438 58.359375 35.21875 57.988281 34.324219 C 57.621094 33.429688 57.09375 32.640625 56.40625 31.957031 Z M 54.375 29.921875 " fill-opacity="1" fill-rule="nonzero"/><g clip-path="url(#df8092b7df)"><path fill="#ffffff" d="M 28.332031 65.808594 L 55.417969 65.808594 C 55.554688 65.808594 55.6875 65.835938 55.816406 65.890625 C 55.941406 65.941406 56.054688 66.015625 56.152344 66.113281 C 56.25 66.214844 56.324219 66.324219 56.378906 66.453125 C 56.433594 66.582031 56.457031 66.714844 56.457031 66.851562 L 56.457031 69.980469 C 56.457031 70.121094 56.433594 70.253906 56.378906 70.378906 C 56.324219 70.507812 56.25 70.621094 56.152344 70.71875 C 56.054688 70.816406 55.941406 70.890625 55.816406 70.945312 C 55.6875 70.996094 55.554688 71.023438 55.417969 71.023438 L 28.332031 71.023438 C 28.195312 71.023438 28.0625 70.996094 27.933594 70.945312 C 27.808594 70.890625 27.695312 70.816406 27.597656 70.71875 C 27.5 70.621094 27.421875 70.507812 27.371094 70.378906 C 27.316406 70.253906 27.292969 70.121094 27.292969 69.980469 L 27.292969 66.851562 C 27.292969 66.714844 27.316406 66.582031 27.371094 66.453125 C 27.421875 66.324219 27.5 66.214844 27.597656 66.113281 C 27.695312 66.015625 27.808594 65.941406 27.933594 65.890625 C 28.0625 65.835938 28.195312 65.808594 28.332031 65.808594 Z M 28.332031 65.808594 " fill-opacity="1" fill-rule="nonzero"/></g><path fill="#ffffff" d="M 13.75 10.53125 L 16.875 10.53125 L 16.875 14.703125 L 13.75 14.703125 Z M 13.75 10.53125 " fill-opacity="1" fill-rule="nonzero"/><path fill="#ffffff" d="M 54.375 10.53125 L 57.5 10.53125 L 57.5 14.703125 L 54.375 14.703125 Z M 54.375 10.53125 " fill-opacity="1" fill-rule="nonzero"/><g clip-path="url(#c1f02dcf00)"><path fill="#ffffff" d="M 58.542969 4.273438 L 12.707031 4.273438 C 12.367188 4.277344 12.027344 4.308594 11.691406 4.375 C 11.355469 4.441406 11.03125 4.542969 10.714844 4.671875 C 10.398438 4.804688 10.097656 4.964844 9.816406 5.15625 C 9.53125 5.34375 9.269531 5.5625 9.027344 5.804688 C 8.785156 6.046875 8.566406 6.308594 8.378906 6.59375 C 8.1875 6.878906 8.027344 7.179688 7.898438 7.496094 C 7.765625 7.8125 7.667969 8.136719 7.601562 8.472656 C 7.535156 8.808594 7.5 9.148438 7.5 9.488281 L 7.5 15.746094 C 7.5 16.089844 7.535156 16.429688 7.601562 16.765625 C 7.667969 17.101562 7.765625 17.425781 7.898438 17.742188 C 8.027344 18.058594 8.1875 18.359375 8.378906 18.644531 C 8.566406 18.929688 8.785156 19.191406 9.027344 19.433594 C 9.269531 19.675781 9.53125 19.894531 9.816406 20.082031 C 10.097656 20.273438 10.398438 20.433594 10.714844 20.566406 C 11.03125 20.695312 11.355469 20.796875 11.691406 20.863281 C 12.027344 20.929688 12.367188 20.960938 12.707031 20.960938 L 16.875 20.960938 L 16.875 16.789062 L 12.707031 16.789062 C 12.570312 16.789062 12.4375 16.765625 12.308594 16.710938 C 12.183594 16.65625 12.070312 16.582031 11.972656 16.484375 C 11.875 16.386719 11.800781 16.273438 11.746094 16.148438 C 11.695312 16.019531 11.667969 15.886719 11.667969 15.746094 L 11.667969 9.488281 C 11.667969 9.351562 11.695312 9.21875 11.746094 9.089844 C 11.800781 8.964844 11.875 8.851562 11.972656 8.753906 C 12.070312 8.65625 12.183594 8.582031 12.308594 8.527344 C 12.4375 8.472656 12.570312 8.449219 12.707031 8.445312 L 58.542969 8.445312 C 58.679688 8.449219 58.8125 8.472656 58.941406 8.527344 C 59.066406 8.582031 59.179688 8.65625 59.277344 8.753906 C 59.375 8.851562 59.449219 8.964844 59.503906 9.089844 C 59.554688 9.21875 59.582031 9.351562 59.582031 9.488281 L 59.582031 15.746094 C 59.582031 15.886719 59.554688 16.019531 59.503906 16.148438 C 59.449219 16.273438 59.375 16.386719 59.277344 16.484375 C 59.179688 16.582031 59.066406 16.65625 58.941406 16.710938 C 58.8125 16.765625 58.679688 16.789062 58.542969 16.789062 L 54.375 16.789062 L 54.375 20.960938 L 58.542969 20.960938 C 58.882812 20.960938 59.222656 20.929688 59.558594 20.863281 C 59.894531 20.796875 60.21875 20.695312 60.535156 20.566406 C 60.851562 20.433594 61.152344 20.273438 61.433594 20.082031 C 61.71875 19.894531 61.980469 19.675781 62.222656 19.433594 C 62.464844 19.191406 62.683594 18.929688 62.871094 18.644531 C 63.0625 18.359375 63.222656 18.058594 63.351562 17.742188 C 63.484375 17.425781 63.582031 17.101562 63.648438 16.765625 C 63.714844 16.429688 63.75 16.089844 63.75 15.746094 L 63.75 9.488281 C 63.75 9.148438 63.714844 8.808594 63.648438 8.472656 C 63.582031 8.136719 63.484375 7.8125 63.351562 7.496094 C 63.222656 7.179688 63.0625 6.878906 62.871094 6.59375 C 62.683594 6.308594 62.464844 6.046875 62.222656 5.804688 C 61.980469 5.5625 61.71875 5.34375 61.433594 5.15625 C 61.152344 4.964844 60.851562 4.804688 60.535156 4.671875 C 60.21875 4.542969 59.894531 4.441406 59.558594 4.375 C 59.222656 4.308594 58.882812 4.277344 58.542969 4.273438 Z M 58.542969 4.273438 " fill-opacity="1" fill-rule="nonzero"/></g></svg>