<svg xmlns="http://www.w3.org/2000/svg" xmlns:xlink="http://www.w3.org/1999/xlink" width="40" zoomAndPan="magnify" viewBox="0 0 30 30.000001" height="40" preserveAspectRatio="xMidYMid meet" version="1.0"><defs><clipPath id="be45545951"><path d="M 5 6.261719 L 28.40625 6.261719 L 28.40625 20 L 5 20 Z M 5 6.261719 " clip-rule="nonzero"/></clipPath><clipPath id="93c819fa8a"><path d="M 1.585938 10 L 25 10 L 25 22.957031 L 1.585938 22.957031 Z M 1.585938 10 " clip-rule="nonzero"/></clipPath><clipPath id="9f7f9b8e7b"><path d="M 22 20 L 25 20 L 25 22.957031 L 22 22.957031 Z M 22 20 " clip-rule="nonzero"/></clipPath><clipPath id="e268da3561"><path d="M 1.585938 10 L 4 10 L 4 13 L 1.585938 13 Z M 1.585938 10 " clip-rule="nonzero"/></clipPath><clipPath id="ece337a5b8"><path d="M 1.585938 20 L 4 20 L 4 22.957031 L 1.585938 22.957031 Z M 1.585938 20 " clip-rule="nonzero"/></clipPath></defs><g clip-path="url(#be45545951)"><path fill="#ffffff" d="M 26.183594 7.4375 L 5.414062 7.4375 L 5.414062 6.640625 C 5.414062 6.425781 5.570312 6.265625 5.78125 6.265625 L 28.125 6.265625 C 28.28125 6.265625 28.441406 6.425781 28.441406 6.640625 L 28.441406 18.699219 C 28.441406 18.859375 28.28125 19.019531 28.125 19.019531 L 27.285156 19.019531 L 27.285156 8.550781 C 27.285156 7.96875 26.8125 7.4375 26.183594 7.4375 Z M 26.183594 7.4375 " fill-opacity="1" fill-rule="evenodd"/></g><path fill="#ffffff" d="M 3.839844 8.234375 L 26.183594 8.234375 C 26.34375 8.234375 26.5 8.390625 26.5 8.550781 L 26.5 20.664062 C 26.5 20.824219 26.34375 20.984375 26.183594 20.984375 L 25.34375 20.984375 L 25.34375 10.519531 C 25.34375 9.878906 24.875 9.402344 24.242188 9.402344 L 3.527344 9.402344 L 3.527344 8.550781 C 3.527344 8.390625 3.628906 8.234375 3.839844 8.234375 Z M 3.839844 8.234375 " fill-opacity="1" fill-rule="evenodd"/><g clip-path="url(#93c819fa8a)"><path fill="#ffffff" d="M 3.996094 10.199219 L 22.144531 10.199219 C 22.304688 11.582031 23.351562 12.695312 24.609375 12.800781 L 24.609375 20.082031 C 23.246094 20.1875 22.199219 21.410156 22.144531 22.949219 L 4.050781 22.949219 C 3.996094 21.410156 2.898438 20.1875 1.585938 20.082031 L 1.585938 12.800781 C 2.84375 12.695312 3.839844 11.582031 3.996094 10.199219 Z M 21.410156 10.996094 L 4.785156 10.996094 C 4.628906 10.996094 4.46875 11.101562 4.417969 11.261719 C 4.050781 12.269531 3.316406 13.066406 2.425781 13.386719 C 2.320312 13.492188 2.214844 13.597656 2.214844 13.757812 L 2.214844 19.070312 C 2.214844 19.230469 2.320312 19.390625 2.425781 19.445312 C 3.367188 19.816406 4.15625 20.71875 4.46875 21.835938 C 4.523438 21.992188 4.679688 22.101562 4.835938 22.101562 L 21.308594 22.101562 C 21.464844 22.101562 21.621094 21.992188 21.675781 21.835938 C 21.988281 20.71875 22.773438 19.816406 23.71875 19.445312 C 23.875 19.390625 23.980469 19.230469 23.980469 19.070312 L 23.980469 13.757812 C 23.980469 13.597656 23.875 13.492188 23.71875 13.386719 C 22.828125 13.066406 22.09375 12.269531 21.777344 11.261719 C 21.726562 11.101562 21.570312 10.996094 21.410156 10.996094 Z M 21.410156 10.996094 " fill-opacity="1" fill-rule="evenodd"/></g><path fill="#ffffff" d="M 5.046875 11.792969 L 21.148438 11.792969 C 21.570312 12.800781 22.304688 13.597656 23.195312 14.023438 L 23.195312 18.804688 C 22.199219 19.335938 21.410156 20.242188 21.042969 21.355469 L 5.152344 21.355469 C 4.730469 20.242188 3.945312 19.335938 3 18.859375 L 3 14.023438 C 3.894531 13.597656 4.628906 12.800781 5.046875 11.792969 Z M 17.003906 16.574219 C 17.003906 14.394531 15.222656 12.589844 13.070312 12.589844 C 10.921875 12.589844 9.191406 14.394531 9.191406 16.574219 C 9.191406 18.753906 10.921875 20.507812 13.070312 20.507812 C 15.222656 20.507812 17.003906 18.753906 17.003906 16.574219 Z M 9.664062 12.75 C 9.664062 12.535156 9.503906 12.378906 9.296875 12.378906 L 5.78125 12.378906 C 5.570312 12.378906 5.414062 12.535156 5.414062 12.75 C 5.414062 12.960938 5.570312 13.175781 5.78125 13.175781 L 9.296875 13.175781 C 9.503906 13.175781 9.664062 12.960938 9.664062 12.75 Z M 20.363281 19.976562 L 16.902344 19.976562 C 16.636719 19.976562 16.480469 20.132812 16.480469 20.347656 C 16.480469 20.558594 16.636719 20.773438 16.902344 20.773438 L 20.363281 20.773438 C 20.574219 20.773438 20.78125 20.558594 20.78125 20.347656 C 20.78125 20.132812 20.574219 19.976562 20.363281 19.976562 Z M 20.363281 19.976562 " fill-opacity="1" fill-rule="evenodd"/><path fill="#ffffff" d="M 9.925781 16.574219 C 9.925781 14.820312 11.339844 13.386719 13.070312 13.386719 C 14.804688 13.386719 16.21875 14.820312 16.21875 16.574219 C 16.21875 18.328125 14.804688 19.761719 13.070312 19.761719 C 11.339844 19.761719 9.925781 18.328125 9.925781 16.574219 Z M 12.285156 16.414062 C 11.707031 16.679688 11.550781 17.105469 11.550781 17.425781 C 11.550781 17.902344 11.867188 18.328125 12.285156 18.539062 C 12.441406 18.59375 12.601562 18.648438 12.757812 18.648438 L 12.757812 19.019531 C 12.757812 19.230469 12.914062 19.445312 13.125 19.445312 C 13.335938 19.445312 13.542969 19.230469 13.542969 19.019531 L 13.542969 18.648438 C 13.597656 18.59375 13.703125 18.59375 13.804688 18.539062 C 14.277344 18.328125 14.59375 17.902344 14.59375 17.320312 C 14.59375 17.105469 14.4375 16.945312 14.226562 16.945312 C 14.015625 16.945312 13.804688 17.105469 13.804688 17.320312 C 13.804688 17.53125 13.703125 17.742188 13.492188 17.796875 C 13.230469 17.902344 12.863281 17.957031 12.601562 17.851562 C 12.546875 17.796875 12.335938 17.691406 12.335938 17.425781 C 12.335938 17.320312 12.390625 17.210938 12.601562 17.105469 C 12.703125 17.054688 12.914062 17 13.125 16.945312 C 13.703125 16.839844 14.59375 16.628906 14.59375 15.671875 C 14.59375 15.191406 14.332031 14.769531 13.859375 14.554688 C 13.753906 14.554688 13.648438 14.503906 13.542969 14.449219 L 13.542969 14.078125 C 13.542969 13.863281 13.335938 13.707031 13.125 13.707031 C 12.914062 13.707031 12.757812 13.863281 12.757812 14.078125 L 12.757812 14.449219 C 12.601562 14.503906 12.496094 14.503906 12.390625 14.554688 C 11.867188 14.769531 11.601562 15.246094 11.550781 15.777344 C 11.550781 15.988281 11.761719 16.203125 11.96875 16.203125 C 12.179688 16.203125 12.335938 15.988281 12.335938 15.777344 C 12.335938 15.566406 12.441406 15.40625 12.652344 15.300781 C 12.914062 15.191406 13.335938 15.191406 13.542969 15.300781 C 13.703125 15.351562 13.804688 15.511719 13.804688 15.671875 C 13.804688 15.9375 13.648438 16.042969 12.96875 16.203125 C 12.703125 16.253906 12.496094 16.308594 12.285156 16.363281 C 12.285156 16.363281 12.285156 16.363281 12.285156 16.414062 Z M 12.285156 16.414062 " fill-opacity="1" fill-rule="evenodd"/><path fill="#ffffff" d="M 24.609375 12.003906 C 23.773438 11.898438 23.089844 11.15625 22.933594 10.199219 L 24.242188 10.199219 C 24.453125 10.199219 24.609375 10.359375 24.609375 10.519531 Z M 24.609375 12.003906 " fill-opacity="1" fill-rule="evenodd"/><g clip-path="url(#9f7f9b8e7b)"><path fill="#ffffff" d="M 22.878906 22.949219 C 22.984375 21.835938 23.667969 20.984375 24.609375 20.878906 L 24.609375 22.578125 C 24.609375 22.789062 24.453125 22.949219 24.242188 22.949219 Z M 22.878906 22.949219 " fill-opacity="1" fill-rule="evenodd"/></g><g clip-path="url(#e268da3561)"><path fill="#ffffff" d="M 3.210938 10.199219 C 3.105469 11.15625 2.425781 11.898438 1.585938 12.003906 L 1.585938 10.519531 C 1.585938 10.304688 1.742188 10.199219 1.898438 10.199219 Z M 3.210938 10.199219 " fill-opacity="1" fill-rule="evenodd"/></g><g clip-path="url(#ece337a5b8)"><path fill="#ffffff" d="M 1.585938 20.878906 C 2.476562 20.984375 3.210938 21.835938 3.261719 22.949219 L 1.898438 22.949219 C 1.742188 22.949219 1.585938 22.789062 1.585938 22.578125 Z M 1.585938 20.878906 " fill-opacity="1" fill-rule="evenodd"/></g></svg>