<svg xmlns="http://www.w3.org/2000/svg" xmlns:xlink="http://www.w3.org/1999/xlink" width="150" zoomAndPan="magnify" viewBox="0 0 112.5 112.499997" height="150" preserveAspectRatio="xMidYMid meet" version="1.0"><defs><clipPath id="0a1563fc40"><path d="M 54 26.851562 L 65 26.851562 L 65 45 L 54 45 Z M 54 26.851562 " clip-rule="nonzero"/></clipPath><clipPath id="48fd1d1558"><path d="M 34.152344 54.535156 L 78.542969 54.535156 L 78.542969 85.347656 L 34.152344 85.347656 Z M 34.152344 54.535156 " clip-rule="nonzero"/></clipPath><clipPath id="e3dd11104d"><path d="M 34.226562 57.496094 L 78.46875 57.496094 L 78.46875 85.347656 L 34.226562 85.347656 Z M 34.226562 57.496094 " clip-rule="nonzero"/></clipPath><clipPath id="6ceede864e"><path d="M 32.359375 43.804688 L 80.359375 43.804688 L 80.359375 56.679688 L 32.359375 56.679688 Z M 32.359375 43.804688 " clip-rule="nonzero"/></clipPath><clipPath id="ca40ba3213"><path d="M 51.640625 57.496094 L 61.054688 57.496094 L 61.054688 85.347656 L 51.640625 85.347656 Z M 51.640625 57.496094 " clip-rule="nonzero"/></clipPath><clipPath id="37241a85cc"><path d="M 34.449219 81.03125 L 38.636719 81.03125 L 38.636719 85.347656 L 34.449219 85.347656 Z M 34.449219 81.03125 " clip-rule="nonzero"/></clipPath><clipPath id="84a8ea61b5"><path d="M 73.757812 81.03125 L 78.242188 81.03125 L 78.242188 85.347656 L 73.757812 85.347656 Z M 73.757812 81.03125 " clip-rule="nonzero"/></clipPath></defs><path fill="#ffffff" d="M 54.144531 45.582031 C 52.480469 43.828125 50.433594 42.449219 48.167969 41.605469 C 44.519531 40.214844 40.3125 40.375 36.773438 41.957031 L 35.226562 37.988281 C 38.929688 36.746094 43.003906 36.652344 46.71875 37.789062 C 50.347656 38.882812 53.601562 41.152344 55.910156 44.113281 L 54.144531 45.582031 " fill-opacity="1" fill-rule="nonzero"/><path fill="#ffffff" d="M 56.585938 45.707031 L 54.445312 46.542969 C 54.382812 46.378906 54.320312 46.21875 54.253906 46.058594 L 54.402344 45.792969 C 54.277344 45.703125 54.152344 45.609375 54.027344 45.519531 C 52.488281 41.988281 50.207031 38.789062 47.132812 36.488281 C 45.824219 35.550781 43.5625 34.140625 41.875 34.414062 L 41.539062 33.25 C 41.328125 32.511719 41.265625 31.746094 41.347656 30.988281 C 42.171875 31.007812 42.984375 31.226562 43.726562 31.484375 C 48.28125 33.070312 51.691406 36.839844 54.132812 40.8125 C 55.078125 42.371094 55.882812 44.03125 56.585938 45.707031 " fill-opacity="1" fill-rule="nonzero"/><path fill="#ffffff" d="M 54.253906 46.058594 L 53.273438 47.78125 C 49.429688 46.210938 42.9375 42.933594 39.542969 39.050781 C 39.179688 38.601562 38.851562 38.144531 38.566406 37.679688 C 38.550781 37.65625 38.535156 37.632812 38.519531 37.609375 C 38.105469 36.925781 37.785156 36.230469 37.578125 35.527344 C 37.445312 35.0625 37.34375 34.648438 37.277344 34.273438 C 37.257812 34.15625 37.238281 34.046875 37.222656 33.9375 L 37.222656 33.933594 C 37.195312 33.753906 37.179688 33.589844 37.171875 33.429688 C 37.175781 33.363281 37.183594 33.304688 37.191406 33.242188 C 37.214844 33.039062 37.265625 32.859375 37.332031 32.699219 C 37.714844 31.808594 38.722656 31.542969 40.027344 31.144531 C 40.464844 31.011719 40.910156 30.976562 41.347656 30.988281 C 41.332031 31.148438 41.320312 31.304688 41.316406 31.464844 C 41.308594 31.652344 41.3125 31.835938 41.324219 32.019531 C 41.339844 32.269531 41.371094 32.511719 41.421875 32.757812 C 41.453125 32.921875 41.492188 33.089844 41.539062 33.25 L 41.875 34.414062 C 41.972656 34.652344 42.054688 34.882812 42.230469 35.195312 C 42.351562 35.40625 42.484375 35.609375 42.628906 35.808594 C 42.847656 36.125 43.089844 36.429688 43.347656 36.726562 C 43.382812 36.769531 43.417969 36.808594 43.457031 36.851562 C 43.738281 37.179688 44.042969 37.496094 44.355469 37.816406 C 46.140625 39.601562 48.125 41.164062 50.175781 42.703125 C 51.433594 43.65625 52.734375 44.574219 54.027344 45.519531 C 54.105469 45.699219 54.179688 45.878906 54.253906 46.058594 " fill-opacity="1" fill-rule="nonzero"/><path fill="#ffffff" d="M 55.492188 44.210938 L 57.433594 45.386719 C 57.523438 45.242188 57.617188 45.097656 57.710938 44.957031 L 57.613281 44.679688 C 57.75 44.613281 57.890625 44.546875 58.027344 44.484375 C 60.175781 41.371094 62.984375 38.710938 66.410156 37.046875 C 67.855469 36.378906 70.328125 35.425781 71.925781 35.984375 L 72.464844 34.929688 C 72.804688 34.257812 73.007812 33.535156 73.058594 32.796875 C 72.253906 32.671875 71.421875 32.738281 70.644531 32.855469 C 65.90625 33.578125 61.890625 36.589844 58.78125 39.964844 C 57.574219 41.285156 56.488281 42.734375 55.492188 44.210938 " fill-opacity="1" fill-rule="nonzero"/><path fill="#ffffff" d="M 75.710938 37.910156 C 75.484375 38.25 75.226562 38.582031 74.933594 38.910156 C 71.355469 42.898438 63.105469 45.800781 58.351562 46.777344 L 57.710938 44.957031 C 57.816406 44.796875 57.917969 44.640625 58.027344 44.484375 C 59.464844 43.804688 60.902344 43.152344 62.308594 42.460938 C 64.589844 41.34375 66.8125 40.199219 68.878906 38.800781 C 69.425781 38.425781 69.949219 38.046875 70.429688 37.636719 C 70.789062 37.335938 71.125 37.015625 71.433594 36.667969 C 71.660156 36.398438 71.785156 36.191406 71.925781 35.984375 L 72.464844 34.929688 C 72.804688 34.257812 73.007812 33.535156 73.058594 32.796875 C 73.492188 32.859375 75.445312 33.679688 75.832031 33.90625 C 77.3125 34.785156 76.804688 36.265625 75.710938 37.910156 " fill-opacity="1" fill-rule="nonzero"/><g clip-path="url(#0a1563fc40)"><path fill="#ffffff" d="M 54.929688 44.300781 C 56.605469 42.824219 58.875 40.113281 59.742188 38.140625 C 61.144531 35.007812 61.183594 31.425781 59.902344 28.457031 L 64.375 26.851562 C 65.230469 30.144531 64.992188 33.738281 63.632812 36.992188 C 62.339844 40.136719 59.992188 42.945312 57.085938 44.898438 L 56 44.597656 L 54.929688 44.300781 " fill-opacity="1" fill-rule="nonzero"/></g><g clip-path="url(#48fd1d1558)"><path fill="#4aa276" d="M 78.492188 54.546875 L 78.472656 56.640625 L 78.464844 57.523438 L 78.410156 63.429688 L 78.367188 67.90625 L 78.269531 78.09375 L 78.226562 82.570312 L 78.160156 85.347656 L 34.554688 85.347656 L 34.488281 82.320312 L 34.449219 77.925781 L 34.351562 67.933594 L 34.308594 63.542969 L 34.253906 57.523438 L 34.242188 56.640625 L 34.222656 54.546875 L 78.492188 54.546875 " fill-opacity="1" fill-rule="nonzero"/></g><g clip-path="url(#e3dd11104d)"><path fill="#4aa276" d="M 78.464844 57.523438 L 78.464844 57.765625 L 78.460938 58.195312 L 78.449219 59.410156 L 78.441406 60.046875 L 78.410156 63.433594 L 78.382812 66.210938 L 78.367188 67.90625 L 78.292969 75.402344 L 78.289062 75.847656 L 78.269531 77.878906 L 78.265625 78.09375 L 78.261719 78.65625 L 78.242188 80.617188 L 78.238281 81.082031 L 78.238281 81.09375 L 78.222656 82.570312 L 78.160156 85.347656 L 34.554688 85.347656 L 34.488281 82.320312 L 34.476562 81.066406 L 34.445312 77.925781 L 34.375 70.480469 L 34.351562 67.933594 L 34.335938 66.332031 L 34.335938 66.242188 L 34.308594 63.539062 L 34.257812 58.160156 L 34.253906 57.523438 L 78.464844 57.523438 " fill-opacity="1" fill-rule="nonzero"/></g><g clip-path="url(#6ceede864e)"><path fill="#4aa276" d="M 80.359375 43.847656 L 80.359375 56.640625 L 32.359375 56.640625 L 32.359375 43.847656 L 80.359375 43.847656 " fill-opacity="1" fill-rule="nonzero"/></g><path fill="#ffffff" d="M 61.054688 56.640625 L 61.054688 57.523438 L 51.660156 57.523438 L 51.660156 56.640625 L 61.054688 56.640625 " fill-opacity="1" fill-rule="nonzero"/><g clip-path="url(#ca40ba3213)"><path fill="#ffffff" d="M 61.054688 57.523438 L 60.988281 85.347656 L 51.726562 85.347656 L 51.664062 57.523438 L 61.054688 57.523438 " fill-opacity="1" fill-rule="nonzero"/></g><path fill="#ffffff" d="M 61.457031 56.640625 L 51.257812 56.640625 L 51.257812 43.847656 L 61.457031 43.847656 L 61.457031 56.640625 " fill-opacity="1" fill-rule="nonzero"/><g clip-path="url(#37241a85cc)"><path fill="#4aa276" d="M 38.609375 85.113281 C 38.609375 85.191406 38.605469 85.269531 38.601562 85.347656 L 34.554688 85.347656 L 34.488281 82.320312 L 34.476562 81.066406 C 34.492188 81.0625 34.507812 81.0625 34.523438 81.0625 C 36.777344 81.0625 38.609375 82.875 38.609375 85.113281 " fill-opacity="1" fill-rule="nonzero"/></g><path fill="#4aa276" d="M 49.832031 73.996094 C 49.832031 76.230469 48.003906 78.042969 45.746094 78.042969 C 43.488281 78.042969 41.660156 76.230469 41.660156 73.996094 C 41.660156 71.757812 43.488281 69.945312 45.746094 69.945312 C 48.003906 69.945312 49.832031 71.757812 49.832031 73.996094 " fill-opacity="1" fill-rule="nonzero"/><path fill="#4aa276" d="M 38.609375 62.199219 C 38.609375 64.433594 36.777344 66.246094 34.523438 66.246094 C 34.460938 66.246094 34.398438 66.246094 34.335938 66.242188 L 34.308594 63.539062 L 34.257812 58.160156 C 34.34375 58.152344 34.433594 58.152344 34.523438 58.152344 C 36.777344 58.152344 38.609375 59.964844 38.609375 62.199219 " fill-opacity="1" fill-rule="nonzero"/><path fill="#4aa276" d="M 49.832031 51.082031 C 49.832031 53.316406 48.003906 55.128906 45.746094 55.128906 C 43.488281 55.128906 41.660156 53.316406 41.660156 51.082031 C 41.660156 48.84375 43.488281 47.035156 45.746094 47.035156 C 48.003906 47.035156 49.832031 48.84375 49.832031 51.082031 " fill-opacity="1" fill-rule="nonzero"/><path fill="#4aa276" d="M 71.796875 73.996094 C 71.796875 76.230469 69.964844 78.042969 67.710938 78.042969 C 65.453125 78.042969 63.621094 76.230469 63.621094 73.996094 C 63.621094 71.757812 65.453125 69.945312 67.710938 69.945312 C 69.964844 69.945312 71.796875 71.757812 71.796875 73.996094 " fill-opacity="1" fill-rule="nonzero"/><path fill="#4aa276" d="M 71.796875 51.082031 C 71.796875 53.316406 69.964844 55.128906 67.710938 55.128906 C 65.453125 55.128906 63.621094 53.316406 63.621094 51.082031 C 63.621094 48.84375 65.453125 47.035156 67.710938 47.035156 C 69.964844 47.035156 71.796875 48.84375 71.796875 51.082031 " fill-opacity="1" fill-rule="nonzero"/><g clip-path="url(#84a8ea61b5)"><path fill="#4aa276" d="M 78.238281 81.082031 L 78.238281 81.09375 L 78.222656 82.570312 L 78.160156 85.347656 L 73.78125 85.347656 C 73.777344 85.269531 73.777344 85.191406 73.777344 85.113281 C 73.777344 82.875 75.605469 81.0625 77.863281 81.0625 C 77.992188 81.0625 78.117188 81.070312 78.238281 81.082031 " fill-opacity="1" fill-rule="nonzero"/></g><path fill="#4aa276" d="M 78.460938 58.195312 L 78.449219 59.410156 L 78.441406 60.046875 L 78.410156 63.433594 L 78.382812 66.210938 C 78.210938 66.234375 78.039062 66.246094 77.863281 66.246094 C 75.605469 66.246094 73.777344 64.433594 73.777344 62.199219 C 73.777344 59.964844 75.605469 58.152344 77.863281 58.152344 C 78.066406 58.152344 78.265625 58.164062 78.460938 58.195312 " fill-opacity="1" fill-rule="nonzero"/></svg>