<svg xmlns="http://www.w3.org/2000/svg" xmlns:xlink="http://www.w3.org/1999/xlink" width="990" zoomAndPan="magnify" viewBox="0 0 742.5 277.499997" height="370" preserveAspectRatio="xMidYMid meet" version="1.0"><defs><g/><clipPath id="ae80b8aa36"><path d="M 5.742188 43.515625 L 196.027344 43.515625 L 196.027344 233.800781 L 5.742188 233.800781 Z M 5.742188 43.515625 " clip-rule="nonzero"/></clipPath><clipPath id="658087b135"><path d="M 207 102 L 741.582031 102 L 741.582031 178 L 207 178 Z M 207 102 " clip-rule="nonzero"/></clipPath></defs><g clip-path="url(#ae80b8aa36)"><path fill="#ffffff" d="M 87.828125 129.484375 L 87.828125 108.230469 L 104.078125 108.230469 C 121.023438 108.230469 132.425781 121.339844 132.425781 140.175781 C 132.425781 159.011719 121.023438 171.820312 104.078125 171.820312 L 87.828125 171.820312 L 87.828125 149.976562 L 108.25 149.976562 L 108.25 129.484375 Z M 69.496094 149.976562 L 69.496094 192.765625 L 106.171875 192.765625 C 135.738281 192.765625 156.175781 169.707031 156.175781 139.875 C 156.175781 110.039062 135.738281 87.285156 106.171875 87.285156 L 69.496094 87.285156 L 69.496094 129.484375 L 55.222656 129.484375 L 55.222656 149.976562 Z M 196.027344 138.65625 C 196.027344 191.515625 153.746094 233.800781 100.886719 233.800781 C 48.027344 233.800781 5.742188 191.515625 5.742188 138.65625 C 5.742188 85.796875 48.027344 43.515625 100.886719 43.515625 C 153.746094 43.515625 196.027344 85.796875 196.027344 138.65625 " fill-opacity="1" fill-rule="nonzero"/></g><g clip-path="url(#658087b135)"><g fill="#ffffff" fill-opacity="1"><g transform="translate(198.656275, 176.915748)"><g><path d="M 69.703125 -37.171875 C 69.703125 -25.160156 66.285156 -15.960938 59.453125 -9.578125 C 52.617188 -3.191406 42.75 0 29.84375 0 L 9.1875 0 L 9.1875 -72.953125 L 32.078125 -72.953125 C 43.992188 -72.953125 53.242188 -69.804688 59.828125 -63.515625 C 66.410156 -57.234375 69.703125 -48.453125 69.703125 -37.171875 Z M 53.640625 -36.78125 C 53.640625 -52.445312 46.71875 -60.28125 32.875 -60.28125 L 24.65625 -60.28125 L 24.65625 -12.78125 L 31.28125 -12.78125 C 46.1875 -12.78125 53.640625 -20.78125 53.640625 -36.78125 Z M 53.640625 -36.78125 "/></g></g><g transform="translate(274.302402, 176.915748)"><g><path d="M 75.390625 -36.578125 C 75.390625 -24.503906 72.394531 -15.222656 66.40625 -8.734375 C 60.425781 -2.242188 51.847656 1 40.671875 1 C 29.492188 1 20.910156 -2.242188 14.921875 -8.734375 C 8.929688 -15.222656 5.9375 -24.535156 5.9375 -36.671875 C 5.9375 -48.816406 8.9375 -58.085938 14.9375 -64.484375 C 20.945312 -70.890625 29.554688 -74.09375 40.765625 -74.09375 C 51.972656 -74.09375 60.546875 -70.863281 66.484375 -64.40625 C 72.421875 -57.957031 75.390625 -48.679688 75.390625 -36.578125 Z M 22.15625 -36.578125 C 22.15625 -28.421875 23.703125 -22.28125 26.796875 -18.15625 C 29.890625 -14.03125 34.515625 -11.96875 40.671875 -11.96875 C 53.003906 -11.96875 59.171875 -20.171875 59.171875 -36.578125 C 59.171875 -53.003906 53.035156 -61.21875 40.765625 -61.21875 C 34.609375 -61.21875 29.96875 -59.144531 26.84375 -55 C 23.71875 -50.863281 22.15625 -44.722656 22.15625 -36.578125 Z M 22.15625 -36.578125 "/></g></g><g transform="translate(355.636957, 176.915748)"><g><path d="M 36.875 -40.96875 L 65.8125 -40.96875 L 65.8125 -3.140625 C 61.125 -1.609375 56.707031 -0.535156 52.5625 0.078125 C 48.425781 0.691406 44.191406 1 39.859375 1 C 28.847656 1 20.441406 -2.234375 14.640625 -8.703125 C 8.835938 -15.171875 5.9375 -24.460938 5.9375 -36.578125 C 5.9375 -48.347656 9.300781 -57.523438 16.03125 -64.109375 C 22.769531 -70.703125 32.113281 -74 44.0625 -74 C 51.539062 -74 58.757812 -72.5 65.71875 -69.5 L 60.578125 -57.125 C 55.253906 -59.789062 49.710938 -61.125 43.953125 -61.125 C 37.265625 -61.125 31.910156 -58.878906 27.890625 -54.390625 C 23.867188 -49.898438 21.859375 -43.863281 21.859375 -36.28125 C 21.859375 -28.363281 23.476562 -22.316406 26.71875 -18.140625 C 29.957031 -13.960938 34.671875 -11.875 40.859375 -11.875 C 44.085938 -11.875 47.363281 -12.207031 50.6875 -12.875 L 50.6875 -28.09375 L 36.875 -28.09375 Z M 36.875 -40.96875 "/></g></g><g transform="translate(429.636432, 176.915748)"><g><path d="M 51.1875 0 L 9.1875 0 L 9.1875 -72.953125 L 51.1875 -72.953125 L 51.1875 -60.28125 L 24.65625 -60.28125 L 24.65625 -44.265625 L 49.34375 -44.265625 L 49.34375 -31.578125 L 24.65625 -31.578125 L 24.65625 -12.78125 L 51.1875 -12.78125 Z M 51.1875 0 "/></g></g><g transform="translate(486.870011, 176.915748)"><g><path d="M 40.171875 -61.125 C 34.347656 -61.125 29.835938 -58.9375 26.640625 -54.5625 C 23.453125 -50.1875 21.859375 -44.09375 21.859375 -36.28125 C 21.859375 -20.007812 27.960938 -11.875 40.171875 -11.875 C 45.285156 -11.875 51.488281 -13.15625 58.78125 -15.71875 L 58.78125 -2.75 C 52.789062 -0.25 46.101562 1 38.71875 1 C 28.101562 1 19.984375 -2.21875 14.359375 -8.65625 C 8.742188 -15.09375 5.9375 -24.332031 5.9375 -36.375 C 5.9375 -43.957031 7.316406 -50.597656 10.078125 -56.296875 C 12.835938 -62.003906 16.800781 -66.378906 21.96875 -69.421875 C 27.144531 -72.472656 33.210938 -74 40.171875 -74 C 47.253906 -74 54.367188 -72.285156 61.515625 -68.859375 L 56.53125 -56.28125 C 53.800781 -57.582031 51.054688 -58.710938 48.296875 -59.671875 C 45.535156 -60.640625 42.828125 -61.125 40.171875 -61.125 Z M 40.171875 -61.125 "/></g></g><g transform="translate(551.987554, 176.915748)"><g><path d="M 75.390625 -36.578125 C 75.390625 -24.503906 72.394531 -15.222656 66.40625 -8.734375 C 60.425781 -2.242188 51.847656 1 40.671875 1 C 29.492188 1 20.910156 -2.242188 14.921875 -8.734375 C 8.929688 -15.222656 5.9375 -24.535156 5.9375 -36.671875 C 5.9375 -48.816406 8.9375 -58.085938 14.9375 -64.484375 C 20.945312 -70.890625 29.554688 -74.09375 40.765625 -74.09375 C 51.972656 -74.09375 60.546875 -70.863281 66.484375 -64.40625 C 72.421875 -57.957031 75.390625 -48.679688 75.390625 -36.578125 Z M 22.15625 -36.578125 C 22.15625 -28.421875 23.703125 -22.28125 26.796875 -18.15625 C 29.890625 -14.03125 34.515625 -11.96875 40.671875 -11.96875 C 53.003906 -11.96875 59.171875 -20.171875 59.171875 -36.578125 C 59.171875 -53.003906 53.035156 -61.21875 40.765625 -61.21875 C 34.609375 -61.21875 29.96875 -59.144531 26.84375 -55 C 23.71875 -50.863281 22.15625 -44.722656 22.15625 -36.578125 Z M 22.15625 -36.578125 "/></g></g><g transform="translate(633.322109, 176.915748)"><g><path d="M 9.1875 0 L 9.1875 -72.953125 L 24.65625 -72.953125 L 24.65625 0 Z M 9.1875 0 "/></g></g><g transform="translate(667.153292, 176.915748)"><g><path d="M 73.890625 0 L 54.234375 0 L 22.5 -55.1875 L 22.046875 -55.1875 C 22.679688 -45.4375 23 -38.484375 23 -34.328125 L 23 0 L 9.1875 0 L 9.1875 -72.953125 L 28.6875 -72.953125 L 60.375 -18.3125 L 60.71875 -18.3125 C 60.21875 -27.789062 59.96875 -34.492188 59.96875 -38.421875 L 59.96875 -72.953125 L 73.890625 -72.953125 Z M 73.890625 0 "/></g></g></g></g></svg>