<svg xmlns="http://www.w3.org/2000/svg" xmlns:xlink="http://www.w3.org/1999/xlink" width="1380" zoomAndPan="magnify" viewBox="0 0 1035 492.749982" height="657" preserveAspectRatio="xMidYMid meet" version="1.0"><path fill="#173d94" d="M 285.164062 90.300781 C 198.625 90.300781 128.472656 160.398438 128.472656 246.878906 C 128.472656 333.351562 198.625 403.449219 285.164062 403.449219 C 371.714844 403.449219 441.867188 333.351562 441.867188 246.878906 C 441.867188 160.398438 371.710938 90.300781 285.164062 90.300781 Z M 285.164062 372.792969 C 215.574219 372.800781 159.152344 316.414062 159.152344 246.878906 C 159.152344 177.320312 215.570312 120.953125 285.164062 120.953125 C 354.765625 120.953125 411.1875 177.320312 411.1875 246.878906 C 411.1875 316.414062 354.761719 372.792969 285.164062 372.792969 Z M 285.164062 372.792969 " fill-opacity="1" fill-rule="nonzero"/><path fill="#ffffff" d="M 522.769531 336.617188 C 519.667969 338.117188 512.300781 339.953125 502.972656 339.953125 C 476.15625 339.953125 462.335938 323.15625 462.335938 301.070312 C 462.335938 274.613281 481.214844 260.011719 504.699219 260.011719 C 513.800781 260.011719 520.699219 261.730469 523.8125 263.457031 L 520.125 277.265625 C 516.675781 275.765625 511.726562 274.386719 505.390625 274.386719 C 491.574219 274.386719 480.757812 282.78125 480.757812 300.042969 C 480.757812 315.5625 489.960938 325.34375 505.503906 325.34375 C 510.921875 325.34375 516.675781 324.3125 520.238281 322.8125 Z M 556.199219 318.785156 L 550.667969 338.691406 L 532.59375 338.691406 L 556.199219 261.152344 L 579.21875 261.152344 L 603.394531 338.691406 L 584.402344 338.691406 L 578.414062 318.785156 Z M 575.882812 305.671875 L 571.046875 289.226562 C 569.667969 284.628906 568.28125 278.875 567.128906 274.265625 L 566.90625 274.265625 C 565.75 278.875 564.597656 284.738281 563.332031 289.226562 L 558.730469 305.671875 Z M 616.21875 262.191406 C 621.628906 261.265625 629.21875 260.582031 639.925781 260.582031 C 650.75 260.582031 658.464844 262.648438 663.640625 266.792969 C 668.710938 270.703125 671.9375 277.152344 671.9375 284.738281 C 671.9375 292.332031 669.519531 298.890625 664.792969 303.144531 C 658.8125 308.667969 649.945312 311.308594 639.589844 311.308594 C 637.28125 311.308594 635.210938 311.195312 633.597656 310.851562 L 633.597656 338.6875 L 616.21875 338.6875 Z M 633.597656 297.390625 C 635.097656 297.738281 636.820312 297.851562 639.464844 297.851562 C 648.792969 297.851562 654.546875 293.140625 654.546875 285.320312 C 654.546875 278.183594 649.597656 273.929688 640.730469 273.929688 C 637.28125 273.929688 634.863281 274.15625 633.597656 274.5 Z M 703.292969 261.152344 L 703.292969 338.691406 L 685.792969 338.691406 L 685.792969 261.152344 Z M 736.109375 275.878906 L 715.160156 275.878906 L 715.160156 261.152344 L 774.796875 261.152344 L 774.796875 275.878906 L 753.613281 275.878906 L 753.613281 338.6875 L 736.109375 338.6875 Z M 796.476562 318.785156 L 790.949219 338.691406 L 772.875 338.691406 L 796.476562 261.152344 L 819.5 261.152344 L 843.675781 338.691406 L 824.683594 338.691406 L 818.695312 318.785156 Z M 816.164062 305.671875 L 811.328125 289.226562 C 809.949219 284.628906 808.5625 278.875 807.410156 274.265625 L 807.183594 274.265625 C 806.03125 278.875 804.875 284.738281 803.613281 289.226562 L 799.011719 305.671875 Z M 856.609375 261.152344 L 874.113281 261.152344 L 874.113281 323.964844 L 904.960938 323.964844 L 904.960938 338.6875 L 856.609375 338.6875 Z M 856.609375 261.152344 " fill-opacity="1" fill-rule="nonzero"/><path fill="#173d94" d="M 536.933594 189.078125 C 536.933594 214.621094 521.628906 229.917969 498.832031 229.917969 C 475.921875 229.917969 462.339844 212.550781 462.339844 190.34375 C 462.339844 167.113281 477.300781 149.738281 500.097656 149.738281 C 523.921875 149.738281 536.933594 167.574219 536.933594 189.078125 Z M 480.871094 190.003906 C 480.871094 205.300781 488.011719 215.996094 499.746094 215.996094 C 511.605469 215.996094 518.402344 204.730469 518.402344 189.660156 C 518.402344 175.617188 511.839844 163.65625 499.746094 163.65625 C 487.777344 163.65625 480.871094 174.933594 480.871094 190.003906 Z M 548.492188 152.15625 C 553.902344 151.226562 561.496094 150.542969 572.210938 150.542969 C 583.027344 150.542969 590.742188 152.613281 595.917969 156.753906 C 600.988281 160.667969 604.210938 167.113281 604.210938 174.703125 C 604.210938 182.296875 601.792969 188.855469 597.070312 193.105469 C 591.089844 198.632812 582.222656 201.273438 571.863281 201.273438 C 569.558594 201.273438 567.484375 201.164062 565.875 200.816406 L 565.875 228.652344 L 548.496094 228.652344 L 548.496094 152.15625 Z M 565.871094 187.355469 C 567.371094 187.699219 569.097656 187.8125 571.738281 187.8125 C 581.066406 187.8125 586.824219 183.101562 586.824219 175.28125 C 586.824219 168.144531 581.871094 163.890625 573.003906 163.890625 C 569.554688 163.890625 567.136719 164.117188 565.871094 164.464844 Z M 633.035156 151.113281 L 633.035156 228.648438 L 615.535156 228.648438 L 615.535156 151.113281 Z M 648.246094 228.648438 L 648.246094 151.113281 L 668.738281 151.113281 L 684.851562 179.535156 C 689.453125 187.703125 693.945312 197.367188 697.515625 206.105469 L 697.742188 206.105469 C 696.710938 195.867188 696.363281 185.398438 696.363281 173.671875 L 696.363281 151.113281 L 712.476562 151.113281 L 712.476562 228.648438 L 694.066406 228.648438 L 677.484375 198.742188 C 672.882812 190.464844 667.695312 180.449219 664.011719 171.363281 L 663.550781 171.363281 C 664.125 181.714844 664.359375 192.644531 664.359375 205.300781 L 664.359375 228.648438 Z M 745.332031 151.113281 L 745.332031 228.648438 L 727.832031 228.648438 L 727.832031 151.113281 Z M 831.570312 189.078125 C 831.570312 214.621094 816.265625 229.917969 793.46875 229.917969 C 770.558594 229.917969 756.976562 212.550781 756.976562 190.34375 C 756.976562 167.113281 771.9375 149.738281 794.734375 149.738281 C 818.558594 149.738281 831.570312 167.574219 831.570312 189.078125 Z M 775.507812 190.003906 C 775.507812 205.300781 782.648438 215.996094 794.386719 215.996094 C 806.242188 215.996094 813.039062 204.730469 813.039062 189.660156 C 813.039062 175.617188 806.476562 163.65625 794.386719 163.65625 C 782.414062 163.65625 775.507812 174.933594 775.507812 190.003906 Z M 843.140625 228.648438 L 843.140625 151.113281 L 863.632812 151.113281 L 879.746094 179.535156 C 884.347656 187.703125 888.835938 197.367188 892.410156 206.105469 L 892.644531 206.105469 C 891.601562 195.867188 891.253906 185.398438 891.253906 173.671875 L 891.253906 151.113281 L 907.378906 151.113281 L 907.378906 228.648438 L 888.949219 228.648438 L 872.378906 198.742188 C 867.777344 190.464844 862.589844 180.449219 858.90625 171.363281 L 858.445312 171.363281 C 859.019531 181.714844 859.253906 192.644531 859.253906 205.300781 L 859.253906 228.648438 Z M 843.140625 228.648438 " fill-opacity="1" fill-rule="nonzero"/><path fill="#ffffff" d="M 360.78125 316.621094 C 341.835938 337.105469 314.792969 350.011719 284.675781 350.011719 C 227.398438 350.019531 180.960938 303.621094 180.960938 246.378906 C 180.960938 189.144531 227.398438 142.742188 284.675781 142.742188 C 314.652344 142.742188 341.582031 155.523438 360.519531 175.851562 L 340.648438 198.65625 C 326.023438 182.882812 306.996094 172.675781 284.5 172.675781 C 243.769531 172.675781 210.742188 205.683594 210.742188 246.378906 C 210.742188 287.078125 243.769531 320.074219 284.5 320.074219 C 307.585938 320.074219 328.191406 309.441406 341.714844 292.847656 Z M 360.78125 316.621094 " fill-opacity="1" fill-rule="nonzero"/></svg>