<svg xmlns="http://www.w3.org/2000/svg" xmlns:xlink="http://www.w3.org/1999/xlink" width="129" zoomAndPan="magnify" viewBox="0 0 96.75 30.000001" height="40" preserveAspectRatio="xMidYMid meet" version="1.0"><defs><clipPath id="2a856fc1ce"><path d="M 7.988281 5.195312 L 30 5.195312 L 30 19.75 L 7.988281 19.75 Z M 7.988281 5.195312 " clip-rule="nonzero"/></clipPath><clipPath id="486be46325"><path d="M 63 5.195312 L 67 5.195312 L 67 19 L 63 19 Z M 63 5.195312 " clip-rule="nonzero"/></clipPath><clipPath id="042c0808cf"><path d="M 69 5.195312 L 73 5.195312 L 73 19 L 69 19 Z M 69 5.195312 " clip-rule="nonzero"/></clipPath><clipPath id="109534745d"><path d="M 74 5.195312 L 81 5.195312 L 81 13 L 74 13 Z M 74 5.195312 " clip-rule="nonzero"/></clipPath></defs><g clip-path="url(#2a856fc1ce)"><path fill="#ffffff" d="M 26.5625 18.941406 L 26.5625 10.390625 L 19.964844 18.671875 C 19.660156 19.039062 19.214844 19.226562 18.636719 19.226562 C 18.058594 19.226562 17.613281 19.039062 17.308594 18.671875 L 10.722656 10.390625 L 10.722656 18.941406 L 7.988281 18.941406 L 7.988281 6.859375 C 7.988281 6.449219 8.140625 6.15625 8.457031 5.957031 C 8.773438 5.769531 9.152344 5.675781 9.621094 5.675781 C 9.980469 5.675781 10.265625 5.730469 10.472656 5.824219 C 10.675781 5.917969 10.875 6.074219 11.046875 6.292969 L 18.679688 16.015625 L 26.367188 6.292969 C 26.542969 6.074219 26.714844 5.917969 26.914062 5.824219 C 27.109375 5.730469 27.371094 5.675781 27.71875 5.675781 C 28.175781 5.675781 28.566406 5.769531 28.882812 5.957031 C 29.199219 6.148438 29.351562 6.449219 29.351562 6.859375 L 29.351562 18.941406 Z M 26.5625 18.941406 " fill-opacity="1" fill-rule="nonzero"/></g><path fill="#ffffff" d="M 36.691406 18.941406 C 35.699219 18.941406 34.871094 18.859375 34.207031 18.703125 C 33.542969 18.546875 33.019531 18.296875 32.617188 17.941406 C 32.226562 17.59375 31.941406 17.132812 31.78125 16.570312 C 31.617188 16.003906 31.53125 15.316406 31.53125 14.488281 L 31.53125 13.097656 C 31.53125 12.273438 31.617188 11.574219 31.78125 11.007812 C 31.941406 10.433594 32.226562 9.972656 32.617188 9.628906 C 33.011719 9.285156 33.542969 9.023438 34.207031 8.863281 C 34.871094 8.707031 35.699219 8.625 36.691406 8.625 L 40.285156 8.625 C 41.285156 8.625 42.125 8.707031 42.777344 8.863281 C 43.441406 9.023438 43.964844 9.285156 44.367188 9.636719 C 44.757812 9.992188 45.042969 10.453125 45.207031 11.027344 C 45.367188 11.605469 45.457031 12.292969 45.457031 13.121094 L 45.457031 14.488281 C 45.457031 15.316406 45.367188 16.003906 45.207031 16.570312 C 45.042969 17.132812 44.757812 17.59375 44.367188 17.941406 C 43.976562 18.285156 43.441406 18.546875 42.777344 18.703125 C 42.113281 18.859375 41.285156 18.941406 40.285156 18.941406 Z M 42.503906 13.191406 C 42.503906 12.765625 42.472656 12.410156 42.394531 12.125 C 42.320312 11.84375 42.1875 11.625 42.003906 11.46875 C 41.808594 11.3125 41.546875 11.207031 41.199219 11.144531 C 40.851562 11.09375 40.414062 11.058594 39.890625 11.058594 L 37.09375 11.058594 C 36.558594 11.058594 36.136719 11.09375 35.796875 11.144531 C 35.460938 11.195312 35.199219 11.3125 35.003906 11.46875 C 34.808594 11.625 34.675781 11.84375 34.609375 12.125 C 34.535156 12.410156 34.5 12.765625 34.5 13.191406 L 34.5 14.417969 C 34.5 14.84375 34.535156 15.199219 34.609375 15.472656 C 34.6875 15.742188 34.816406 15.964844 35.003906 16.121094 C 35.199219 16.277344 35.460938 16.390625 35.796875 16.453125 C 36.136719 16.519531 36.570312 16.550781 37.09375 16.550781 L 39.890625 16.550781 C 40.425781 16.550781 40.859375 16.519531 41.199219 16.453125 C 41.546875 16.390625 41.808594 16.277344 42.003906 16.121094 C 42.199219 15.964844 42.332031 15.742188 42.394531 15.472656 C 42.472656 15.199219 42.503906 14.84375 42.503906 14.417969 Z M 42.503906 13.191406 " fill-opacity="1" fill-rule="nonzero"/><path fill="#ffffff" d="M 58.597656 18.941406 L 58.597656 13.191406 C 58.597656 12.765625 58.566406 12.410156 58.488281 12.136719 C 58.414062 11.867188 58.292969 11.644531 58.109375 11.488281 C 57.933594 11.332031 57.683594 11.21875 57.378906 11.15625 C 57.0625 11.09375 56.671875 11.058594 56.203125 11.058594 L 52.992188 11.058594 C 52.523438 11.058594 52.140625 11.09375 51.824219 11.15625 C 51.511719 11.21875 51.269531 11.332031 51.085938 11.488281 C 50.898438 11.644531 50.769531 11.867188 50.695312 12.136719 C 50.617188 12.410156 50.585938 12.765625 50.585938 13.191406 L 50.585938 18.941406 L 47.632812 18.941406 L 47.632812 13.097656 C 47.632812 12.273438 47.722656 11.574219 47.882812 11.007812 C 48.046875 10.433594 48.332031 9.972656 48.722656 9.628906 C 49.113281 9.285156 49.648438 9.023438 50.3125 8.863281 C 50.976562 8.707031 51.804688 8.625 52.792969 8.625 L 56.386719 8.625 C 57.390625 8.625 58.226562 8.707031 58.882812 8.863281 C 59.546875 9.023438 60.070312 9.273438 60.472656 9.628906 C 60.863281 9.972656 61.144531 10.433594 61.308594 11.007812 C 61.472656 11.582031 61.558594 12.273438 61.558594 13.097656 L 61.558594 18.941406 Z M 58.597656 18.941406 " fill-opacity="1" fill-rule="nonzero"/><g clip-path="url(#486be46325)"><path fill="#ffffff" d="M 63.835938 18.941406 L 63.835938 5.300781 L 66.851562 5.300781 L 66.851562 18.953125 L 63.835938 18.953125 Z M 63.835938 18.941406 " fill-opacity="1" fill-rule="nonzero"/></g><g clip-path="url(#042c0808cf)"><path fill="#ffffff" d="M 70.195312 8.039062 C 69.824219 8.039062 69.5625 7.964844 69.410156 7.828125 C 69.257812 7.695312 69.183594 7.464844 69.183594 7.160156 L 69.183594 6.050781 C 69.183594 5.75 69.257812 5.53125 69.410156 5.394531 C 69.5625 5.257812 69.824219 5.195312 70.195312 5.195312 L 71.164062 5.195312 C 71.546875 5.195312 71.816406 5.257812 71.96875 5.394531 C 72.121094 5.53125 72.199219 5.75 72.199219 6.050781 L 72.199219 7.160156 C 72.199219 7.464844 72.121094 7.683594 71.96875 7.828125 C 71.816406 7.964844 71.546875 8.039062 71.164062 8.039062 Z M 69.191406 18.941406 L 69.191406 8.894531 L 72.210938 8.894531 L 72.210938 18.941406 Z M 69.191406 18.941406 " fill-opacity="1" fill-rule="nonzero"/></g><path fill="#ffffff" d="M 85.125 8.476562 L 88.933594 8.519531 L 83.566406 13.570312 L 89 18.839844 L 85.308594 18.839844 L 81.683594 15.105469 L 77.992188 18.839844 L 74.386719 18.839844 " fill-opacity="1" fill-rule="nonzero"/><path fill="#ffffff" d="M 79.167969 6.972656 C 79.167969 6.878906 79.132812 6.785156 79.070312 6.710938 C 79.003906 6.636719 78.90625 6.597656 78.808594 6.597656 C 78.796875 6.597656 78.796875 6.597656 78.785156 6.597656 C 78.699219 6.597656 78.601562 6.628906 78.535156 6.691406 C 78.460938 6.753906 78.417969 6.847656 78.417969 6.941406 C 78.40625 7.140625 78.566406 7.308594 78.765625 7.316406 C 78.980469 7.316406 79.15625 7.171875 79.167969 6.972656 Z M 79.167969 6.972656 " fill-opacity="1" fill-rule="nonzero"/><path fill="#ffffff" d="M 76.007812 6.867188 C 76.007812 6.773438 75.976562 6.679688 75.910156 6.605469 C 75.847656 6.535156 75.75 6.492188 75.648438 6.492188 C 75.640625 6.492188 75.640625 6.492188 75.628906 6.492188 C 75.542969 6.492188 75.445312 6.523438 75.378906 6.585938 C 75.300781 6.648438 75.257812 6.742188 75.257812 6.835938 C 75.246094 7.035156 75.410156 7.203125 75.605469 7.214844 C 75.824219 7.214844 76 7.066406 76.007812 6.867188 Z M 76.007812 6.867188 " fill-opacity="1" fill-rule="nonzero"/><path fill="#ffffff" d="M 76.007812 9.898438 C 76.007812 9.804688 75.976562 9.710938 75.910156 9.636719 C 75.847656 9.566406 75.75 9.523438 75.648438 9.523438 C 75.640625 9.523438 75.640625 9.523438 75.628906 9.523438 C 75.542969 9.523438 75.445312 9.554688 75.378906 9.617188 C 75.300781 9.679688 75.257812 9.773438 75.257812 9.867188 C 75.246094 10.066406 75.410156 10.234375 75.605469 10.246094 C 75.824219 10.246094 76 10.097656 76.007812 9.898438 Z M 76.007812 9.898438 " fill-opacity="1" fill-rule="nonzero"/><path fill="#ffffff" d="M 79.589844 7.402344 C 79.667969 7.285156 79.710938 7.152344 79.710938 7.003906 C 79.722656 6.773438 79.644531 6.542969 79.484375 6.367188 C 79.320312 6.1875 79.089844 6.085938 78.851562 6.074219 C 78.601562 6.0625 78.371094 6.136719 78.1875 6.292969 C 78.003906 6.449219 77.894531 6.667969 77.882812 6.898438 C 77.859375 7.378906 78.242188 7.796875 78.753906 7.828125 C 78.773438 7.828125 78.785156 7.828125 78.808594 7.828125 C 78.9375 7.828125 79.082031 7.796875 79.199219 7.746094 L 81.878906 10.507812 L 82.257812 10.140625 Z M 78.773438 7.308594 C 78.566406 7.296875 78.417969 7.128906 78.425781 6.929688 C 78.425781 6.835938 78.46875 6.742188 78.546875 6.679688 C 78.613281 6.617188 78.699219 6.585938 78.796875 6.585938 C 78.808594 6.585938 78.808594 6.585938 78.820312 6.585938 C 78.917969 6.585938 79.015625 6.628906 79.082031 6.699219 C 79.144531 6.773438 79.179688 6.867188 79.179688 6.960938 C 79.15625 7.171875 78.980469 7.316406 78.773438 7.308594 Z M 78.773438 7.308594 " fill-opacity="1" fill-rule="nonzero"/><path fill="#ffffff" d="M 76.421875 10.328125 C 76.5 10.203125 76.542969 10.066406 76.542969 9.929688 C 76.554688 9.703125 76.476562 9.472656 76.316406 9.292969 C 76.152344 9.117188 75.921875 9.011719 75.683594 9 C 75.445312 8.992188 75.203125 9.0625 75.019531 9.21875 C 74.832031 9.378906 74.726562 9.597656 74.714844 9.828125 C 74.691406 10.308594 75.074219 10.726562 75.585938 10.757812 C 75.605469 10.757812 75.617188 10.757812 75.640625 10.757812 C 75.769531 10.757812 75.910156 10.726562 76.03125 10.671875 L 78.765625 13.484375 L 79.144531 13.121094 Z M 75.617188 10.234375 C 75.410156 10.222656 75.257812 10.058594 75.269531 9.859375 C 75.269531 9.765625 75.3125 9.667969 75.390625 9.605469 C 75.453125 9.542969 75.542969 9.511719 75.640625 9.511719 C 75.648438 9.511719 75.648438 9.511719 75.660156 9.511719 C 75.757812 9.511719 75.855469 9.554688 75.921875 9.628906 C 75.988281 9.703125 76.019531 9.796875 76.019531 9.890625 C 76 10.097656 75.824219 10.246094 75.617188 10.234375 Z M 75.617188 10.234375 " fill-opacity="1" fill-rule="nonzero"/><g clip-path="url(#109534745d)"><path fill="#ffffff" d="M 76.421875 7.308594 C 76.5 7.179688 76.542969 7.046875 76.554688 6.898438 C 76.566406 6.667969 76.488281 6.4375 76.324219 6.261719 C 76.160156 6.082031 75.933594 5.980469 75.695312 5.96875 C 75.453125 5.957031 75.214844 6.03125 75.03125 6.1875 C 74.84375 6.34375 74.734375 6.566406 74.726562 6.792969 C 74.703125 7.277344 75.082031 7.695312 75.597656 7.726562 C 75.617188 7.726562 75.628906 7.726562 75.648438 7.726562 C 75.78125 7.726562 75.910156 7.695312 76.03125 7.652344 L 80.289062 12.03125 L 80.667969 11.667969 Z M 75.617188 7.203125 C 75.410156 7.191406 75.257812 7.023438 75.269531 6.824219 C 75.269531 6.730469 75.3125 6.636719 75.390625 6.574219 C 75.453125 6.511719 75.542969 6.480469 75.640625 6.480469 C 75.648438 6.480469 75.648438 6.480469 75.660156 6.480469 C 75.757812 6.480469 75.855469 6.523438 75.921875 6.597656 C 75.988281 6.667969 76.019531 6.761719 76.019531 6.859375 C 76 7.066406 75.824219 7.214844 75.617188 7.203125 Z M 75.617188 7.203125 " fill-opacity="1" fill-rule="nonzero"/></g></svg>