<svg xmlns="http://www.w3.org/2000/svg" xmlns:xlink="http://www.w3.org/1999/xlink" width="255" zoomAndPan="magnify" viewBox="0 0 191.25 54" height="72" preserveAspectRatio="xMidYMid meet" version="1.0"><defs><clipPath id="d3146de0ba"><path d="M 70 14 L 171.492188 14 L 171.492188 39 L 70 39 Z M 70 14 " clip-rule="nonzero"/></clipPath><clipPath id="21e71c90ed"><path d="M 19.066406 4 L 60.53125 4 L 60.53125 49 L 19.066406 49 Z M 19.066406 4 " clip-rule="nonzero"/></clipPath><clipPath id="95e908c5ac"><path d="M 34.269531 16.117188 C 37.914062 15.050781 51.660156 22.863281 51.660156 26.480469 C 51.660156 30.097656 37.914062 37.910156 34.269531 36.84375 C 30.625 35.78125 30.625 17.195312 34.269531 16.117188 M 50.167969 8.558594 C 60.53125 14.53125 60.519531 14.53125 60.527344 26.472656 C 60.53125 38.410156 60.527344 38.40625 50.167969 44.386719 C 39.804688 50.367188 39.804688 50.359375 29.441406 44.386719 C 19.078125 38.417969 19.074219 38.417969 19.074219 26.457031 C 19.074219 14.496094 19.074219 14.53125 29.441406 8.550781 C 39.8125 2.570312 39.792969 2.585938 50.167969 8.558594 Z M 50.167969 8.558594 " clip-rule="evenodd"/></clipPath><linearGradient x1="0.019998" gradientTransform="matrix(0.31751, 0, 0, 0.316934, 19.066223, 2.574245)" y1="75.400002" x2="130.599999" gradientUnits="userSpaceOnUse" y2="75.400002" id="d6807376b6"><stop stop-opacity="1" stop-color="rgb(0%, 90.200806%, 99.993896%)" offset="0"/><stop stop-opacity="1" stop-color="rgb(0.0305176%, 90.231323%, 99.856567%)" offset="0.0078125"/><stop stop-opacity="1" stop-color="rgb(0.0915527%, 90.292358%, 99.584961%)" offset="0.015625"/><stop stop-opacity="1" stop-color="rgb(0.152588%, 90.353394%, 99.311829%)" offset="0.0234375"/><stop stop-opacity="1" stop-color="rgb(0.213623%, 90.412903%, 99.038696%)" offset="0.03125"/><stop stop-opacity="1" stop-color="rgb(0.274658%, 90.473938%, 98.76709%)" offset="0.0390625"/><stop stop-opacity="1" stop-color="rgb(0.335693%, 90.534973%, 98.493958%)" offset="0.046875"/><stop stop-opacity="1" stop-color="rgb(0.396729%, 90.596008%, 98.220825%)" offset="0.0546875"/><stop stop-opacity="1" stop-color="rgb(0.457764%, 90.657043%, 97.949219%)" offset="0.0625"/><stop stop-opacity="1" stop-color="rgb(0.518799%, 90.718079%, 97.676086%)" offset="0.0703125"/><stop stop-opacity="1" stop-color="rgb(0.579834%, 90.779114%, 97.402954%)" offset="0.078125"/><stop stop-opacity="1" stop-color="rgb(0.640869%, 90.840149%, 97.131348%)" offset="0.0859375"/><stop stop-opacity="1" stop-color="rgb(0.700378%, 90.901184%, 96.858215%)" offset="0.09375"/><stop stop-opacity="1" stop-color="rgb(0.761414%, 90.962219%, 96.585083%)" offset="0.101562"/><stop stop-opacity="1" stop-color="rgb(0.822449%, 91.023254%, 96.313477%)" offset="0.109375"/><stop stop-opacity="1" stop-color="rgb(0.883484%, 91.08429%, 96.040344%)" offset="0.117187"/><stop stop-opacity="1" stop-color="rgb(0.944519%, 91.145325%, 95.767212%)" offset="0.125"/><stop stop-opacity="1" stop-color="rgb(1.005554%, 91.20636%, 95.495605%)" offset="0.132812"/><stop stop-opacity="1" stop-color="rgb(1.066589%, 91.265869%, 95.222473%)" offset="0.140625"/><stop stop-opacity="1" stop-color="rgb(1.127625%, 91.326904%, 94.949341%)" offset="0.148437"/><stop stop-opacity="1" stop-color="rgb(1.18866%, 91.387939%, 94.677734%)" offset="0.15625"/><stop stop-opacity="1" stop-color="rgb(1.249695%, 91.448975%, 94.404602%)" offset="0.164062"/><stop stop-opacity="1" stop-color="rgb(1.31073%, 91.51001%, 94.13147%)" offset="0.171875"/><stop stop-opacity="1" stop-color="rgb(1.371765%, 91.571045%, 93.859863%)" offset="0.179688"/><stop stop-opacity="1" stop-color="rgb(1.4328%, 91.63208%, 93.586731%)" offset="0.1875"/><stop stop-opacity="1" stop-color="rgb(1.493835%, 91.693115%, 93.313599%)" offset="0.195312"/><stop stop-opacity="1" stop-color="rgb(1.553345%, 91.75415%, 93.041992%)" offset="0.203125"/><stop stop-opacity="1" stop-color="rgb(1.61438%, 91.815186%, 92.76886%)" offset="0.210937"/><stop stop-opacity="1" stop-color="rgb(1.675415%, 91.876221%, 92.497253%)" offset="0.21875"/><stop stop-opacity="1" stop-color="rgb(1.73645%, 91.937256%, 92.224121%)" offset="0.226562"/><stop stop-opacity="1" stop-color="rgb(1.797485%, 91.998291%, 91.950989%)" offset="0.234375"/><stop stop-opacity="1" stop-color="rgb(1.858521%, 92.059326%, 91.679382%)" offset="0.242187"/><stop stop-opacity="1" stop-color="rgb(1.919556%, 92.120361%, 91.40625%)" offset="0.25"/><stop stop-opacity="1" stop-color="rgb(1.980591%, 92.179871%, 91.133118%)" offset="0.257812"/><stop stop-opacity="1" stop-color="rgb(2.041626%, 92.240906%, 90.861511%)" offset="0.265625"/><stop stop-opacity="1" stop-color="rgb(2.102661%, 92.301941%, 90.588379%)" offset="0.273438"/><stop stop-opacity="1" stop-color="rgb(2.163696%, 92.362976%, 90.315247%)" offset="0.28125"/><stop stop-opacity="1" stop-color="rgb(2.224731%, 92.424011%, 90.04364%)" offset="0.289062"/><stop stop-opacity="1" stop-color="rgb(2.285767%, 92.485046%, 89.770508%)" offset="0.296875"/><stop stop-opacity="1" stop-color="rgb(2.346802%, 92.546082%, 89.497375%)" offset="0.304688"/><stop stop-opacity="1" stop-color="rgb(2.406311%, 92.607117%, 89.225769%)" offset="0.3125"/><stop stop-opacity="1" stop-color="rgb(2.467346%, 92.668152%, 88.952637%)" offset="0.320313"/><stop stop-opacity="1" stop-color="rgb(2.528381%, 92.729187%, 88.679504%)" offset="0.328125"/><stop stop-opacity="1" stop-color="rgb(2.589417%, 92.790222%, 88.407898%)" offset="0.335938"/><stop stop-opacity="1" stop-color="rgb(2.650452%, 92.851257%, 88.134766%)" offset="0.34375"/><stop stop-opacity="1" stop-color="rgb(2.711487%, 92.912292%, 87.861633%)" offset="0.351563"/><stop stop-opacity="1" stop-color="rgb(2.772522%, 92.973328%, 87.590027%)" offset="0.359375"/><stop stop-opacity="1" stop-color="rgb(2.833557%, 93.032837%, 87.316895%)" offset="0.367188"/><stop stop-opacity="1" stop-color="rgb(2.894592%, 93.093872%, 87.043762%)" offset="0.375"/><stop stop-opacity="1" stop-color="rgb(2.955627%, 93.154907%, 86.772156%)" offset="0.382812"/><stop stop-opacity="1" stop-color="rgb(3.016663%, 93.215942%, 86.499023%)" offset="0.390625"/><stop stop-opacity="1" stop-color="rgb(3.077698%, 93.276978%, 86.225891%)" offset="0.398437"/><stop stop-opacity="1" stop-color="rgb(3.138733%, 93.338013%, 85.954285%)" offset="0.40625"/><stop stop-opacity="1" stop-color="rgb(3.199768%, 93.399048%, 85.681152%)" offset="0.414062"/><stop stop-opacity="1" stop-color="rgb(3.259277%, 93.460083%, 85.40802%)" offset="0.421875"/><stop stop-opacity="1" stop-color="rgb(3.320312%, 93.521118%, 85.136414%)" offset="0.429687"/><stop stop-opacity="1" stop-color="rgb(3.381348%, 93.582153%, 84.863281%)" offset="0.4375"/><stop stop-opacity="1" stop-color="rgb(3.442383%, 93.643188%, 84.590149%)" offset="0.445312"/><stop stop-opacity="1" stop-color="rgb(3.503418%, 93.704224%, 84.318542%)" offset="0.453125"/><stop stop-opacity="1" stop-color="rgb(3.564453%, 93.765259%, 84.04541%)" offset="0.460938"/><stop stop-opacity="1" stop-color="rgb(3.625488%, 93.826294%, 83.772278%)" offset="0.46875"/><stop stop-opacity="1" stop-color="rgb(3.686523%, 93.885803%, 83.500671%)" offset="0.476562"/><stop stop-opacity="1" stop-color="rgb(3.747559%, 93.946838%, 83.227539%)" offset="0.484375"/><stop stop-opacity="1" stop-color="rgb(3.808594%, 94.007874%, 82.954407%)" offset="0.492188"/><stop stop-opacity="1" stop-color="rgb(3.869629%, 94.068909%, 82.6828%)" offset="0.5"/><stop stop-opacity="1" stop-color="rgb(3.930664%, 94.129944%, 82.409668%)" offset="0.507812"/><stop stop-opacity="1" stop-color="rgb(3.991699%, 94.190979%, 82.136536%)" offset="0.515625"/><stop stop-opacity="1" stop-color="rgb(4.052734%, 94.252014%, 81.864929%)" offset="0.523437"/><stop stop-opacity="1" stop-color="rgb(4.11377%, 94.313049%, 81.591797%)" offset="0.53125"/><stop stop-opacity="1" stop-color="rgb(4.173279%, 94.374084%, 81.318665%)" offset="0.539062"/><stop stop-opacity="1" stop-color="rgb(4.234314%, 94.43512%, 81.047058%)" offset="0.546875"/><stop stop-opacity="1" stop-color="rgb(4.295349%, 94.496155%, 80.773926%)" offset="0.554687"/><stop stop-opacity="1" stop-color="rgb(4.356384%, 94.55719%, 80.500793%)" offset="0.5625"/><stop stop-opacity="1" stop-color="rgb(4.417419%, 94.618225%, 80.229187%)" offset="0.570312"/><stop stop-opacity="1" stop-color="rgb(4.478455%, 94.67926%, 79.956055%)" offset="0.578125"/><stop stop-opacity="1" stop-color="rgb(4.53949%, 94.73877%, 79.682922%)" offset="0.585937"/><stop stop-opacity="1" stop-color="rgb(4.600525%, 94.799805%, 79.411316%)" offset="0.59375"/><stop stop-opacity="1" stop-color="rgb(4.66156%, 94.86084%, 79.138184%)" offset="0.601562"/><stop stop-opacity="1" stop-color="rgb(4.722595%, 94.921875%, 78.865051%)" offset="0.609375"/><stop stop-opacity="1" stop-color="rgb(4.78363%, 94.98291%, 78.593445%)" offset="0.617187"/><stop stop-opacity="1" stop-color="rgb(4.844666%, 95.043945%, 78.320312%)" offset="0.625"/><stop stop-opacity="1" stop-color="rgb(4.905701%, 95.10498%, 78.04718%)" offset="0.632812"/><stop stop-opacity="1" stop-color="rgb(4.966736%, 95.166016%, 77.775574%)" offset="0.640625"/><stop stop-opacity="1" stop-color="rgb(5.026245%, 95.227051%, 77.502441%)" offset="0.648438"/><stop stop-opacity="1" stop-color="rgb(5.08728%, 95.288086%, 77.230835%)" offset="0.65625"/><stop stop-opacity="1" stop-color="rgb(5.148315%, 95.349121%, 76.957703%)" offset="0.664062"/><stop stop-opacity="1" stop-color="rgb(5.209351%, 95.410156%, 76.68457%)" offset="0.671875"/><stop stop-opacity="1" stop-color="rgb(5.270386%, 95.471191%, 76.412964%)" offset="0.679688"/><stop stop-opacity="1" stop-color="rgb(5.331421%, 95.532227%, 76.139832%)" offset="0.6875"/><stop stop-opacity="1" stop-color="rgb(5.392456%, 95.593262%, 75.866699%)" offset="0.695312"/><stop stop-opacity="1" stop-color="rgb(5.453491%, 95.652771%, 75.595093%)" offset="0.703125"/><stop stop-opacity="1" stop-color="rgb(5.514526%, 95.713806%, 75.32196%)" offset="0.710938"/><stop stop-opacity="1" stop-color="rgb(5.575562%, 95.774841%, 75.048828%)" offset="0.71875"/><stop stop-opacity="1" stop-color="rgb(5.636597%, 95.835876%, 74.777222%)" offset="0.726562"/><stop stop-opacity="1" stop-color="rgb(5.697632%, 95.896912%, 74.504089%)" offset="0.734375"/><stop stop-opacity="1" stop-color="rgb(5.758667%, 95.957947%, 74.230957%)" offset="0.742188"/><stop stop-opacity="1" stop-color="rgb(5.819702%, 96.018982%, 73.959351%)" offset="0.75"/><stop stop-opacity="1" stop-color="rgb(5.879211%, 96.080017%, 73.686218%)" offset="0.757812"/><stop stop-opacity="1" stop-color="rgb(5.940247%, 96.141052%, 73.413086%)" offset="0.765625"/><stop stop-opacity="1" stop-color="rgb(6.001282%, 96.202087%, 73.141479%)" offset="0.773438"/><stop stop-opacity="1" stop-color="rgb(6.062317%, 96.263123%, 72.868347%)" offset="0.78125"/><stop stop-opacity="1" stop-color="rgb(6.123352%, 96.324158%, 72.595215%)" offset="0.789062"/><stop stop-opacity="1" stop-color="rgb(6.184387%, 96.385193%, 72.323608%)" offset="0.796875"/><stop stop-opacity="1" stop-color="rgb(6.245422%, 96.446228%, 72.050476%)" offset="0.804688"/><stop stop-opacity="1" stop-color="rgb(6.306458%, 96.505737%, 71.777344%)" offset="0.8125"/><stop stop-opacity="1" stop-color="rgb(6.367493%, 96.566772%, 71.505737%)" offset="0.820312"/><stop stop-opacity="1" stop-color="rgb(6.428528%, 96.627808%, 71.232605%)" offset="0.828125"/><stop stop-opacity="1" stop-color="rgb(6.489563%, 96.688843%, 70.959473%)" offset="0.835938"/><stop stop-opacity="1" stop-color="rgb(6.550598%, 96.749878%, 70.687866%)" offset="0.84375"/><stop stop-opacity="1" stop-color="rgb(6.611633%, 96.810913%, 70.414734%)" offset="0.851562"/><stop stop-opacity="1" stop-color="rgb(6.672668%, 96.871948%, 70.141602%)" offset="0.859375"/><stop stop-opacity="1" stop-color="rgb(6.732178%, 96.932983%, 69.869995%)" offset="0.867188"/><stop stop-opacity="1" stop-color="rgb(6.793213%, 96.994019%, 69.596863%)" offset="0.875"/><stop stop-opacity="1" stop-color="rgb(6.854248%, 97.055054%, 69.32373%)" offset="0.882813"/><stop stop-opacity="1" stop-color="rgb(6.915283%, 97.116089%, 69.052124%)" offset="0.890625"/><stop stop-opacity="1" stop-color="rgb(6.976318%, 97.177124%, 68.778992%)" offset="0.898438"/><stop stop-opacity="1" stop-color="rgb(7.037354%, 97.238159%, 68.505859%)" offset="0.90625"/><stop stop-opacity="1" stop-color="rgb(7.098389%, 97.299194%, 68.234253%)" offset="0.914063"/><stop stop-opacity="1" stop-color="rgb(7.159424%, 97.358704%, 67.961121%)" offset="0.921875"/><stop stop-opacity="1" stop-color="rgb(7.220459%, 97.419739%, 67.687988%)" offset="0.929688"/><stop stop-opacity="1" stop-color="rgb(7.281494%, 97.480774%, 67.416382%)" offset="0.9375"/><stop stop-opacity="1" stop-color="rgb(7.342529%, 97.541809%, 67.14325%)" offset="0.945313"/><stop stop-opacity="1" stop-color="rgb(7.403564%, 97.602844%, 66.870117%)" offset="0.953125"/><stop stop-opacity="1" stop-color="rgb(7.4646%, 97.663879%, 66.598511%)" offset="0.960938"/><stop stop-opacity="1" stop-color="rgb(7.525635%, 97.724915%, 66.325378%)" offset="0.96875"/><stop stop-opacity="1" stop-color="rgb(7.58667%, 97.78595%, 66.052246%)" offset="0.976563"/><stop stop-opacity="1" stop-color="rgb(7.646179%, 97.846985%, 65.78064%)" offset="0.984375"/><stop stop-opacity="1" stop-color="rgb(7.707214%, 97.90802%, 65.507507%)" offset="0.992188"/><stop stop-opacity="1" stop-color="rgb(7.76825%, 97.969055%, 65.234375%)" offset="1"/></linearGradient></defs><g clip-path="url(#d3146de0ba)"><path fill="#49525c" d="M 136.777344 38.394531 C 135.914062 38.414062 135.183594 38.117188 134.578125 37.503906 C 133.964844 36.890625 133.664062 36.152344 133.6875 35.285156 C 133.648438 34.410156 133.945312 33.671875 134.578125 33.066406 C 134.882812 32.796875 135.222656 32.585938 135.601562 32.441406 C 135.980469 32.296875 136.371094 32.222656 136.777344 32.222656 C 137.183594 32.222656 137.574219 32.296875 137.953125 32.441406 C 138.332031 32.585938 138.671875 32.796875 138.972656 33.066406 C 139.609375 33.671875 139.90625 34.410156 139.867188 35.285156 C 139.875 35.699219 139.804688 36.097656 139.652344 36.480469 C 139.5 36.867188 139.277344 37.203125 138.984375 37.5 C 138.695312 37.792969 138.355469 38.019531 137.972656 38.175781 C 137.589844 38.332031 137.191406 38.40625 136.777344 38.402344 M 131.96875 37.320312 C 131.425781 37.707031 130.824219 37.980469 130.171875 38.132812 C 129.441406 38.3125 128.703125 38.402344 127.949219 38.402344 C 125.894531 38.402344 124.3125 37.882812 123.207031 36.84375 C 122.101562 35.808594 121.550781 34.28125 121.550781 32.265625 L 121.550781 17.25 L 125.148438 17.25 C 125.328125 17.253906 125.496094 17.285156 125.660156 17.351562 C 125.824219 17.417969 125.96875 17.511719 126.097656 17.636719 C 126.226562 17.757812 126.324219 17.898438 126.398438 18.058594 C 126.472656 18.222656 126.511719 18.390625 126.519531 18.566406 L 126.519531 21.417969 L 129.976562 21.417969 L 129.976562 25.222656 L 126.523438 25.222656 L 126.523438 32.195312 C 126.484375 32.824219 126.664062 33.378906 127.066406 33.863281 C 127.5 34.296875 128.019531 34.492188 128.628906 34.453125 C 130.453125 34.453125 130.78125 34.125 131.96875 37.3125 Z M 110.308594 34.332031 C 110.898438 34.351562 111.46875 34.25 112.015625 34.023438 C 112.5625 33.800781 113.039062 33.472656 113.445312 33.042969 C 114.261719 32.1875 114.671875 31.035156 114.671875 29.59375 C 114.671875 28.148438 114.261719 27 113.445312 26.144531 C 113.238281 25.941406 113.011719 25.757812 112.769531 25.597656 C 112.527344 25.4375 112.269531 25.300781 112 25.191406 C 111.730469 25.082031 111.453125 25 111.167969 24.941406 C 110.882812 24.886719 110.59375 24.859375 110.300781 24.859375 C 110.011719 24.859375 109.722656 24.886719 109.433594 24.941406 C 109.148438 25 108.871094 25.082031 108.601562 25.191406 C 108.332031 25.300781 108.074219 25.4375 107.832031 25.597656 C 107.589844 25.757812 107.363281 25.941406 107.15625 26.144531 C 106.324219 27.003906 105.910156 28.152344 105.910156 29.59375 C 105.914062 31.035156 106.328125 32.183594 107.15625 33.042969 C 107.566406 33.472656 108.046875 33.796875 108.597656 34.019531 C 109.144531 34.242188 109.714844 34.34375 110.308594 34.324219 Z M 110.308594 38.402344 C 108.597656 38.429688 106.976562 38.050781 105.453125 37.273438 C 104.035156 36.546875 102.914062 35.503906 102.089844 34.140625 C 101.253906 32.738281 100.851562 31.222656 100.878906 29.59375 C 100.851562 27.964844 101.253906 26.449219 102.089844 25.046875 C 102.914062 23.6875 104.035156 22.644531 105.453125 21.917969 C 106.203125 21.542969 106.992188 21.261719 107.808594 21.070312 C 108.628906 20.878906 109.457031 20.785156 110.300781 20.785156 C 111.140625 20.785156 111.96875 20.878906 112.789062 21.070312 C 113.609375 21.261719 114.394531 21.542969 115.148438 21.917969 C 116.558594 22.648438 117.671875 23.691406 118.496094 25.046875 C 119.328125 26.449219 119.730469 27.964844 119.703125 29.59375 C 119.730469 31.222656 119.328125 32.738281 118.496094 34.140625 C 117.671875 35.5 116.558594 36.542969 115.148438 37.273438 C 113.628906 38.050781 112.015625 38.425781 110.308594 38.394531 Z M 89.878906 34.324219 C 90.46875 34.34375 91.039062 34.242188 91.585938 34.019531 C 92.132812 33.792969 92.609375 33.464844 93.015625 33.039062 C 93.832031 32.179688 94.242188 31.03125 94.238281 29.585938 C 94.238281 28.144531 93.832031 26.992188 93.019531 26.136719 C 92.613281 25.707031 92.136719 25.382812 91.585938 25.15625 C 91.039062 24.933594 90.46875 24.832031 89.878906 24.851562 C 89.285156 24.832031 88.714844 24.9375 88.164062 25.160156 C 87.613281 25.382812 87.136719 25.710938 86.722656 26.136719 C 85.894531 26.996094 85.480469 28.144531 85.480469 29.585938 C 85.480469 31.027344 85.894531 32.179688 86.722656 33.039062 C 87.136719 33.464844 87.613281 33.792969 88.164062 34.015625 C 88.714844 34.238281 89.285156 34.34375 89.878906 34.324219 Z M 89.878906 38.394531 C 88.164062 38.421875 86.542969 38.046875 85.019531 37.265625 C 83.601562 36.539062 82.484375 35.496094 81.660156 34.132812 C 80.828125 32.734375 80.421875 31.214844 80.449219 29.585938 C 80.421875 27.957031 80.828125 26.441406 81.660156 25.042969 C 82.484375 23.679688 83.601562 22.636719 85.019531 21.910156 C 85.773438 21.539062 86.558594 21.257812 87.378906 21.066406 C 88.199219 20.875 89.027344 20.777344 89.871094 20.777344 C 90.710938 20.777344 91.539062 20.875 92.359375 21.066406 C 93.179688 21.257812 93.964844 21.539062 94.71875 21.910156 C 96.128906 22.640625 97.242188 23.683594 98.0625 25.042969 C 98.894531 26.441406 99.300781 27.957031 99.273438 29.585938 C 99.300781 31.214844 98.894531 32.734375 98.0625 34.132812 C 97.242188 35.492188 96.128906 36.535156 94.71875 37.265625 C 93.199219 38.046875 91.585938 38.421875 89.878906 38.394531 Z M 70.867188 14.546875 L 74.464844 14.546875 C 74.648438 14.546875 74.820312 14.582031 74.988281 14.652344 C 75.15625 14.722656 75.304688 14.820312 75.433594 14.949219 C 75.5625 15.078125 75.660156 15.226562 75.730469 15.394531 C 75.800781 15.5625 75.835938 15.734375 75.835938 15.917969 L 75.835938 32.257812 C 75.804688 32.867188 75.984375 33.402344 76.378906 33.863281 C 76.8125 34.296875 77.332031 34.492188 77.9375 34.453125 C 79.765625 34.453125 80.09375 34.132812 81.28125 37.304688 C 80.738281 37.691406 80.136719 37.964844 79.484375 38.113281 C 78.753906 38.296875 78.015625 38.386719 77.261719 38.382812 C 75.207031 38.382812 73.625 37.867188 72.519531 36.828125 C 71.414062 35.789062 70.863281 34.265625 70.863281 32.25 Z M 152.109375 37.3125 C 151.5625 37.703125 150.960938 37.972656 150.308594 38.125 C 149.578125 38.308594 148.839844 38.398438 148.085938 38.394531 C 146.023438 38.394531 144.441406 37.875 143.339844 36.839844 C 142.238281 35.800781 141.6875 34.273438 141.6875 32.257812 L 141.6875 17.25 L 145.28125 17.25 C 145.460938 17.25 145.632812 17.285156 145.796875 17.351562 C 145.960938 17.417969 146.105469 17.511719 146.234375 17.632812 C 146.359375 17.757812 146.460938 17.898438 146.535156 18.058594 C 146.605469 18.222656 146.648438 18.390625 146.65625 18.566406 L 146.65625 21.417969 L 150.109375 21.417969 L 150.109375 25.222656 L 146.65625 25.222656 L 146.65625 32.195312 C 146.613281 32.824219 146.792969 33.378906 147.195312 33.863281 C 147.625 34.296875 148.148438 34.492188 148.757812 34.453125 C 150.578125 34.453125 150.910156 34.125 152.109375 37.3125 Z M 161.847656 38.140625 L 159.222656 38.140625 L 152.1875 21.414062 L 155.441406 21.414062 C 156.335938 21.414062 157.414062 21.949219 157.753906 22.777344 L 161.839844 32.792969 L 165.925781 22.773438 C 166.261719 21.945312 167.339844 21.414062 168.234375 21.414062 L 171.492188 21.414062 L 164.453125 38.136719 Z M 161.847656 38.140625 " fill-opacity="1" fill-rule="nonzero"/></g><g clip-path="url(#21e71c90ed)"><g clip-path="url(#95e908c5ac)"><path fill="url(#d6807376b6)" d="M 19.074219 3.84375 L 19.074219 49.164062 L 60.53125 49.164062 L 60.53125 3.84375 Z M 19.074219 3.84375 " fill-rule="nonzero"/></g></g></svg>