<svg xmlns="http://www.w3.org/2000/svg" xmlns:xlink="http://www.w3.org/1999/xlink" width="255" zoomAndPan="magnify" viewBox="0 0 191.25 54" height="72" preserveAspectRatio="xMidYMid meet" version="1.0"><defs><clipPath id="471eb209a7"><path d="M 7.921875 12 L 183.914062 12 L 183.914062 41.203125 L 7.921875 41.203125 Z M 7.921875 12 " clip-rule="nonzero"/></clipPath></defs><g clip-path="url(#471eb209a7)"><path fill="#212935" d="M 66.367188 39.972656 L 62.074219 39.972656 L 62.074219 12.972656 L 66.363281 12.972656 L 66.363281 24.542969 L 71.242188 24.542969 L 71.242188 12.972656 L 75.609375 12.972656 L 75.609375 39.972656 L 71.242188 39.972656 L 71.242188 28.402344 L 66.367188 28.402344 Z M 79.304688 16.65625 L 82.996094 16.65625 L 82.996094 39.972656 L 79.3125 39.972656 Z M 86.6875 16.65625 L 92.390625 16.65625 C 95.992188 16.65625 97.765625 18.6875 97.765625 22.417969 L 97.765625 34.210938 C 97.765625 37.941406 95.992188 39.972656 92.390625 39.972656 L 86.6875 39.972656 Z M 90.296875 19.988281 L 90.296875 36.640625 L 92.332031 36.640625 C 93.476562 36.640625 94.164062 36.050781 94.164062 34.378906 L 94.164062 22.265625 C 94.164062 20.597656 93.476562 20 92.332031 20 Z M 103.835938 26.480469 L 108.785156 26.480469 L 108.785156 29.816406 L 103.835938 29.816406 L 103.835938 36.640625 L 110.070312 36.640625 L 110.070312 39.972656 L 100.226562 39.972656 L 100.226562 16.65625 L 110.070312 16.65625 L 110.070312 19.988281 L 103.835938 19.988281 Z M 113.761719 22.390625 C 113.761719 18.742188 115.71875 16.65625 119.300781 16.65625 C 122.882812 16.65625 124.839844 18.742188 124.839844 22.390625 L 124.839844 34.238281 C 124.839844 37.886719 122.882812 39.972656 119.300781 39.972656 C 115.71875 39.972656 113.761719 37.886719 113.761719 34.238281 Z M 117.410156 34.472656 C 117.410156 36.105469 118.140625 36.722656 119.300781 36.722656 C 120.464844 36.722656 121.191406 36.105469 121.191406 34.472656 L 121.191406 22.164062 C 121.191406 20.535156 120.464844 19.914062 119.300781 19.914062 C 118.140625 19.914062 117.410156 20.535156 117.410156 22.164062 Z M 132.246094 16.65625 L 132.246094 34.417969 C 132.246094 36.058594 132.988281 36.652344 134.171875 36.652344 C 135.355469 36.652344 136.09375 36.066406 136.09375 34.417969 L 136.09375 16.65625 L 139.609375 16.65625 L 139.609375 34.1875 C 139.609375 37.871094 137.71875 39.972656 134.070312 39.972656 C 130.421875 39.972656 128.53125 37.878906 128.53125 34.1875 L 128.53125 16.65625 Z M 142.089844 16.65625 L 153.144531 16.65625 L 153.144531 19.988281 L 149.394531 19.988281 L 149.394531 39.972656 L 145.820312 39.972656 L 145.820312 19.988281 L 142.070312 19.988281 Z M 153.144531 12.972656 L 166.683594 12.972656 L 166.683594 16.832031 L 162.113281 16.832031 L 162.113281 39.972656 L 157.730469 39.972656 L 157.730469 16.832031 L 153.144531 16.832031 Z M 176.683594 34.996094 L 176.761719 34.996094 L 179.988281 12.972656 L 183.914062 12.972656 L 179.714844 39.972656 L 173.339844 39.972656 L 169.144531 12.972656 L 173.460938 12.972656 Z M 53.390625 40.703125 C 51.953125 40.339844 50.492188 40.097656 49.015625 39.972656 C 48.84375 39.972656 48.59375 39.882812 48.523438 39.71875 L 41.976562 24.507812 C 41.914062 24.359375 41.808594 24.25 41.667969 24.175781 C 41.523438 24.101562 41.371094 24.078125 41.214844 24.113281 C 39.90625 24.414062 36.597656 25.140625 35.460938 25.464844 C 34.242188 25.808594 29.257812 27.296875 27.796875 27.738281 L 27.796875 21.992188 C 31.550781 21.0625 35.230469 23.496094 38.984375 22.398438 C 39.132812 22.351562 39.253906 22.269531 39.347656 22.144531 C 39.441406 22.023438 39.492188 21.882812 39.5 21.730469 C 39.597656 19.273438 40.046875 16.820312 40.1875 14.367188 C 40.199219 14.140625 40.121094 13.957031 39.945312 13.8125 C 39.773438 13.671875 39.582031 13.628906 39.367188 13.691406 C 35.476562 14.613281 31.660156 11.957031 27.75 13.433594 L 27.597656 13.433594 C 27.433594 13.433594 27.292969 13.492188 27.175781 13.609375 C 27.058594 13.726562 27.003906 13.867188 27.003906 14.03125 L 27.003906 28.179688 C 26.15625 28.898438 24.109375 30.691406 22.886719 32.265625 C 22.167969 33.148438 21.371094 33.960938 20.515625 34.703125 C 19.847656 35.304688 19.15625 35.878906 18.441406 36.425781 C 18.101562 36.648438 17.753906 36.867188 17.410156 37.082031 C 15.511719 38.242188 13.539062 39.265625 11.949219 39.765625 C 11.949219 39.765625 9.617188 40.445312 8.292969 40.898438 C 8.160156 40.941406 7.921875 41.015625 7.921875 41.109375 C 7.921875 41.199219 9.492188 41.222656 11.648438 41.179688 C 13.8125 41.136719 15.964844 41.066406 18.121094 40.996094 L 24.589844 40.792969 C 27.28125 40.703125 29.972656 40.621094 32.667969 40.554688 C 33.207031 40.542969 33.742188 40.523438 34.28125 40.515625 C 35.355469 40.496094 36.429688 40.480469 37.507812 40.46875 C 39.660156 40.46875 41.808594 40.46875 43.960938 40.527344 C 46.109375 40.582031 48.261719 40.6875 50.417969 40.785156 L 53.339844 40.921875 C 53.402344 40.921875 53.441406 40.890625 53.453125 40.832031 C 53.46875 40.769531 53.445312 40.726562 53.386719 40.699219 Z M 31.257812 14.363281 C 31.265625 14.28125 31.304688 14.226562 31.378906 14.191406 C 31.453125 14.15625 31.523438 14.164062 31.589844 14.210938 L 36.328125 17.609375 C 36.398438 17.660156 36.425781 17.722656 36.417969 17.804688 C 36.414062 17.886719 36.371094 17.945312 36.296875 17.980469 L 31.03125 20.449219 C 30.957031 20.484375 30.886719 20.476562 30.820312 20.429688 C 30.753906 20.378906 30.726562 20.316406 30.734375 20.234375 Z M 37.804688 27.496094 C 37.035156 28.390625 36.332031 29.339844 35.699219 30.332031 C 32.550781 35.226562 29.96875 38.195312 28.925781 39.265625 C 28.839844 39.351562 28.734375 39.402344 28.613281 39.410156 C 28.457031 39.429688 28.304688 39.457031 28.152344 39.492188 C 27.566406 39.617188 26.992188 39.589844 26.421875 39.398438 L 26.328125 39.367188 C 26.25 39.332031 26.183594 39.28125 26.128906 39.210938 C 26.074219 39.144531 26.042969 39.066406 26.027344 38.980469 C 26.015625 38.894531 26.023438 38.808594 26.054688 38.726562 C 26.082031 38.644531 26.132812 38.574219 26.195312 38.519531 C 27.753906 37.175781 31.097656 34.238281 33.097656 30.9375 C 33.121094 30.902344 33.125 30.867188 33.109375 30.832031 C 33.132812 30.800781 33.136719 30.765625 33.121094 30.730469 C 33.105469 30.695312 33.078125 30.671875 33.039062 30.667969 C 33 30.664062 32.96875 30.675781 32.945312 30.707031 C 32.921875 30.738281 32.917969 30.773438 32.929688 30.808594 C 31.289062 32.734375 27.183594 37.28125 23.492188 39.144531 C 23.054688 39.371094 20.417969 39.941406 19.640625 40.007812 L 19.546875 40.007812 C 18.816406 39.9375 18.164062 39.640625 17.425781 39.457031 C 17.273438 39.417969 17.121094 39.382812 16.964844 39.359375 C 16.648438 39.296875 16.464844 39.105469 16.417969 38.789062 C 16.367188 38.472656 16.484375 38.238281 16.765625 38.082031 C 17.0625 37.910156 17.382812 37.738281 17.675781 37.558594 L 17.929688 37.398438 C 18.066406 37.3125 18.203125 37.222656 18.339844 37.132812 C 19.957031 36.097656 21.558594 35.046875 23.144531 33.980469 C 24.070312 33.390625 24.960938 32.75 25.8125 32.058594 C 26.191406 31.730469 25.894531 31.652344 25.644531 31.8125 C 24.984375 32.242188 23.710938 32.972656 23.023438 33.363281 C 22.984375 33.382812 22.949219 33.375 22.921875 33.339844 C 22.894531 33.300781 22.894531 33.265625 22.925781 33.230469 C 24.015625 32.078125 27.113281 28.832031 28.152344 28.390625 C 29.40625 27.855469 32.191406 27.027344 34.589844 26.355469 C 34.671875 26.332031 34.75 26.339844 34.828125 26.375 C 34.90625 26.414062 34.960938 26.472656 34.992188 26.554688 C 35.066406 26.742188 35.015625 26.882812 34.839844 26.980469 C 32.992188 28.207031 31.902344 29.042969 31.519531 29.558594 C 31.472656 29.613281 31.476562 29.671875 31.527344 29.726562 C 31.574219 29.777344 31.628906 29.785156 31.691406 29.742188 C 34.03125 28.257812 35.21875 27.382812 37.160156 26.464844 C 37.820312 26.148438 38.285156 26.9375 37.804688 27.496094 Z M 47.460938 39.5625 C 46.574219 39.476562 41.78125 39.019531 40.601562 39.015625 C 40.578125 39.011719 40.558594 39.003906 40.539062 38.984375 C 40.523438 38.964844 40.515625 38.945312 40.519531 38.917969 L 41.773438 26.195312 C 41.738281 26.125 41.761719 26.085938 41.835938 26.074219 C 41.914062 26.0625 41.949219 26.09375 41.933594 26.171875 L 47.542969 39.445312 C 47.554688 39.472656 47.554688 39.5 47.535156 39.527344 C 47.515625 39.554688 47.492188 39.566406 47.460938 39.5625 Z M 47.460938 39.5625 " fill-opacity="1" fill-rule="nonzero"/></g></svg>