<svg width="364" height="74" viewBox="0 0 364 74" fill="none" xmlns="http://www.w3.org/2000/svg">
<path d="M354.916 17.7078L342.673 48.9048L328.785 17.7295H319.246L338.498 58.7465L332.243 73.7832H340.344L346.752 58.106L364 17.7078H354.916Z" fill="#161626"/>
<path d="M304.326 59.0268H313.277V0H304.326V59.0268Z" fill="#161626"/>
<path d="M289.408 59.0266H298.359V50.1726H289.408V59.0266Z" fill="#161626"/>
<path d="M210.46 18.5458L210.645 22.8311C211.158 22.2493 211.725 21.7115 212.339 21.2207C215.346 18.8078 219.462 17.4924 223.552 17.3628C227.647 17.2304 231.72 18.2893 234.639 20.6278C236.89 22.4313 238.412 25.0841 239.242 27.7811C239.892 29.8906 240.217 32.2787 240.217 34.9454V59.4716H232.003V35.5548C232.003 30.9882 230.596 27.9189 228.499 26.1568C225.833 23.9176 222.206 23.8707 219.08 25.1365C215.59 26.5456 212.381 29.6976 210.937 34.1815L210.906 59.4716H202.695V18.5458H210.46Z" fill="#161626"/>
<path d="M131.685 53.4359C135.624 54.2825 144.597 53.662 143.108 47.4849C142.786 46.153 141.948 45.3505 140.79 44.6915C138.533 43.4064 135.82 42.5874 133.112 41.7711C129.725 40.7481 126.342 39.725 123.827 37.7919C117.82 33.1701 118.134 24.5719 124.727 20.2314C127.309 18.5299 130.387 17.6364 133.546 17.3965C139.593 16.9415 145.923 18.7422 150.526 22.6912L145.99 28.3167C145.3 27.7018 144.594 27.1806 143.798 26.7063C141.042 25.0572 137.894 24.2575 134.668 24.2575C133.23 24.2575 131.822 24.4478 130.662 24.9221C127.494 26.2099 126.712 29.8499 129.504 32.0395C131.559 33.6527 135.181 34.8054 138.746 35.936C142.152 37.017 145.505 38.0814 147.437 39.5347C149.396 41.0073 150.823 43.0727 151.344 45.4498C152.272 49.6828 151.086 53.4883 147.905 56.4058C144.706 59.3399 140.103 60.7105 135.329 60.7656C130.566 60.8208 125.621 59.5633 121.736 57.2469C120.25 56.3617 118.955 55.3469 117.77 54.0977L122.846 48.6652C125.285 51.045 128.324 52.7134 131.685 53.4359Z" fill="#161626"/>
<mask id="mask0_1146_3726" style="mask-type:alpha" maskUnits="userSpaceOnUse" x="0" y="0" width="42" height="60">
<path fill-rule="evenodd" clip-rule="evenodd" d="M41.4889 0.986877H0V59.569H41.4889V0.986877Z" fill="white"/>
</mask>
<g mask="url(#mask0_1146_3726)">
<path fill-rule="evenodd" clip-rule="evenodd" d="M39.8681 12.0585C37.076 5.8428 30.6761 0.986633 20.576 0.986633H0V59.5695H8.73218V38.5151H21.0217C30.7799 38.5151 37.1012 33.6396 39.8737 27.4046C42.021 22.5733 42.0378 16.8871 39.8681 12.0585ZM8.73258 31.0611V8.44036H20.9296C26.4016 8.44036 29.9449 11.4131 31.5007 15.202C32.6977 18.1224 32.7229 21.5391 31.5175 24.4621C29.9898 28.1739 26.4829 31.0611 20.9324 31.0611H8.73258Z" fill="#161626"/>
</g>
<path fill-rule="evenodd" clip-rule="evenodd" d="M80.6281 24.8312C77.1493 20.0412 71.9184 17.5455 65.925 17.4242C56.9097 17.2422 49.4166 22.2969 46.3021 30.4126C44.7267 34.5352 44.4464 39.1818 45.1892 43.5085C45.9041 47.6781 47.729 51.6545 50.7201 54.7293C54.81 58.9319 60.425 60.8016 66.2586 60.8016C71.2456 60.8016 76.3167 59.5441 80.5104 56.8251C81.4467 56.2184 82.1139 55.6366 82.9184 54.9196L78.5902 49.6139C74.9123 52.6225 71.097 53.7862 66.3483 53.7862C62.9479 53.7862 59.7354 52.4956 57.2349 50.2399C54.7231 47.9759 53.3103 44.9177 53.1673 41.5754H84.1659C84.4882 38.4648 84.7013 35.0537 84.0425 31.9734C83.4931 29.4254 82.4026 27.2744 80.6281 24.8312ZM76.8105 34.7065H53.2294C53.4424 32.8672 54.1124 31.0251 55.1552 29.4836C57.8688 25.4795 62.8362 23.687 67.6298 24.5281C71.5291 25.2092 74.2062 27.4374 75.7704 30.9506C76.289 32.1116 76.6367 33.3635 76.8105 34.7065Z" fill="#161626"/>
<path fill-rule="evenodd" clip-rule="evenodd" d="M278.644 21.274C275.221 18.3813 269.94 17.1955 264.605 17.4299C259.382 17.6616 253.602 19.2555 249.557 22.6225L253.386 28.1846C256.386 26.0337 260.153 24.5804 263.851 24.2219C267.035 23.9131 270.197 24.4315 272.698 26.2185C274.8 27.7186 275.389 30.1839 275.389 32.6134V34.472C274.38 34.2845 273.012 34.1521 271.574 34.0639C269.435 33.9343 267.145 33.8902 265.659 33.8902C260.551 33.8902 255.688 34.9105 252.31 37.5385C249.47 39.7474 247.682 43.0868 247.682 47.9099C247.682 53.8195 250.936 58.4854 256.924 60.0627C257.759 60.2834 258.603 60.4488 259.45 60.5591C260.291 60.6694 261.14 60.7246 261.987 60.7246C265.754 60.7246 270.069 59.616 273.079 57.3299C273.982 56.6461 274.786 55.8519 275.493 54.9584L275.658 59.5857H283.196V32.1777C283.196 27.9613 281.974 24.0868 278.644 21.274ZM258.898 41.5922C260.863 40.5057 263.507 40.2079 266.184 40.2079C268.945 40.2079 272.716 40.252 275.39 40.8752V44.8517C275.39 47.4025 273.879 49.7741 271.945 51.3845C269.758 53.2046 266.952 54.2332 264.087 54.2332C259.549 54.2332 255.669 52.5455 255.666 47.6452C255.666 44.5236 256.953 42.6677 258.898 41.5922Z" fill="#161626"/>
<path d="M182.806 36.6803C182.806 40.0611 180.042 42.8022 176.63 42.8022C173.221 42.7994 170.455 40.0611 170.455 36.6803C170.455 35.4256 170.839 34.2563 171.495 33.2856L168.319 28.0076C167.082 29.1906 166.129 30.5087 165.468 32.0943C164.251 34.9954 164.251 38.3293 165.468 41.2303C166.054 42.6312 166.928 43.9438 168.077 45.0745L176.669 53.5183C179.518 50.7055 182.388 47.9148 185.225 45.091C186.377 43.9576 187.246 42.6423 187.835 41.2359C189.049 38.3376 189.049 35.0064 187.832 32.1081C186.655 29.2926 184.378 27.0093 181.553 25.7794C180.238 25.2141 178.845 24.8804 177.438 24.7894L173.272 17.8705C176.891 17.2418 180.684 17.6499 184.081 19.026C188.827 20.9453 192.64 24.7094 194.591 29.3781C196.531 34.0219 196.528 39.3552 194.585 43.9962C193.646 46.2437 192.25 48.3478 190.403 50.1678L176.675 63.6829L162.925 50.1733C161.072 48.3533 159.67 46.2465 158.726 43.9962C156.772 39.3441 156.766 33.9943 158.715 29.3395C159.965 26.353 161.978 23.7277 164.54 21.7257L163.309 19.6823L156.836 18.0443L151.367 8.96066C154.563 9.76864 157.761 10.5766 160.957 11.3819C161.7 8.13062 162.426 4.87662 163.161 1.61987L168.812 11.0068L167.444 17.0956L175.601 30.6466C179.377 30.0151 182.806 32.9051 182.806 36.6803Z" fill="#E13232"/>
<path d="M99.3468 18.6164L99.5347 22.9045C101.242 20.9659 103.274 19.6919 105.497 18.8591C107.925 17.9463 110.507 17.5796 113.086 17.4031V24.8349C110.03 24.9755 107.075 25.6787 104.572 27.4767C102.442 29.0099 100.807 31.2408 99.8262 34.2549L99.7954 59.5451H91.5117V18.6164H99.3468Z" fill="#161626"/>
</svg>
