<svg xmlns="http://www.w3.org/2000/svg" width="138.432" height="41.103" viewBox="0 0 138.432 41.103"><defs><style>.a{fill:#64bae8;}.a,.b,.c{fill-rule:evenodd;}.b{fill:#059fdb;}.c{fill:#34485d;}</style></defs><g transform="translate(-196.525 -354.33)"><g transform="translate(298.705 356.471)"><path class="a" d="M621.507,394.087l7.35-4.243V365.52l-7.35-4.247Z" transform="translate(-592.605 -361.273)"/><path class="b" d="M527.8,389.844l7.349,4.248V361.273l-7.349,4.243Z" transform="translate(-527.804 -361.273)"/><path class="a" d="M527.8,426.468l12.73,7.266,10.718.041,2.157,7.307h-14.96L527.8,434.931Z" transform="translate(-527.804 -406.359)"/><path class="b" d="M587.924,426.468l-25.606,14.615h14.96l10.646-6.152Z" transform="translate(-551.673 -406.359)"/></g><path class="c" d="M225.984,391.2l-.1-.139-11.562-16.924h3.653a8.862,8.862,0,0,0,5.846-1.685,6.644,6.644,0,0,0,0-9.506,8.959,8.959,0,0,0-5.846-1.659h-6.952V375.4l-4.284-6.116L202.5,375.4V354.33h15.958a20.479,20.479,0,0,1,8.505,1.633,12.636,12.636,0,0,1,5.556,4.635,12.766,12.766,0,0,1,1.949,7.11,12.009,12.009,0,0,1-7.584,11.639l8.269,11.849Zm40.838-14.061q0,.158-.158,2.212H245.23a6.675,6.675,0,0,0,2.738,4.161,9.072,9.072,0,0,0,5.372,1.527,10.875,10.875,0,0,0,3.923-.658,9.51,9.51,0,0,0,3.186-2.08l4.371,4.74q-4,4.582-11.692,4.582a18.489,18.489,0,0,1-8.479-1.87,13.7,13.7,0,0,1-5.688-5.187,14.294,14.294,0,0,1-2-7.531,14.477,14.477,0,0,1,1.975-7.5,13.835,13.835,0,0,1,5.424-5.214,16.8,16.8,0,0,1,15.247-.079,13.068,13.068,0,0,1,5.293,5.135,15.313,15.313,0,0,1,1.922,7.768Zm-14.694-8.479a7.075,7.075,0,0,0-4.687,1.58,6.726,6.726,0,0,0-2.317,4.318H259.08a6.792,6.792,0,0,0-2.317-4.292,6.926,6.926,0,0,0-4.635-1.606Zm46.209-5.793h-7.9l-8.11,19.275-7.847-19.275H266L277.9,391.2h8.479Z" transform="translate(-4.13 0)"/><g transform="translate(196.525 372.865)"><path class="b" d="M202.614,414.423l-4.289,6.473v6.035l-1.8,2.067v4.023l6.09-5.344.806-6.259Z" transform="translate(-196.525 -414.423)"/><path class="a" d="M216.268,414.423l4.29,6.473v6.035l1.8,2.067v4.023l-6.09-5.344Z" transform="translate(-210.178 -414.423)"/><path class="a" d="M210.818,461.785l-2.43,2.133,2.43,5.826.627-5.069Z" transform="translate(-204.729 -447.176)"/><path class="b" d="M216.268,461.785l2.43,2.133-2.43,5.826Z" transform="translate(-210.178 -447.176)"/></g></g></svg>