<svg xmlns="http://www.w3.org/2000/svg" xmlns:xlink="http://www.w3.org/1999/xlink" width="300" zoomAndPan="magnify" viewBox="0 0 224.87999 225" height="300" preserveAspectRatio="xMidYMid meet" version="1.0"><defs><g/></defs><g fill="#ffffff" fill-opacity="1"><g transform="translate(62.386626, 101.53244)"><g><path d="M 25.609375 -50.492188 L 3.96875 -50.492188 L 3.96875 0 L 25.609375 0 C 41.476562 0 52.296875 -10.386719 52.296875 -25.246094 C 52.296875 -40.25 41.476562 -50.492188 25.609375 -50.492188 Z M 24.453125 -15.148438 L 20.847656 -15.148438 L 20.847656 -35.34375 L 24.453125 -35.34375 C 31.019531 -35.34375 35.128906 -31.449219 35.128906 -25.246094 C 35.128906 -19.042969 31.019531 -15.148438 24.453125 -15.148438 Z M 24.453125 -15.148438 "/></g></g></g><g fill="#ffffff" fill-opacity="1"><g transform="translate(116.336593, 101.53244)"><g><path d="M 45.15625 -50.492188 L 1.011719 -50.492188 L 1.011719 -35.851562 L 14.644531 -35.851562 L 14.644531 0 L 31.523438 0 L 31.523438 -35.851562 L 45.15625 -35.851562 Z M 45.15625 -50.492188 "/></g></g></g><g fill="#ffffff" fill-opacity="1"><g transform="translate(63.33241, 160.068183)"><g><path d="M 32.429688 -46.136719 L 32.429688 -25.246094 L 16.609375 -46.136719 L 3.625 -46.136719 L 3.625 0 L 18.257812 0 L 18.257812 -21.75 L 34.539062 0 L 47.0625 0 L 47.0625 -46.136719 Z M 32.429688 -46.136719 "/></g></g></g><g fill="#ffffff" fill-opacity="1"><g transform="translate(114.014292, 160.068183)"><g><path d="M 47.65625 -46.136719 L 29.988281 -46.136719 L 23.792969 -31.835938 L 17.597656 -46.136719 L -0.0664062 -46.136719 L 16.015625 -17.136719 L 16.015625 0 L 31.507812 0 L 31.507812 -17.203125 Z M 47.65625 -46.136719 "/></g></g></g></svg>